<svg xmlns="http://www.w3.org/2000/svg" viewBox="0 0 122 36" class="fill-black w-28 dark:fill-white">
<path d="M117.513.915c2.077 0 3.768 1.649 3.768 3.674v26.25c0 2.026-1.691 3.674-3.768 3.674H5.333c-2.077 0-3.768-1.648-3.768-3.674V4.59c0-2.025 1.69-3.674 3.768-3.674zm0-.7H5.333C2.866.214.846 2.184.846 4.588v26.25c0 2.406 2.02 4.375 4.487 4.375h112.18c2.467 0 4.487-1.97 4.487-4.375V4.59c0-2.405-2.02-4.375-4.487-4.375"></path>
<path d="M27.884 17.525c-.026-2.82 2.368-4.192 2.478-4.256-1.356-1.927-3.458-2.19-4.196-2.212-1.766-.18-3.478 1.03-4.377 1.03-.918 0-2.302-1.012-3.795-.982-1.92.028-3.717 1.113-4.702 2.796-2.034 3.433-.517 8.477 1.431 11.252.975 1.359 2.114 2.876 3.604 2.823 1.459-.06 2.003-.907 3.763-.907 1.744 0 2.256.907 3.776.872 1.565-.024 2.55-1.365 3.49-2.736 1.127-1.557 1.58-3.091 1.597-3.17-.037-.012-3.04-1.13-3.069-4.51M25.012 9.232c.785-.956 1.321-2.257 1.172-3.578-1.135.05-2.555.766-3.372 1.701-.724.825-1.37 2.176-1.203 3.446 1.275.093 2.585-.627 3.403-1.569M44.865 8.972q0 1.545-.95 2.326-.878.72-2.497.721-.801 0-1.376-.068V6.324q.75-.12 1.62-.12 1.542 0 2.325.654.878.739.878 2.114m-.991.026q0-1.002-.544-1.537t-1.59-.535q-.444 0-.757.06v4.278q.174.025.635.025 1.08 0 1.667-.585.588-.586.589-1.706M50.123 9.872q0 .95-.557 1.561-.584.63-1.55.629-.93 0-1.484-.603-.552-.603-.552-1.52 0-.958.57-1.569.57-.61 1.536-.61.931 0 1.498.601.54.586.54 1.51m-.975.03q0-.572-.252-.98-.297-.493-.844-.493-.567 0-.862.493-.253.408-.252.996 0 .57.252.979.304.493.853.493.54 0 .844-.502.26-.415.26-.987M57.174 7.843l-1.324 4.125h-.862l-.548-1.791q-.208-.671-.34-1.333h-.017a9.6 9.6 0 0 1-.34 1.333l-.583 1.791h-.871l-1.245-4.125h.967l.478 1.961q.173.697.287 1.324h.017q.105-.518.35-1.315l.6-1.969h.766l.575 1.927q.21.705.34 1.358h.026q.095-.637.287-1.358l.513-1.927h.924M62.05 11.968h-.941V9.606q0-1.092-.853-1.092-.417 0-.679.3-.26.3-.261.707v2.446h-.94V9.022q0-.543-.035-1.18h.827l.044.645h.026q.166-.3.487-.498a1.6 1.6 0 0 1 .853-.232q.592 0 .984.373.487.46.487 1.367zM64.643 11.968h-.94V5.951h.94zM70.18 9.872q0 .95-.557 1.561-.585.63-1.55.629-.933 0-1.484-.603-.552-.603-.552-1.52 0-.958.57-1.569.57-.61 1.535-.61.932 0 1.499.601.54.586.54 1.51m-.976.03q0-.572-.252-.98-.296-.493-.843-.493a.95.95 0 0 0-.862.493q-.254.408-.253.996 0 .57.252.979.305.493.854.493.538 0 .843-.502.261-.415.26-.987M74.732 11.968h-.844l-.07-.475h-.026q-.434.569-1.236.569-.6 0-.966-.374a1.16 1.16 0 0 1-.331-.84q-.001-.755.649-1.154.648-.399 1.824-.39v-.077q0-.816-.878-.815-.627 0-1.103.305l-.191-.602q.59-.356 1.45-.356 1.66 0 1.661 1.707v1.519q0 .618.061.983m-.976-1.418v-.636q-1.556-.026-1.556.832 0 .322.18.483a.67.67 0 0 0 .46.162q.31 0 .575-.191a.78.78 0 0 0 .34-.65M80.076 11.968h-.834l-.044-.662h-.026q-.401.756-1.359.756-.766 0-1.27-.586-.505-.586-.505-1.519 0-1.001.548-1.621a1.7 1.7 0 0 1 1.306-.578q.852 0 1.192.56h.018V5.951h.941v4.906q0 .602.033 1.111m-.974-1.74v-.687a1.3 1.3 0 0 0-.026-.289 1.04 1.04 0 0 0-.34-.556.94.94 0 0 0-.63-.224.97.97 0 0 0-.827.407q-.3.408-.301 1.044 0 .612.288.993a.98.98 0 0 0 .822.407.92.92 0 0 0 .744-.34q.27-.312.27-.754M88.12 9.872q0 .95-.557 1.561-.584.63-1.55.629-.93 0-1.485-.603-.552-.603-.552-1.52 0-.958.57-1.569.57-.61 1.538-.61.93 0 1.497.601.539.586.539 1.51m-.975.03q0-.572-.252-.98-.296-.493-.844-.493-.565 0-.863.493-.253.408-.252.996 0 .57.252.979.306.493.854.493.539 0 .844-.502.26-.415.261-.987M93.177 11.968h-.94V9.606q.001-1.092-.853-1.092-.419 0-.678.3-.262.3-.262.707v2.446h-.941V9.022q0-.543-.033-1.18h.825l.044.645h.026q.166-.3.488-.498.383-.231.853-.232.592 0 .984.373.488.46.487 1.367zM99.507 8.53H98.47v2.004q.001.764.548.764.255 0 .42-.043l.024.695q-.28.103-.73.103-.557 0-.87-.331-.315-.33-.315-1.112V8.53h-.618v-.687h.618v-.756l.922-.271v1.026h1.036v.688M104.486 11.968h-.942V9.623q0-1.11-.851-1.11-.654 0-.898.644-.043.135-.044.33v2.48h-.939V5.951h.939v2.486h.018q.445-.68 1.271-.679.584 0 .967.374.479.466.479 1.383zM109.622 9.71q-.001.247-.035.416h-2.821q.018.612.408.934.358.288.924.289.626 0 1.14-.196l.148.637q-.602.255-1.42.255-.983 0-1.545-.564-.562-.565-.561-1.515 0-.933.523-1.553.546-.662 1.479-.662.913 0 1.383.662.377.525.377 1.298m-.898-.237a1.2 1.2 0 0 0-.182-.704q-.244-.382-.748-.382a.9.9 0 0 0-.749.373 1.37 1.37 0 0 0-.279.713zM48.99 27.78H46.95l-1.116-3.42h-3.88l-1.064 3.42h-1.985l3.845-11.644h2.375zm-3.492-4.855-1.01-3.04q-.159-.467-.602-2.194h-.036a83 83 0 0 1-.567 2.193l-.992 3.04zM58.876 23.479q0 2.142-1.187 3.385-1.065 1.107-2.64 1.106-1.702 0-2.446-1.192h-.036v4.424h-1.913v-9.054q0-1.347-.071-2.764h1.683l.106 1.33h.036q.957-1.503 2.906-1.503 1.524 0 2.543 1.175t1.02 3.093m-1.95.068q0-1.225-.566-2.021-.622-.83-1.666-.83a2.02 2.02 0 0 0-1.284.458 2.1 2.1 0 0 0-.753 1.201q-.09.346-.089.57v1.4q0 .915.576 1.546.576.63 1.497.63 1.08 0 1.683-.811.603-.813.603-2.143M68.781 23.479q0 2.142-1.188 3.385-1.063 1.107-2.64 1.106-1.701 0-2.444-1.192h-.036v4.424H60.56v-9.054q-.001-1.347-.071-2.764h1.683l.106 1.33h.036q.956-1.503 2.906-1.503 1.523 0 2.543 1.175 1.017 1.175 1.018 3.093m-1.95.068q0-1.225-.567-2.021-.62-.83-1.665-.83-.709.001-1.285.458a2.1 2.1 0 0 0-.752 1.201q-.088.346-.089.57v1.4q0 .915.574 1.546.577.63 1.5.63 1.08 0 1.682-.811.603-.813.603-2.143M79.856 24.515q0 1.485-1.061 2.418-1.167 1.02-3.254 1.02-1.926 0-3.095-.726l.444-1.554q1.26.743 2.766.743 1.08 0 1.684-.476.601-.476.601-1.272 0-.708-.496-1.193-.495-.485-1.648-.9-3.135-1.142-3.135-3.34 0-1.436 1.099-2.353 1.095-.917 2.924-.917 1.63 0 2.71.553l-.478 1.521q-1.009-.535-2.286-.535-1.01 0-1.576.483a1.37 1.37 0 0 0-.478 1.055q0 .69.548 1.14.478.415 1.737.899 1.541.605 2.268 1.415t.726 2.019M86.182 20.784h-2.11v4.077q0 1.555 1.117 1.555.513 0 .85-.087l.053 1.417q-.566.206-1.488.206-1.133 0-1.773-.674-.637-.675-.638-2.263v-4.233h-1.256v-1.4h1.256v-1.537l1.88-.553v2.09h2.109zM95.697 23.513q0 1.935-1.134 3.179-1.19 1.279-3.156 1.278-1.895 0-3.02-1.226-1.125-1.227-1.125-3.092 0-1.952 1.16-3.195 1.16-1.245 3.127-1.245 1.896 0 3.048 1.227 1.1 1.19 1.1 3.074m-1.985.06q0-1.161-.513-1.992-.603-1.005-1.718-1.005-1.154 0-1.755 1.005-.514.832-.513 2.027 0 1.162.513 1.992.62 1.004 1.738 1.004 1.096 0 1.718-1.022.529-.847.53-2.009M101.916 21.024a3.4 3.4 0 0 0-.603-.051q-1.01 0-1.56.744-.477.656-.478 1.658v4.405h-1.912l.018-5.752q0-1.452-.072-2.643h1.666l.07 1.606h.053q.302-.828.957-1.33.639-.45 1.383-.45.265.001.478.035zM110.473 23.185q.001.501-.07.846h-5.74q.034 1.245.833 1.901.725.588 1.878.588 1.275 0 2.322-.398l.3 1.295q-1.222.52-2.887.52-2.003 0-3.147-1.15-1.142-1.148-1.142-3.083 0-1.899 1.064-3.162 1.115-1.346 3.011-1.346 1.862 0 2.819 1.346.758 1.072.759 2.643m-1.824-.484q.018-.829-.372-1.434-.497-.778-1.524-.778-.94 0-1.523.76-.478.606-.567 1.451z"></path>
</svg>