<svg xmlns="http://www.w3.org/2000/svg" viewBox="0 0 122 36" class="fill-black w-28 dark:fill-white">
<path d="M117.359.915c2.077 0 3.768 1.649 3.768 3.674v26.25c0 2.026-1.691 3.674-3.768 3.674H5.179c-2.077 0-3.768-1.648-3.768-3.674V4.59c0-2.025 1.69-3.674 3.768-3.674zm0-.7H5.179C2.713.214.692 2.184.692 4.588v26.25c0 2.406 2.02 4.375 4.487 4.375h112.18c2.467 0 4.487-1.97 4.487-4.375V4.59c0-2.405-2.02-4.375-4.487-4.375"></path><path fill="url(#googleplay_svg__a)" d="M10.057 6.811c-.264.27-.416.688-.416 1.23v19.351c0 .543.152.962.416 1.23l.065.06 11.122-10.84v-.255L10.122 6.747z"></path><path fill="url(#googleplay_svg__b)" d="m24.947 21.458-3.703-3.615v-.256l3.707-3.615.083.047 4.39 2.436c1.254.691 1.254 1.829 0 2.524l-4.39 2.432z"></path><path fill="url(#googleplay_svg__c)" d="m25.034 21.41-3.79-3.695-11.187 10.907c.416.427 1.095.478 1.867.052z"></path><path fill="url(#googleplay_svg__d)" d="m25.034 14.019-13.11-7.264c-.772-.422-1.45-.37-1.867.056l11.187 10.903z"></path><path d="M43.246 9.178q-.001 1.096-.666 1.752-.763.776-1.981.777-1.164-.001-1.98-.786c-.544-.53-.816-1.179-.816-1.957q0-1.165.816-1.952.816-.79 1.98-.79c.386 0 .754.077 1.105.221.35.146.635.343.841.585l-.469.462q-.538-.621-1.477-.62-.848 0-1.472.582-.618.584-.618 1.512 0 .932.618 1.517c.416.384.907.581 1.472.581.6 0 1.105-.197 1.503-.585q.393-.385.451-1.064H40.6V8.78h2.607c.031.136.04.269.04.397M47.383 6.986h-2.45v1.663h2.208v.632h-2.207v1.662h2.449v.644H44.24V6.342h3.142zM50.301 11.587h-.693V6.986h-1.502v-.644h3.699v.644H50.3zM54.481 11.587V6.342h.692v5.245zM58.241 11.587h-.687V6.986h-1.508v-.644h3.703v.644h-1.508zM66.751 10.912q-.796.795-1.972.795-1.181 0-1.976-.795t-.793-1.948q-.001-1.153.793-1.948.795-.795 1.976-.795 1.17-.001 1.968.8c.534.533.797 1.179.797 1.943q.001 1.155-.793 1.948m-3.436-.44c.4.393.885.59 1.464.59.575 0 1.065-.197 1.46-.59q.599-.589.6-1.508-.001-.918-.6-1.508a2 2 0 0 0-1.46-.59c-.579 0-1.064.197-1.464.59q-.599.59-.6 1.508.001.919.6 1.509M68.517 11.587V6.342h.841l2.617 4.08h.03l-.03-1.009V6.342h.692v5.245h-.723l-2.74-4.28h-.03l.03 1.012v3.268zM61.84 19.248c-2.109 0-3.83 1.564-3.83 3.722 0 2.14 1.721 3.72 3.83 3.72 2.111 0 3.833-1.58 3.833-3.72 0-2.158-1.722-3.722-3.834-3.722m0 5.977c-1.158 0-2.153-.93-2.153-2.255 0-1.342.995-2.256 2.152-2.256s2.156.914 2.156 2.256c0 1.324-1 2.255-2.156 2.255m-8.357-5.977c-2.112 0-3.83 1.564-3.83 3.722 0 2.14 1.718 3.72 3.83 3.72s3.83-1.58 3.83-3.72c0-2.158-1.719-3.722-3.83-3.722m0 5.977c-1.158 0-2.156-.93-2.156-2.255 0-1.342.998-2.256 2.156-2.256 1.156 0 2.151.914 2.151 2.256 0 1.324-.995 2.255-2.151 2.255m-9.944-4.836v1.581h3.874c-.113.884-.416 1.534-.88 1.986-.566.547-1.447 1.154-2.994 1.154-2.384 0-4.25-1.875-4.25-4.2 0-2.324 1.866-4.2 4.25-4.2 1.29 0 2.227.491 2.92 1.128l1.142-1.114c-.968-.902-2.256-1.594-4.062-1.594-3.269 0-6.016 2.593-6.016 5.78s2.747 5.78 6.016 5.78c1.767 0 3.094-.564 4.137-1.622 1.07-1.043 1.403-2.508 1.403-3.692 0-.367-.032-.705-.088-.987zm40.66 1.226c-.314-.833-1.287-2.367-3.268-2.367-1.963 0-3.598 1.508-3.598 3.722 0 2.085 1.618 3.72 3.786 3.72a3.8 3.8 0 0 0 3.182-1.649l-1.302-.845c-.434.619-1.025 1.03-1.88 1.03-.849 0-1.458-.38-1.848-1.128l5.105-2.06zm-5.204 1.239a2.065 2.065 0 0 1 1.993-2.17c.666 0 1.232.325 1.42.79zm-4.15 3.61h1.678V15.527h-1.678zm-2.748-6.387h-.056c-.377-.435-1.096-.83-2.007-.83-1.912 0-3.66 1.637-3.66 3.735 0 2.086 1.748 3.709 3.66 3.709.91 0 1.63-.397 2.007-.846h.056v.534c0 1.423-.78 2.188-2.037 2.188-1.026 0-1.662-.722-1.924-1.33l-1.46.595c.42.986 1.535 2.2 3.384 2.2 1.967 0 3.627-1.128 3.627-3.875v-6.683h-1.59zm-1.92 5.148c-1.156 0-2.124-.944-2.124-2.243 0-1.311.968-2.268 2.124-2.268 1.14 0 2.039.957 2.039 2.268 0 1.3-.899 2.243-2.039 2.243m21.88-9.698h-4.014v10.937h1.674V22.32h2.34c1.859 0 3.682-1.311 3.682-3.397s-1.828-3.396-3.682-3.396m.044 5.272h-2.384v-3.75H92.1a1.92 1.92 0 0 1 1.963 1.874c0 .847-.714 1.876-1.963 1.876m10.346-1.572c-1.209 0-2.467.52-2.984 1.675l1.485.607c.32-.607.908-.804 1.529-.804.868 0 1.749.508 1.763 1.406v.115c-.303-.17-.952-.423-1.749-.423-1.6 0-3.23.858-3.23 2.46 0 1.466 1.31 2.41 2.783 2.41 1.126 0 1.748-.495 2.138-1.072h.058v.846h1.616V22.25c0-1.939-1.485-3.024-3.409-3.024m-.202 5.994c-.547 0-1.31-.265-1.31-.927 0-.846.951-1.171 1.774-1.171.737 0 1.083.159 1.531.367-.132 1.013-1.026 1.73-1.995 1.73m9.5-5.754-1.923 4.741h-.058l-1.989-4.741h-1.805l2.989 6.626-1.705 3.687h1.749l4.605-10.313zm-15.087 6.997h1.679V15.527h-1.679z"></path><defs><linearGradient id="googleplay_svg__a" x1="20.256" x2="5.576" y1="27.594" y2="12.537" gradientUnits="userSpaceOnUse"><stop stop-color="#00A0FF"></stop><stop offset="0.007" stop-color="#00A1FF"></stop><stop offset="0.26" stop-color="#00BEFF"></stop><stop offset="0.512" stop-color="#00D2FF"></stop><stop offset="0.76" stop-color="#00DFFF"></stop><stop offset="1" stop-color="#00E3FF"></stop></linearGradient><linearGradient id="googleplay_svg__b" x1="31.056" x2="9.341" y1="17.713" y2="17.713" gradientUnits="userSpaceOnUse"><stop stop-color="#FFE000"></stop><stop offset="0.409" stop-color="#FFBD00"></stop><stop offset="0.775" stop-color="orange"></stop><stop offset="1" stop-color="#FF9C00"></stop></linearGradient><linearGradient id="googleplay_svg__c" x1="22.973" x2="3.066" y1="15.705" y2="-4.712" gradientUnits="userSpaceOnUse"><stop stop-color="#FF3A44"></stop><stop offset="1" stop-color="#C31162"></stop></linearGradient><linearGradient id="googleplay_svg__d" x1="7.241" x2="16.131" y1="35.06" y2="25.943" gradientUnits="userSpaceOnUse"><stop stop-color="#32A071"></stop><stop offset="0.069" stop-color="#2DA771"></stop><stop offset="0.476" stop-color="#15CF74"></stop><stop offset="0.801" stop-color="#06E775"></stop><stop offset="1" stop-color="#00F076"></stop></linearGradient></defs>
</svg>