<svg viewBox="0 0 122 36" xmlns="http://www.w3.org/2000/svg">
<path d="M117.513 0.915447C119.59 0.915447 121.281 2.56373 121.281 4.58936V30.8394C121.281 32.865 119.59 34.5133 117.513 34.5133H5.33331C3.25575 34.5133 1.5652 32.865 1.5652 30.8394V4.58936C1.5652 2.56373 3.25575 0.915447 5.33331 0.915447H117.513ZM117.513 0.214355H5.33331C2.86648 0.214355 0.84613 2.1842 0.84613 4.58936V30.8394C0.84613 33.2445 2.86648 35.2144 5.33331 35.2144H117.513C119.98 35.2144 122 33.2445 122 30.8394V4.58936C122 2.1842 119.98 0.214355 117.513 0.214355Z" />
<path d="M27.8841 17.5254C27.8581 14.7053 30.2524 13.3333 30.3619 13.2694C29.0059 11.3418 26.9041 11.0784 26.1655 11.0574C24.4002 10.8763 22.6879 12.0873 21.7887 12.0873C20.8715 12.0873 19.4868 11.0749 17.9943 11.1047C16.0738 11.1335 14.2772 12.2177 13.2918 13.9012C11.2582 17.3338 12.7749 22.3782 14.7232 25.1528C15.6978 26.5117 16.8366 28.0289 18.3273 27.9755C19.7856 27.9169 20.3304 27.069 22.0902 27.069C23.834 27.069 24.3455 27.9755 25.8658 27.9414C27.4309 27.9169 28.4163 26.5764 29.3568 25.2053C30.4831 23.6478 30.9354 22.1139 30.9533 22.0352C30.9165 22.0229 27.9137 20.9055 27.8841 17.5254Z" />
<path d="M25.0123 9.23217C25.7966 8.2758 26.3333 6.97467 26.1843 5.6543C25.0491 5.7033 23.6293 6.41992 22.8118 7.3553C22.0884 8.17955 21.4423 9.53055 21.6092 10.801C22.8845 10.8938 24.1938 10.1737 25.0123 9.23217Z" />
<path d="M44.8654 8.97222C44.8654 10.0021 44.5486 10.7773 43.9159 11.298C43.3299 11.7783 42.497 12.019 41.4183 12.019C40.8834 12.019 40.4257 11.9962 40.0425 11.9507V6.32359C40.5424 6.24484 41.0809 6.20459 41.6624 6.20459C42.69 6.20459 43.4645 6.42246 43.9868 6.85821C44.5719 7.35084 44.8654 8.05521 44.8654 8.97222ZM43.8737 8.99759C43.8737 8.32997 43.6924 7.81809 43.3299 7.46109C42.9673 7.10496 42.4378 6.92646 41.7405 6.92646C41.4443 6.92646 41.1922 6.94571 40.9831 6.98596V11.2638C41.0988 11.2813 41.3106 11.2892 41.6184 11.2892C42.3382 11.2892 42.8937 11.0941 43.285 10.7038C43.6763 10.3136 43.8737 9.74484 43.8737 8.99759Z" />
<path d="M50.1234 9.87153C50.1234 10.5059 49.9377 11.0257 49.5661 11.4334C49.1766 11.8525 48.6606 12.0617 48.0163 12.0617C47.3952 12.0617 46.9008 11.8613 46.5319 11.4588C46.164 11.0572 45.98 10.5505 45.98 9.93978C45.98 9.30103 46.1693 8.7769 46.5499 8.37003C46.9304 7.96315 47.4419 7.75928 48.0863 7.75928C48.7073 7.75928 49.2063 7.95965 49.5841 8.36128C49.9431 8.75153 50.1234 9.25553 50.1234 9.87153ZM49.1479 9.90128C49.1479 9.52065 49.0636 9.19428 48.8958 8.92215C48.6983 8.59315 48.4174 8.42865 48.0522 8.42865C47.6743 8.42865 47.3872 8.59315 47.1897 8.92215C47.021 9.19428 46.9375 9.5259 46.9375 9.9179C46.9375 10.2985 47.0219 10.6249 47.1897 10.897C47.3934 11.226 47.677 11.3905 48.0432 11.3905C48.4022 11.3905 48.684 11.2234 48.8868 10.8883C49.0609 10.6109 49.1479 10.2819 49.1479 9.90128Z" />
<path d="M57.1737 7.84326L55.85 11.968H54.9884L54.4401 10.1769C54.301 9.72976 54.1879 9.28526 54.1 8.84426H54.0829C54.0012 9.29751 53.8882 9.74114 53.7428 10.1769L53.1603 11.968H52.2889L51.0442 7.84326H52.0107L52.4891 9.80414C52.6048 10.2679 52.7 10.7098 52.7762 11.128H52.7933C52.8633 10.7833 52.9791 10.344 53.1424 9.81289L53.7428 7.84414H54.5092L55.0844 9.77089C55.2235 10.2408 55.3366 10.6931 55.4237 11.1289H55.4497C55.5134 10.7045 55.6094 10.2521 55.7369 9.77089L56.2502 7.84414H57.1737V7.84326Z" />
<path d="M62.0494 11.9682H61.1089V9.60571C61.1089 8.87771 60.8253 8.51371 60.2564 8.51371C59.9773 8.51371 59.752 8.61346 59.577 8.81384C59.4038 9.01421 59.3159 9.25046 59.3159 9.52084V11.9673H58.3753V9.02209C58.3753 8.65984 58.3637 8.26696 58.3412 7.84171H59.1678L59.2118 8.48659H59.2378C59.3473 8.28621 59.5106 8.12084 59.7251 7.98871C59.98 7.83471 60.2653 7.75684 60.5777 7.75684C60.9725 7.75684 61.301 7.88109 61.5621 8.13046C61.887 8.43584 62.0494 8.89171 62.0494 9.49721V11.9682Z" />
<path d="M64.643 11.9681H63.7034V5.95068H64.643V11.9681Z" />
<path d="M70.1803 9.87153C70.1803 10.5059 69.9945 11.0257 69.623 11.4334C69.2335 11.8525 68.7166 12.0617 68.0731 12.0617C67.4512 12.0617 66.9567 11.8613 66.5887 11.4588C66.2208 11.0572 66.0368 10.5505 66.0368 9.93978C66.0368 9.30103 66.2262 8.7769 66.6067 8.37003C66.9872 7.96315 67.4987 7.75928 68.1422 7.75928C68.7641 7.75928 69.2622 7.95965 69.6409 8.36128C69.9999 8.75153 70.1803 9.25553 70.1803 9.87153ZM69.2039 9.90128C69.2039 9.52065 69.1195 9.19428 68.9517 8.92215C68.7551 8.59315 68.4733 8.42865 68.109 8.42865C67.7303 8.42865 67.4431 8.59315 67.2465 8.92215C67.0778 9.19428 66.9944 9.5259 66.9944 9.9179C66.9944 10.2985 67.0787 10.6249 67.2465 10.897C67.4503 11.226 67.7339 11.3905 68.1 11.3905C68.459 11.3905 68.7399 11.2234 68.9427 10.8883C69.1177 10.6109 69.2039 10.2819 69.2039 9.90128Z" />
<path d="M74.732 11.968H73.8876L73.8176 11.4929H73.7915C73.5026 11.8718 73.0906 12.0617 72.5558 12.0617C72.1564 12.0617 71.8333 11.9365 71.5901 11.688C71.3694 11.4623 71.259 11.1814 71.259 10.848C71.259 10.344 71.4744 9.9599 71.9078 9.6939C72.3404 9.4279 72.9488 9.29753 73.7323 9.30365V9.22665C73.7323 8.68328 73.4397 8.41203 72.8537 8.41203C72.4364 8.41203 72.0685 8.5144 71.7508 8.7174L71.5596 8.1154C71.9527 7.87828 72.4382 7.75928 73.0108 7.75928C74.1164 7.75928 74.671 8.32803 74.671 9.46553V10.9845C74.671 11.3967 74.6917 11.7248 74.732 11.968ZM73.7556 10.5505V9.9144C72.7182 9.8969 72.1995 10.1743 72.1995 10.7457C72.1995 10.9609 72.2587 11.1219 72.3799 11.2295C72.501 11.3372 72.6554 11.3905 72.8394 11.3905C73.0458 11.3905 73.2387 11.3267 73.4146 11.1998C73.5914 11.072 73.7 10.9102 73.7404 10.7115C73.7503 10.6669 73.7556 10.6127 73.7556 10.5505Z" />
<path d="M80.0763 11.9681H79.2417L79.1977 11.3057H79.1717C78.9051 11.8097 78.451 12.0617 77.813 12.0617C77.3032 12.0617 76.8787 11.8666 76.5422 11.4763C76.2057 11.0861 76.0378 10.5794 76.0378 9.95731C76.0378 9.28968 76.22 8.74893 76.5862 8.33593C76.9407 7.95093 77.375 7.75843 77.8919 7.75843C78.46 7.75843 78.8576 7.94481 79.0837 8.31843H79.1017V5.95068H80.0431V10.8568C80.0431 11.2584 80.0539 11.6286 80.0763 11.9681ZM79.1017 10.2286V9.54081C79.1017 9.42181 79.0927 9.32556 79.0757 9.25206C79.0227 9.03156 78.9087 8.84606 78.7355 8.69643C78.5605 8.54681 78.3496 8.47156 78.1064 8.47156C77.7555 8.47156 77.4809 8.60718 77.279 8.87931C77.0789 9.15143 76.9775 9.49881 76.9775 9.92318C76.9775 10.3309 77.0735 10.6617 77.2664 10.9163C77.4701 11.1876 77.7448 11.3232 78.0885 11.3232C78.3972 11.3232 78.644 11.2103 78.8316 10.9837C79.0128 10.7746 79.1017 10.5226 79.1017 10.2286Z" />
<path d="M88.12 9.87153C88.12 10.5059 87.9342 11.0257 87.5627 11.4334C87.1732 11.8525 86.658 12.0617 86.0128 12.0617C85.3927 12.0617 84.8982 11.8613 84.5284 11.4588C84.1605 11.0572 83.9765 10.5505 83.9765 9.93978C83.9765 9.30103 84.1659 8.7769 84.5464 8.37003C84.9269 7.96315 85.4384 7.75928 86.0837 7.75928C86.7038 7.75928 87.2037 7.95965 87.5806 8.36128C87.9396 8.75153 88.12 9.25553 88.12 9.87153ZM87.1454 9.90128C87.1454 9.52065 87.061 9.19428 86.8932 8.92215C86.6948 8.59315 86.4148 8.42865 86.0487 8.42865C85.6718 8.42865 85.3846 8.59315 85.1862 8.92215C85.0175 9.19428 84.9341 9.5259 84.9341 9.9179C84.9341 10.2985 85.0184 10.6249 85.1862 10.897C85.39 11.226 85.6736 11.3905 86.0397 11.3905C86.3987 11.3905 86.6814 11.2234 86.8842 10.8883C87.0574 10.6109 87.1454 10.2819 87.1454 9.90128Z" />
<path d="M93.177 11.9682H92.2374V9.60571C92.2374 8.87771 91.9538 8.51371 91.384 8.51371C91.1049 8.51371 90.8796 8.61346 90.7055 8.81384C90.5314 9.01421 90.4443 9.25046 90.4443 9.52084V11.9673H89.5029V9.02209C89.5029 8.65984 89.4922 8.26696 89.4697 7.84171H90.2954L90.3393 8.48659H90.3654C90.4758 8.28621 90.6391 8.12084 90.8527 7.98871C91.1084 7.83471 91.3929 7.75684 91.7061 7.75684C92.1001 7.75684 92.4286 7.88109 92.6897 8.13046C93.0155 8.43584 93.177 8.89171 93.177 9.49721V11.9682Z" />
<path d="M99.5066 8.53004H98.471V10.5338C98.471 11.043 98.655 11.2977 99.0193 11.2977C99.1881 11.2977 99.3281 11.2837 99.4384 11.2548L99.4627 11.9504C99.2769 12.0187 99.0328 12.0528 98.7322 12.0528C98.3606 12.0528 98.0716 11.9425 97.8625 11.722C97.6525 11.5015 97.5484 11.1305 97.5484 10.6099V8.53004H96.9301V7.84317H97.5484V7.08717L98.4701 6.81592V7.84229H99.5057V8.53004H99.5066Z" />
<path d="M104.486 11.9681H103.544V9.62306C103.544 8.88368 103.261 8.51356 102.693 8.51356C102.256 8.51356 101.958 8.72793 101.795 9.15668C101.767 9.24681 101.751 9.35706 101.751 9.48656V11.9672H100.812V5.95068H101.751V8.43656H101.769C102.065 7.98418 102.49 7.75843 103.04 7.75843C103.429 7.75843 103.752 7.88268 104.007 8.13206C104.326 8.44268 104.486 8.90468 104.486 9.51543V11.9681Z" />
<path d="M109.622 9.71059C109.622 9.87509 109.609 10.0133 109.587 10.1262H106.766C106.779 10.534 106.913 10.8446 107.174 11.0598C107.413 11.2523 107.721 11.3486 108.098 11.3486C108.515 11.3486 108.896 11.2838 109.238 11.1535L109.386 11.7905C108.984 11.9602 108.512 12.0451 107.966 12.0451C107.311 12.0451 106.795 11.857 106.421 11.4807C106.046 11.1045 105.86 10.5996 105.86 9.96609C105.86 9.34396 106.034 8.82596 106.383 8.41296C106.747 7.97196 107.24 7.75146 107.862 7.75146C108.47 7.75146 108.932 7.97196 109.245 8.41296C109.497 8.76296 109.622 9.19609 109.622 9.71059ZM108.724 9.47346C108.731 9.20134 108.669 8.96684 108.542 8.76909C108.379 8.51446 108.13 8.38671 107.794 8.38671C107.487 8.38671 107.236 8.51096 107.045 8.76034C106.889 8.95896 106.797 9.19609 106.766 9.47346H108.724Z" />
<path d="M48.9891 27.7802H46.951L45.8346 24.3599H41.9541L40.8906 27.7802H38.9064L42.751 16.1357H45.1256L48.9891 27.7802ZM45.498 22.9249L44.4884 19.8842C44.3816 19.5736 44.1815 18.8421 43.8862 17.6906H43.8503C43.7328 18.1859 43.5434 18.9174 43.2832 19.8842L42.2915 22.9249H45.498Z" />
<path d="M58.8761 23.4788C58.8761 24.9068 58.4803 26.0356 57.6888 26.8642C56.9798 27.6018 56.0994 27.9702 55.0485 27.9702C53.9142 27.9702 53.0993 27.5729 52.603 26.7784H52.5671V31.2016H50.6538V22.1479C50.6538 21.2502 50.6296 20.3288 50.5829 19.3838H52.2656L52.3724 20.7147H52.4083C53.0463 19.7119 54.0147 19.2114 55.3142 19.2114C56.3301 19.2114 57.1781 19.6025 57.8566 20.3857C58.5369 21.1697 58.8761 22.2004 58.8761 23.4788ZM56.9269 23.5471C56.9269 22.7298 56.7384 22.0561 56.3597 21.5258C55.946 20.9728 55.3904 20.6963 54.694 20.6963C54.222 20.6963 53.793 20.8503 53.4098 21.1539C53.0257 21.4602 52.7744 21.8601 52.6569 22.3553C52.5976 22.5863 52.568 22.7753 52.568 22.9241V24.3241C52.568 24.9348 52.7601 25.4502 53.1442 25.8711C53.5283 26.2919 54.0272 26.5019 54.6411 26.5019C55.3617 26.5019 55.9226 26.2307 56.3238 25.6899C56.7258 25.1483 56.9269 24.4343 56.9269 23.5471Z" />
<path d="M68.7811 23.4788C68.7811 24.9068 68.3854 26.0356 67.5929 26.8642C66.8849 27.6018 66.0045 27.9702 64.9536 27.9702C63.8192 27.9702 63.0043 27.5729 62.509 26.7784H62.4731V31.2016H60.5597V22.1479C60.5597 21.2502 60.5355 20.3288 60.4888 19.3838H62.1715L62.2783 20.7147H62.3142C62.9514 19.7119 63.9197 19.2114 65.2201 19.2114C66.2351 19.2114 67.0832 19.6025 67.7634 20.3857C68.441 21.1697 68.7811 22.2004 68.7811 23.4788ZM66.8319 23.5471C66.8319 22.7298 66.6425 22.0561 66.2638 21.5258C65.8501 20.9728 65.2964 20.6963 64.5991 20.6963C64.1261 20.6963 63.6981 20.8503 63.314 21.1539C62.9299 21.4602 62.6795 21.8601 62.5619 22.3553C62.5036 22.5863 62.4731 22.7753 62.4731 22.9241V24.3241C62.4731 24.9348 62.6651 25.4502 63.0474 25.8711C63.4315 26.2911 63.9305 26.5019 64.5461 26.5019C65.2668 26.5019 65.8277 26.2307 66.2288 25.6899C66.6309 25.1483 66.8319 24.4343 66.8319 23.5471Z" />
<path d="M79.8555 24.515C79.8555 25.5055 79.5028 26.3113 78.7947 26.9335C78.0166 27.6133 76.9334 27.9528 75.5415 27.9528C74.2564 27.9528 73.2261 27.7113 72.4462 27.2275L72.8896 25.6726C73.7296 26.1678 74.6512 26.4163 75.6555 26.4163C76.3761 26.4163 76.937 26.2571 77.3399 25.9403C77.7411 25.6236 77.9412 25.1983 77.9412 24.6681C77.9412 24.1956 77.7761 23.7975 77.4449 23.4746C77.1156 23.1517 76.5655 22.8516 75.7973 22.5742C73.7062 21.8138 72.6616 20.7 72.6616 19.2352C72.6616 18.278 73.0278 17.4931 73.761 16.8823C74.4915 16.2707 75.4661 15.9653 76.6848 15.9653C77.7716 15.9653 78.6744 16.15 79.3951 16.5183L78.9167 18.0391C78.2437 17.6821 77.4826 17.5036 76.631 17.5036C75.9579 17.5036 75.432 17.6655 75.0551 17.9875C74.7365 18.2753 74.5767 18.6262 74.5767 19.0418C74.5767 19.5021 74.7589 19.8827 75.1251 20.182C75.4437 20.4585 76.0225 20.7577 76.8625 21.0806C77.8901 21.484 78.6448 21.9556 79.1303 22.4963C79.6141 23.0353 79.8555 23.71 79.8555 24.515Z" />
<path d="M86.1815 20.7841H84.0725V24.8607C84.0725 25.8976 84.4441 26.4156 85.1889 26.4156C85.5309 26.4156 85.8144 26.3867 86.0388 26.329L86.0918 27.7456C85.7148 27.883 85.2186 27.9521 84.6038 27.9521C83.8482 27.9521 83.2577 27.7272 82.8314 27.2784C82.4069 26.8286 82.1933 26.0744 82.1933 25.0147V20.7824H80.9369V19.3824H82.1933V17.845L84.0725 17.292V19.3824H86.1815V20.7841Z" />
<path d="M95.697 23.513C95.697 24.8037 95.3183 25.8633 94.5627 26.6919C93.7702 27.545 92.7184 27.9703 91.4073 27.9703C90.1437 27.9703 89.1377 27.5617 88.3874 26.7444C87.6371 25.9272 87.262 24.8955 87.262 23.6522C87.262 22.351 87.6479 21.2853 88.4224 20.4567C89.1951 19.6272 90.2379 19.2124 91.5491 19.2124C92.8127 19.2124 93.8295 19.621 94.5968 20.4392C95.3309 21.2328 95.697 22.2574 95.697 23.513ZM93.7119 23.5734C93.7119 22.799 93.5423 22.1349 93.1986 21.581C92.7974 20.9108 92.2239 20.5765 91.4809 20.5765C90.7118 20.5765 90.1275 20.9117 89.7264 21.581C89.3827 22.1358 89.2131 22.8104 89.2131 23.6084C89.2131 24.3828 89.3827 25.0469 89.7264 25.5999C90.1401 26.2702 90.718 26.6044 91.4638 26.6044C92.1943 26.6044 92.7678 26.2632 93.1815 25.5824C93.5342 25.018 93.7119 24.3469 93.7119 23.5734Z" />
<path d="M101.916 21.0244C101.727 20.9903 101.525 20.9728 101.313 20.9728C100.64 20.9728 100.12 21.2204 99.7534 21.7165C99.4348 22.154 99.2751 22.7071 99.2751 23.3747V27.7803H97.3626L97.3806 22.0281C97.3806 21.0603 97.3563 20.1792 97.3088 19.3847H98.9753L99.0453 20.9912H99.0983C99.3002 20.4391 99.6188 19.9946 100.055 19.6612C100.481 19.3611 100.942 19.2114 101.438 19.2114C101.615 19.2114 101.774 19.2237 101.916 19.2456V21.0244Z" />
<path d="M110.473 23.1849C110.473 23.5192 110.451 23.8009 110.403 24.031H104.663C104.686 24.8605 104.963 25.4949 105.496 25.9324C105.98 26.3236 106.605 26.5195 107.374 26.5195C108.223 26.5195 108.999 26.3874 109.696 26.1223L109.996 27.4173C109.181 27.7638 108.219 27.9362 107.109 27.9362C105.773 27.9362 104.725 27.5529 103.962 26.7873C103.201 26.0217 102.82 24.9935 102.82 23.7038C102.82 22.4377 103.174 21.3833 103.884 20.5424C104.627 19.6447 105.632 19.1958 106.895 19.1958C108.136 19.1958 109.076 19.6447 109.714 20.5424C110.219 21.2556 110.473 22.1376 110.473 23.1849ZM108.649 22.701C108.661 22.148 108.537 21.6703 108.277 21.2669C107.946 20.748 107.437 20.489 106.753 20.489C106.127 20.489 105.618 20.7419 105.23 21.2494C104.911 21.6528 104.722 22.1367 104.663 22.7002H108.649V22.701Z" />
</svg>
