<svg width="150" height="43" viewBox="0 0 150 43" fill="none" xmlns="http://www.w3.org/2000/svg">
<path d="M148.481 38.0408C148.481 40.3323 146.586 42.1885 144.243 42.1885H5.53319C3.19057 42.1885 1.28906 40.3323 1.28906 38.0408V4.96427C1.28906 2.67383 3.19057 0.811157 5.53319 0.811157H144.242C146.586 0.811157 148.48 2.67383 148.48 4.96427L148.481 38.0408Z" fill="black"/>
<path d="M143.794 0.861347C146.347 0.861347 148.424 2.88638 148.424 5.375V37.625C148.424 40.1136 146.347 42.1387 143.794 42.1387H5.97376C3.42132 42.1387 1.34437 40.1136 1.34437 37.625V5.375C1.34437 2.88638 3.42132 0.861347 5.97376 0.861347H143.794ZM143.794 4.63461e-06H5.97376C2.94308 4.63461e-06 0.460938 2.4201 0.460938 5.375V37.625C0.460938 40.5799 2.94308 43 5.97376 43H143.794C146.825 43 149.307 40.5799 149.307 37.625V5.375C149.307 2.4201 146.825 4.63461e-06 143.794 4.63461e-06Z" fill="#A6A6A6"/>
<path d="M33.6806 21.2679C33.6486 17.8031 36.5902 16.1175 36.7247 16.0391C35.0588 13.6708 32.4766 13.3473 31.5692 13.3215C29.4004 13.0989 27.2967 14.5867 26.1919 14.5867C25.0651 14.5867 23.3639 13.343 21.5303 13.3795C19.1708 13.415 16.9635 14.7469 15.7529 16.8152C13.2545 21.0324 15.1178 27.2298 17.5115 30.6386C18.7088 32.3081 20.108 34.1722 21.9394 34.1066C23.731 34.0346 24.4003 32.9929 26.5624 32.9929C28.7047 32.9929 29.3332 34.1066 31.2009 34.0647C33.1238 34.0346 34.3344 32.3877 35.4899 30.7031C36.8736 28.7896 37.4293 26.9052 37.4513 26.8084C37.4061 26.7934 33.7169 25.4206 33.6806 21.2679Z" fill="white"/>
<path d="M30.1524 11.079C31.116 9.90405 31.7753 8.30552 31.5923 6.68335C30.1976 6.74355 28.4533 7.62397 27.4489 8.77315C26.5602 9.7858 25.7664 11.4456 25.9714 13.0065C27.5382 13.1204 29.1468 12.2357 30.1524 11.079Z" fill="white"/>
<path d="M54.5424 10.7598C54.5424 12.0251 54.1532 12.9776 53.3759 13.6172C52.6559 14.2074 51.6327 14.503 50.3074 14.503C49.6503 14.503 49.088 14.475 48.6172 14.4191V7.50582C49.2313 7.40907 49.8929 7.35962 50.6073 7.35962C51.8698 7.35962 52.8213 7.62729 53.463 8.16264C54.1818 8.76787 54.5424 9.63324 54.5424 10.7598ZM53.324 10.791C53.324 9.97079 53.1013 9.34192 52.6559 8.90332C52.2104 8.46579 51.5599 8.24649 50.7032 8.24649C50.3394 8.24649 50.0296 8.27014 49.7727 8.31959V13.5753C49.9149 13.5968 50.1751 13.6064 50.5533 13.6064C51.4375 13.6064 52.12 13.3667 52.6008 12.8873C53.0815 12.4078 53.324 11.7091 53.324 10.791Z" fill="white"/>
<path d="M61.0007 11.8648C61.0007 12.6442 60.7725 13.2827 60.316 13.7837C59.8375 14.2986 59.2035 14.5555 58.4119 14.5555C57.6489 14.5555 57.0414 14.3094 56.5882 13.8149C56.1362 13.3214 55.9102 12.699 55.9102 11.9487C55.9102 11.1639 56.1428 10.52 56.6103 10.0201C57.0778 9.52025 57.7062 9.26978 58.4979 9.26978C59.2609 9.26978 59.8739 9.51595 60.3381 10.0094C60.7791 10.4888 61.0007 11.108 61.0007 11.8648ZM59.8022 11.9014C59.8022 11.4337 59.6986 11.0328 59.4924 10.6984C59.2498 10.2942 58.9047 10.0921 58.456 10.0921C57.9918 10.0921 57.639 10.2942 57.3964 10.6984C57.1891 11.0328 57.0866 11.4402 57.0866 11.9218C57.0866 12.3894 57.1902 12.7904 57.3964 13.1247C57.6467 13.5289 57.9951 13.731 58.445 13.731C58.886 13.731 59.2322 13.5257 59.4814 13.114C59.6953 12.7732 59.8022 12.369 59.8022 11.9014Z" fill="white"/>
<path d="M69.6633 9.37317L68.037 14.4407H66.9786L66.3049 12.2402C66.134 11.6909 65.9951 11.1448 65.887 10.603H65.8661C65.7658 11.1598 65.6268 11.7048 65.4482 12.2402L64.7327 14.4407H63.6621L62.1328 9.37317H63.3203L63.9079 11.7822C64.0502 12.352 64.167 12.8949 64.2608 13.4087H64.2817C64.3677 12.9852 64.5099 12.4455 64.7106 11.793L65.4482 9.37424H66.3898L67.0966 11.7414C67.2674 12.3187 67.4064 12.8744 67.5133 13.4098H67.5453C67.6236 12.8884 67.7416 12.3326 67.8981 11.7414L68.5288 9.37424H69.6633V9.37317Z" fill="white"/>
<path d="M75.6534 14.4406H74.498V11.5381C74.498 10.6437 74.1495 10.1965 73.4505 10.1965C73.1076 10.1965 72.8309 10.319 72.6159 10.5652C72.4031 10.8114 72.295 11.1016 72.295 11.4338V14.4395H71.1395V10.8211C71.1395 10.376 71.1252 9.89333 71.0977 9.37088H72.1131L72.1671 10.1632H72.1991C72.3336 9.91698 72.5343 9.7138 72.7978 9.55148C73.1109 9.36228 73.4615 9.2666 73.8452 9.2666C74.3304 9.2666 74.7339 9.41925 75.0547 9.72563C75.4539 10.1008 75.6534 10.6609 75.6534 11.4048V14.4406V14.4406Z" fill="white"/>
<path d="M78.838 14.4406H77.6836V7.04785H78.838V14.4406Z" fill="white"/>
<path d="M85.6452 11.8648C85.6452 12.6442 85.417 13.2827 84.9605 13.7837C84.482 14.2986 83.8469 14.5555 83.0564 14.5555C82.2923 14.5555 81.6848 14.3094 81.2328 13.8149C80.7807 13.3214 80.5547 12.699 80.5547 11.9487C80.5547 11.1639 80.7873 10.52 81.2548 10.0201C81.7223 9.52025 82.3508 9.26978 83.1413 9.26978C83.9054 9.26978 84.5173 9.51595 84.9826 10.0094C85.4236 10.4888 85.6452 11.108 85.6452 11.8648ZM84.4456 11.9014C84.4456 11.4337 84.342 11.0328 84.1358 10.6984C83.8944 10.2942 83.5481 10.0921 83.1005 10.0921C82.6352 10.0921 82.2824 10.2942 82.0409 10.6984C81.8337 11.0328 81.7311 11.4402 81.7311 11.9218C81.7311 12.3894 81.8348 12.7904 82.0409 13.1247C82.2912 13.5289 82.6396 13.731 83.0895 13.731C83.5305 13.731 83.8756 13.5257 84.1248 13.114C84.3398 12.7732 84.4456 12.369 84.4456 11.9014Z" fill="white"/>
<path d="M91.2357 14.4405H90.1982L90.1122 13.8568H90.0802C89.7252 14.3223 89.2191 14.5555 88.562 14.5555C88.0713 14.5555 87.6744 14.4018 87.3756 14.0965C87.1044 13.8192 86.9688 13.4741 86.9688 13.0645C86.9688 12.4453 87.2334 11.9734 87.7659 11.6466C88.2973 11.3198 89.0449 11.1596 90.0074 11.1671V11.0726C90.0074 10.405 89.648 10.0717 88.928 10.0717C88.4153 10.0717 87.9633 10.1975 87.573 10.4469L87.3381 9.7073C87.821 9.41597 88.4175 9.26978 89.121 9.26978C90.4793 9.26978 91.1607 9.96853 91.1607 11.366V13.2322C91.1607 13.7385 91.1861 14.1417 91.2357 14.4405ZM90.0361 12.699V11.9175C88.7615 11.896 88.1242 12.2368 88.1242 12.9387C88.1242 13.2032 88.197 13.401 88.3459 13.5332C88.4947 13.6654 88.6843 13.731 88.9104 13.731C89.164 13.731 89.401 13.6525 89.6171 13.4967C89.8343 13.3397 89.9677 13.1408 90.0173 12.8968C90.0295 12.842 90.0361 12.7753 90.0361 12.699Z" fill="white"/>
<path d="M97.8014 14.4406H96.776L96.722 13.6269H96.69C96.3625 14.2461 95.8046 14.5557 95.0207 14.5557C94.3945 14.5557 93.8729 14.3159 93.4595 13.8365C93.046 13.357 92.8398 12.7346 92.8398 11.9703C92.8398 11.1501 93.0637 10.4857 93.5135 9.9783C93.949 9.5053 94.4827 9.2688 95.1177 9.2688C95.8157 9.2688 96.3041 9.49778 96.5819 9.9568H96.604V7.04785H97.7606V13.0754C97.7606 13.5688 97.7738 14.0235 97.8014 14.4406ZM96.604 12.3035V11.4586C96.604 11.3124 96.593 11.1941 96.572 11.1038C96.507 10.8329 96.3669 10.605 96.1541 10.4212C95.9391 10.2374 95.68 10.1449 95.3812 10.1449C94.9501 10.1449 94.6128 10.3116 94.3647 10.6459C94.1188 10.9802 93.9942 11.407 93.9942 11.9284C93.9942 12.4293 94.1122 12.8357 94.3492 13.1485C94.5995 13.4817 94.9369 13.6484 95.3592 13.6484C95.7385 13.6484 96.0417 13.5097 96.2721 13.2313C96.4948 12.9743 96.604 12.6647 96.604 12.3035Z" fill="white"/>
<path d="M107.684 11.8648C107.684 12.6442 107.456 13.2827 107 13.7837C106.521 14.2986 105.888 14.5555 105.095 14.5555C104.334 14.5555 103.726 14.3094 103.272 13.8149C102.82 13.3214 102.594 12.699 102.594 11.9487C102.594 11.1639 102.826 10.52 103.294 10.0201C103.761 9.52025 104.39 9.26978 105.183 9.26978C105.944 9.26978 106.559 9.51595 107.022 10.0094C107.463 10.4888 107.684 11.108 107.684 11.8648ZM106.487 11.9014C106.487 11.4337 106.383 11.0328 106.177 10.6984C105.933 10.2942 105.589 10.0921 105.14 10.0921C104.676 10.0921 104.324 10.2942 104.08 10.6984C103.873 11.0328 103.77 11.4402 103.77 11.9218C103.77 12.3894 103.874 12.7904 104.08 13.1247C104.33 13.5289 104.679 13.731 105.129 13.731C105.57 13.731 105.917 13.5257 106.166 13.114C106.379 12.7732 106.487 12.369 106.487 11.9014Z" fill="white"/>
<path d="M113.895 14.4406H112.74V11.5381C112.74 10.6437 112.392 10.1965 111.692 10.1965C111.349 10.1965 111.072 10.319 110.858 10.5652C110.644 10.8114 110.537 11.1016 110.537 11.4338V14.4395H109.381V10.8211C109.381 10.376 109.367 9.89333 109.34 9.37088H110.354L110.408 10.1632H110.44C110.576 9.91698 110.776 9.7138 111.039 9.55148C111.353 9.36228 111.703 9.2666 112.087 9.2666C112.571 9.2666 112.975 9.41925 113.296 9.72563C113.696 10.1008 113.895 10.6609 113.895 11.4048V14.4406V14.4406Z" fill="white"/>
<path d="M121.673 10.2169H120.401V12.6786C120.401 13.3043 120.627 13.6171 121.075 13.6171C121.282 13.6171 121.454 13.5999 121.589 13.5644L121.619 14.4191C121.391 14.5029 121.091 14.5448 120.722 14.5448C120.265 14.5448 119.91 14.4094 119.653 14.1385C119.395 13.8676 119.267 13.4118 119.267 12.7722V10.2169H118.508V9.37301H119.267V8.44421L120.4 8.11096V9.37194H121.672V10.2169H121.673Z" fill="white"/>
<path d="M127.791 14.4406H126.635V11.5596C126.635 10.6513 126.286 10.1965 125.588 10.1965C125.052 10.1965 124.686 10.4599 124.486 10.9867C124.452 11.0974 124.432 11.2328 124.432 11.3919V14.4396H123.277V7.04785H124.432V10.1019H124.454C124.818 9.54615 125.339 9.2688 126.015 9.2688C126.494 9.2688 126.889 9.42145 127.204 9.72783C127.595 10.1095 127.791 10.6771 127.791 11.4274V14.4406V14.4406Z" fill="white"/>
<path d="M134.097 11.6671C134.097 11.8692 134.082 12.039 134.054 12.1777H130.589C130.604 12.6786 130.77 13.0603 131.091 13.3247C131.384 13.5612 131.762 13.6795 132.225 13.6795C132.738 13.6795 133.205 13.5999 133.627 13.4397L133.807 14.2223C133.315 14.4309 132.735 14.5352 132.063 14.5352C131.258 14.5352 130.624 14.304 130.166 13.8418C129.705 13.3795 129.477 12.7593 129.477 11.981C129.477 11.2166 129.689 10.5802 130.118 10.0728C130.566 9.53103 131.171 9.26013 131.935 9.26013C132.683 9.26013 133.251 9.53103 133.634 10.0728C133.944 10.5028 134.097 11.035 134.097 11.6671ZM132.995 11.3757C133.004 11.0414 132.928 10.7533 132.771 10.5104C132.57 10.1975 132.265 10.0406 131.851 10.0406C131.474 10.0406 131.167 10.1932 130.932 10.4996C130.74 10.7436 130.627 11.035 130.589 11.3757H132.995Z" fill="white"/>
<path d="M59.6061 33.8669H57.1021L55.7305 29.6647H50.9631L49.6565 33.8669H47.2188L51.9421 19.5608H54.8595L59.6061 33.8669ZM55.3171 27.9017L54.0767 24.1661C53.9455 23.7845 53.6996 22.8858 53.3369 21.4711H53.2928C53.1483 22.0795 52.9157 22.9782 52.596 24.1661L51.3776 27.9017H55.3171V27.9017Z" fill="white"/>
<path d="M71.7513 28.5824C71.7513 30.3368 71.2651 31.7235 70.2926 32.7416C69.4216 33.6478 68.34 34.1004 67.0489 34.1004C65.6552 34.1004 64.6541 33.6123 64.0444 32.6362H64.0003V38.0703H61.6496V26.9473C61.6496 25.8443 61.6198 24.7124 61.5625 23.5514H63.6298L63.761 25.1865H63.8051C64.589 23.9545 65.7787 23.3396 67.3752 23.3396C68.6233 23.3396 69.6652 23.8201 70.4988 24.7822C71.3345 25.7454 71.7513 27.0118 71.7513 28.5824ZM69.3565 28.6662C69.3565 27.6622 69.125 26.8344 68.6597 26.183C68.1514 25.5036 67.4689 25.1639 66.6133 25.1639C66.0334 25.1639 65.5064 25.3531 65.0356 25.7261C64.5637 26.1023 64.255 26.5936 64.1105 27.2021C64.0378 27.4859 64.0014 27.7181 64.0014 27.9008V29.6208C64.0014 30.3712 64.2373 31.0044 64.7092 31.5214C65.1811 32.0385 65.7941 32.2965 66.5483 32.2965C67.4337 32.2965 68.1228 31.9632 68.6156 31.2989C69.1096 30.6335 69.3565 29.7563 69.3565 28.6662Z" fill="white"/>
<path d="M83.9221 28.5824C83.9221 30.3368 83.4358 31.7235 82.4623 32.7416C81.5924 33.6478 80.5107 34.1004 79.2196 34.1004C77.826 34.1004 76.8249 33.6123 76.2162 32.6362H76.1721V38.0703H73.8215V26.9473C73.8215 25.8443 73.7917 24.7124 73.7344 23.5514H75.8017L75.9329 25.1865H75.977C76.7598 23.9545 77.9495 23.3396 79.5471 23.3396C80.7941 23.3396 81.836 23.8201 82.6718 24.7822C83.5042 25.7454 83.9221 27.0118 83.9221 28.5824ZM81.5273 28.6662C81.5273 27.6622 81.2947 26.8344 80.8294 26.183C80.3211 25.5036 79.6408 25.1639 78.7841 25.1639C78.2031 25.1639 77.6771 25.3531 77.2053 25.7261C76.7334 26.1023 76.4257 26.5936 76.2813 27.2021C76.2096 27.4859 76.1721 27.7181 76.1721 27.9008V29.6208C76.1721 30.3712 76.4081 31.0044 76.8778 31.5214C77.3497 32.0374 77.9627 32.2965 78.7191 32.2965C79.6044 32.2965 80.2935 31.9632 80.7864 31.2989C81.2803 30.6335 81.5273 29.7563 81.5273 28.6662Z" fill="white"/>
<path d="M97.5286 29.855C97.5286 31.0719 97.0952 32.062 96.2253 32.8263C95.2694 33.6616 93.9386 34.0787 92.2285 34.0787C90.6497 34.0787 89.3839 33.782 88.4258 33.1875L88.9705 31.2772C90.0025 31.8857 91.1348 32.191 92.3686 32.191C93.2539 32.191 93.943 31.9953 94.4381 31.6062C94.9309 31.217 95.1768 30.6946 95.1768 30.0431C95.1768 29.4626 94.9739 28.9735 94.5671 28.5768C94.1624 28.1802 93.4866 27.8114 92.5428 27.4707C89.9738 26.5365 88.6904 25.168 88.6904 23.3685C88.6904 22.1924 89.1402 21.2281 90.041 20.4778C90.9385 19.7264 92.1359 19.3512 93.6332 19.3512C94.9684 19.3512 96.0776 19.578 96.9629 20.0306L96.3753 21.8989C95.5483 21.4603 94.6134 21.241 93.567 21.241C92.7401 21.241 92.094 21.4399 91.6309 21.8355C91.2395 22.1892 91.0433 22.6203 91.0433 23.1309C91.0433 23.6963 91.2671 24.164 91.7169 24.5316C92.1083 24.8713 92.8195 25.239 93.8515 25.6356C95.1139 26.1312 96.0412 26.7106 96.6377 27.375C97.232 28.0372 97.5286 28.866 97.5286 29.855Z" fill="white"/>
<path d="M105.299 25.2712H102.708V30.2796C102.708 31.5535 103.164 32.1899 104.079 32.1899C104.499 32.1899 104.848 32.1544 105.124 32.0834L105.189 33.8239C104.726 33.9926 104.116 34.0776 103.361 34.0776C102.432 34.0776 101.707 33.8013 101.183 33.2498C100.661 32.6973 100.399 31.7706 100.399 30.4688V25.269H98.8555V23.549H100.399V21.6602L102.708 20.9808V23.549H105.299V25.2712Z" fill="white"/>
<path d="M116.992 28.6241C116.992 30.2097 116.527 31.5115 115.598 32.5296C114.625 33.5777 113.332 34.1001 111.722 34.1001C110.169 34.1001 108.933 33.5981 108.012 32.5941C107.09 31.59 106.629 30.3226 106.629 28.795C106.629 27.1965 107.103 25.8871 108.055 24.8691C109.004 23.85 110.285 23.3405 111.896 23.3405C113.448 23.3405 114.697 23.8425 115.64 24.8476C116.542 25.8226 116.992 27.0815 116.992 28.6241ZM114.553 28.6983C114.553 27.7469 114.345 26.931 113.922 26.2505C113.43 25.427 112.725 25.0164 111.812 25.0164C110.867 25.0164 110.149 25.4281 109.657 26.2505C109.234 26.932 109.026 27.7609 109.026 28.7413C109.026 29.6926 109.234 30.5086 109.657 31.188C110.165 32.0114 110.875 32.4221 111.791 32.4221C112.689 32.4221 113.393 32.0028 113.901 31.1665C114.335 30.4731 114.553 29.6486 114.553 28.6983Z" fill="white"/>
<path d="M124.629 25.567C124.397 25.5251 124.149 25.5036 123.888 25.5036C123.061 25.5036 122.422 25.8078 121.972 26.4173C121.581 26.9548 121.384 27.6342 121.384 28.4544V33.8671H119.035L119.057 26.8C119.057 25.6111 119.027 24.5285 118.969 23.5524H121.016L121.102 25.5262H121.167C121.415 24.8478 121.807 24.3017 122.343 23.8921C122.866 23.5234 123.432 23.3396 124.042 23.3396C124.259 23.3396 124.455 23.3546 124.629 23.3815V25.567Z" fill="white"/>
<path d="M135.145 28.2212C135.145 28.6319 135.117 28.978 135.059 29.2608H128.007C128.034 30.2799 128.375 31.0592 129.03 31.5967C129.624 32.0773 130.393 32.3181 131.337 32.3181C132.381 32.3181 133.333 32.1557 134.19 31.83L134.558 33.421C133.557 33.8467 132.375 34.0585 131.011 34.0585C129.371 34.0585 128.083 33.5876 127.146 32.647C126.211 31.7064 125.742 30.4433 125.742 28.8587C125.742 27.3032 126.178 26.0078 127.05 24.9747C127.963 23.8718 129.197 23.3203 130.749 23.3203C132.274 23.3203 133.428 23.8718 134.212 24.9747C134.833 25.8509 135.145 26.9345 135.145 28.2212ZM132.903 27.6268C132.919 26.9474 132.766 26.3604 132.447 25.8648C132.04 25.2274 131.415 24.9092 130.574 24.9092C129.805 24.9092 129.18 25.2198 128.703 25.8433C128.311 26.3389 128.079 26.9334 128.007 27.6257H132.903V27.6268Z" fill="white"/>
</svg>
