<svg width="300" height="63" viewBox="0 0 300 63" fill="none" xmlns="http://www.w3.org/2000/svg">
<path d="M37.7754 54.7703C37.2051 54.906 36.6348 54.6752 36.3225 54.2135L31.1763 46.759L22.2689 48.3884C21.8209 48.4699 21.3592 48.3341 21.0469 48.0082C20.721 47.6824 20.5852 47.2343 20.6667 46.7862L22.2961 37.8788L14.8416 32.7326C14.475 32.4746 14.2441 32.0537 14.2441 31.592C14.2441 31.1439 14.4614 30.7094 14.8416 30.4514L22.2961 25.3052L20.6667 16.3979C20.5852 15.9498 20.721 15.4881 21.0469 15.1758C21.3728 14.8499 21.8209 14.7141 22.2689 14.7956L31.1763 16.425L36.3225 8.97049C36.5805 8.60388 37.0015 8.37305 37.4631 8.37305C37.9248 8.37305 38.3457 8.5903 38.6037 8.97049L43.7499 16.425L52.6573 14.7956C53.1054 14.7141 53.567 14.8635 53.8793 15.1758C54.2052 15.5017 54.341 15.9498 54.2595 16.3979L52.6301 25.3052L60.0846 30.4514C60.4648 30.7094 60.6821 31.1439 60.6821 31.6056C60.6821 31.9586 60.5191 32.2981 60.2612 32.5561L60.0846 32.7326L52.6301 37.8788L54.2595 46.7862C54.341 47.2343 54.2052 47.6959 53.8793 48.0082C53.5535 48.3205 53.1054 48.4699 52.6573 48.3884L43.7499 46.759L38.6309 54.1728C38.4 54.4715 38.1149 54.6888 37.7754 54.7703ZM31.2171 45.2654C31.6652 45.2654 32.0997 45.4827 32.3577 45.8629L37.2323 52.9236C37.3409 53.073 37.5717 53.073 37.6804 52.9236L42.555 45.8629C42.8673 45.4148 43.4104 45.1975 43.94 45.2926L52.3857 46.8405C52.5758 46.8677 52.7252 46.7183 52.698 46.5282L51.1501 38.0825C51.055 37.5529 51.2723 37.0098 51.7204 36.6975L58.7811 31.8229C58.9305 31.7142 58.9305 31.4834 58.7811 31.3748L51.7204 26.5001C51.2723 26.1878 51.055 25.6447 51.1501 25.1152L52.698 16.6694C52.7252 16.4793 52.5758 16.33 52.3857 16.3571L43.94 17.905C43.4104 18.0001 42.8673 17.7828 42.555 17.3348L37.6804 10.274C37.5717 10.1247 37.3409 10.1247 37.2323 10.274L32.3577 17.3348C32.0454 17.7828 31.5022 18.0001 30.9727 17.905L22.5269 16.3571C22.3368 16.33 22.1875 16.4793 22.2146 16.6694L23.7626 25.1152C23.8576 25.6447 23.6404 26.1878 23.1923 26.5001L16.1315 31.3748C15.9822 31.4834 15.9822 31.7142 16.1315 31.8229L23.1923 36.6975C23.6404 37.0098 23.8576 37.5529 23.7626 38.0825L22.2146 46.5282C22.1875 46.7183 22.3368 46.8677 22.5269 46.8405L30.9727 45.2926C31.0541 45.2654 31.1356 45.2654 31.2171 45.2654Z" fill="#001B80"/>
<path d="M48.814 35.3807L53.6615 32.0405C53.9738 31.8232 53.9738 31.3615 53.6615 31.1443L48.814 27.804C48.3116 27.4646 48.0672 26.8535 48.1758 26.2561L49.2349 20.4581C49.3028 20.0779 48.9769 19.7521 48.5967 19.8199L42.7988 20.8791C42.2013 20.9877 41.5903 20.7433 41.2509 20.2409L37.9106 15.3934C37.6933 15.0811 37.2317 15.0811 37.0144 15.3934L33.6741 20.2409C33.3347 20.7433 32.7236 20.9877 32.1262 20.8791L26.3282 19.8199C25.9481 19.7521 25.6222 20.0779 25.6901 20.4581L26.7492 26.2289C26.8578 26.84 26.5998 27.4646 26.0974 27.8176L21.2635 31.1579C20.9512 31.3751 20.9512 31.8368 21.2635 32.054L26.111 35.3943C26.6134 35.7473 26.8714 36.3584 26.7628 36.9558L25.7036 42.7538C25.6358 43.134 25.9616 43.4599 26.3418 43.392L32.1534 42.3328C32.7508 42.2242 33.3483 42.4686 33.6877 42.971L37.0416 47.8321C37.2588 48.1444 37.7205 48.1444 37.9377 47.8321L41.278 42.9846C41.631 42.4822 42.2285 42.2242 42.8395 42.3464L48.6375 43.4055C49.0177 43.4734 49.3435 43.1475 49.2757 42.7674L48.2165 36.9694C48.0536 36.3448 48.298 35.7338 48.814 35.3807ZM43.1926 39.074C41.9026 40.0653 40.3411 40.7306 38.6574 40.9479L37.5847 44.5054C37.544 44.6276 37.3674 44.6276 37.3267 44.5054L36.254 40.9479C34.5567 40.7306 33.0088 40.0653 31.7189 39.074L28.4465 40.8257C28.3243 40.8935 28.2021 40.7578 28.2564 40.6356L30.008 37.3632C29.0032 36.0732 28.3243 34.5117 28.107 32.8144L24.5766 31.7417C24.4544 31.701 24.4544 31.5245 24.5766 31.4837L28.107 30.4111C28.3243 28.7002 28.9896 27.1251 29.9944 25.8216L28.2428 22.6035C28.1749 22.4813 28.3107 22.3591 28.4329 22.4134L31.6645 24.1379C32.9681 23.1195 34.5431 22.4406 36.2676 22.2233L37.3267 18.7201C37.3674 18.5979 37.544 18.5979 37.5847 18.7201L38.6438 22.2233C40.3683 22.4406 41.9433 23.1195 43.2469 24.1379L46.4785 22.4134C46.6007 22.3455 46.7229 22.4813 46.6686 22.6035L44.9442 25.8352C45.949 27.1387 46.6279 28.7138 46.8316 30.4246L50.3619 31.4973C50.4841 31.5381 50.4841 31.7146 50.3619 31.7553L46.8316 32.828C46.6143 34.5253 45.9354 36.0868 44.9306 37.3767L46.6822 40.6491C46.7501 40.7713 46.6143 40.8935 46.4921 40.8392L43.1926 39.074Z" fill="#001B80"/>
<path d="M37.965 23.6627C33.1718 23.3504 29.2069 27.3289 29.5192 32.1085C29.7772 36.0733 32.9681 39.2643 36.933 39.5222C41.7262 39.8345 45.691 35.8561 45.3787 31.0765C45.1208 27.1116 41.9298 23.9207 37.965 23.6627ZM42.0928 33.4391L40.7893 35.313C40.6942 35.4352 40.5313 35.4759 40.3955 35.3808L38.8747 34.3217V36.182C38.8747 36.3313 38.7525 36.4671 38.5896 36.4671H36.3084C36.159 36.4671 36.0233 36.3449 36.0233 36.182V34.3217L34.5025 35.3808C34.3803 35.4759 34.2038 35.4352 34.1087 35.313L32.8052 33.4391C32.7101 33.3169 32.7509 33.1404 32.8731 33.0454L34.9506 31.5925L32.8731 30.1396C32.7509 30.0446 32.7101 29.8816 32.8052 29.7458L34.1087 27.872C34.2038 27.7498 34.3667 27.7091 34.5025 27.8041L36.0233 28.8632V27.003C36.0233 26.8536 36.1455 26.7179 36.3084 26.7179H38.5896C38.7389 26.7179 38.8747 26.8401 38.8747 27.003V28.8632L40.3955 27.8041C40.5177 27.7091 40.6942 27.7498 40.7893 27.872L42.0928 29.7458C42.1878 29.868 42.1471 30.0446 42.0249 30.1396L39.9474 31.5925L42.0249 33.0454C42.1471 33.1404 42.1742 33.3169 42.0928 33.4391Z" fill="#001B80"/>
<path d="M73.4863 38.8435V25.075C73.4863 23.6221 74.1924 22.7803 75.5638 22.7803H80.4113C83.738 22.7803 85.7476 24.4233 85.7476 27.4648C85.7476 29.5423 84.7564 30.8187 83.0183 31.3482C85.2316 31.9728 86.3043 33.6701 86.3043 35.9513C86.3043 39.4952 84.2675 41.1382 79.9768 41.1382H75.5502C74.1924 41.1382 73.4863 40.2963 73.4863 38.8435ZM79.4744 30.6693C80.9816 30.6693 81.7691 29.7324 81.7691 28.1166C81.7691 26.5007 81.0087 25.6725 79.5559 25.6725H77.3969V30.6693H79.4744ZM79.7595 38.246C81.484 38.246 82.3123 37.4449 82.3123 35.5168C82.3123 33.7516 81.484 32.964 79.7052 32.964H77.3969V38.246H79.7595Z" fill="#001B80"/>
<path d="M89.3457 38.8708V24.5457C89.3457 23.2965 89.9431 22.6719 91.0158 22.6719H91.5861C92.7267 22.6719 93.3106 23.2965 93.3106 24.5457V37.4315H98.0358C99.2851 37.4315 99.8825 38.0018 99.8825 39.1288V39.3597C99.8825 40.5274 99.2851 41.152 98.0358 41.152H91.4232C90.0654 41.1384 89.3457 40.3509 89.3457 38.8708Z" fill="#001B80"/>
<path d="M101.892 24.5457C101.892 23.2965 102.544 22.6719 103.617 22.6719H104.16C105.301 22.6719 105.857 23.2965 105.857 24.5457V34.5394C105.857 36.644 106.713 37.7167 108.437 37.7167C110.162 37.7167 110.963 36.644 110.963 34.5394V24.5457C110.963 23.2965 111.614 22.6719 112.687 22.6719H113.23C114.371 22.6719 114.955 23.2965 114.955 24.5457V34.0505C114.955 39.156 112.714 41.4236 108.369 41.4236C104.119 41.4236 101.865 39.156 101.865 34.0777V24.5457H101.892Z" fill="#001B80"/>
<path d="M118.525 38.8976V25.0477C118.525 23.5948 119.259 22.7529 120.562 22.7529H128.343C129.565 22.7529 130.162 23.3232 130.162 24.3688V24.5996C130.162 25.713 129.565 26.1883 128.343 26.1883H122.436V30.1396H126.414C127.745 30.1396 128.261 30.5876 128.261 31.6196V31.9047C128.261 32.9774 127.718 33.4934 126.414 33.4934H122.436V37.7163H128.451C129.728 37.7163 130.298 38.2051 130.298 39.2235V39.4543C130.298 40.5949 129.728 41.1516 128.451 41.1516H120.562C119.259 41.138 118.525 40.3505 118.525 38.8976Z" fill="#001B80"/>
<path d="M137.793 38.8708V24.5457C137.793 23.2965 138.39 22.6719 139.463 22.6719H140.033C141.174 22.6719 141.758 23.2965 141.758 24.5457V37.4315H146.47C147.719 37.4315 148.316 38.0018 148.316 39.1288V39.3597C148.316 40.5274 147.719 41.152 146.47 41.152H139.857C138.499 41.1384 137.793 40.3509 137.793 38.8708Z" fill="#001B80"/>
<path d="M151.1 24.5457C151.1 23.2965 151.724 22.6719 152.797 22.6719H153.367C154.481 22.6719 155.064 23.2965 155.064 24.5457V39.3868C155.064 40.6089 154.467 41.2606 153.367 41.2606H152.797C151.724 41.2606 151.1 40.6089 151.1 39.3868V24.5457Z" fill="#001B80"/>
<path d="M172.988 33.0592V40.8667C172.988 40.9753 172.391 41.2605 171.657 41.2605C170.856 41.2605 170.204 40.9482 169.838 39.6175C169.756 39.2237 169.702 38.7349 169.634 38.2054C169.037 40.1335 167.557 41.4642 165.208 41.4642C161.121 41.4642 158.486 37.4857 158.486 32.0679C158.486 26.4465 161.379 22.5088 166.43 22.5088C168.222 22.5088 169.784 23.0248 170.829 23.8938C171.739 24.5999 172.214 25.5368 172.214 26.4194C172.214 28.6598 169.743 28.7413 169.349 28.6055C168.833 26.8403 167.842 25.8491 166.375 25.8491C164.135 25.8491 162.709 27.8587 162.709 32.1766C162.709 36.2908 164.013 38.2461 166.28 38.2461C167.923 38.2461 169.118 37.2277 169.376 35.3811C169.43 35.0416 169.458 34.675 169.485 34.2405H167.584C166.443 34.2405 165.819 33.9282 165.819 32.7876V32.5839C165.819 31.4162 166.389 31.131 167.638 31.131H171.617C172.757 31.1582 172.988 31.81 172.988 33.0592Z" fill="#001B80"/>
<path d="M176.383 39.3868V24.5457C176.383 23.2965 176.98 22.6719 178.08 22.6719H178.596C179.737 22.6719 180.321 23.2965 180.321 24.5457V30.2214H185.738V24.5457C185.738 23.2965 186.336 22.6719 187.408 22.6719H187.952C189.065 22.6719 189.676 23.2965 189.676 24.5457V39.3868C189.676 40.6089 189.051 41.2606 187.952 41.2606H187.408C186.336 41.2606 185.738 40.6089 185.738 39.3868V33.6568H180.321V39.3868C180.321 40.6089 179.723 41.2606 178.596 41.2606H178.053C176.98 41.2606 176.383 40.6089 176.383 39.3868Z" fill="#001B80"/>
<path d="M196.736 26.4736H193.98C192.785 26.4736 192.16 25.849 192.16 24.7084V24.4776C192.16 23.337 192.785 22.7803 193.98 22.7803H203.403C204.625 22.7803 205.223 23.3506 205.223 24.4776V24.7084C205.223 25.849 204.625 26.4736 203.403 26.4736H200.701V39.3866C200.701 40.6086 200.076 41.2604 198.909 41.2604H198.338C197.266 41.2604 196.722 40.6086 196.722 39.3866L196.736 26.4736Z" fill="#001B80"/>
<path d="M218.924 22.4951C221.001 22.4951 222.563 23.1469 223.486 24.0566C224.192 24.7627 224.627 25.6725 224.627 26.5279C224.627 28.9177 221.925 28.9991 221.68 28.8498C221.232 27.0303 220.255 25.9576 218.788 25.9576C216.806 25.9576 215.557 27.7771 215.557 32C215.557 36.1957 216.806 37.9609 218.815 37.9609C220.486 37.9609 221.259 36.6845 221.653 34.8378C221.708 34.6613 224.668 34.5255 224.668 37.0783C224.668 37.988 224.247 38.9792 223.5 39.7125C222.536 40.7308 220.92 41.4098 218.843 41.4098C214.185 41.4098 211.293 37.7708 211.293 32.0679C211.293 26.2971 214.212 22.4951 218.924 22.4951Z" fill="#001B80"/>
<path d="M226.215 40.0656L230.777 23.8394C230.981 23.1062 231.714 22.6445 233.642 22.6445C235.57 22.6445 236.249 23.0926 236.453 23.8394L241.192 40.0384C241.273 40.3507 240.431 41.3148 238.979 41.3148C237.756 41.3419 237.254 40.4865 236.996 39.4138L236.127 36.4537H231.185L230.302 39.4681C229.99 40.8259 229.284 41.3419 228.347 41.3148C226.907 41.3148 226.106 40.2964 226.215 40.0656ZM235.502 33.4529L233.601 26.012L231.701 33.4529H235.502Z" fill="#001B80"/>
<path d="M243.555 39.1558V25.0479C243.555 23.595 244.261 22.7803 245.591 22.7803H250.072C254.024 22.7803 256.006 24.7627 256.006 28.4832C256.006 31.0631 254.933 32.7739 252.774 33.48C252.598 33.5343 252.286 33.6158 252.068 33.6837L256.359 39.9297C256.468 40.1062 255.68 41.2604 254.037 41.2604C252.897 41.2604 252.272 40.6086 251.824 39.7532L248.361 34.1861H247.452V39.4137C247.452 40.5815 246.881 41.2604 245.754 41.2604H245.238C244.152 41.2604 243.555 40.5679 243.555 39.1558ZM249.488 31.8642C251.335 31.8642 252.095 30.8187 252.095 28.8498C252.095 26.813 251.267 25.8761 249.434 25.8761H247.425V31.8642H249.488Z" fill="#001B80"/>
<path d="M259.307 25.075C259.307 23.595 260.189 22.7803 261.384 22.7803H265.213C270.034 22.7803 272.994 26.2428 272.994 31.8913C272.994 37.5942 269.735 41.1382 264.874 41.1382H261.52C260.271 41.1382 259.307 40.1198 259.307 38.8978V25.075ZM268.852 31.9185C268.852 27.6956 267.372 26.0119 264.969 26.0119H263.244V37.9066H264.915C267.318 37.9066 268.852 36.2364 268.852 31.9185Z" fill="#001B80"/>
<path d="M277.092 39.2371C277.092 40.4591 276.128 41.4232 274.879 41.4232C273.644 41.4232 272.652 40.4591 272.652 39.2371C272.652 38.0422 273.644 37.0781 274.879 37.0781C276.128 37.0781 277.092 38.0422 277.092 39.2371ZM273.209 39.2371C273.209 40.2011 273.915 40.9615 274.893 40.9615C275.843 40.9615 276.536 40.2011 276.536 39.2507C276.536 38.2866 275.843 37.5126 274.879 37.5126C273.915 37.5126 273.209 38.2866 273.209 39.2371ZM274.54 40.3777H274.037V38.2187C274.241 38.178 274.513 38.1508 274.866 38.1508C275.273 38.1508 275.463 38.2187 275.612 38.3138C275.735 38.4088 275.83 38.5717 275.83 38.789C275.83 39.0198 275.64 39.2099 275.382 39.2914V39.3186C275.599 39.4 275.707 39.5494 275.775 39.8481C275.843 40.174 275.884 40.3098 275.938 40.3912H275.395C275.327 40.3098 275.287 40.1197 275.219 39.8617C275.178 39.6309 275.042 39.5222 274.771 39.5222H274.54V40.3777ZM274.553 39.142H274.784C275.056 39.142 275.287 39.047 275.287 38.8297C275.287 38.6261 275.137 38.5039 274.825 38.5039C274.689 38.5039 274.608 38.5174 274.553 38.531V39.142Z" fill="#001B80"/>
</svg>
