<?xml version="1.0" encoding="UTF-8"?>
<svg id="Unsuccessful-generic_plain" xmlns="http://www.w3.org/2000/svg" viewBox="0 0 1500 1500">
  <defs>
    <style>
      .cls-1 {
        fill: #e799b2;
        stroke-width: 29.53px;
      }

      .cls-1, .cls-2 {
        stroke: #020097;
        stroke-linecap: round;
        stroke-linejoin: round;
      }

      .cls-3 {
        fill: #020097;
      }

      .cls-4 {
        fill: #fff;
      }

      .cls-5 {
        fill: #b3edff;
      }

      .cls-2 {
        fill: none;
        stroke-width: 51.68px;
      }
    </style>
  </defs>
  <circle class="cls-5" cx="750" cy="750.35" r="571.61"/>
  <g>
    <g>
      <path class="cls-4" d="M1128.36,983.51c0,16.31-14.11,30.51-30.51,30.51H402.15c-16.31,0-30.51-14.11-30.51-30.51v-467.03c0-16.31,14.11-30.51,30.51-30.51h695.69c16.31,0,30.51,14.11,30.51,30.51v467.03Z"/>
      <path class="cls-3" d="M1097.85,1028.23H402.15c-24.18,0-44.72-20.44-44.72-44.72v-467.03c0-24.18,20.44-44.72,44.72-44.72h695.69c24.18,0,44.72,20.44,44.72,44.72v467.03c0,24.18-20.44,44.72-44.72,44.72ZM402.15,500.17c-8.54,0-16.31,7.77-16.31,16.31v467.03c0,8.54,7.77,16.31,16.31,16.31h695.69c8.54,0,16.31-7.77,16.31-16.31v-467.03c0-8.54-7.77-16.31-16.31-16.31H402.15Z"/>
    </g>
    <g>
      <path class="cls-4" d="M851.81,750.53l253.71,242.77c11.99,11.99,8.73,20.73-8.73,20.73H402.15c-16.31,0-20.73-9.79-8.73-20.73l253.71-242.77"/>
      <path class="cls-3" d="M1096.79,1028.23H402.15c-20.06,0-26.48-10.84-28.31-15.55-1.82-4.61-4.32-16.6,9.88-29.75l253.62-242.68c5.66-5.37,14.59-5.18,20.06.48,5.37,5.66,5.18,14.59-.48,20.06l-249.87,239.03h684.75l-249.87-239.03c-5.66-5.37-5.85-14.39-.48-20.06,5.37-5.66,14.39-5.85,20.06-.48l253.71,242.77.19.19c13.72,13.72,11.99,24.95,9.79,30.32-2.78,6.62-9.98,14.59-28.5,14.59l.1.1Z"/>
    </g>
    <g>
      <path class="cls-4" d="M1097.85,487.12c16.31,0,20.73,9.79,8.73,20.73l-335.37,320.02c-11.99,11.99-31.57,11.99-43.56,0l-334.22-320.11c-11.99-11.99-8.73-20.73,8.73-20.73,0,.1,695.69.1,695.69.1Z"/>
      <path class="cls-3" d="M749.42,851.09c-11.99,0-23.22-4.61-31.67-13.05l-334.12-320.02s-.19-.1-.19-.19c-13.72-13.72-11.99-24.95-9.79-30.32,2.78-6.62,9.98-14.59,28.5-14.59s.19,0,.29,0h695.4c20.06,0,26.48,10.84,28.31,15.55,1.82,4.61,4.32,16.6-9.88,29.75l-335.18,319.83c-8.44,8.44-19.67,13.05-31.67,13.05h0ZM407.05,501.23l330.38,316.37s.19.1.19.19c3.17,3.17,7.29,4.8,11.8,4.8s8.64-1.73,11.8-4.8l.19-.19,331.44-316.28H407.14l-.1-.1ZM1102.16,501.81h0Z"/>
    </g>
  </g>
  <g>
    <circle class="cls-1" cx="1160.3" cy="1059.31" r="236.23"/>
    <g>
      <line class="cls-2" x1="1071.35" y1="1151.68" x2="1249.26" y2="966.93"/>
      <line class="cls-2" x1="1249.26" y1="1151.68" x2="1071.35" y2="966.93"/>
    </g>
  </g>
</svg>