<?xml version="1.0" encoding="UTF-8"?>
<svg xmlns="http://www.w3.org/2000/svg" version="1.1" viewBox="0 0 1323 1320">
  <defs>
    <style>
      .cls-1 {
        fill: none;
      }

      .cls-2 {
        fill: #020097;
      }

      .cls-3 {
        fill: #fff;
      }

      .cls-4 {
        fill: #ff0;
      }

      .cls-5 {
        fill: #009;
      }

      .cls-6 {
        fill: #b3edff;
      }
    </style>
  </defs>
  <!-- Generator: Adobe Illustrator 28.7.1, SVG Export Plug-In . SVG Version: 1.2.0 Build 142)  -->
  <g>
    <g id="Layer_1">
      <circle class="cls-6" cx="660" cy="660" r="571.7"/>
      <circle class="cls-1" cx="660" cy="660" r="660"/>
      <g>
        <path class="cls-3" d="M1054.3,884.2c0,17-14.7,31.8-31.8,31.8H297.5c-17,0-31.8-14.7-31.8-31.8v-486.7c0-17,14.7-31.8,31.8-31.8h725c17,0,31.8,14.7,31.8,31.8v486.7Z"/>
        <path class="cls-5" d="M1022.5,930.8H297.5c-25.2,0-46.6-21.3-46.6-46.6v-486.7c0-25.2,21.3-46.6,46.6-46.6h725c25.2,0,46.6,21.3,46.6,46.6v486.7c0,25.2-21.3,46.6-46.6,46.6ZM297.5,380.5c-8.9,0-17,8.1-17,17v486.7c0,8.9,8.1,17,17,17h725c8.9,0,17-8.1,17-17v-486.7c0-8.9-8.1-17-17-17H297.5Z"/>
      </g>
      <g>
        <path class="cls-3" d="M765.6,641.4l264.4,253c12.5,12.5,9.1,21.6-9.1,21.6H297c-17,0-21.6-10.2-9.1-21.6l264.4-253"/>
        <path class="cls-5" d="M1020.9,930.8H297c-20.9,0-27.6-11.3-29.5-16.2-1.9-4.8-4.5-17.3,10.3-31l264.3-252.9c5.9-5.6,15.2-5.4,20.9.5,5.6,5.9,5.4,15.2-.5,20.9l-260.4,249.1h713.6l-260.4-249.1c-5.9-5.6-6.1-15-.5-20.9,5.6-5.9,15-6.1,20.9-.5l264.4,253c0,0,.2.2.2.2,14.3,14.3,12.5,26,10.2,31.6-2.9,6.9-10.4,15.2-29.7,15.2Z"/>
      </g>
      <g>
        <path class="cls-3" d="M1022,366.9c17,0,21.6,10.2,9.1,21.6l-349.5,333.5c-12.5,12.5-32.9,12.5-45.4,0l-348.3-333.6c-12.5-12.5-9.1-21.6,9.1-21.6,0,.1,725,.1,725,.1Z"/>
        <path class="cls-5" d="M658.9,746.2c-12,0-23.9-4.5-33-13.6l-348.2-333.5c0,0-.2-.1-.2-.2-14.3-14.3-12.5-26-10.2-31.6,2.9-6.9,10.4-15.2,29.7-15.2s.2,0,.3,0c12.1,0,717.5,0,724.7,0,20.9,0,27.6,11.3,29.5,16.2,1.9,4.8,4.5,17.3-10.3,31l-349.3,333.3c-9.1,9-21.1,13.6-33,13.6ZM302.1,381.6l344.3,329.7c0,0,.2.1.2.2,6.8,6.8,17.7,6.8,24.5,0,0,0,.2-.2.2-.2l345.5-329.6c-30.7,0-194,0-357.4,0-90.6,0-181.3,0-249.2,0-34,0-62.3,0-82.1,0-9.9,0-17.7,0-23,0h-3ZM1026.5,382.2h0,0Z"/>
      </g>
      <g>
        <circle class="cls-4" cx="1071.3" cy="968.2" r="236.9"/>
        <path class="cls-2" d="M1071.3,1219.9c-67.2,0-130.4-26.2-178-73.7-47.5-47.5-73.7-110.7-73.7-178s26.2-130.4,73.7-178c47.5-47.5,110.7-73.7,178-73.7s130.4,26.2,178,73.7c47.5,47.5,73.7,110.7,73.7,178s-26.2,130.4-73.7,178c-47.5,47.5-110.7,73.7-178,73.7ZM1071.3,746.1c-59.3,0-115.1,23.1-157,65.1-41.9,41.9-65,97.7-65,157s23.1,115.1,65,157c41.9,41.9,97.7,65,157,65s115.1-23.1,157-65c41.9-41.9,65.1-97.7,65.1-157s-23.1-115.1-65.1-157-97.7-65.1-157-65.1Z"/>
      </g>
      <path class="cls-2" d="M1026.4,1106.9c-5.6,0-11.2-1.8-15.9-5.5l-84-65.3c-11.3-8.8-13.3-25.1-4.6-36.4,8.8-11.3,25.1-13.3,36.4-4.6l63.7,49.5,146.8-185.6c8.9-11.2,25.2-13.1,36.4-4.3,11.2,8.9,13.1,25.2,4.3,36.4l-162.7,205.8c-5.1,6.5-12.7,9.8-20.3,9.8Z"/>
    </g>
  </g>
</svg>