<svg width="343" height="71" viewBox="0 0 343 71" fill="none" xmlns="http://www.w3.org/2000/svg">
        <path d="M43.1893 61.617C42.5372 61.7723 41.8852 61.5084 41.5281 60.9805L35.6443 52.4575L25.4602 54.3205C24.9479 54.4136 24.42 54.2584 24.063 53.8858C23.6904 53.5132 23.5351 53.0009 23.6283 52.4886L25.4912 42.3045L16.9682 36.4206C16.5491 36.1257 16.2852 35.6444 16.2852 35.1166C16.2852 34.6043 16.5335 34.1075 16.9682 33.8125L25.4912 27.9287L23.6283 17.7446C23.5351 17.2323 23.6904 16.7044 24.063 16.3474C24.4356 15.9748 24.9479 15.8195 25.4602 15.9127L35.6443 17.7756L41.5281 9.25263C41.8231 8.83347 42.3043 8.56955 42.8322 8.56955C43.36 8.56955 43.8413 8.81794 44.1362 9.25263L50.0201 17.7756L60.2042 15.9127C60.7165 15.8195 61.2443 15.9903 61.6014 16.3474C61.974 16.72 62.1292 17.2323 62.0361 17.7446L60.1731 27.9287L68.6961 33.8125C69.1308 34.1075 69.3792 34.6043 69.3792 35.1321C69.3792 35.5357 69.1929 35.9239 68.8979 36.2188L68.6961 36.4206L60.1731 42.3045L62.0361 52.4886C62.1292 53.0009 61.974 53.5287 61.6014 53.8858C61.2288 54.2429 60.7165 54.4136 60.2042 54.3205L50.0201 52.4575L44.1673 60.9339C43.9034 61.2755 43.5774 61.5239 43.1893 61.617ZM35.6909 50.7498C36.2032 50.7498 36.7 50.9982 36.9949 51.4329L42.5683 59.5057C42.6925 59.6765 42.9564 59.6765 43.0806 59.5057L48.6539 51.4329C49.011 50.9206 49.632 50.6722 50.2374 50.7809L59.8937 52.5507C60.111 52.5817 60.2818 52.411 60.2508 52.1936L58.481 42.5373C58.3723 41.9319 58.6207 41.3109 59.133 40.9538L67.2058 35.3805C67.3765 35.2563 67.3765 34.9924 67.2058 34.8682L59.133 29.2949C58.6207 28.9378 58.3723 28.3168 58.481 27.7114L60.2508 18.0551C60.2818 17.8377 60.111 17.667 59.8937 17.698L50.2374 19.4678C49.632 19.5765 49.011 19.3281 48.6539 18.8158L43.0806 10.743C42.9564 10.5722 42.6925 10.5722 42.5683 10.743L36.9949 18.8158C36.6379 19.3281 36.0169 19.5765 35.4114 19.4678L25.7551 17.698C25.5378 17.667 25.367 17.8377 25.3981 18.0551L27.1679 27.7114C27.2766 28.3168 27.0282 28.9378 26.5159 29.2949L18.4431 34.8682C18.2723 34.9924 18.2723 35.2563 18.4431 35.3805L26.5159 40.9538C27.0282 41.3109 27.2766 41.9319 27.1679 42.5373L25.3981 52.1936C25.367 52.411 25.5378 52.5817 25.7551 52.5507L35.4114 50.7809C35.5046 50.7498 35.5977 50.7498 35.6909 50.7498Z" fill="#000099"/>
        <path d="M55.8106 39.4479L61.3529 35.6289C61.71 35.3805 61.71 34.8526 61.3529 34.6042L55.8106 30.7852C55.2362 30.3971 54.9568 29.6985 55.081 29.0154L56.2919 22.3864C56.3695 21.9517 55.9969 21.5791 55.5622 21.6568L48.9332 22.8677C48.2502 22.9919 47.5515 22.7124 47.1634 22.138L43.3444 16.5957C43.096 16.2387 42.5682 16.2387 42.3198 16.5957L38.5007 22.138C38.1126 22.7124 37.414 22.9919 36.7309 22.8677L30.1019 21.6568C29.6672 21.5791 29.2946 21.9517 29.3723 22.3864L30.5832 28.9844C30.7074 29.683 30.4124 30.3971 29.838 30.8007L24.3113 34.6198C23.9542 34.8682 23.9542 35.396 24.3113 35.6444L29.8535 39.4634C30.4279 39.8671 30.7229 40.5657 30.5987 41.2488L29.3878 47.8778C29.3102 48.3124 29.6828 48.685 30.1174 48.6074L36.762 47.3965C37.445 47.2723 38.1281 47.5517 38.5162 48.1262L42.3508 53.684C42.5992 54.041 43.127 54.041 43.3754 53.684L47.1945 48.1417C47.5981 47.5673 48.2812 47.2723 48.9798 47.412L55.6088 48.6229C56.0435 48.7006 56.4161 48.328 56.3385 47.8933L55.1275 41.2643C54.9412 40.5502 55.2207 39.8516 55.8106 39.4479ZM49.3835 43.6706C47.9086 44.8039 46.1233 45.5646 44.1982 45.813L42.9718 49.8804C42.9252 50.0202 42.7234 50.0202 42.6768 49.8804L41.4504 45.813C39.5098 45.5646 37.74 44.8039 36.2652 43.6706L32.5238 45.6733C32.384 45.7509 32.2443 45.5956 32.3064 45.4559L34.3091 41.7145C33.1603 40.2397 32.384 38.4543 32.1356 36.5138L28.0993 35.2873C27.9595 35.2408 27.9595 35.0389 28.0993 34.9924L32.1356 33.7659C32.384 31.8098 33.1447 30.009 34.2936 28.5186L32.2909 24.8393C32.2133 24.6996 32.3685 24.5598 32.5082 24.6219L36.2031 26.5936C37.6934 25.4292 39.4943 24.653 41.4659 24.4046L42.6768 20.3993C42.7234 20.2595 42.9252 20.2595 42.9718 20.3993L44.1827 24.4046C46.1543 24.653 47.9552 25.4292 49.4455 26.5936L53.1404 24.6219C53.2801 24.5443 53.4198 24.6996 53.3577 24.8393L51.3861 28.5341C52.5349 30.0245 53.3112 31.8254 53.544 33.7814L57.5804 35.0079C57.7201 35.0545 57.7201 35.2563 57.5804 35.3029L53.544 36.5293C53.2956 38.4699 52.5194 40.2552 51.3706 41.73L53.3733 45.4715C53.4509 45.6112 53.2956 45.7509 53.1559 45.6888L49.3835 43.6706Z" fill="#000099"/>
        <path d="M43.4065 26.0502C37.9263 25.6932 33.3932 30.2419 33.7502 35.7065C34.0452 40.2397 37.6935 43.888 42.2266 44.1829C47.7068 44.54 52.24 39.9913 51.8829 34.5267C51.588 29.9935 47.9397 26.3452 43.4065 26.0502ZM48.126 37.2279L46.6356 39.3703C46.5269 39.51 46.3407 39.5566 46.1854 39.4479L44.4467 38.237V40.3639C44.4467 40.5347 44.3069 40.6899 44.1206 40.6899H41.5125C41.3417 40.6899 41.1865 40.5502 41.1865 40.3639V38.237L39.4477 39.4479C39.308 39.5566 39.1062 39.51 38.9975 39.3703L37.5072 37.2279C37.3985 37.0882 37.4451 36.8864 37.5848 36.7777L39.96 35.1166L37.5848 33.4555C37.4451 33.3468 37.3985 33.1605 37.5072 33.0052L38.9975 30.8629C39.1062 30.7231 39.2925 30.6766 39.4477 30.7852L41.1865 31.9961V29.8693C41.1865 29.6985 41.3262 29.5433 41.5125 29.5433H44.1206C44.2914 29.5433 44.4467 29.683 44.4467 29.8693V31.9961L46.1854 30.7852C46.3251 30.6766 46.5269 30.7231 46.6356 30.8629L48.126 33.0052C48.2347 33.145 48.1881 33.3468 48.0484 33.4555L45.6731 35.1166L48.0484 36.7777C48.1881 36.8864 48.2191 37.0882 48.126 37.2279Z" fill="#000099"/>
        <path d="M84.019 43.4067V27.6648C84.019 26.0037 84.8263 25.0412 86.3943 25.0412H91.9366C95.7401 25.0412 98.0377 26.9196 98.0377 30.3971C98.0377 32.7724 96.9044 34.2317 94.9173 34.8372C97.4478 35.5513 98.6742 37.4919 98.6742 40.1C98.6742 44.1519 96.3456 46.0304 91.4398 46.0304H86.3788C84.8263 46.0304 84.019 45.0679 84.019 43.4067ZM90.8654 34.0609C92.5886 34.0609 93.489 32.9898 93.489 31.1423C93.489 29.2949 92.6197 28.3479 90.9585 28.3479H88.4901V34.0609H90.8654ZM91.1914 42.7237C93.163 42.7237 94.11 41.8077 94.11 39.6032C94.11 37.585 93.163 36.6846 91.1293 36.6846H88.4901V42.7237H91.1914Z" fill="#000099"/>
        <path d="M102.152 43.4377V27.0593C102.152 25.6311 102.835 24.9169 104.061 24.9169H104.713C106.017 24.9169 106.685 25.6311 106.685 27.0593V41.7921H112.088C113.516 41.7921 114.199 42.4442 114.199 43.7327V43.9966C114.199 45.3317 113.516 46.0459 112.088 46.0459H104.527C102.975 46.0304 102.152 45.1299 102.152 43.4377Z" fill="#000099"/>
        <path d="M116.496 27.0593C116.496 25.6311 117.242 24.9169 118.468 24.9169H119.089C120.393 24.9169 121.03 25.6311 121.03 27.0593V38.4854C121.03 40.8917 122.008 42.1182 123.979 42.1182C125.951 42.1182 126.867 40.8917 126.867 38.4854V27.0593C126.867 25.6311 127.612 24.9169 128.838 24.9169H129.459C130.763 24.9169 131.431 25.6311 131.431 27.0593V37.9265C131.431 43.7638 128.869 46.3564 123.902 46.3564C119.042 46.3564 116.465 43.7638 116.465 37.9576V27.0593H116.496Z" fill="#000099"/>
        <path d="M135.514 43.4688V27.6338C135.514 25.9726 136.352 25.0101 137.843 25.0101H146.738C148.136 25.0101 148.819 25.6621 148.819 26.8575V27.1214C148.819 28.3945 148.136 28.9378 146.738 28.9378H139.985V33.4555H144.534C146.055 33.4555 146.645 33.9678 146.645 35.1476V35.4737C146.645 36.7001 146.024 37.29 144.534 37.29H139.985V42.1182H146.863C148.322 42.1182 148.974 42.6771 148.974 43.8414V44.1053C148.974 45.4094 148.322 46.0459 146.863 46.0459H137.843C136.352 46.0304 135.514 45.13 135.514 43.4688Z" fill="#000099"/>
        <path d="M157.543 43.4377V27.0593C157.543 25.6311 158.227 24.9169 159.453 24.9169H160.105C161.409 24.9169 162.077 25.6311 162.077 27.0593V41.7921H167.464C168.892 41.7921 169.575 42.4442 169.575 43.7327V43.9966C169.575 45.3317 168.892 46.0459 167.464 46.0459H159.903C158.351 46.0304 157.543 45.1299 157.543 43.4377Z" fill="#000099"/>
        <path d="M172.757 27.0593C172.757 25.6311 173.471 24.9169 174.698 24.9169H175.35C176.623 24.9169 177.29 25.6311 177.29 27.0593V44.0277C177.29 45.4249 176.607 46.1701 175.35 46.1701H174.698C173.471 46.1701 172.757 45.4249 172.757 44.0277V27.0593Z" fill="#000099"/>
        <path d="M197.783 36.7932V45.7199C197.783 45.8441 197.1 46.1701 196.262 46.1701C195.346 46.1701 194.601 45.813 194.182 44.2916C194.089 43.8414 194.026 43.2825 193.949 42.6771C193.266 44.8816 191.574 46.403 188.888 46.403C184.215 46.403 181.203 41.8543 181.203 35.66C181.203 29.2328 184.51 24.7307 190.285 24.7307C192.334 24.7307 194.12 25.3206 195.315 26.3142C196.355 27.1214 196.898 28.1926 196.898 29.2017C196.898 31.7633 194.073 31.8564 193.623 31.7012C193.033 29.683 191.9 28.5497 190.223 28.5497C187.661 28.5497 186.031 30.8473 186.031 35.7842C186.031 40.4881 187.522 42.7236 190.114 42.7236C191.993 42.7236 193.359 41.5593 193.654 39.448C193.716 39.0598 193.747 38.6407 193.778 38.1439H191.605C190.301 38.1439 189.586 37.7868 189.586 36.4828V36.2499C189.586 34.9148 190.238 34.5888 191.667 34.5888H196.215C197.519 34.6198 197.783 35.365 197.783 36.7932Z" fill="#000099"/>
        <path d="M201.665 44.0277V27.0593C201.665 25.6311 202.348 24.9169 203.605 24.9169H204.195C205.499 24.9169 206.167 25.6311 206.167 27.0593V33.5486H212.361V27.0593C212.361 25.6311 213.044 24.9169 214.27 24.9169H214.891C216.164 24.9169 216.863 25.6311 216.863 27.0593V44.0277C216.863 45.4249 216.149 46.1701 214.891 46.1701H214.27C213.044 46.1701 212.361 45.4249 212.361 44.0277V37.4763H206.167V44.0277C206.167 45.4249 205.484 46.1701 204.195 46.1701H203.574C202.348 46.1701 201.665 45.4249 201.665 44.0277Z" fill="#000099"/>
        <path d="M224.936 29.2639H221.784C220.418 29.2639 219.704 28.5497 219.704 27.2457V26.9817C219.704 25.6777 220.418 25.0412 221.784 25.0412H232.558C233.956 25.0412 234.639 25.6932 234.639 26.9817V27.2457C234.639 28.5497 233.956 29.2639 232.558 29.2639H229.469V44.0277C229.469 45.4249 228.755 46.1701 227.42 46.1701H226.768C225.541 46.1701 224.92 45.4249 224.92 44.0277L224.936 29.2639Z" fill="#000099"/>
        <path d="M250.303 24.7151C252.678 24.7151 254.464 25.4603 255.519 26.5004C256.326 27.3077 256.823 28.3479 256.823 29.3259C256.823 32.0582 253.734 32.1514 253.454 31.9806C252.942 29.9003 251.824 28.6739 250.148 28.6739C247.881 28.6739 246.453 30.7542 246.453 35.5823C246.453 40.3794 247.881 42.3976 250.179 42.3976C252.088 42.3976 252.973 40.9383 253.423 38.827C253.485 38.6251 256.87 38.4699 256.87 41.3885C256.87 42.4287 256.389 43.562 255.535 44.4003C254.432 45.5646 252.585 46.3409 250.21 46.3409C244.885 46.3409 241.578 42.1803 241.578 35.6599C241.578 29.062 244.916 24.7151 250.303 24.7151Z" fill="#000099"/>
        <path d="M258.64 44.8039L263.856 26.2521C264.089 25.4137 264.927 24.8859 267.132 24.8859C269.336 24.8859 270.112 25.3982 270.345 26.2521L275.763 44.7729C275.856 45.1299 274.894 46.2322 273.233 46.2322C271.835 46.2632 271.261 45.2852 270.966 44.0587L269.973 40.6744H264.322L263.313 44.1208C262.955 45.6733 262.148 46.2632 261.077 46.2322C259.431 46.2322 258.515 45.0678 258.64 44.8039ZM269.258 37.2435L267.085 28.736L264.912 37.2435H269.258Z" fill="#000099"/>
        <path d="M278.464 43.7638V27.6338C278.464 25.9726 279.272 25.0412 280.793 25.0412H285.916C290.434 25.0412 292.7 27.3078 292.7 31.5615C292.7 34.5112 291.474 36.4673 289.006 37.2745C288.804 37.3366 288.447 37.4298 288.198 37.5074L293.104 44.6487C293.228 44.8505 292.328 46.1701 290.449 46.1701C289.145 46.1701 288.431 45.4249 287.919 44.4469L283.96 38.0818H282.92V44.0588C282.92 45.3939 282.268 46.1701 280.979 46.1701H280.389C279.147 46.1701 278.464 45.3784 278.464 43.7638ZM285.249 35.4271C287.36 35.4271 288.229 34.2317 288.229 31.9807C288.229 29.652 287.282 28.5808 285.187 28.5808H282.889V35.4271H285.249Z" fill="#000099"/>
        <path d="M296.473 27.6648C296.473 25.9726 297.482 25.0412 298.848 25.0412H303.226C308.738 25.0412 312.122 28.9999 312.122 35.4582C312.122 41.9785 308.396 46.0304 302.838 46.0304H299.004C297.575 46.0304 296.473 44.8661 296.473 43.4688V27.6648ZM307.387 35.4892C307.387 30.6611 305.695 28.736 302.947 28.736H300.975V42.3355H302.885C305.633 42.3355 307.387 40.426 307.387 35.4892Z" fill="#000099"/>
        <path d="M316.81 43.857C316.81 45.2542 315.708 46.3564 314.279 46.3564C312.867 46.3564 311.733 45.2542 311.733 43.857C311.733 42.4908 312.867 41.3885 314.279 41.3885C315.708 41.3885 316.81 42.4908 316.81 43.857ZM312.37 43.857C312.37 44.9592 313.177 45.8286 314.295 45.8286C315.382 45.8286 316.173 44.9592 316.173 43.8725C316.173 42.7702 315.382 41.8853 314.279 41.8853C313.177 41.8853 312.37 42.7702 312.37 43.857ZM313.891 45.161H313.317V42.6926C313.55 42.646 313.86 42.615 314.264 42.615C314.73 42.615 314.947 42.6926 315.118 42.8013C315.257 42.91 315.366 43.0963 315.366 43.3446C315.366 43.6086 315.149 43.8259 314.854 43.9191V43.9501C315.102 44.0433 315.226 44.214 315.304 44.5556C315.382 44.9282 315.428 45.0834 315.49 45.1765H314.869C314.792 45.0834 314.745 44.8661 314.668 44.5711C314.621 44.3072 314.466 44.183 314.155 44.183H313.891V45.161ZM313.907 43.7483H314.171C314.481 43.7483 314.745 43.6396 314.745 43.3912C314.745 43.1584 314.574 43.0186 314.217 43.0186C314.062 43.0186 313.969 43.0342 313.907 43.0497V43.7483Z" fill="#000099"/>
</svg>
