<svg width="20" height="20" viewBox="0 0 20 20" fill="none" xmlns="http://www.w3.org/2000/svg">
<path d="M3.81806 4.00815L10.1824 4.74393L16.5468 4.00815C16.9213 3.96565 17.2773 4.17284 17.426 4.51815L18.276 6.50237C18.5363 7.11065 18.1831 7.80659 17.5376 7.95534L13.3115 8.93018C12.8095 9.04706 12.2862 8.84784 11.986 8.42815L10.1824 5.90472L8.37884 8.43081C8.07868 8.8505 7.55806 9.04706 7.05337 8.93284L2.82462 7.95268C2.17915 7.80393 1.82587 7.108 2.08618 6.49972L2.93618 4.5155C3.08493 4.17018 3.44087 3.963 3.8154 4.0055L3.81806 4.00815ZM3.71978 4.85284L2.86978 6.83706C2.81665 6.95925 2.88837 7.09737 3.01853 7.12659L7.24728 8.10143C7.41462 8.14128 7.58993 8.07487 7.68821 7.93409L9.41743 5.51159L3.71978 4.85284ZM16.1324 8.98065L16.9824 8.73893V12.7499C16.9824 13.3342 16.584 13.8442 16.0156 13.9877L10.4906 15.3689C10.2887 15.4194 10.0762 15.4194 9.87165 15.3689L4.34665 13.9877C3.78087 13.8416 3.38243 13.3316 3.38243 12.7472V8.73628L4.23243 8.978V12.7472C4.23243 12.9411 4.36524 13.1111 4.55384 13.1589L9.75743 14.4605V8.21831C9.75743 7.98456 9.94868 7.79331 10.1824 7.79331C10.4162 7.79331 10.6074 7.98456 10.6074 8.21831V14.4605L15.811 13.1589C15.9996 13.1111 16.1324 12.9411 16.1324 12.7472V8.98065ZM10.9474 5.51159L12.6766 7.93409C12.7776 8.07487 12.9502 8.13862 13.1176 8.10143L17.3463 7.12659C17.4765 7.09737 17.5456 6.95659 17.4951 6.83706L16.6451 4.85284L10.9474 5.51159Z" fill="#202125"/>
<path d="M0.801737 2.91416L0.801725 2.91415L0.799585 2.91677C0.518178 3.26047 0.586484 3.75902 0.934196 4.02394L0.934193 4.02395L0.935585 4.025L17.0845 16.2107L17.0852 16.2112C17.4256 16.4669 17.9195 16.4221 18.1978 16.0835C18.4816 15.7383 18.4153 15.2416 18.0663 14.9757L18.0649 14.9747L1.91334 2.78644L1.91334 2.78644L1.91208 2.78549C1.57069 2.53012 1.07682 2.58429 0.801737 2.91416Z" fill="#202125" stroke="white" stroke-width="0.75"/>
</svg>
