<svg width="20" height="20" viewBox="0 0 20 20" fill="none" xmlns="http://www.w3.org/2000/svg">
<path d="M16.125 10C16.125 8.37555 15.4797 6.81763 14.331 5.66897C13.1824 4.52031 11.6245 3.875 10 3.875C8.37555 3.875 6.81763 4.52031 5.66897 5.66897C4.52031 6.81763 3.875 8.37555 3.875 10C3.875 11.6245 4.52031 13.1824 5.66897 14.331C6.81763 15.4797 8.37555 16.125 10 16.125C11.6245 16.125 13.1824 15.4797 14.331 14.331C15.4797 13.1824 16.125 11.6245 16.125 10ZM3 10C3 8.14348 3.7375 6.36301 5.05025 5.05025C6.36301 3.7375 8.14348 3 10 3C11.8565 3 13.637 3.7375 14.9497 5.05025C16.2625 6.36301 17 8.14348 17 10C17 11.8565 16.2625 13.637 14.9497 14.9497C13.637 16.2625 11.8565 17 10 17C8.14348 17 6.36301 16.2625 5.05025 14.9497C3.7375 13.637 3 11.8565 3 10ZM10.0984 6.9375C9.54609 6.9375 9.10039 7.38867 9.10312 7.94102L9.11133 9.125H10.4375C10.6781 9.125 10.875 9.32187 10.875 9.5625C10.875 9.80313 10.6781 10 10.4375 10H9.11406C9.08945 10.6152 8.91992 11.2141 8.62188 11.75H11.9688C12.2094 11.75 12.4062 11.9469 12.4062 12.1875C12.4062 12.4281 12.2094 12.625 11.9688 12.625H7.8125C7.65117 12.625 7.50078 12.5348 7.42422 12.3926C7.34766 12.2504 7.35859 12.0754 7.45156 11.9414L7.70312 11.5723C8.02305 11.1074 8.20625 10.5633 8.23633 10H7.8125C7.57187 10 7.375 9.80313 7.375 9.5625C7.375 9.32187 7.57187 9.125 7.8125 9.125H8.23633L8.22812 7.94648C8.21992 6.90742 9.05938 6.0625 10.0984 6.0625C10.3883 6.0625 10.6754 6.13086 10.9352 6.25937L11.5066 6.54648C11.7227 6.65586 11.8102 6.91836 11.7035 7.13437C11.5969 7.35039 11.3316 7.43789 11.1156 7.33125L10.5441 7.04414C10.4047 6.97578 10.2543 6.94023 10.0984 6.94023V6.9375Z" fill="#202125"/>
</svg>
