<svg width="33" height="24" viewBox="0 0 33 24" xmlns="http://www.w3.org/2000/svg">
<path d="M24.9373 23.6303C24.9366 23.7279 24.8973 23.8213 24.828 23.89C24.7587 23.9588 24.6651 23.9973 24.5675 23.9973H23.2264C23.1281 23.9973 23.0337 23.9585 22.9639 23.8892C22.8941 23.8199 22.8545 23.7258 22.8538 23.6275V19.8302C22.8538 19.6241 22.7973 19.6156 22.7267 19.8076L21.6313 22.7861C21.5924 22.8889 21.5245 22.978 21.4357 23.0427C21.3469 23.1074 21.2412 23.1448 21.1316 23.1504H20.5133C20.4052 23.146 20.3006 23.1107 20.212 23.0486C20.1234 22.9866 20.0545 22.9004 20.0135 22.8003L18.9068 19.7624C18.8362 19.5704 18.7769 19.5817 18.7769 19.785V23.6303C18.7762 23.7279 18.7369 23.8213 18.6676 23.89C18.5983 23.9588 18.5047 23.9973 18.4071 23.9973H17.0914C16.9931 23.9973 16.8987 23.9585 16.8289 23.8892C16.7591 23.8199 16.7195 23.7258 16.7188 23.6275V14.7257C16.7195 14.627 16.759 14.5327 16.8287 14.463C16.8985 14.3932 16.9928 14.3537 17.0914 14.353H18.5369C18.645 14.3573 18.7496 14.3927 18.8382 14.4547C18.9268 14.5168 18.9957 14.603 19.0367 14.7031L20.7306 19.3756C20.8012 19.5676 20.8887 19.6354 20.9255 19.5224L21.1203 18.9578L22.6477 14.689C22.6885 14.5893 22.7569 14.5034 22.845 14.4413C22.933 14.3793 23.037 14.3438 23.1446 14.3389H24.5816C24.68 14.3433 24.7726 14.3864 24.8393 14.4589C24.9059 14.5314 24.9412 14.6273 24.9373 14.7257V23.6303Z"/>
<path d="M29.0197 17.9894L30.5358 14.6805C30.5863 14.5832 30.6613 14.5008 30.7534 14.4414C30.8455 14.382 30.9515 14.3476 31.061 14.3417H32.6222C32.6653 14.3315 32.7104 14.3349 32.7515 14.3513C32.7926 14.3677 32.8276 14.3965 32.8517 14.4336C32.8758 14.4707 32.8878 14.5143 32.8862 14.5585C32.8845 14.6027 32.8693 14.6453 32.8425 14.6805L30.2704 19.9262C30.1713 20.1489 30.1157 20.3884 30.1067 20.632V23.6304C30.1052 23.7277 30.0657 23.8207 29.9966 23.8892C29.9274 23.9578 29.8342 23.9967 29.7368 23.9974H28.3252C28.2283 23.9959 28.1358 23.9568 28.0673 23.8883C27.9988 23.8198 27.9596 23.7272 27.9582 23.6304V20.6405C27.9491 20.3978 27.8936 20.1592 27.7944 19.9375L25.2196 14.6805C25.1961 14.6461 25.1831 14.6055 25.1823 14.5637C25.1815 14.522 25.1929 14.481 25.215 14.4456C25.2372 14.4102 25.2692 14.3821 25.3071 14.3647C25.345 14.3472 25.3872 14.3412 25.4285 14.3474H27.0434C27.1505 14.3541 27.254 14.3882 27.344 14.4466C27.434 14.5049 27.5075 14.5855 27.5573 14.6805L29.0197 17.9894Z"/>
<path d="M12.4245 14.3532C12.4245 14.3532 15.7616 14.2346 15.7616 17.2894C15.7616 19.4125 14.0676 20.0082 14.0676 20.0082L16.2105 23.6785C16.3122 23.8535 16.2303 23.9975 16.027 23.9975H14.3217C14.2087 23.993 14.0984 23.9615 14.0002 23.9054C13.9019 23.8494 13.8185 23.7706 13.7571 23.6757L11.8768 20.3696H11.1596V23.6305C11.1589 23.7281 11.1196 23.8214 11.0503 23.8902C10.981 23.9589 10.8874 23.9975 10.7898 23.9975H9.37815C9.28006 23.9975 9.18599 23.9585 9.11663 23.8892C9.04727 23.8198 9.0083 23.7258 9.0083 23.6277V14.7258C9.0083 14.6275 9.04717 14.5331 9.11645 14.4633C9.18574 14.3935 9.2798 14.3539 9.37815 14.3532H12.4245ZM11.1596 18.365H12.0772C13.6244 18.365 13.6244 17.5661 13.6244 17.2357C13.6244 16.705 13.5058 16.2278 12.0772 16.2278H11.1596V18.365Z"/>
<path d="M8.6695 23.6501L5.64293 14.7059C5.60295 14.6066 5.53553 14.5206 5.44855 14.4582C5.36156 14.3957 5.2586 14.3592 5.15168 14.353H3.90943C3.803 14.3597 3.70065 14.3964 3.61421 14.4589C3.52777 14.5213 3.46078 14.607 3.421 14.7059L0.394437 23.6501C0.376283 23.6907 0.369364 23.7355 0.374401 23.7797C0.379438 23.8239 0.396248 23.8659 0.423074 23.9014C0.449901 23.9368 0.48576 23.9645 0.526909 23.9814C0.568057 23.9983 0.612986 24.0038 0.657003 23.9974H2.13076C2.23747 23.9929 2.34048 23.9571 2.42688 23.8943C2.51327 23.8315 2.57919 23.7446 2.61637 23.6445L3.03704 22.3599H5.99867L6.40804 23.636C6.44269 23.7379 6.50733 23.8269 6.59349 23.8914C6.67965 23.9559 6.7833 23.9929 6.89083 23.9974H8.4154C8.45852 24.0012 8.5019 23.9939 8.54133 23.976C8.58077 23.9582 8.61492 23.9304 8.64048 23.8955C8.66604 23.8605 8.68215 23.8196 8.68723 23.7766C8.69232 23.7336 8.68621 23.6901 8.6695 23.6501ZM3.68639 20.3751L4.53338 17.8031L5.3606 20.3779L3.68639 20.3751Z"/>
<mask id="mask0_2157_9390" style="mask-type:luminance" maskUnits="userSpaceOnUse" x="6" y="0" width="21" height="14">
<path d="M26.2189 12.789C25.7559 12.8944 25.2821 12.9446 24.8073 12.9386C24.3359 12.9308 23.8645 12.9515 23.3956 13.0007C22.9212 13.0377 22.4496 13.1056 21.984 13.204C21.5205 13.306 21.0469 13.3543 20.5724 13.348C20.0983 13.3564 19.6249 13.3119 19.1607 13.2153C18.6959 13.1182 18.2236 13.0605 17.7491 13.0431C17.2782 13.0135 16.8056 13.0276 16.3374 13.0854C15.8693 13.1446 15.3967 13.1598 14.9258 13.1306C14.4577 13.1153 13.992 13.0586 13.5339 12.9612C13.0701 12.8615 12.5965 12.8151 12.1222 12.8228C11.6475 12.8182 11.1738 12.8684 10.7106 12.9725C10.2397 13.0754 9.76243 13.1471 9.28202 13.187C8.81347 13.2405 8.34185 13.2622 7.87037 13.252C7.3877 13.242 6.90598 13.299 6.43896 13.4214V0.050274C6.88915 -0.016758 7.34678 -0.016758 7.79697 0.050274C8.24581 0.115042 8.69866 0.148062 9.15215 0.149089C9.61506 0.164658 10.0785 0.144837 10.5384 0.0898001C10.9891 0.0297864 11.4457 0.0297864 11.8964 0.0898001C12.3575 0.143401 12.8111 0.248519 13.2487 0.403185C13.6852 0.557704 14.1351 0.671129 14.5926 0.74198C15.0367 0.824011 15.4879 0.860901 15.9393 0.852088C16.3916 0.846364 16.8435 0.883229 17.2889 0.962197C17.7464 1.03001 18.1978 1.13482 18.6384 1.27558C19.0764 1.4193 19.529 1.51399 19.9879 1.55791C20.4402 1.60775 20.8965 1.60775 21.3488 1.55791C21.8052 1.50698 22.2646 1.48717 22.7237 1.49862C23.1802 1.49623 23.6365 1.52074 24.0902 1.57203C24.5512 1.62275 25.0167 1.61706 25.4764 1.55509C25.6571 4.92045 26.0213 9.41795 26.2189 12.789Z" fill="white"/>
</mask>
<g mask="url(#mask0_2157_9390)">
<path d="M13.9911 4.23435C13.9262 3.06833 13.8951 1.86844 13.9262 0.61772C13.6438 0.549961 13.4462 0.482202 13.2486 0.414443C12.8082 0.25916 12.3517 0.154034 11.8878 0.101058C11.4404 0.0380433 10.9866 0.0342463 10.5382 0.0897644C10.0885 0.142295 9.63555 0.161169 9.18304 0.14623C8.9346 0.14623 8.73132 0.14623 8.55627 0.123644C9.03059 0.465262 9.60371 0.688302 10.0921 1.04968C10.4479 1.30943 10.7641 1.61434 11.1311 1.86844L11.2666 1.96161C11.7361 2.23161 12.1895 2.52855 12.6246 2.85094C13.1356 3.2829 13.4716 3.81933 13.9996 4.24282" fill="#1D3176"/>
<path d="M6.46144 11.8769C6.60543 11.7809 6.9047 11.5945 7.19267 11.38L7.26608 11.3263C7.66416 11.044 8.01143 10.7137 8.39539 10.4342C8.88665 10.0784 9.45695 9.8441 9.93409 9.52789C10.262 9.29881 10.5599 9.02943 10.8206 8.72607H10.7839C10.3176 8.81153 9.84591 8.86436 9.37225 8.88418C8.89285 8.91672 8.41178 8.91672 7.93238 8.88418C7.4394 8.85038 6.94413 8.8798 6.45862 8.9717V11.8769" fill="#1D3176"/>
<path d="M6.46155 4.5166C6.92996 4.4532 7.40478 4.4532 7.87319 4.5166C8.33191 4.57508 8.79424 4.60056 9.2566 4.59283C9.71273 4.59887 10.1686 4.56961 10.6203 4.50531H10.657L10.5017 4.38673C9.88902 3.92653 9.12956 3.66397 8.52537 3.22353C7.97765 2.80569 7.62192 2.25797 7.06291 1.89659C6.87328 1.78095 6.67164 1.68629 6.46155 1.61426V4.5166Z" fill="#1D3176"/>
<path d="M26.1371 11.4902C26.0844 10.679 26.0298 9.86682 25.9733 9.05371C25.5065 9.12618 25.0331 9.14701 24.5617 9.11582C24.0916 9.08588 23.6201 9.08588 23.15 9.11582C22.6891 9.12955 22.2298 9.17483 21.7751 9.25134H21.744L21.9049 9.35016C22.5402 9.74259 23.3166 9.93458 23.9547 10.2847C24.5193 10.6009 24.9174 11.0498 25.5075 11.3123C25.7073 11.3962 25.9156 11.4587 26.1286 11.4987" fill="#1D3176"/>
<path d="M25.7135 5.30135C25.6571 4.49107 25.6006 3.68078 25.5526 2.86768C25.4114 2.9439 25.1432 3.07942 24.8694 3.24317L24.8016 3.28552C24.4289 3.51139 24.1099 3.77113 23.7542 3.99135C23.2911 4.27367 22.7434 4.45719 22.2889 4.71975C21.9767 4.91003 21.6918 5.14177 21.4419 5.40864H21.473C21.9322 5.34348 22.3953 5.30952 22.8592 5.307C23.3301 5.29185 23.8015 5.30505 24.2708 5.34652C24.7489 5.38674 25.2299 5.37348 25.7051 5.307" fill="#1D3176"/>
<path d="M18.48 13.0994C18.7624 13.1333 18.9769 13.1728 19.183 13.2152C19.6472 13.3118 20.1207 13.3563 20.5947 13.3479C21.0692 13.3542 21.5429 13.3059 22.0063 13.2039C22.472 13.1055 22.9435 13.0376 23.418 13.0006C23.6636 12.978 23.8669 12.9611 24.0447 12.9526C23.5366 12.7126 22.9352 12.5687 22.4242 12.2976C22.0487 12.0972 21.7127 11.8515 21.3287 11.6483L21.1735 11.5749C20.846 11.4111 20.4846 11.2925 20.1627 11.1034C19.9302 10.9748 19.7116 10.8225 19.5105 10.6488C19.1515 10.292 18.7746 9.95374 18.3812 9.63525C18.449 10.7646 18.4913 11.8939 18.4716 13.1023" fill="#1D3176"/>
<path d="M6.46155 8.08243C6.94507 7.99726 7.43752 7.97449 7.92684 8.01467C8.40302 8.05315 8.88128 8.05881 9.35824 8.03161C9.83176 8.01942 10.3037 7.97129 10.7699 7.88762C11.2273 7.80765 11.6923 7.77924 12.1561 7.80292C12.6221 7.81675 13.0856 7.87729 13.5395 7.98361C13.9901 8.09112 14.4492 8.15913 14.9117 8.18689L15.2194 8.20665C15.3378 9.84895 15.3623 11.4967 15.2928 13.1418C15.656 13.1515 16.0195 13.1326 16.3798 13.0853C16.7459 13.0406 17.1149 13.0226 17.4837 13.0317C17.5096 11.4055 17.453 9.77908 17.3143 8.15866L17.5966 8.17559C18.0594 8.20506 18.5192 8.27114 18.9715 8.37323C19.4221 8.47565 19.8818 8.53241 20.3437 8.54262C20.8042 8.56754 21.2661 8.54293 21.7214 8.46922C22.1761 8.39392 22.6356 8.35146 23.0964 8.34217C23.5669 8.31982 24.0383 8.32642 24.508 8.36193C24.9791 8.39659 25.4526 8.3786 25.9197 8.30829C25.866 7.55729 25.8152 6.8063 25.7616 6.04966C25.2875 6.11762 24.8072 6.13088 24.3301 6.08918C23.8607 6.0503 23.3893 6.03899 22.9185 6.05531C22.4555 6.06037 21.9933 6.09621 21.5351 6.16259C21.084 6.23101 20.6268 6.25089 20.1714 6.22188C19.7089 6.20455 19.2493 6.14119 18.7993 6.03272C18.3501 5.92481 17.8933 5.8512 17.4329 5.8125L17.1505 5.78709C17.0172 4.17017 16.9672 2.54745 17.0009 0.925388C16.6501 0.877218 16.2962 0.855511 15.9422 0.860452C15.5938 0.868269 15.2453 0.847495 14.9004 0.79834C14.8608 2.53466 14.9512 4.18629 15.0585 5.78709L14.7535 5.76168C14.2948 5.72233 13.8404 5.64297 13.3955 5.52453C12.9488 5.40385 12.491 5.32912 12.0291 5.30149C11.5752 5.26373 11.1186 5.27889 10.6682 5.34666C10.214 5.4145 9.75539 5.44847 9.29613 5.4483C8.82936 5.45826 8.36244 5.43656 7.8986 5.38336C7.42459 5.32647 6.9451 5.33312 6.47284 5.40312V8.0796" fill="#D70926"/>
<path d="M6.46155 1.09453C6.99694 1.28525 7.47096 1.61688 7.83367 2.05445C8.08287 2.339 8.36752 2.59044 8.68065 2.80262C9.16061 3.1273 9.73656 3.3334 10.2222 3.67501C10.561 3.91217 10.8743 4.18038 11.2301 4.40625L11.2781 4.4373C11.4701 4.4373 11.6959 4.4373 11.9839 4.46271C12.3222 4.48587 12.6582 4.53495 12.989 4.60952C12.8408 4.46461 12.6823 4.33062 12.5147 4.20862C12.0291 3.85006 11.4503 3.60726 10.9647 3.25717C10.6231 3.01154 10.3153 2.73768 9.97372 2.509L9.90596 2.46382C9.82691 2.41583 9.66316 2.31137 9.42882 2.18149C8.82159 1.92469 8.28229 1.53036 7.85343 1.02959C7.48837 0.581915 7.00667 0.243849 6.46155 0.0527344V1.09453Z" fill="#D70926"/>
<path d="M6.46155 0.0529909C6.9048 0.222388 6.90198 0.185685 8.19222 1.39405C8.75688 1.91919 9.53893 2.19022 10.1826 2.65889C10.4989 2.88475 10.7897 3.14167 11.1143 3.36471C11.5745 3.67527 12.0997 3.90678 12.5486 4.23711C12.7004 4.35197 12.8447 4.47645 12.9805 4.60978C12.6497 4.53521 12.3137 4.48613 11.9754 4.46297C11.6931 4.44038 11.4616 4.43474 11.2696 4.43756L11.2019 4.39521C10.8264 4.15523 10.5017 3.86725 10.1375 3.62163C9.66598 3.29977 9.12673 3.10497 8.6496 2.78876C8.34339 2.57314 8.06382 2.322 7.81673 2.04059C7.46078 1.60647 6.99179 1.27916 6.46155 1.09478V1.61145C6.67504 1.6817 6.87968 1.77644 7.07138 1.89378C7.65298 2.26927 8.02 2.85087 8.60725 3.2546C9.19449 3.65833 9.92008 3.92372 10.5073 4.36698L10.657 4.47991H10.6203C10.1686 4.54421 9.71273 4.57347 9.2566 4.56743C8.79424 4.57516 8.33191 4.54969 7.87319 4.4912C7.40478 4.42781 6.92996 4.42781 6.46155 4.4912V5.38336C6.9338 5.31336 7.41329 5.30671 7.88731 5.3636C8.35115 5.4168 8.81806 5.43849 9.28484 5.42853C9.74319 5.44087 10.2018 5.41916 10.657 5.3636C11.1073 5.29583 11.564 5.28067 12.0178 5.31843C12.4797 5.34606 12.9375 5.42079 13.3843 5.54146C13.8292 5.65991 14.2835 5.73926 14.7423 5.77862L15.0472 5.80403C14.9399 4.18911 14.8495 2.5516 14.8891 0.815279L14.5842 0.767283C14.3159 0.722111 14.1014 0.676938 13.9179 0.631765C13.8953 1.88248 13.9179 3.08238 13.9913 4.25687C13.4661 3.82491 13.1104 3.28001 12.5796 2.84522C12.1433 2.52719 11.6899 2.23314 11.2216 1.96436L11.103 1.8486C10.7388 1.59168 10.4226 1.28395 10.0669 1.02985C9.58693 0.682584 9.02227 0.465191 8.55643 0.123573C8.24587 0.10381 8.0313 0.0727539 7.81955 0.0473443C7.36936 -0.0196877 6.91173 -0.0196877 6.46155 0.0473443" fill="white"/>
<path d="M17.4724 13.0318H17.7773C18.0597 13.0318 18.2884 13.0656 18.4803 13.0882C18.5001 11.8911 18.4578 10.7449 18.39 9.62122C18.9264 10.0108 19.2963 10.5077 19.8355 10.8832C20.2895 11.152 20.7611 11.3897 21.2472 11.5947L21.3178 11.6314C21.7215 11.8488 22.0772 12.1085 22.4753 12.3146C22.975 12.5716 23.5566 12.7042 24.0422 12.9414C24.3697 12.9245 24.6069 12.9273 24.8271 12.9273C25.2866 12.9323 25.7452 12.8839 26.1936 12.7833C25.5019 12.6591 25.2619 12.4925 24.6549 12.0267C24.2019 11.6094 23.6619 11.2979 23.0738 11.1147C22.0377 10.6291 21.3375 10.1887 20.3042 9.61275C20.1771 9.5337 19.6181 9.40947 19.4092 9.22878C19.7437 9.28136 20.0814 9.3106 20.4199 9.3163C20.6579 9.32847 20.8963 9.32847 21.1342 9.3163L21.2048 9.35301C21.5888 9.55911 21.9276 9.80191 22.3031 10.0024C22.7943 10.2649 23.3646 10.4089 23.8502 10.6517C24.1662 10.8144 24.4626 11.0123 24.7339 11.2418C25.1424 11.5946 25.6374 11.8324 26.1682 11.9307C26.1682 11.7867 26.1484 11.6483 26.1399 11.4931C25.9204 11.4504 25.7064 11.3831 25.5019 11.2926C24.8864 11.0103 24.4883 10.5416 23.8728 10.2226C23.2574 9.90355 22.512 9.70592 21.8965 9.33042L21.7497 9.24007H21.7808C22.2355 9.16356 22.6948 9.11828 23.1557 9.10456C23.6258 9.07462 24.0973 9.07462 24.5674 9.10456C25.0388 9.13574 25.5122 9.11491 25.979 9.04244L25.9282 8.29145C25.4611 8.36176 24.9876 8.37975 24.5165 8.34509C24.0468 8.30958 23.5754 8.30298 23.1049 8.32533C22.6441 8.33462 22.1846 8.37708 21.73 8.45238C21.2795 8.52697 20.8224 8.55347 20.3663 8.53143C19.9044 8.52121 19.4447 8.46446 18.9942 8.36203C18.5418 8.25995 18.0821 8.19386 17.6192 8.1644L17.3369 8.14746C17.4719 9.76808 17.5247 11.3945 17.495 13.0205" fill="white"/>
<path d="M18.0598 5.11518C18.3421 5.16035 18.5425 5.21117 18.743 5.25916L19.1213 5.34104C19.6041 5.07847 20.1998 4.94013 20.6713 4.64651C21.0672 4.34715 21.4444 4.02375 21.8006 3.67812C21.8543 3.63012 21.843 3.66118 23.4127 2.83113C23.8108 2.61656 24.1496 2.34553 24.5279 2.0999C24.8316 1.90468 25.1455 1.72562 25.4681 1.56348C25.0108 1.62194 24.5482 1.62479 24.0903 1.57195H24.0084L23.9576 1.60583C23.3562 2.02367 22.5855 2.24389 21.9982 2.63068C21.4646 2.98359 21.1513 3.47767 20.5866 3.77694C20.1179 4.0395 19.5533 4.17784 19.0903 4.42629C18.7684 4.59851 18.4804 4.80179 18.1501 4.96272L18.0485 5.01071V5.12364" fill="#D70926"/>
<path d="M17.1391 5.79003L17.4214 5.81544C17.8818 5.85414 18.3386 5.92775 18.7879 6.03566C19.2378 6.14413 19.6975 6.20749 20.16 6.22482C20.6238 6.25567 21.0896 6.23579 21.5491 6.16553C22.0073 6.09915 22.4695 6.06331 22.9325 6.05825C23.4033 6.04193 23.8746 6.05324 24.3441 6.09213C24.8212 6.13383 25.3015 6.12056 25.7755 6.0526L25.7247 5.3016C25.2496 5.36809 24.7685 5.38135 24.2905 5.34113C23.8211 5.29965 23.3497 5.28645 22.8788 5.3016C22.415 5.30426 21.9519 5.33821 21.4926 5.40324H21.4615C21.7097 5.1322 21.9949 4.89744 22.3085 4.70589C22.78 4.42356 23.3503 4.24569 23.8246 3.94078C24.1578 3.72621 24.4655 3.48623 24.8156 3.27166L24.8862 3.22931C25.1516 3.07121 25.4508 2.92157 25.5525 2.86228C25.5271 2.4275 25.5045 1.99271 25.4819 1.55792C25.3012 1.65109 24.9172 1.84025 24.5502 2.0887C24.1832 2.33715 23.7907 2.63642 23.3644 2.85946C21.9133 3.60481 21.9217 3.57657 21.7664 3.70645C21.4267 4.03875 21.0645 4.34723 20.6823 4.62966C20.2052 4.91199 19.6038 5.06445 19.121 5.32984L18.7427 5.24796C18.5423 5.19997 18.3362 5.14915 18.0595 5.10397V4.99104L18.1244 4.95999C18.4773 4.79059 18.7822 4.57602 19.1239 4.39533C19.5671 4.161 20.1092 4.03112 20.5553 3.77985C21.1199 3.45517 21.4785 2.95545 22.0431 2.59407C22.6078 2.23269 23.3955 1.98706 23.994 1.57204L24.0223 1.55228C23.8331 1.53251 23.6298 1.51275 23.3616 1.49863C21.9104 2.22704 21.9133 2.19881 21.7467 2.34562C21.4001 2.67627 21.0312 2.98285 20.6428 3.26319C20.1798 3.54552 19.6038 3.67257 19.1295 3.91537C18.7822 4.09324 18.4773 4.30781 18.1272 4.48003L18.0312 4.5252C17.9663 3.41 17.9324 2.26657 17.9635 1.10337C17.78 1.06102 17.5626 1.01867 17.2887 0.976325L17.0064 0.931152C16.9727 2.55321 17.0227 4.17594 17.156 5.79286" fill="white"/>
<path d="M7.89284 13.252H8.02271C8.66642 12.7071 9.47105 12.3768 10.1035 11.894C10.6681 11.4592 11.0352 10.9002 11.6196 10.5219C12.1108 10.2057 12.6981 10.025 13.1837 9.73703C13.5168 9.53939 13.8105 9.31071 14.1521 9.13284L14.2735 9.07073V8.92674C13.9911 8.89004 13.7822 8.84487 13.5761 8.79969L13.2345 8.73193C12.7178 9.03967 12.0826 9.22319 11.5659 9.57892C11.1564 9.91111 10.7714 10.2725 10.414 10.6602C10.2672 10.8042 10.2757 10.7591 8.72006 11.7416C8.30291 12.0356 7.90145 12.3513 7.51734 12.6874C7.29994 12.8624 7.01479 13.0798 6.54895 13.4017C6.99241 13.294 7.44786 13.2437 7.90413 13.252" fill="#D70926"/>
<path d="M6.46149 8.97418C6.947 8.88227 7.44227 8.85286 7.93525 8.88666C8.41465 8.9192 8.89572 8.9192 9.37512 8.88666C9.84877 8.86684 10.3205 8.81401 10.7868 8.72855H10.8235C10.5576 9.03557 10.2541 9.30782 9.92002 9.53884C9.44571 9.85504 8.8754 10.0866 8.38697 10.4423C8.02841 10.7049 7.70374 11.0069 7.33106 11.2893L7.18707 11.3966C6.90474 11.6027 6.58289 11.8088 6.46431 11.8878V13.4322L6.54054 13.4124C6.80593 13.2289 7.12214 13.0087 7.50046 12.7037C7.90892 12.348 8.33684 12.0153 8.78223 11.7071C10.2249 10.8234 10.2165 10.8601 10.4621 10.6202C10.7966 10.251 11.16 9.90925 11.5491 9.59812C12.0685 9.24239 12.7094 9.0617 13.2261 8.75114L13.5677 8.8189C13.7738 8.86407 13.9827 8.90924 14.2651 8.94594V9.08993L14.1973 9.12381C13.8359 9.31297 13.5197 9.55295 13.164 9.76188C12.6784 10.0442 12.0911 10.2305 11.5971 10.5496C10.99 10.9448 10.6202 11.5349 10.0075 11.981C9.39489 12.4271 8.63824 12.732 8.02277 13.2684C8.21193 13.2684 8.4152 13.2684 8.68342 13.2515C10.1769 12.3113 10.1769 12.3508 10.3943 12.1391C10.763 11.7433 11.1613 11.3762 11.5858 11.0408C12.077 10.7077 12.6755 10.527 13.1668 10.239C13.5282 10.0301 13.8444 9.78729 14.2086 9.5953L14.2905 9.55295C14.3328 10.7077 14.3413 11.8793 14.2735 13.0905C14.4627 13.1131 14.6857 13.1329 14.9624 13.1442C15.0782 13.1442 15.1826 13.1442 15.2814 13.1442C15.351 11.4991 15.3265 9.85136 15.208 8.20907L14.9003 8.18648C14.4379 8.15873 13.9788 8.09071 13.5282 7.9832C13.0742 7.87688 12.6108 7.81635 12.1448 7.80251C11.681 7.77883 11.216 7.80725 10.7585 7.88721C10.2923 7.97088 9.82041 8.01902 9.34689 8.0312C8.86993 8.05841 8.39166 8.05275 7.91548 8.01426C7.42617 7.97408 6.93372 7.99686 6.4502 8.08202V8.97418" fill="white"/>
<path d="M26.1851 12.7945H26.219C26.2021 12.5122 26.1823 12.2298 26.1654 11.9475C25.6272 11.848 25.1258 11.6052 24.7142 11.2445C24.442 11.0144 24.1434 10.8172 23.8249 10.6573C23.3195 10.4032 22.7238 10.2564 22.2184 9.97686C21.8683 9.78205 21.5436 9.55336 21.1794 9.36138L21.1314 9.33315C20.8941 9.33958 20.6567 9.33393 20.42 9.31621C20.0784 9.3081 19.7378 9.27602 19.4008 9.22021C19.55 9.35816 19.7095 9.48463 19.8779 9.59854C20.3748 9.91192 20.9649 10.1039 21.4674 10.3947C21.8175 10.5952 22.1393 10.8238 22.5036 11.0017L22.5741 11.0356C22.6391 11.0666 22.8141 11.1485 23.0682 11.2445C23.681 11.4139 24.2514 11.7101 24.7424 12.1141C25.6628 12.8227 26.1343 12.8058 26.1851 12.8086" fill="#D70926"/>
</g>
<path d="M13.0801 10.2708C12.6029 10.5334 12.0439 10.7113 11.5781 11.0275C11.1561 11.3677 10.7606 11.7395 10.3951 12.1398C10.1777 12.3516 10.1777 12.3121 8.6842 13.2522C8.86207 13.2522 9.06817 13.2268 9.31662 13.2014C9.79703 13.1615 10.2743 13.0898 10.7452 12.9868C11.2084 12.8828 11.6821 12.8326 12.1568 12.8372C12.6311 12.8295 13.1047 12.8759 13.5685 12.9755C13.7746 13.0151 13.9835 13.0574 14.2715 13.0913C14.3393 11.8801 14.3308 10.7084 14.2884 9.55371L14.2094 9.59888C13.8508 9.78804 13.5346 10.028 13.1761 10.2369L13.0801 10.2708Z" fill="#1D3176"/>
<path d="M17.9529 2.82252C17.9679 3.38717 17.9915 3.95183 18.0235 4.51649L18.1251 4.46849C18.4074 4.34145 18.6389 4.18617 18.8959 4.03371L19.1161 3.91231H19.133L19.2798 3.84455C19.661 3.67515 20.0845 3.56222 20.46 3.36177L20.5136 3.33353C20.5531 3.31095 20.5927 3.29118 20.6294 3.26577C21.0101 2.98869 21.3723 2.68689 21.7135 2.36232C21.8801 2.22398 21.8773 2.25221 23.3284 1.51533C23.1506 1.51533 22.9416 1.51533 22.6904 1.51533C22.2312 1.50388 21.7719 1.52369 21.3154 1.57462C20.8632 1.62446 20.4068 1.62446 19.9546 1.57462C19.4957 1.5307 19.0431 1.43601 18.6051 1.29229C18.4074 1.23301 18.2042 1.17089 17.9303 1.10596C17.9416 1.6932 17.9416 2.25786 17.9529 2.82252Z" fill="#1D3176"/>
</svg>
