<svg width="30" height="36" viewBox="0 0 30 36" fill="none" xmlns="http://www.w3.org/2000/svg">
<g clip-path="url(#clip0_2157_9337)">
<path d="M0.372803 0.5H29.3728V35.5H0.372803V0.5Z" fill="white"/>
<path d="M1.68396 1.82861H28.0643V32.2174H1.68396V1.82861Z" fill="#223357"/>
<path d="M25.1511 14.6036C25.0963 14.3535 24.4626 12.4106 24.5751 11.1181C24.6327 10.4732 24.8906 9.07789 24.9098 7.94939C24.9239 7.03704 24.856 6.12529 24.7068 5.22544C24.7068 5.22544 24.416 5.42001 23.6671 5.34774C23.3078 5.31439 23.1377 5.6257 22.5205 5.6257C21.8238 5.6257 21.7662 5.16151 21.0447 5.16151C20.3233 5.16151 19.739 5.77579 18.7981 5.77579C17.2812 5.77579 17.8627 5.07812 16.7353 5.07812C15.8575 5.07812 15.3446 5.76745 14.1733 5.82304C13.7355 5.85199 13.2963 5.7973 12.8785 5.66183C12.7051 5.78007 12.5102 5.86226 12.3052 5.90365C11.902 5.98704 11.9596 5.87863 11.5619 6.15103C11.3644 6.28723 11.1861 6.59576 10.7883 6.89039C10.5271 7.07382 10.2367 7.21017 9.92972 7.29342C9.84287 6.75362 9.72285 6.21984 9.57037 5.69518C9.53197 5.71464 9.40579 5.81748 8.81876 5.81748C8.54815 5.83786 8.27676 5.79012 8.02875 5.67851C8.18023 6.16766 8.30026 6.66624 8.3881 7.17112C8.16894 7.15673 7.9551 7.09644 7.76011 6.99406C7.56511 6.89167 7.39319 6.74943 7.2552 6.5763C7.09884 6.38451 6.98089 6.15937 6.10584 5.9787C5.69847 5.90053 5.30766 5.75097 4.951 5.53675H4.73155C4.48443 5.51406 4.23951 5.4713 3.99915 5.40889C3.99915 5.40889 4.08692 5.72576 4.21311 6.12045C4.46909 6.3088 4.75887 6.44475 5.06621 6.52071C5.68615 6.67636 6.11407 6.52071 6.75047 7.37403C6.32529 7.37403 6.339 7.22115 5.98515 7.1878C5.63129 7.15444 5.68615 7.34623 5.16222 7.34623C5.03718 7.36384 4.90976 7.34737 4.79309 7.29852C4.67641 7.24967 4.57469 7.17019 4.49839 7.06828C4.63444 7.60227 4.74249 8.14318 4.82207 8.68875C4.96852 8.77294 5.13374 8.81791 5.30212 8.81939C5.77941 8.81939 5.94126 8.74434 6.20459 8.74434C6.46793 8.74434 6.69561 8.98338 7.20582 8.88332C6.94059 9.093 6.61971 9.21783 6.28414 9.24188C6.10008 9.32474 5.92834 9.43327 5.77393 9.56431C5.54559 9.75866 5.26629 9.88134 4.9702 9.91731C5.07444 11.0291 5.09638 11.9881 5.09638 12.4189C5.06164 13.8546 4.90656 15.2847 4.6328 16.6938C4.6328 16.6938 5.29663 16.944 6.39112 16.4465C7.80382 15.8044 7.04398 16.9496 8.20157 16.7744C9.35915 16.5993 11.4192 15.3847 11.6112 16.3797C11.7237 16.9551 13.8825 16.9523 15.0703 16.4881C16.258 16.024 17.1194 15.1428 17.753 15.3263C17.9999 15.3958 17.9341 15.5737 17.86 15.8211C17.7859 16.0684 17.5253 17.4304 21.0118 16.377C22.3834 15.9545 22.9786 15.4736 22.9786 16.2797C22.9786 17.0857 23.9634 16.7022 24.1581 16.6216C25.1566 16.2269 25.3871 16.541 25.3871 16.541C25.3917 15.8875 25.3124 15.2363 25.1511 14.6036ZM8.50056 10.5066C8.22625 10.5066 7.96566 10.7206 7.6502 10.7206C7.33475 10.7206 7.40881 10.526 6.91231 10.526C6.41581 10.526 6.46793 10.6817 5.90285 10.6817H5.83428C6.2238 10.526 6.51456 10.1758 6.74224 10.1008C6.95804 10.0632 7.17077 10.0093 7.37864 9.93954C7.60357 9.83114 7.68312 9.64213 7.97115 9.44479C8.19777 9.30367 8.43989 9.18986 8.69258 9.10568C8.76559 9.59444 8.80774 10.0874 8.81876 10.5816C8.71754 10.5389 8.61001 10.5135 8.50056 10.5066ZM11.9706 7.01825C12.0796 6.90368 12.2077 6.80958 12.3491 6.74029C12.6756 6.60687 12.8731 6.65413 13.1967 6.54294C13.3176 6.5 13.4328 6.44212 13.5396 6.37061C13.6048 6.33217 13.6679 6.29042 13.7289 6.24553C13.803 6.52349 13.8962 6.9293 14.0032 7.41294C13.8862 7.46764 13.759 7.49609 13.6302 7.49633C13.1364 7.49633 12.9746 7.0655 11.8362 7.1739L11.9706 7.01825ZM12.5192 10.4927C12.0529 10.4927 11.5262 10.7706 11.0215 10.7706C10.7472 10.7706 10.5003 10.6817 10.2726 10.6706C10.2726 10.4788 10.2342 9.40587 10.1848 9.18907C10.4603 9.21059 10.7312 9.27335 10.9886 9.3753C11.1706 9.49134 11.3625 9.59087 11.5619 9.67271C11.7594 9.7422 12.1708 9.83948 12.4259 9.95066C12.7249 10.0757 13.1611 10.5816 13.4903 10.6678C13.1611 10.6622 12.7963 10.5066 12.5274 10.5066L12.5192 10.4927ZM13.3421 9.56709C13.119 9.32064 12.8239 9.15309 12.5 9.089C12.2424 9.00163 11.992 8.89382 11.7511 8.76658C13.4464 8.42469 13.1748 9.12792 14.2199 8.93891C14.2611 9.29469 14.2967 9.67549 14.3242 10.0785C13.948 10.029 13.6008 9.84818 13.3421 9.56709Z" fill="white"/>
<path d="M15.3254 22.992V21.3716L13.6631 18.3613H14.8783L15.8685 20.332L16.8588 18.3613H18.074L16.4117 21.3716V22.992H15.3254Z" fill="white"/>
<path d="M24.8521 22.992H22.3175V18.3613H23.4147V22.0609H24.8549L24.8521 22.992Z" fill="white"/>
<path d="M11.3123 18.2363C10.8365 18.2363 10.3714 18.3793 9.97578 18.6471C9.58016 18.915 9.27182 19.2957 9.08974 19.7411C8.90766 20.1866 8.86002 20.6767 8.95284 21.1495C9.04567 21.6224 9.27479 22.0568 9.61123 22.3977C9.94767 22.7386 10.3763 22.9707 10.843 23.0648C11.3096 23.1589 11.7933 23.1106 12.2329 22.9261C12.6725 22.7416 13.0482 22.4291 13.3126 22.0283C13.5769 21.6274 13.718 21.1561 13.718 20.674C13.7173 20.0277 13.4636 19.4081 13.0126 18.9511C12.5616 18.4941 11.9501 18.2371 11.3123 18.2363ZM11.3123 22.0387C11.0436 22.0515 10.7773 21.9825 10.5476 21.8405C10.318 21.6985 10.1356 21.4901 10.0239 21.2421C9.91224 20.9941 9.8764 20.7179 9.92102 20.4491C9.96564 20.1803 10.0887 19.9312 10.2743 19.7339C10.4599 19.5366 10.6996 19.4001 10.9624 19.342C11.2252 19.284 11.4992 19.307 11.749 19.4082C11.9988 19.5093 12.213 19.6839 12.364 19.9095C12.5149 20.1352 12.5958 20.4014 12.5961 20.674C12.6042 21.0274 12.4735 21.3696 12.2328 21.6255C11.9921 21.8814 11.6611 22.03 11.3123 22.0387Z" fill="white"/>
<path d="M8.82432 22.9923L7.57347 21.0939C7.82559 20.9851 8.04047 20.8034 8.19123 20.5715C8.342 20.3397 8.42194 20.0679 8.42108 19.7902C8.42631 19.6024 8.39387 19.4154 8.32573 19.2406C8.25758 19.0657 8.15516 18.9067 8.02464 18.7732C7.89412 18.6396 7.73822 18.5343 7.56638 18.4636C7.39453 18.3928 7.21031 18.3581 7.02485 18.3616H4.86877V22.9923H5.96601V21.2162H6.46251L7.54604 22.9923H8.82432ZM6.70665 19.151C6.98096 19.151 7.31561 19.2621 7.31561 19.8014C7.32005 19.969 7.25873 20.1316 7.14511 20.2535C7.03148 20.3754 6.8748 20.4467 6.70939 20.4518H5.95504V19.151H6.70665Z" fill="white"/>
<path d="M19.953 18.3613L21.917 22.992H20.7211L20.252 21.8246C19.8596 21.8239 19.4745 21.9324 19.1388 22.1383C18.8031 22.3441 18.5297 22.6395 18.3483 22.992H17.155L19.1163 18.3613H19.953ZM19.536 20.0513L18.9188 21.5773C19.2801 21.4106 19.679 21.3453 20.0737 21.3882L19.5251 20.0513" fill="white"/>
<path d="M13.1227 23.6621L15.3666 28.9627H13.995L13.4464 27.6257C12.9973 27.6249 12.5566 27.7491 12.1725 27.9849C11.7884 28.2207 11.4756 28.5589 11.2684 28.9627H9.89685L12.1681 23.6621H13.1255H13.1227ZM12.6427 25.6078L11.9377 27.3561C12.3518 27.1599 12.8104 27.0803 13.2654 27.1254L12.6482 25.5967" fill="white"/>
<path d="M21.7031 28.9627V27.1032L19.7994 23.6538H21.1902L22.3176 25.9164L23.4505 23.6538H24.844L22.9485 27.1032V28.9627H21.7031Z" fill="white"/>
<path d="M8.33879 26.9309V23.6538H9.5869V28.9627H8.33879L6.11414 25.6829V28.9627H4.86877V23.6538H6.11414L8.33879 26.9309Z" fill="white"/>
<path d="M16.8533 27.0254L15.4818 23.6538H14.1102L16.3596 28.9627H17.3059L19.5745 23.6538H18.2029L16.8533 27.0254Z" fill="white"/>
<path d="M6.71208 7.06271C6.80342 7.17462 6.90642 7.2762 7.01931 7.36568C7.15566 7.31665 7.29989 7.29402 7.44449 7.29897H7.48838C7.35196 7.20447 7.22516 7.09646 7.10983 6.97654C6.97302 6.76762 6.79147 6.59265 6.57871 6.46465C6.36595 6.33664 6.12744 6.25889 5.88092 6.23718C5.19683 6.12724 4.55239 5.84 4.01013 5.40332C4.01013 5.40332 4.06499 5.59789 4.14729 5.87306C4.60262 6.20121 5.13946 6.39377 5.69714 6.42897C6.10352 6.49949 6.46722 6.72659 6.71208 7.06271Z" fill="#D90530"/>
<path d="M14.3297 10.2728C13.5067 10.1755 13.2708 9.7169 12.9855 9.51956C12.7158 9.36599 12.4244 9.25536 12.1215 9.19157C11.9267 9.11374 11.5728 8.91361 11.4028 8.83301L10.9227 8.91917C11.1342 9.01409 11.337 9.12755 11.529 9.25828C11.902 9.53623 12.2038 9.42227 12.5741 9.5946C12.7606 9.68077 13.1885 10.195 13.4985 10.3312C13.7443 10.4242 13.9989 10.4913 14.2583 10.5313H14.3434C14.3406 10.4396 14.3351 10.3562 14.3297 10.2728Z" fill="#D90530"/>
<path d="M5.35153 10.5647C6.13606 10.4257 6.21286 9.9532 6.64901 9.87815C7.4308 9.74473 7.21958 9.75029 7.71608 9.36672C7.95245 9.1838 8.21772 9.04282 8.5006 8.94979C8.32961 8.93214 8.16004 8.90242 7.99313 8.86084C7.85039 8.90921 7.71947 8.98786 7.6091 9.09154C7.43243 9.25264 7.22523 9.37558 7.00013 9.45288C6.7734 9.47863 6.55054 9.53182 6.3363 9.61132C6.08942 9.73362 5.71636 10.2645 5.03882 10.3034C5.12263 10.4129 5.22945 10.5022 5.35153 10.5647Z" fill="#D90530"/>
<path d="M24.663 10.4148C24.4935 10.5012 24.3029 10.5359 24.1143 10.5149C23.7001 10.451 23.6014 9.87837 23.3271 9.87837C23.0528 9.87837 22.8196 10.1341 22.452 10.1341C21.9473 10.1341 22.0049 9.40585 20.3316 10.3704C20.0304 10.5414 19.6963 10.6446 19.3522 10.6729C19.008 10.7012 18.6619 10.654 18.3374 10.5343C17.8025 10.287 18.1975 9.62266 17.5913 9.62266C17.2566 9.62266 16.3486 10.123 15.6491 10.2536C15.5779 8.70691 15.319 7.17498 14.8783 5.69238C14.6507 5.76003 14.4158 5.79924 14.1788 5.80912C14.0107 5.81913 13.8422 5.81913 13.6741 5.80912H13.6055C13.4595 5.79717 13.3146 5.77394 13.1721 5.73964C13.0456 5.87205 12.8865 5.96798 12.7113 6.01759C12.4471 6.0416 12.1866 6.09663 11.935 6.18158C11.625 6.32612 11.3123 6.77085 10.9969 7.01545C10.7614 7.19608 10.5019 7.34206 10.226 7.44905C10.4254 7.4424 10.6237 7.41728 10.8186 7.37401L11.0298 7.32397C11.5345 7.02934 11.8116 6.55404 12.127 6.42618C12.4425 6.29832 12.6537 6.33724 12.9911 6.22605C13.2194 6.13452 13.433 6.00899 13.6247 5.8536C13.6522 5.9481 13.6906 6.07874 13.7345 6.24551C13.8085 6.52347 13.9018 6.92928 14.0088 7.41292C14.0252 7.49353 14.0389 7.57969 14.0554 7.66586C13.9198 7.70942 13.778 7.73008 13.6357 7.72701C13.131 7.72701 13.1721 7.44905 12.0804 7.44905C11.7952 7.45359 11.5115 7.49278 11.2355 7.56579L10.846 7.65752C10.5024 7.72925 10.1509 7.75356 9.80086 7.72979H9.7652C9.61159 6.87369 9.43054 6.15101 9.32631 5.78411C9.16749 5.80872 9.00692 5.81988 8.84627 5.81746C8.68552 5.81969 8.52488 5.8076 8.36622 5.78133C8.56413 6.41754 8.71451 7.06793 8.81609 7.72701C8.05351 7.72701 7.78743 7.56024 7.44454 7.56024C7.10166 7.56024 7.21412 7.63806 6.78894 7.63806C6.36376 7.63806 6.34731 7.48519 5.98522 7.45183C5.62313 7.41848 5.68622 7.60749 5.16229 7.60749C5.05824 7.61692 4.95337 7.60504 4.85394 7.57257C4.75451 7.5401 4.66254 7.4877 4.5835 7.41848C4.65756 7.74369 4.72065 8.07723 4.77826 8.41355C4.93705 8.54648 5.1408 8.61131 5.34608 8.59423C5.67799 8.59423 5.6341 8.50806 6.169 8.50806C6.5695 8.50806 6.53384 8.62202 6.97273 8.64704C7.20863 8.64821 7.44428 8.63149 7.67771 8.597C8.02334 8.597 8.28667 8.7749 8.93679 8.72764C9.02093 9.38055 9.0722 10.0374 9.0904 10.6956C8.99714 10.665 8.90661 10.6261 8.81609 10.5955C8.71665 10.548 8.60999 10.5179 8.50064 10.5066C8.22633 10.5066 7.96573 10.7206 7.65028 10.7206C7.33482 10.7206 7.40888 10.526 6.91238 10.526C6.41588 10.526 6.468 10.6817 5.90292 10.6817H5.83435C5.6676 10.6785 5.50328 10.6406 5.35156 10.5705C5.22793 10.5067 5.1201 10.4155 5.03611 10.3036H5.00868V10.4315V10.5705C5.03885 11.0291 5.05805 11.4377 5.06902 11.7685C5.26798 11.906 5.50607 11.9734 5.74657 11.9603C6.31165 11.9603 6.46252 11.8074 6.95902 11.8074C7.45552 11.8074 7.37048 11.9769 7.68319 11.9769C7.99591 11.9769 8.07271 11.7879 8.34428 11.7879C8.61585 11.7879 8.79415 11.9936 9.14801 11.9936C9.50186 11.9936 9.79538 11.8963 10.0395 11.8963C10.2836 11.8963 10.7582 12.0964 11.4742 12.0964C11.9899 12.0964 12.5988 11.8185 12.8704 11.8185C13.142 11.8185 13.3971 11.9213 13.729 11.9213C13.9414 11.925 14.1537 11.9073 14.3626 11.8685C14.341 13.5231 14.1246 15.1691 13.718 16.7716C14.1803 16.7279 14.6355 16.6262 15.0731 16.4687L15.1088 16.4548C15.4854 14.8945 15.677 13.2942 15.6793 11.6879C16.579 11.4627 17.4184 10.9763 17.7339 10.9763C18.2825 10.9763 17.9863 11.6017 18.5239 11.8463C18.9134 12.027 19.3468 12.052 20.4742 11.6295C21.4947 11.2459 21.4563 11.2265 21.769 11.2265C22.0817 11.2265 22.2051 11.4905 22.5919 11.4905C22.9787 11.4905 23.0994 11.1709 23.6453 11.1709C24.0101 11.1709 23.936 11.7712 24.3502 11.7712C24.4223 11.7704 24.4937 11.7572 24.5615 11.7323C24.5476 11.5278 24.5476 11.3226 24.5615 11.1181C24.5916 10.9374 24.6245 10.6928 24.663 10.4148ZM14.2584 10.5316C14.0107 10.5917 13.7597 10.6372 13.5068 10.6678H13.4903C13.1612 10.6678 12.7963 10.4927 12.5275 10.4927C12.0612 10.4927 11.5345 10.7706 11.0298 10.7706C10.7555 10.7706 10.5086 10.6817 10.2809 10.6705H10.2315C10.1605 10.6714 10.0897 10.6797 10.0203 10.6956C10.0274 10.028 9.98429 9.3608 9.89138 8.69985C10.5154 8.71647 11.1382 8.6349 11.7375 8.45803C13.3833 8.12726 12.9883 8.87496 14.1788 8.66371C14.1926 8.75822 14.2035 8.85272 14.2145 8.94167C14.2556 9.29745 14.2913 9.67825 14.3187 10.0813V10.2758C14.3187 10.2758 14.3187 10.4426 14.3187 10.5288L14.2584 10.5316Z" fill="#D90530"/>
<path d="M1.68396 32.8677H28.0643V34.1685H1.68396V32.8677Z" fill="#D90530"/>
<path d="M13.5013 10.3229C13.2904 10.2007 13.0974 10.0492 12.928 9.87263C12.8232 9.76629 12.7063 9.67298 12.5797 9.59468C12.4378 9.53449 12.2881 9.49518 12.1353 9.47793C11.9191 9.46099 11.7116 9.38512 11.5345 9.25835C11.3462 9.12955 11.1471 9.01793 10.9393 8.9248H10.9064H10.9201C11.1303 9.02052 11.3321 9.13395 11.5236 9.26391C11.7028 9.39283 11.9134 9.46972 12.1325 9.48627C12.2824 9.50358 12.4292 9.54194 12.5687 9.60023C12.6943 9.67877 12.8103 9.77207 12.9143 9.87819C13.0855 10.0557 13.2803 10.2082 13.4931 10.3313C13.7306 10.4194 13.9759 10.4845 14.2255 10.5258H14.2584H14.2941H14.2612C14.0019 10.484 13.7473 10.416 13.5013 10.3229Z" fill="white"/>
<path d="M5.36801 10.5701C5.68428 10.5173 5.97712 10.368 6.20739 10.1421C6.32797 10.0156 6.48245 9.92766 6.65178 9.88912C7.24428 9.78627 7.26897 9.76404 7.46099 9.59449C7.54414 9.51688 7.63112 9.44359 7.72158 9.3749C7.94353 9.20257 8.19188 9.06829 8.45673 8.97743L8.50611 8.96075C8.51903 8.94825 8.53385 8.93793 8.55 8.93018C8.53354 8.93018 8.49513 8.94963 8.47868 8.94685H8.45125C8.1838 9.03685 7.93336 9.17219 7.71061 9.34711C7.58717 9.44161 7.51036 9.5111 7.4363 9.56669C7.24703 9.73624 7.22234 9.7557 6.63532 9.84464C6.46296 9.88627 6.30593 9.97692 6.18271 10.1059C5.95175 10.3319 5.65772 10.4804 5.34058 10.5312L5.36801 10.5701Z" fill="white"/>
<path d="M14.3297 10.2616C13.896 10.226 13.4911 10.0278 13.194 9.70567C13.1305 9.64081 13.0627 9.58045 12.9911 9.525C12.8124 9.40226 12.6107 9.31805 12.3985 9.27762C12.3052 9.25663 12.2135 9.22876 12.1242 9.19424C11.9322 9.11919 11.5756 8.91628 11.422 8.82178L11.3809 8.84957C11.3809 8.84957 11.9295 9.12753 12.116 9.21369C12.2054 9.24795 12.2971 9.27582 12.3903 9.29708C12.5992 9.33833 12.7979 9.4215 12.9746 9.54168C13.0454 9.59608 13.1123 9.65553 13.1748 9.71957C13.4734 10.0508 13.8833 10.257 14.3242 10.2977V10.2755L14.3297 10.2616Z" fill="white"/>
<path d="M13.1556 5.72559C13.0295 5.85069 12.8736 5.94068 12.703 5.98686C12.6015 6.0091 12.5083 6.02022 12.4287 6.03134C12.2595 6.04257 12.0935 6.08299 11.9377 6.15086C11.7306 6.27244 11.5452 6.42841 11.3891 6.61226C11.2676 6.74251 11.1375 6.86417 10.9996 6.97638C10.7673 7.17476 10.5052 7.33428 10.2233 7.4489V7.48782H10.248C10.248 7.48782 10.248 7.4489 10.2644 7.4489C10.5263 7.33234 10.7717 7.18091 10.9941 6.99862C11.1364 6.88251 11.2685 6.75417 11.3891 6.61504C11.5463 6.43313 11.7316 6.27825 11.9377 6.15642C12.0926 6.09867 12.2555 6.06585 12.4205 6.05913C12.511 6.05913 12.6043 6.03689 12.6948 6.01466C12.8721 5.96634 13.0333 5.87029 13.1611 5.7367L13.1556 5.72559Z" fill="white"/>
<path d="M7.99315 8.83838C7.84966 8.89636 7.71769 8.98017 7.60364 9.08576C7.42846 9.24683 7.22196 9.36896 6.99741 9.44432C6.92448 9.46383 6.85021 9.47776 6.77522 9.48601C6.62165 9.501 6.47153 9.54137 6.33084 9.60553C6.24069 9.65876 6.15614 9.72116 6.07847 9.79176C5.79668 10.0734 5.42948 10.2506 5.0361 10.2949H5.00867V10.3143H5.0361C5.43382 10.2701 5.80507 10.0908 6.08945 9.80566C6.16622 9.73518 6.24986 9.67279 6.33907 9.61943C6.47725 9.55682 6.62455 9.51739 6.77522 9.50269C6.85111 9.49443 6.92629 9.4805 7.00015 9.461C7.2274 9.38532 7.43599 9.26116 7.61186 9.09688C7.72074 8.99388 7.85104 8.91694 7.99315 8.87173H8.0151L7.99315 8.83838Z" fill="white"/>
<path d="M13.6055 5.84799C13.4137 6.00033 13.2012 6.1239 12.9746 6.21489C12.8473 6.25798 12.7158 6.28687 12.5823 6.30106C12.4253 6.31634 12.2711 6.35376 12.1242 6.41224C11.9473 6.50718 11.7892 6.63439 11.6579 6.78748C11.4701 6.9889 11.257 7.16457 11.0243 7.31003L10.9913 7.32949C11.0105 7.32949 11.0352 7.35173 11.0572 7.34617C11.2846 7.18818 11.491 7.00136 11.6716 6.79026C11.8017 6.63956 11.9579 6.51427 12.1325 6.42058C12.2774 6.36218 12.4298 6.32475 12.5851 6.3094C12.7227 6.29923 12.8588 6.27407 12.991 6.23435C13.2194 6.14413 13.433 6.0195 13.6247 5.86467V5.84521L13.6055 5.84799Z" fill="white"/>
<path d="M14.0252 7.65748C13.8901 7.69923 13.7494 7.71893 13.6082 7.71585C13.452 7.71551 13.2977 7.6814 13.1556 7.61579C12.8066 7.47792 12.4324 7.41726 12.0584 7.4379C11.7723 7.44266 11.4877 7.48185 11.2108 7.55464L10.9858 7.60745L10.8212 7.64914C10.4794 7.72005 10.1296 7.74343 9.7816 7.71863H9.75417C9.5841 6.79582 9.38934 6.0509 9.31253 5.77295H9.28784C9.36465 6.0509 9.56215 6.80416 9.72948 7.71863H9.77337C10.1234 7.74107 10.4747 7.71678 10.8185 7.64636L10.9858 7.60745L11.2108 7.55186C11.4867 7.48503 11.7692 7.45052 12.0529 7.44901C12.4268 7.42645 12.8011 7.48619 13.1501 7.62412C13.2948 7.69091 13.452 7.72505 13.611 7.72419C13.7539 7.72716 13.8964 7.70747 14.0334 7.66582V7.64358L14.0252 7.65748Z" fill="white"/>
<path d="M14.1761 8.63861C13.8489 8.72619 13.5011 8.6855 13.2023 8.52465C12.928 8.39123 12.6372 8.24669 11.7347 8.43292C11.5701 8.46628 11.4385 8.49963 11.3233 8.52743C10.8561 8.64977 10.3734 8.70037 9.89136 8.67752C9.98544 9.33742 10.0285 10.0038 10.0203 10.6705H10.0422C10.0489 10.0075 10.0058 9.34497 9.9133 8.68864C10.3879 8.71742 10.864 8.67433 11.326 8.56078C11.4439 8.53299 11.5729 8.49963 11.7402 8.46628C12.6345 8.28839 12.917 8.42458 13.1913 8.55522C13.4952 8.71862 13.8487 8.76029 14.1816 8.67196V8.65251L14.1761 8.63861Z" fill="white"/>
<path d="M4.00489 5.42287H4.01075L4.00195 5.41699L4.00489 5.42287Z" fill="white"/>
<path d="M8.82435 7.7074C8.72535 7.04807 8.57586 6.39754 8.37722 5.76172H8.35254C8.55105 6.39001 8.70055 7.03314 8.79966 7.68516H8.81338C8.49971 7.68044 8.18729 7.64413 7.88072 7.57676C7.74151 7.54172 7.59894 7.52214 7.45554 7.51839C7.35549 7.51338 7.25532 7.52559 7.15929 7.55452C7.04234 7.58694 6.92101 7.60008 6.79994 7.59344C6.63819 7.60302 6.47671 7.57049 6.33088 7.49893C6.22622 7.44673 6.11257 7.41558 5.99622 7.40721C5.87842 7.39052 5.75843 7.41192 5.65333 7.46836C5.50587 7.5411 5.34255 7.57458 5.17878 7.56564C4.97067 7.5807 4.76499 7.51289 4.60547 7.37663V7.41277C4.76594 7.54001 4.96729 7.60241 5.17055 7.58788C5.33697 7.5969 5.50297 7.56345 5.65333 7.49059C5.75618 7.44261 5.87116 7.42805 5.9825 7.4489C6.09691 7.45844 6.20854 7.48955 6.31167 7.54063C6.46073 7.61129 6.62463 7.64374 6.78897 7.63513C6.91185 7.6418 7.03499 7.62866 7.1538 7.59622C7.24792 7.56716 7.34631 7.55494 7.44457 7.56008C7.58613 7.56421 7.72684 7.58378 7.86427 7.61845C8.17708 7.68733 8.49602 7.72365 8.81612 7.72686L8.82435 7.7074Z" fill="white"/>
<path d="M7.01934 7.3542C6.91019 7.26535 6.81003 7.16573 6.72034 7.05679C6.47022 6.71862 6.09867 6.49393 5.68619 6.4314C5.1318 6.39252 4.59857 6.20024 4.14457 5.87549H4.13086V5.91162C4.58254 6.23285 5.11128 6.42488 5.66151 6.46753C6.06823 6.52998 6.43459 6.75152 6.68194 7.08459C6.77422 7.20148 6.87608 7.31027 6.98642 7.4098C6.98642 7.4098 7.00288 7.37922 7.00837 7.37644L7.01934 7.3542Z" fill="white"/>
<path d="M7.50491 7.29022C7.36852 7.19673 7.24171 7.08964 7.12636 6.97057L7.08521 6.91776C6.94908 6.72091 6.77185 6.55686 6.5661 6.43724C6.36034 6.31763 6.13112 6.24539 5.89471 6.22565C5.22305 6.12328 4.58896 5.84655 4.05409 5.42236H4.01843C4.55859 5.8608 5.20263 6.14829 5.88648 6.25623C6.12025 6.27674 6.34683 6.34852 6.5505 6.46659C6.75417 6.58466 6.93007 6.74619 7.06601 6.93999L7.10716 6.99558C7.21921 7.11226 7.34233 7.21746 7.47473 7.30967L7.51862 7.32913L7.50491 7.29022Z" fill="white"/>
<path d="M9.10141 10.6759C9.10141 10.0339 8.98346 9.00821 8.9478 8.70802C8.65781 8.72975 8.36626 8.70537 8.08372 8.63575C7.95162 8.59532 7.81543 8.57015 7.67774 8.5607C7.58085 8.55858 7.48407 8.56885 7.38972 8.59128C7.25295 8.62236 7.112 8.62988 6.97277 8.61351C6.83534 8.60756 6.6995 8.58135 6.56953 8.53569C6.44066 8.49144 6.30506 8.47074 6.16904 8.47454C5.9948 8.46785 5.82046 8.48468 5.65059 8.52457C5.55299 8.55021 5.45241 8.56236 5.3516 8.5607C5.15355 8.57031 4.95873 8.50714 4.80298 8.38281V8.41339C4.96182 8.53056 5.15533 8.58939 5.3516 8.58016C5.45349 8.58722 5.55587 8.58068 5.65608 8.5607C5.82429 8.52213 5.99665 8.50532 6.16904 8.51067C6.30238 8.50672 6.4353 8.52745 6.5613 8.57182C6.69408 8.61755 6.83265 8.64376 6.97277 8.64965C7.11378 8.66743 7.25677 8.65991 7.3952 8.62741C7.48519 8.60692 7.5773 8.59759 7.66951 8.59962C7.80098 8.60349 7.93162 8.62213 8.05903 8.65521C8.34048 8.72588 8.63115 8.7512 8.92036 8.73026C9.00251 9.37587 9.05286 10.0252 9.07123 10.6759H9.09318H9.10141Z" fill="white"/>
<path opacity="0.4" d="M23.9634 5.35322C24.1774 6.16762 24.4764 7.74918 24.1335 8.861C23.6891 10.3175 23.5492 8.81931 23.5272 8.58305C23.4806 8.10496 23.3352 8.18279 23.3873 9.03333C23.4312 9.78937 24.0128 12.0908 24.6821 13.6251C25.0332 14.52 25.2111 15.475 25.206 16.438C25.274 16.449 25.3367 16.4822 25.3843 16.5325C25.3897 15.8763 25.3104 15.2222 25.1484 14.5869C25.0935 14.3367 24.4599 12.3938 24.5724 11.1013C24.5916 10.8706 24.6382 10.5454 24.6903 10.1674C24.6903 10.1257 24.6903 10.0812 24.6903 10.0367C24.6547 8.54135 24.9152 6.9042 24.3474 5.31152L23.9634 5.33654V5.35322Z" fill="#223357"/>
<path opacity="0.4" d="M18.7515 6.69577C19.3358 7.51295 18.8311 6.57069 18.7515 5.76184C18.1261 5.76184 17.8737 5.62564 17.7009 5.48389C18.0812 5.86005 18.4324 6.26519 18.7515 6.69577Z" fill="#223357"/>
<path opacity="0.4" d="M5.18423 7.34589C5.07765 7.34736 4.97142 7.33332 4.86877 7.3042C4.97027 7.72669 5.09371 8.2965 5.17874 8.79681C5.22716 8.79978 5.27571 8.79978 5.32413 8.79681H5.59844C5.55729 8.63004 5.47774 8.30761 5.40093 7.98519C5.34381 7.76713 5.27139 7.55349 5.18423 7.34589Z" fill="#223357"/>
<path opacity="0.4" d="M4.4408 5.86475C4.47646 5.97593 4.56149 6.19829 4.61361 6.3595C4.70841 6.40365 4.80547 6.44262 4.90438 6.47625C4.77221 6.25597 4.61676 6.05093 4.4408 5.86475Z" fill="#223357"/>
<path d="M22.3175 5.87588C23.0691 6.86818 22.5288 6.17051 22.6138 5.59793H22.5315C22.3146 5.60077 22.101 5.54307 21.9143 5.43115C22.0666 5.56167 22.2021 5.71109 22.3175 5.87588Z" fill="white"/>
<path opacity="0.4" d="M22.3175 5.87588C23.0691 6.86818 22.5288 6.17051 22.6138 5.59793H22.5315C22.3146 5.60077 22.101 5.54307 21.9143 5.43115C22.0666 5.56167 22.2021 5.71109 22.3175 5.87588Z" fill="#223357"/>
<path opacity="0.4" d="M18.8668 14.9895C19.2755 11.2344 16.6175 6.15336 17.5337 8.40201C17.5913 8.54376 19.004 13.0605 17.893 15.7789C17.8681 15.8381 17.8488 15.8995 17.8354 15.9624C17.8107 16.2987 17.9726 16.9519 19.676 16.6711C19.0451 16.471 18.7681 15.9068 18.8668 14.9895Z" fill="#223357"/>
<path d="M23.0389 15.2011C23.0088 15.1177 22.995 15.051 22.9731 14.9954C22.8552 14.6841 22.8442 14.7647 22.8963 15.0149C22.9934 15.4212 23.0231 15.8411 22.9841 16.2574C22.9841 16.8133 23.4669 16.8133 23.807 16.7299C23.3352 16.691 23.1733 15.5903 23.0389 15.2011Z" fill="white"/>
<path opacity="0.4" d="M23.0389 15.2011C23.0088 15.1177 22.995 15.051 22.9731 14.9954C22.8552 14.6841 22.8442 14.7647 22.8963 15.0149C22.9934 15.4212 23.0231 15.8411 22.9841 16.2574C22.9841 16.8133 23.4669 16.8133 23.807 16.7299C23.3352 16.691 23.1733 15.5903 23.0389 15.2011Z" fill="#223357"/>
<path d="M8.01776 14.723C8.03696 14.5423 8.01776 14.4895 7.92449 14.7063C7.77393 15.0157 7.64202 15.3341 7.52949 15.6597C7.44874 15.901 7.40255 16.1528 7.39233 16.4074C7.52675 16.5936 7.62001 16.8438 8.21526 16.7548L8.32773 16.7326C7.81203 16.3434 7.96838 15.1955 8.01776 14.723Z" fill="white"/>
<path opacity="0.4" d="M8.01776 14.723C8.03696 14.5423 8.01776 14.4895 7.92449 14.7063C7.77393 15.0157 7.64202 15.3341 7.52949 15.6597C7.44874 15.901 7.40255 16.1528 7.39233 16.4074C7.52675 16.5936 7.62001 16.8438 8.21526 16.7548L8.32773 16.7326C7.81203 16.3434 7.96838 15.1955 8.01776 14.723Z" fill="#223357"/>
<path opacity="0.4" d="M12.9198 14.3505C13.103 13.753 13.2378 13.1413 13.323 12.5216C13.3779 12.1686 13.2928 12.1853 13.2489 12.302C13.2248 12.3778 13.2047 12.4548 13.1886 12.5327C13.12 12.8107 13.0405 13.0553 13.0405 13.0553C12.5275 14.6591 11.529 15.7876 11.6195 16.3685C11.6259 16.4023 11.6389 16.4345 11.6579 16.463C11.8225 16.6937 12.3794 16.8049 13.0295 16.8049C12.3437 16.2629 12.6345 15.4095 12.9198 14.3505Z" fill="#223357"/>
<path opacity="0.4" d="M5.89738 10.6787V10.6509L5.83704 10.6759L5.89738 10.6787Z" fill="#223357"/>
<path opacity="0.4" d="M5.6917 9.55029L5.64781 9.56975L5.25281 9.72818L5.27475 9.83936C5.43201 9.78358 5.57999 9.70391 5.71365 9.6031L5.6917 9.55029Z" fill="#223357"/>
<path opacity="0.4" d="M6.3719 13.7278C6.31429 13.7278 6.18811 14.1003 5.98786 14.5617C5.73001 15.1454 5.33226 15.6151 5.60657 14.7785C5.99624 13.4533 6.09548 12.0578 5.89734 10.6898H5.83425L5.8946 10.6647C5.84522 10.2923 5.78487 9.93928 5.7163 9.61963C5.58264 9.72044 5.43466 9.8001 5.2774 9.85589C5.49173 12.1566 5.36133 14.4769 4.89062 16.738C4.98196 16.7442 5.0736 16.7442 5.16493 16.738C5.47702 16.3084 5.74798 15.8495 5.97415 15.3677C6.31703 14.5922 6.4295 13.7278 6.3719 13.7278Z" fill="#223357"/>
</g>
<defs>
<clipPath id="clip0_2157_9337">
<rect width="29" height="35" fill="white" transform="translate(0.372803 0.5)"/>
</clipPath>
</defs>
</svg>
