<svg width="25" height="36" viewBox="0 0 25 36" xmlns="http://www.w3.org/2000/svg">
<path d="M23.6197 25.7488H0.919817V26.0572H23.6197V25.7488ZM23.6197 35.1953H0.919817V35.5037H23.6197V35.1953ZM2.10577 27.1741H1.6725L0.897597 29.0217H1.38365L1.51696 28.6605H2.23354L2.37518 29.0217H2.87234L2.10577 27.1741ZM1.64472 28.3021L1.8808 27.6686L2.11133 28.3021H1.64472ZM7.23289 29.0217H6.79406V27.7159L6.31356 29.0217H6.00527L5.53866 27.7159V29.0217H5.11927V27.1769H5.7553L6.17469 28.3605L6.57742 27.1769H7.22178L7.23289 29.0217ZM9.03543 27.552H8.22443V27.902H8.99099V28.2577H8.22443V28.6411H9.08265V29.0217H7.79393V27.1769H9.03543V27.552ZM13.8098 27.552H13.0349V27.9326H13.7515V28.2993H13.0349V29.0162H12.5961V27.1769H13.8098V27.552ZM21.8338 27.552H21.0228V27.902H21.7893V28.2577H21.0228V28.6411H21.8949V29.0217H20.5923V27.1769H21.8338V27.552ZM8.44106 34.0339H7.94391L6.8496 31.2555H7.51896L8.20498 33.1782L8.89934 31.2555H9.55203L8.44106 34.0339ZM11.774 31.8112H10.5075V32.3502H11.7184V32.8781H10.5075V33.4894H11.8517V34.045H9.90754V31.2666H11.7851L11.774 31.8112ZM14.8847 34.0339H14.1903L13.0349 32.1502V34.0339H12.435V31.2555H13.1599L14.2903 33.0781V31.2555H14.8902L14.8847 34.0339ZM16.9372 31.2555H16.4511L15.2457 34.0339H15.9151L16.154 33.431H17.2094L17.4538 34.0339H18.1343L16.9372 31.2555ZM16.3595 32.8864L16.6761 32.0529L16.9872 32.8864H16.3595ZM20.9422 34.0256H20.2479L19.0925 32.1418V34.0256H18.4898V31.2472H19.2147L20.3451 33.0698V31.2472H20.9478L20.9422 34.0256ZM23.5947 31.8029H22.7836V34.0256H22.1893V31.8029H21.3811V31.2472H23.603L23.5947 31.8029ZM3.9111 27.1741H3.20841V29.0217H3.64446V28.2882H3.79444L4.19717 29.0217H4.71932L4.23605 28.2327C4.34519 28.2014 4.44212 28.1374 4.51379 28.0493C4.58447 27.9592 4.62088 27.847 4.61656 27.7325C4.62304 27.636 4.60184 27.5396 4.55546 27.4547C4.51879 27.3843 4.46417 27.3249 4.39714 27.2825C4.32723 27.2381 4.25018 27.2061 4.1694 27.188C4.08349 27.1702 3.99604 27.1609 3.90832 27.1602M3.63058 27.952V27.5214H3.86943H3.9722C4.00621 27.5255 4.03917 27.5359 4.06941 27.552C4.09733 27.5662 4.12121 27.5872 4.13884 27.6131C4.15877 27.6446 4.16847 27.6814 4.16662 27.7187C4.16925 27.7598 4.15854 27.8008 4.13607 27.8353C4.11663 27.8631 4.09095 27.886 4.06108 27.902C4.02798 27.9189 3.99232 27.9302 3.95553 27.9354H3.84166L3.63058 27.952ZM10.2297 27.1769H9.56314V29.0217H10.2492C10.3769 29.0221 10.5041 29.0044 10.6269 28.9689C10.7465 28.9344 10.8585 28.8778 10.9574 28.8022C11.0566 28.7285 11.1382 28.6336 11.1963 28.5244C11.2593 28.3938 11.2898 28.2498 11.2851 28.1049C11.29 27.9533 11.2586 27.8028 11.1935 27.6659C11.1375 27.5553 11.0555 27.46 10.9546 27.388C10.8522 27.317 10.7372 27.2661 10.6158 27.238C10.49 27.2024 10.3604 27.1818 10.2297 27.1769ZM9.99642 28.6355V27.5575H10.2297C10.3054 27.5573 10.3809 27.5657 10.4547 27.5825C10.5235 27.5988 10.5885 27.628 10.6463 27.6686C10.7045 27.7124 10.7512 27.7696 10.7824 27.8353C10.8187 27.9165 10.8358 28.0049 10.8324 28.0937C10.8353 28.1825 10.8182 28.2708 10.7824 28.3521C10.7512 28.4179 10.7045 28.4751 10.6463 28.5188C10.5879 28.5614 10.5219 28.5925 10.4519 28.6105C10.3762 28.6272 10.2989 28.6356 10.2214 28.6355H9.99642ZM15.2013 27.1269C15.0651 27.1255 14.9297 27.148 14.8014 27.1935C14.6828 27.2361 14.5742 27.3022 14.4819 27.388C14.3917 27.4735 14.3198 27.5766 14.2709 27.6909C14.1715 27.9483 14.1715 28.2336 14.2709 28.491C14.319 28.6084 14.391 28.7145 14.4823 28.8025C14.5737 28.8905 14.6823 28.9585 14.8014 29.0023C15.0599 29.0949 15.3427 29.0949 15.6012 29.0023C15.7209 28.9578 15.8305 28.8898 15.9234 28.8022C16.0139 28.7143 16.0849 28.6082 16.1317 28.491C16.2311 28.2336 16.2311 27.9483 16.1317 27.6909C16.0847 27.5762 16.0137 27.4729 15.9234 27.388C15.8302 27.3022 15.7206 27.2361 15.6012 27.1935C15.4729 27.148 15.3375 27.1255 15.2013 27.1269ZM15.2013 28.6661C15.1276 28.6675 15.0545 28.6523 14.9874 28.6216C14.9245 28.5945 14.8678 28.5548 14.8208 28.5049C14.7745 28.4504 14.7379 28.3884 14.7125 28.3216C14.6863 28.2475 14.6732 28.1695 14.6736 28.091C14.6734 28.0143 14.6866 27.9381 14.7125 27.8659C14.7358 27.8002 14.7726 27.7402 14.8204 27.6895C14.8682 27.6388 14.926 27.5986 14.9902 27.5714C15.0577 27.542 15.1305 27.5269 15.2041 27.5269C15.2777 27.5269 15.3505 27.542 15.4179 27.5714C15.4816 27.5972 15.5386 27.6371 15.5846 27.6881C15.6327 27.7392 15.6696 27.7997 15.6929 27.8659C15.7201 27.9377 15.7333 28.0141 15.7318 28.091C15.7336 28.1696 15.7204 28.2479 15.6929 28.3216C15.6697 28.3894 15.6328 28.4519 15.5846 28.5049C15.5376 28.5548 15.4809 28.5945 15.4179 28.6216C15.3509 28.6523 15.2778 28.6675 15.2041 28.6661M17.3927 27.1741H16.6817V29.0217H17.1177V28.2882H17.2705L17.6704 29.0217H18.1926L17.7093 28.2327C17.8184 28.2014 17.9154 28.1374 17.9871 28.0493C18.0557 27.9583 18.091 27.8465 18.087 27.7325C18.0928 27.6364 18.0726 27.5404 18.0287 27.4547C17.9902 27.3848 17.9348 27.3256 17.8676 27.2825C17.7982 27.2371 17.721 27.2051 17.6399 27.188C17.5549 27.1702 17.4684 27.1609 17.3816 27.1602M17.1038 27.952V27.5214H17.3427H17.4455C17.4795 27.5255 17.5124 27.5359 17.5427 27.552C17.5714 27.5661 17.5962 27.5871 17.6149 27.6131C17.6325 27.6454 17.6411 27.6819 17.6399 27.7187C17.6419 27.7594 17.6323 27.7999 17.6121 27.8353C17.5909 27.8626 17.5645 27.8853 17.5343 27.902C17.5012 27.9189 17.4656 27.9302 17.4288 27.9354C17.3909 27.9381 17.3528 27.9381 17.3149 27.9354L17.1038 27.952ZM19.498 27.1185C19.6298 27.1186 19.7605 27.1421 19.884 27.188C20.0014 27.2272 20.1067 27.2961 20.1895 27.388L19.8868 27.6909C19.8446 27.6344 19.788 27.5903 19.7229 27.5631C19.6568 27.5359 19.5861 27.5218 19.5146 27.5214C19.44 27.5203 19.3661 27.5355 19.298 27.5658C19.2351 27.593 19.1784 27.6327 19.1313 27.6825C19.0838 27.7356 19.0462 27.7968 19.0203 27.8631C18.9941 27.9353 18.9809 28.0115 18.9814 28.0882C18.9809 28.1667 18.9941 28.2447 19.0203 28.3188C19.0457 28.3839 19.0823 28.4441 19.1286 28.4966C19.1756 28.5465 19.2323 28.5862 19.2952 28.6133C19.3619 28.6418 19.4338 28.656 19.5063 28.655C19.5873 28.6572 19.6675 28.6391 19.7396 28.6022C19.8013 28.5684 19.8552 28.522 19.8979 28.466L20.209 28.7439C20.1249 28.8393 20.0218 28.9159 19.9062 28.9689C19.7744 29.0243 19.6326 29.0518 19.4896 29.0495C19.355 29.0511 19.2212 29.0276 19.0952 28.98C18.9784 28.9348 18.8718 28.8668 18.7814 28.78C18.6916 28.6925 18.6207 28.5876 18.5731 28.4716C18.5219 28.3455 18.4964 28.2104 18.4981 28.0743C18.4964 27.9364 18.5219 27.7995 18.5731 27.6714C18.622 27.5556 18.6949 27.4515 18.7869 27.3658C18.8782 27.2801 18.9859 27.2139 19.1036 27.1713C19.2301 27.126 19.3636 27.1035 19.498 27.1046M23.0003 27.1046C23.1092 27.1044 23.2173 27.1232 23.3197 27.1602C23.4229 27.1971 23.5174 27.2548 23.5974 27.3297L23.3197 27.6297C23.2791 27.5808 23.2278 27.5418 23.1697 27.5158C23.116 27.5028 23.0603 27.5009 23.0058 27.5103H22.917C22.8874 27.5145 22.859 27.5249 22.8336 27.5408C22.8101 27.5555 22.7894 27.5744 22.7725 27.5964C22.7574 27.6246 22.7497 27.6561 22.7503 27.6881C22.7492 27.7154 22.7559 27.7424 22.7698 27.7659C22.7838 27.7884 22.8028 27.8074 22.8253 27.8215L22.917 27.8631L23.0336 27.9048C23.0947 27.9243 23.1614 27.9465 23.228 27.9743C23.2948 27.998 23.3575 28.0318 23.4141 28.0743C23.4708 28.1158 23.5182 28.1688 23.553 28.2299C23.5912 28.3005 23.6095 28.3802 23.6058 28.4605C23.6085 28.5564 23.5885 28.6516 23.5474 28.7383C23.5106 28.8131 23.4575 28.8786 23.3919 28.93C23.3234 28.9807 23.2462 29.0184 23.1642 29.0412C23.0739 29.0672 22.9803 29.0793 22.8864 29.0773C22.7554 29.0782 22.6255 29.0546 22.5031 29.0078C22.3863 28.9673 22.2807 28.8997 22.1948 28.8106L22.4726 28.5133C22.5228 28.5719 22.5842 28.6201 22.6531 28.655C22.721 28.6902 22.7961 28.7092 22.8725 28.7105C22.9048 28.7146 22.9375 28.7146 22.9697 28.7105C22.9988 28.7058 23.0264 28.6944 23.0503 28.6772C23.0752 28.6616 23.0954 28.6395 23.1086 28.6133C23.1228 28.5849 23.1295 28.5533 23.1281 28.5216C23.1295 28.4901 23.1207 28.4589 23.1031 28.4327C23.0821 28.4063 23.0567 28.3837 23.0281 28.366C22.9907 28.3426 22.9506 28.3239 22.9086 28.3105L22.7448 28.2577C22.6858 28.2386 22.6283 28.2154 22.5726 28.1882C22.5253 28.1546 22.484 28.1132 22.4504 28.066C22.4052 28.0249 22.3692 27.9747 22.3448 27.9187C22.3153 27.8513 22.3011 27.7783 22.3032 27.7048C22.3008 27.6127 22.3229 27.5216 22.367 27.4408C22.4071 27.3688 22.4631 27.307 22.5309 27.2602C22.6007 27.2138 22.6777 27.1791 22.7587 27.1574C22.8434 27.1377 22.93 27.1274 23.017 27.1269M2.39185 31.1972C2.48498 31.1974 2.57791 31.2058 2.66959 31.2222C2.76462 31.2384 2.8577 31.2645 2.94733 31.3C3.03451 31.3357 3.1182 31.3794 3.1973 31.4306C3.27609 31.4836 3.34555 31.5493 3.40283 31.6251L3.44171 31.6778L2.98066 32.0418L2.939 31.9862C2.87801 31.9029 2.79403 31.8392 2.69736 31.8029C2.59456 31.7593 2.48405 31.7369 2.37241 31.7369C2.26076 31.7369 2.15025 31.7593 2.04745 31.8029C1.94242 31.8452 1.84771 31.9097 1.76971 31.9918C1.69418 32.0719 1.63561 32.1664 1.59751 32.2696C1.55542 32.3844 1.53471 32.5059 1.5364 32.6281C1.53479 32.7546 1.5545 32.8804 1.59473 33.0004C1.63268 33.1025 1.68918 33.1966 1.76137 33.2782C1.83506 33.3564 1.92389 33.4188 2.02245 33.4616C2.13095 33.5054 2.24709 33.5271 2.36407 33.5255C2.48407 33.5279 2.60296 33.5022 2.71125 33.4505C2.8055 33.4023 2.88727 33.3328 2.95011 33.2476L2.98899 33.1948L3.47504 33.5366L3.43338 33.5922C3.31207 33.7449 3.15714 33.8675 2.98066 33.9506C2.78653 34.0395 2.57476 34.0832 2.3613 34.0784C2.15837 34.08 1.95687 34.0442 1.76693 33.9728C1.59318 33.9032 1.43469 33.8003 1.30032 33.6699C1.16781 33.5389 1.0638 33.3819 0.994807 33.2087C0.920842 33.0213 0.884052 32.8212 0.886488 32.6197C0.883752 32.415 0.922488 32.2118 1.00036 32.0224C1.0828 31.8549 1.19913 31.7063 1.34198 31.5862C1.48128 31.4643 1.64245 31.37 1.81692 31.3083C2.00571 31.2403 2.20509 31.2064 2.40574 31.2083M5.18315 31.2083C4.98339 31.2062 4.78489 31.2401 4.59712 31.3083C4.42066 31.3688 4.25818 31.4643 4.1194 31.5889C3.98412 31.7166 3.87801 31.8721 3.80833 32.0446C3.73297 32.2346 3.69524 32.4375 3.69723 32.6419C3.69575 32.8436 3.73348 33.0437 3.80833 33.231C3.87987 33.4041 3.98568 33.561 4.1194 33.6922C4.25481 33.8225 4.41421 33.9254 4.58879 33.995C4.77687 34.0662 4.9765 34.102 5.1776 34.1006C5.38053 34.1023 5.58202 34.0665 5.77197 33.995C5.94792 33.9265 6.10845 33.8235 6.24413 33.6922C6.37921 33.5621 6.48522 33.4049 6.5552 33.231C6.63139 33.0441 6.66917 32.8438 6.66629 32.6419C6.66968 32.4374 6.6319 32.2342 6.5552 32.0446C6.48488 31.8716 6.37888 31.7154 6.24413 31.5862C6.10543 31.4649 5.94529 31.3707 5.77197 31.3083C5.58132 31.2401 5.38008 31.2062 5.1776 31.2083M5.1776 33.5588C5.06123 33.5605 4.94581 33.5378 4.83875 33.4921C4.73373 33.4498 4.63902 33.3853 4.56101 33.3032C4.48678 33.2221 4.42838 33.1279 4.38881 33.0254C4.348 32.9074 4.32734 32.7834 4.32771 32.6586C4.32743 32.5365 4.34809 32.4153 4.38881 32.3002C4.429 32.198 4.48734 32.1038 4.56101 32.0224C4.63818 31.9393 4.73313 31.8747 4.83875 31.8334C4.94646 31.7864 5.06288 31.7628 5.18038 31.764C5.29964 31.7631 5.41782 31.7867 5.52755 31.8334C5.63318 31.8747 5.72812 31.9393 5.80529 32.0224C5.88082 32.1024 5.9394 32.1969 5.97749 32.3002C6.01958 32.4149 6.04029 32.5364 6.0386 32.6586C6.0405 32.7836 6.0198 32.9078 5.97749 33.0254C5.94051 33.1299 5.88248 33.2258 5.807 33.307C5.73153 33.3883 5.6402 33.4531 5.53866 33.4977C5.42961 33.5432 5.31241 33.5659 5.19426 33.5644M13.4904 5.04152C13.4376 5.14988 13.3738 5.26935 13.3071 5.39438L12.685 6.64743C13.7286 6.08653 14.8802 5.75589 16.0623 5.67777C15.2583 5.28715 14.381 5.07035 13.4876 5.04152M15.3846 1.15179C15.3041 1.31016 15.2263 1.47131 15.1458 1.63523C16.0873 2.20413 16.8706 3.00101 17.4232 3.9524C17.6788 4.07465 17.9232 4.20523 18.1537 4.33581C17.4927 3.02442 16.4428 1.7936 15.3763 1.15179M14.9902 1.94919C14.8069 2.32149 14.593 2.74658 14.4014 3.13555C14.4181 3.13555 16.1456 3.39394 16.9011 3.7079C16.4123 2.97163 15.629 2.40484 14.9902 1.94919ZM21.0783 8.92292C21.5199 9.63081 22.0909 10.2491 22.7614 10.7455C22.9466 10.3158 23.1271 9.87961 23.303 9.43692H23.2447C22.4952 9.41204 21.7584 9.23628 21.0783 8.92014M19.9507 8.30612C20.5812 9.58973 21.5394 10.8872 22.4504 11.5124C22.5198 11.354 22.5615 11.2345 22.6281 11.0762C21.8195 10.4252 21.1474 9.62068 20.6506 8.70898C20.4173 8.58674 20.1812 8.45059 19.959 8.30612M24.689 6.11676C23.7601 6.50829 22.7728 6.74301 21.7671 6.81135C22.4762 7.16713 23.2545 7.36343 24.0474 7.38648H24.1418C24.3223 6.95583 24.5029 6.53073 24.6973 6.11398M16.6428 1.23792C17.5038 1.91585 18.3759 3.33004 18.7869 4.24135C19.0175 3.75235 19.3424 3.07165 19.5813 2.55487C18.7144 1.89841 17.7095 1.44804 16.6428 1.23792ZM21.27 3.81904C21.0339 4.35248 20.77 4.93039 20.5201 5.45272C20.6673 5.45272 20.8811 5.46939 21.1422 5.46939C21.9998 5.47722 22.8543 5.36499 23.6808 5.13599C22.8147 4.82252 22.0017 4.3784 21.27 3.81904ZM24.3029 5.31658C23.2913 5.67218 22.2255 5.84893 21.1533 5.83892C20.7561 5.83892 20.3201 5.86115 20.3201 5.86115L20.895 6.2779H20.9561C21.3449 6.2779 23.4558 6.24178 25 5.44439H24.9417C24.7195 5.41105 24.5057 5.37215 24.3001 5.32214M19.2258 8.22555C18.9647 8.78122 18.6703 9.41747 18.3926 9.99537C19.3646 10.715 20.2784 11.4068 21.3811 11.6624C20.5387 10.5988 19.8133 9.44742 19.2174 8.22832M19.9062 2.80215C19.5396 3.58009 18.7758 5.2249 18.7758 5.2249V5.24434C17.4661 4.21798 15.869 3.62557 14.207 3.54953C14.0792 3.82737 13.9487 4.07465 13.8209 4.33859L13.6821 4.61643C15.3081 4.77622 16.8524 5.40669 18.1259 6.43071L18.1898 6.48072V6.50017C18.1898 6.50017 17.3955 8.1672 16.9955 9.00071C17.3705 9.22854 17.7232 9.47582 18.0676 9.72865L19.2202 7.26145C20.945 8.55062 21.9282 8.98682 23.4725 9.02572L23.9835 7.77545C22.4531 7.69765 21.5477 7.32535 19.7979 6.01396V6.00006C19.7979 6.00006 20.57 4.35526 20.9367 3.56343C20.5923 3.30504 20.2562 3.04387 19.9174 2.78826M17.501 6.9975C16.3001 7.03704 15.1268 7.36789 14.082 7.9616C14.9767 8.06484 15.8412 8.34839 16.6233 8.79511C16.8816 8.25889 17.2844 7.46983 17.5066 7.00028M17.1011 6.20289C15.7846 6.2529 13.6821 6.60853 11.9989 8.06162C12.3661 7.99717 12.7373 7.95818 13.1099 7.94493C14.4922 7.12129 16.0598 6.65974 17.6676 6.60297C17.4677 6.45572 17.2955 6.3418 17.0927 6.21122L17.1011 6.20289ZM6.74406 3.06054H5.94972C6.02347 3.11358 6.08099 3.18613 6.11582 3.27005C6.15065 3.35397 6.16142 3.44594 6.14692 3.53564C5.92195 3.53564 5.82474 3.53564 5.70809 3.35782V3.96351C5.82474 3.78014 5.92195 3.78014 6.13859 3.78014C6.13549 3.91778 6.09269 4.0516 6.01532 4.16547C5.93796 4.27934 5.82933 4.36841 5.70253 4.42194H6.9857C6.85906 4.36553 6.7498 4.27629 6.66923 4.16344C6.58865 4.0506 6.53969 3.91827 6.52742 3.78014C6.74962 3.78014 6.84127 3.78014 6.98014 3.96351V3.33838C6.84683 3.51619 6.74962 3.51619 6.52187 3.51619C6.51345 3.4244 6.52958 3.33202 6.56863 3.24853C6.60768 3.16504 6.66823 3.09345 6.74406 3.04109M2.75014 6.11676C2.72742 6.11638 2.70486 6.12058 2.6838 6.1291C2.66273 6.13763 2.6436 6.1503 2.62753 6.16637C2.61147 6.18244 2.5988 6.20158 2.59028 6.22265C2.58176 6.24372 2.57756 6.26629 2.57794 6.28901C2.57794 6.3347 2.59608 6.37852 2.62837 6.41082C2.66067 6.44313 2.70446 6.46128 2.75014 6.46128C2.79581 6.46128 2.83961 6.44313 2.8719 6.41082C2.90419 6.37852 2.92234 6.3347 2.92234 6.28901C2.92271 6.26629 2.91851 6.24372 2.90999 6.22265C2.90147 6.20158 2.8888 6.18244 2.87274 6.16637C2.85667 6.1503 2.83754 6.13763 2.81648 6.1291C2.79541 6.12058 2.77285 6.11638 2.75014 6.11676ZM2.5946 5.59998C2.54868 5.60071 2.50488 5.61947 2.47266 5.65222C2.44045 5.68496 2.42239 5.72907 2.4224 5.77501C2.4224 5.79751 2.42687 5.81978 2.43556 5.84052C2.44424 5.86127 2.45697 5.88007 2.473 5.89585C2.48903 5.91162 2.50803 5.92405 2.52891 5.9324C2.54979 5.94075 2.57212 5.94487 2.5946 5.9445C2.61708 5.94487 2.63941 5.94075 2.66029 5.9324C2.68117 5.92405 2.70017 5.91162 2.7162 5.89585C2.73223 5.88007 2.74496 5.86127 2.75364 5.84052C2.76233 5.81978 2.7668 5.79751 2.7668 5.77501C2.76717 5.75216 2.76299 5.72946 2.7545 5.70824C2.74601 5.68702 2.73338 5.6677 2.71736 5.65141C2.70133 5.63512 2.68222 5.62218 2.66115 5.61335C2.64007 5.60452 2.61745 5.59997 2.5946 5.59998ZM2.62237 5.09709C2.5882 5.0971 2.5548 5.10727 2.52642 5.12633C2.49805 5.14538 2.47598 5.17245 2.46303 5.20409C2.45009 5.23572 2.44684 5.2705 2.45371 5.30399C2.46059 5.33748 2.47727 5.36817 2.50163 5.39214C2.52599 5.41612 2.55693 5.4323 2.59051 5.43863C2.6241 5.44496 2.65881 5.44115 2.69022 5.42769C2.72163 5.41422 2.74833 5.39171 2.76691 5.36302C2.7855 5.33433 2.79513 5.30075 2.79457 5.26657C2.79458 5.24408 2.7901 5.22181 2.78142 5.20107C2.77273 5.18032 2.76 5.16151 2.74397 5.14574C2.72795 5.12996 2.70894 5.11754 2.68806 5.10918C2.66719 5.10083 2.64486 5.09672 2.62237 5.09709ZM2.83068 4.63588C2.80642 4.63278 2.78178 4.63488 2.7584 4.64205C2.73501 4.64922 2.71343 4.66129 2.69507 4.67746C2.67671 4.69362 2.66201 4.71351 2.65194 4.73581C2.64186 4.7581 2.63666 4.78228 2.63666 4.80675C2.63666 4.83121 2.64186 4.8554 2.65194 4.87769C2.66201 4.89999 2.67671 4.91988 2.69507 4.93604C2.71343 4.95221 2.73501 4.96428 2.7584 4.97145C2.78178 4.97862 2.80642 4.98072 2.83068 4.97762C2.85494 4.98072 2.87958 4.97862 2.90296 4.97145C2.92635 4.96428 2.94794 4.95221 2.96629 4.93604C2.98465 4.91988 2.99935 4.89999 3.00942 4.87769C3.0195 4.8554 3.02471 4.83121 3.02471 4.80675C3.02471 4.78228 3.0195 4.7581 3.00942 4.73581C2.99935 4.71351 2.98465 4.69362 2.96629 4.67746C2.94794 4.66129 2.92635 4.64922 2.90296 4.64205C2.87958 4.63488 2.85494 4.63278 2.83068 4.63588ZM3.25563 4.28303C3.23314 4.28266 3.21081 4.28677 3.18994 4.29512C3.16906 4.30347 3.15005 4.3159 3.13403 4.33167C3.118 4.34745 3.10527 4.36626 3.09658 4.387C3.08789 4.40775 3.08342 4.43001 3.08343 4.45251C3.08033 4.47677 3.08243 4.50142 3.0896 4.52481C3.09676 4.54821 3.10883 4.5698 3.12499 4.58816C3.14115 4.60653 3.16103 4.62124 3.18332 4.63131C3.2056 4.64139 3.22978 4.6466 3.25424 4.6466C3.27869 4.6466 3.30287 4.64139 3.32515 4.63131C3.34744 4.62124 3.36733 4.60653 3.38349 4.58816C3.39965 4.5698 3.41171 4.54821 3.41888 4.52481C3.42604 4.50142 3.42815 4.47677 3.42505 4.45251C3.42505 4.40756 3.4072 4.36445 3.37542 4.33267C3.34365 4.30088 3.30056 4.28303 3.25563 4.28303ZM3.76945 4.09132C3.74683 4.09132 3.72444 4.09577 3.70355 4.10443C3.68266 4.11309 3.66367 4.12577 3.64768 4.14177C3.63169 4.15777 3.61901 4.17676 3.61036 4.19766C3.6017 4.21855 3.59725 4.24096 3.59725 4.26358C3.59725 4.30926 3.61539 4.35308 3.64768 4.38538C3.67998 4.41769 3.72378 4.43584 3.76945 4.43584C3.81512 4.43584 3.85892 4.41769 3.89121 4.38538C3.9235 4.35308 3.94165 4.30926 3.94165 4.26358C3.94165 4.21789 3.9235 4.17408 3.89121 4.14177C3.85892 4.10947 3.81512 4.09132 3.76945 4.09132ZM4.32493 4.15522C4.27926 4.15522 4.23546 4.17337 4.20317 4.20567C4.17087 4.23798 4.15273 4.28179 4.15273 4.32748C4.15273 4.37317 4.17087 4.41698 4.20317 4.44928C4.23546 4.48159 4.27926 4.49974 4.32493 4.49974C4.3706 4.49974 4.4144 4.48159 4.44669 4.44928C4.47899 4.41698 4.49713 4.37317 4.49713 4.32748C4.49713 4.28179 4.47899 4.23798 4.44669 4.20567C4.4144 4.17337 4.3706 4.15522 4.32493 4.15522ZM4.83042 4.29136C4.78449 4.29135 4.7404 4.30941 4.70767 4.34164C4.67493 4.37387 4.65617 4.41768 4.65544 4.46362C4.65489 4.49835 4.66469 4.53246 4.68357 4.56161C4.70246 4.59076 4.72959 4.61363 4.76151 4.6273C4.79343 4.64098 4.8287 4.64484 4.86282 4.6384C4.89695 4.63197 4.92838 4.61552 4.95313 4.59115C4.97788 4.56679 4.99483 4.53561 5.00181 4.50158C5.00879 4.46755 5.00549 4.43222 4.99233 4.40007C4.97917 4.36793 4.95675 4.34042 4.92792 4.32106C4.89908 4.3017 4.86515 4.29136 4.83042 4.29136ZM5.33591 4.46084C5.28999 4.46157 5.24619 4.48033 5.21397 4.51308C5.18176 4.54583 5.1637 4.58993 5.16371 4.63588C5.16907 4.67815 5.18965 4.71702 5.22161 4.74519C5.25357 4.77336 5.2947 4.78891 5.3373 4.78891C5.3799 4.78891 5.42103 4.77336 5.45299 4.74519C5.48495 4.71702 5.50553 4.67815 5.51089 4.63588C5.51089 4.61289 5.50636 4.59013 5.49757 4.5689C5.48878 4.54766 5.47589 4.52836 5.45964 4.51211C5.44339 4.49585 5.4241 4.48296 5.40287 4.47417C5.38164 4.46537 5.35889 4.46084 5.33591 4.46084ZM8.87434 4.09132C8.82867 4.09132 8.78487 4.10947 8.75258 4.14177C8.72028 4.17408 8.70214 4.21789 8.70214 4.26358C8.70214 4.30952 8.72019 4.35363 8.75241 4.38638C8.78462 4.41912 8.82842 4.43788 8.87434 4.43861C8.92053 4.4379 8.96462 4.41923 8.99728 4.38655C9.02994 4.35388 9.0486 4.30978 9.04932 4.26358C9.04859 4.21764 9.02983 4.17383 8.9971 4.1416C8.96436 4.10937 8.92027 4.09131 8.87434 4.09132ZM8.31886 4.15522C8.29601 4.15485 8.27332 4.15903 8.25211 4.16753C8.23089 4.17602 8.21158 4.18865 8.19529 4.20468C8.17901 4.22071 8.16608 4.23983 8.15725 4.26091C8.14842 4.28199 8.14388 4.30462 8.14388 4.32748C8.14924 4.36975 8.16982 4.40862 8.20178 4.43679C8.23374 4.46496 8.27487 4.48051 8.31747 4.48051C8.36007 4.48051 8.4012 4.46496 8.43316 4.43679C8.46511 4.40862 8.4857 4.36975 8.49106 4.32748C8.49106 4.28179 8.47292 4.23798 8.44062 4.20567C8.40833 4.17337 8.36453 4.15522 8.31886 4.15522ZM7.81337 4.29136C7.7677 4.29136 7.7239 4.30951 7.69161 4.34181C7.65931 4.37412 7.64117 4.41793 7.64117 4.46362C7.64117 4.50931 7.65931 4.55312 7.69161 4.58543C7.7239 4.61773 7.7677 4.63588 7.81337 4.63588C7.8593 4.63588 7.90339 4.61783 7.93612 4.5856C7.96886 4.55337 7.98762 4.50956 7.98835 4.46362C7.98762 4.41768 7.96886 4.37387 7.93612 4.34164C7.90339 4.30941 7.8593 4.29135 7.81337 4.29136ZM7.3051 4.46084C7.28225 4.46084 7.25963 4.46538 7.23855 4.47421C7.21748 4.48304 7.19837 4.49598 7.18234 4.51227C7.16632 4.52856 7.15369 4.54788 7.1452 4.56911C7.13671 4.59033 7.13253 4.61302 7.1329 4.63588C7.1329 4.68156 7.15104 4.72538 7.18334 4.75769C7.21563 4.78999 7.25943 4.80814 7.3051 4.80814C7.35077 4.80814 7.39457 4.78999 7.42686 4.75769C7.45916 4.72538 7.4773 4.68156 7.4773 4.63588C7.47767 4.61302 7.47349 4.59033 7.465 4.56911C7.45651 4.54788 7.44388 4.52856 7.42786 4.51227C7.41183 4.49598 7.39272 4.48304 7.37165 4.47421C7.35057 4.46538 7.32795 4.46084 7.3051 4.46084ZM8.66604 4.70256C8.05223 4.70256 7.3051 5.04152 6.90238 5.23045C6.90314 5.21657 6.90314 5.20266 6.90238 5.18878C6.89469 5.04709 6.9116 4.90515 6.95237 4.76924H5.69142C5.7361 4.90436 5.75494 5.04668 5.74697 5.18878V5.23601C5.34702 5.04708 4.59434 4.70256 3.9722 4.70256C3.83811 4.69426 3.7038 4.71476 3.57829 4.76268C3.45278 4.8106 3.33897 4.88484 3.24452 4.9804C2.85845 5.40549 3.08065 6.05841 3.1723 6.3418L3.40005 6.26123C3.31395 6.00006 3.12231 5.46106 3.42227 5.14988C3.49506 5.07872 3.58243 5.02422 3.67834 4.99016C3.77425 4.95611 3.87641 4.94329 3.97775 4.95261C4.57768 4.95261 5.39146 5.33881 5.71919 5.50829L5.75252 5.52774V6.20566C5.90556 6.36512 5.99284 6.57645 5.99694 6.79746C5.93835 6.7919 5.88175 6.77329 5.83129 6.743C5.78083 6.71271 5.73778 6.67151 5.70531 6.62242V7.41426C5.73791 7.3631 5.7815 7.31984 5.83291 7.28764C5.88431 7.25544 5.94224 7.23511 6.00249 7.22811C6.01404 7.38541 5.96923 7.54168 5.8761 7.66895C5.78298 7.79622 5.6476 7.88617 5.49422 7.9227H5.41368C5.30106 7.92794 5.19021 7.89316 5.10075 7.82452C5.01129 7.75587 4.94899 7.65779 4.92485 7.54762C4.90268 7.47624 4.90107 7.40006 4.92024 7.32781C4.9394 7.25557 4.97854 7.19019 5.03317 7.1392C5.06912 7.11751 5.11066 7.10688 5.1526 7.10864C5.20561 7.10723 5.25748 7.12415 5.29947 7.15654C5.34146 7.18893 5.37101 7.23481 5.38313 7.28645C5.43576 7.19877 5.46074 7.09724 5.4548 6.99513C5.44885 6.89303 5.41226 6.79509 5.3498 6.71411C5.32367 6.67833 5.28936 6.64932 5.24974 6.6295C5.21012 6.60969 5.16634 6.59964 5.12205 6.60019C5.08185 6.59887 5.04191 6.60727 5.00565 6.62468C4.96939 6.6421 4.93786 6.66801 4.91374 6.70021C4.96096 6.18344 4.69433 5.93616 4.5499 5.88893C4.42492 5.97228 4.22772 6.2779 4.40825 6.76412C4.36271 6.74417 4.31355 6.73376 4.26383 6.73356C4.20149 6.73125 4.14019 6.75 4.08981 6.7868C4.03942 6.82359 4.00289 6.87628 3.98609 6.93638C3.96 7.02683 3.95598 7.12222 3.97434 7.21455C3.9927 7.30688 4.03292 7.39347 4.09163 7.46705C4.09088 7.43424 4.09674 7.40162 4.10886 7.37112C4.12099 7.34063 4.13912 7.31289 4.16219 7.28956C4.18526 7.26622 4.21278 7.24777 4.24313 7.23531C4.27347 7.22284 4.30602 7.21661 4.33882 7.21699C4.35865 7.2182 4.37825 7.22193 4.39714 7.22811C4.53324 7.27256 4.58879 7.45038 4.60545 7.57541C4.61319 7.64128 4.60713 7.70805 4.58766 7.77146C4.56819 7.83487 4.53574 7.89353 4.49237 7.94371C4.44901 7.99389 4.39567 8.03448 4.33576 8.06292C4.27585 8.09135 4.21068 8.10699 4.1444 8.10885H4.08885C3.81111 8.10885 3.60836 7.83102 3.48893 7.51984H3.56392C3.66541 7.51632 3.76452 7.55102 3.84166 7.61708L3.63613 6.8558C3.61787 6.91581 3.5875 6.97143 3.54689 7.01922C3.50629 7.067 3.45631 7.10595 3.40005 7.13364C3.34516 6.91122 3.36871 6.67667 3.46671 6.46961L2.97511 6.65576L3.84166 8.97571H8.84101L9.70757 6.63076L9.21596 6.4446C9.31689 6.65282 9.34052 6.89016 9.28262 7.11419C9.22442 7.08801 9.1725 7.04967 9.13034 7.00175C9.08819 6.95382 9.05677 6.89743 9.03821 6.83636L8.8299 7.59763C8.90783 7.53295 9.0064 7.49843 9.10765 7.50039H9.17153C9.03821 7.83379 8.84101 8.09774 8.56327 8.09774H8.50772C8.4413 8.0963 8.37592 8.08094 8.3158 8.05265C8.25569 8.02435 8.20218 7.98376 8.15873 7.93348C8.11527 7.88321 8.08285 7.82437 8.06355 7.76078C8.04425 7.69718 8.0385 7.63025 8.04667 7.56429C8.06334 7.43926 8.11611 7.26145 8.25776 7.21699C8.28256 7.21258 8.30794 7.21258 8.33275 7.21699C8.36544 7.21699 8.39781 7.22348 8.42799 7.23608C8.45816 7.24868 8.48553 7.26714 8.50852 7.2904C8.53152 7.31366 8.54966 7.34124 8.56192 7.37157C8.57418 7.40189 8.5803 7.43434 8.57994 7.46705C8.63817 7.39322 8.67788 7.30652 8.69576 7.2142C8.71364 7.12188 8.70916 7.02661 8.6827 6.93638C8.6659 6.87628 8.62936 6.82359 8.57898 6.7868C8.5286 6.75 8.4673 6.73125 8.40496 6.73356C8.35523 6.73376 8.30608 6.74417 8.26053 6.76412C8.44106 6.2779 8.26053 5.97228 8.11611 5.88893C7.97168 5.93616 7.7106 6.18344 7.75504 6.70021C7.73077 6.66818 7.69921 6.64239 7.66298 6.625C7.62676 6.6076 7.58691 6.5991 7.54674 6.60019C7.5022 6.6005 7.45832 6.61091 7.41839 6.63065C7.37845 6.65038 7.34352 6.67891 7.31621 6.71411C7.25556 6.796 7.22033 6.89392 7.2149 6.99568C7.20947 7.09745 7.23408 7.19857 7.28566 7.28645C7.29787 7.23433 7.32783 7.18808 7.3704 7.15564C7.41296 7.1232 7.46549 7.10658 7.51896 7.10864C7.56084 7.1075 7.6022 7.11809 7.63839 7.1392C7.68763 7.19069 7.72213 7.25449 7.73825 7.3239C7.75438 7.39332 7.75154 7.46579 7.73005 7.53373C7.7065 7.64367 7.64474 7.7417 7.55574 7.81038C7.46674 7.87906 7.35628 7.91394 7.244 7.90881H7.17456C7.02104 7.87641 6.88433 7.78977 6.78946 7.66476C6.69459 7.53975 6.64791 7.38474 6.65796 7.22811C6.7136 7.23725 6.76683 7.25745 6.81454 7.28752C6.86224 7.31758 6.90344 7.3569 6.9357 7.40315V6.60575C6.90462 6.65388 6.86388 6.69503 6.81607 6.72659C6.76826 6.75816 6.71442 6.77945 6.65796 6.78912C6.65817 6.56593 6.74362 6.35125 6.89682 6.18899V5.50551H6.91904C7.244 5.3527 8.055 4.94984 8.6577 4.94984C8.75902 4.94089 8.86108 4.95387 8.95693 4.98791C9.05279 5.02195 9.14019 5.07625 9.21319 5.1471C9.49093 5.46661 9.32151 6.00562 9.23541 6.25845L9.46315 6.33903C9.55481 6.06119 9.77423 5.40271 9.38816 4.97762C9.29446 4.88183 9.18117 4.80741 9.05606 4.75946C8.93095 4.71151 8.79696 4.69115 8.66326 4.69978M9.89365 6.11676C9.87071 6.116 9.84784 6.11992 9.82646 6.12827C9.80507 6.13662 9.7856 6.14924 9.76924 6.16535C9.75287 6.18146 9.73995 6.20073 9.73126 6.22199C9.72257 6.24325 9.71829 6.26605 9.71868 6.28901C9.71868 6.3347 9.73682 6.37852 9.76911 6.41082C9.80141 6.44313 9.84521 6.46128 9.89088 6.46128C9.93655 6.46128 9.98035 6.44313 10.0126 6.41082C10.0449 6.37852 10.0631 6.3347 10.0631 6.28901C10.0634 6.26653 10.0593 6.24419 10.051 6.2233C10.0426 6.20242 10.0302 6.18341 10.0144 6.16737C9.99868 6.15134 9.97988 6.13861 9.95914 6.12992C9.9384 6.12123 9.91614 6.11675 9.89365 6.11676ZM10.0492 5.59998C10.0033 5.60071 9.95947 5.61947 9.92725 5.65222C9.89504 5.68496 9.87698 5.72907 9.87699 5.77501C9.87699 5.79751 9.88146 5.81978 9.89015 5.84052C9.89883 5.86127 9.91156 5.88007 9.92759 5.89585C9.94362 5.91162 9.96262 5.92405 9.9835 5.9324C10.0044 5.94075 10.0267 5.94487 10.0492 5.9445C10.0717 5.946 10.0942 5.943 10.1155 5.93568C10.1368 5.92836 10.1565 5.91686 10.1733 5.90185C10.1901 5.88684 10.2037 5.86863 10.2134 5.84829C10.2231 5.82794 10.2287 5.80586 10.2297 5.78335C10.2297 5.7374 10.2117 5.6933 10.1795 5.66055C10.1472 5.6278 10.1034 5.60904 10.0575 5.60831M10.027 5.10543C9.98542 5.11074 9.94723 5.13102 9.91955 5.16247C9.89187 5.19392 9.8766 5.23439 9.8766 5.2763C9.8766 5.3182 9.89187 5.35867 9.91955 5.39012C9.94723 5.42157 9.98542 5.44185 10.027 5.44717C10.0512 5.45027 10.0759 5.44816 10.0993 5.44099C10.1226 5.43383 10.1442 5.42176 10.1626 5.40559C10.1809 5.38942 10.1956 5.36953 10.2057 5.34724C10.2158 5.32494 10.221 5.30076 10.221 5.2763C10.221 5.25183 10.2158 5.22765 10.2057 5.20535C10.1956 5.18306 10.1809 5.16317 10.1626 5.147C10.1442 5.13084 10.1226 5.11877 10.0993 5.1116C10.0759 5.10443 10.0512 5.10232 10.027 5.10543ZM9.81311 4.64421C9.78885 4.64111 9.76421 4.64322 9.74083 4.65039C9.71744 4.65756 9.69586 4.66962 9.6775 4.68579C9.65914 4.70196 9.64444 4.72185 9.63437 4.74414C9.62429 4.76644 9.61908 4.79062 9.61908 4.81508C9.61908 4.83955 9.62429 4.86373 9.63437 4.88603C9.64444 4.90832 9.65914 4.92821 9.6775 4.94438C9.69586 4.96055 9.71744 4.97261 9.74083 4.97978C9.76421 4.98695 9.78885 4.98906 9.81311 4.98596C9.85466 4.98064 9.89285 4.96036 9.92053 4.92891C9.94821 4.89746 9.96348 4.85699 9.96348 4.81508C9.96348 4.77318 9.94821 4.73271 9.92053 4.70126C9.89285 4.66981 9.85466 4.64953 9.81311 4.64421ZM9.3965 4.29136C9.37401 4.29099 9.35169 4.2951 9.33081 4.30345C9.30993 4.31181 9.29093 4.32423 9.2749 4.34001C9.25887 4.35578 9.24614 4.37459 9.23745 4.39534C9.22877 4.41608 9.22429 4.43835 9.2243 4.46084C9.2243 4.50653 9.24244 4.55034 9.27473 4.58265C9.30703 4.61495 9.35083 4.6331 9.3965 4.6331C9.44217 4.6331 9.48597 4.61495 9.51826 4.58265C9.55055 4.55034 9.5687 4.50653 9.5687 4.46084C9.5687 4.43835 9.56423 4.41608 9.55554 4.39534C9.54685 4.37459 9.53412 4.35578 9.5181 4.34001C9.50207 4.32423 9.48306 4.31181 9.46218 4.30345C9.44131 4.2951 9.41898 4.29099 9.3965 4.29136ZM18.0454 17.0719C18.0044 17.1677 17.987 17.272 17.9947 17.376C18.0025 17.48 18.0351 17.5805 18.0898 17.6693C17.9093 17.4692 17.4343 16.7302 17.9371 16.1717C18.0926 16.2301 18.0926 16.369 18.2315 16.4495C18.3703 16.5301 18.5092 16.3329 18.4092 16.2134C18.3592 16.1566 18.2976 16.1112 18.2287 16.08C18.1597 16.0489 18.0849 16.0328 18.0093 16.0328C17.9336 16.0328 17.8588 16.0489 17.7899 16.08C17.7209 16.1112 17.6594 16.1566 17.6093 16.2134C17.2621 16.4912 17.2983 17.4331 17.5954 18.061C18.2092 19.353 18.7425 20.6393 17.6732 21.4979C17.1177 21.9396 16.2845 21.3562 16.2845 21.3562C16.2845 21.3562 15.904 22.3258 16.54 22.4453C16.8728 22.4685 17.2037 22.3785 17.4788 22.1897C17.5485 22.1638 17.624 22.1582 17.6967 22.1735C17.7694 22.1887 17.8364 22.2242 17.8898 22.2758C18.0759 22.4092 18.0898 22.5259 18.0898 22.5259L18.4342 22.712C18.4531 23.4694 18.43 24.2272 18.3648 24.982C18.3534 25.1192 18.3011 25.2498 18.2148 25.357H16.2012C16.2012 25.357 16.1428 24.593 16.5067 24.2735C16.9538 24.4207 17.1733 24.4346 17.4038 24.2957C17.8648 24.0179 17.5454 23.3955 17.5454 23.3955C16.9514 23.541 16.3468 23.6395 15.7373 23.69C15.1818 23.7437 14.6216 23.725 14.0709 23.6344C13.7376 23.077 13.5133 22.4613 13.4099 21.8202C12.8544 21.9007 12.185 22.0535 12.2989 22.4203C12.3794 22.6592 13.1516 23.0037 13.1516 23.0037C13.1516 23.0037 12.9905 24.6291 12.5628 25.3515H9.827C9.827 25.3515 9.87977 24.4124 10.563 24.1568C10.7797 24.4346 11.5823 24.8347 12.0656 23.7456C11.6045 23.4677 10.1853 22.5148 9.93254 21.1867C10.6408 20.1115 11.9434 19.7975 12.585 19.6808C12.4433 19.553 11.9434 19.0251 11.2546 19.2196C11.0185 19.0218 10.8377 18.7662 10.7297 18.4778C9.70724 18.2923 8.76231 17.8091 8.01334 17.0886C7.77794 17.0759 7.5479 17.0134 7.33843 16.9052L3.28618 25.3459H2.95011L6.99958 16.8858C5.9275 16.8635 6.28023 15.9105 6.41077 15.6938C6.54131 15.4771 7.04958 14.7158 7.89947 15.0215L8.24942 14.2963C8.07722 14.3296 7.89669 14.1129 8.11611 13.8407C8.0546 13.7969 8.00716 13.7361 7.97958 13.6658C7.952 13.5956 7.94547 13.5188 7.96078 13.4448C7.97609 13.3709 8.01259 13.303 8.06582 13.2494C8.11905 13.1959 8.1867 13.159 8.26053 13.1433C8.23121 13.0761 8.21765 13.0031 8.22087 12.9298C8.2241 12.8566 8.24403 12.7851 8.27915 12.7207C8.31426 12.6564 8.36362 12.6009 8.42346 12.5586C8.4833 12.5162 8.55202 12.4881 8.62437 12.4765C8.77913 12.4444 8.9403 12.4732 9.07432 12.557L14.8513 0.559996C14.8601 0.534306 14.8766 0.511971 14.8986 0.496094H15.193C15.1973 0.504203 15.1996 0.513273 15.1996 0.522488C15.1996 0.531703 15.1973 0.540773 15.193 0.548883L9.35206 12.7154L9.65757 12.9488C9.77145 13.0405 9.827 13.0321 9.84922 13.4267C9.86593 13.6831 9.7933 13.9374 9.64369 14.1463C9.86118 14.4136 10.168 14.5932 10.5075 14.6519C10.6686 14.3991 10.7658 14.124 11.5129 13.8629C12.26 13.6017 12.7877 13.7434 13.7182 13.2322C13.5842 13.2123 13.4516 13.1845 13.321 13.1488C13.321 13.1488 12.3628 13.0794 11.7684 13.4267C11.5508 13.1801 11.4141 12.8727 11.3768 12.5459H11.5907C11.603 12.4853 11.6353 12.4305 11.6823 12.3903C11.6901 12.4258 11.7092 12.4577 11.7368 12.4813C11.7644 12.5048 11.7989 12.5187 11.8351 12.5209C12.0575 12.5256 12.2795 12.5023 12.4961 12.4515C12.8655 12.3792 12.7738 12.1042 12.7738 12.1042C12.6234 12.143 12.4681 12.1599 12.3128 12.1542C12.1278 12.1457 11.9469 12.0974 11.7823 12.0125C11.6684 11.9625 11.6101 12.1597 11.6101 12.1597C11.4875 12.0394 11.3886 11.8971 11.3185 11.7402C11.2743 11.5784 11.2574 11.4103 11.2685 11.2429C11.2463 11.1567 11.0935 11.1123 11.2018 10.7872L12.4378 10.4816C12.4508 10.4188 12.4795 10.3604 12.5213 10.3118C12.5631 10.2632 12.6165 10.226 12.6766 10.2038C12.8896 10.1128 13.111 10.043 13.3377 9.99537L13.6876 9.91758C13.8737 9.8759 13.8376 9.86757 13.8431 9.8509C13.8617 9.77175 13.8682 9.69027 13.8626 9.60918C14.1157 9.62299 14.368 9.65081 14.618 9.69253C14.8453 9.72962 15.0672 9.79398 15.2791 9.88424C15.2791 9.88424 15.8707 9.6703 16.1317 9.91202C16.122 9.961 16.109 10.0093 16.0929 10.0565C16.0929 10.0565 17.1455 9.95092 17.9815 11.1678C18.037 11.2456 18.0315 11.2651 18.0259 11.2845C17.8305 11.063 17.59 10.8859 17.3205 10.765C17.6816 10.9816 17.9713 11.2994 18.1537 11.6791C18.3564 12.2347 18.2231 12.3264 18.2231 12.3264C18.1161 11.9965 17.9368 11.6946 17.6982 11.4429C18.0381 11.9645 18.2398 12.5639 18.2842 13.185C18.3505 13.6862 18.2634 14.1957 18.0343 14.6464C18.0904 14.2725 18.0904 13.8923 18.0343 13.5184C18.0123 13.8835 17.9499 14.245 17.8482 14.5964C17.5704 14.5769 16.6622 14.3769 16.0956 15.566C16.0761 15.312 16.129 15.0576 16.2484 14.8325C16.2484 14.8325 15.3318 15.7966 16.0373 17.7026C15.8103 17.5676 15.6121 17.3891 15.454 17.1775C15.4134 17.9936 15.5469 18.8091 15.8457 19.5697C16.3456 20.8727 16.8205 21.2812 17.3899 20.8894C17.9593 20.4976 17.6926 19.3085 17.3899 18.7889C17.0872 18.2694 15.6096 16.3662 16.8344 15.4243C17.0762 15.228 17.3803 15.1248 17.6917 15.1334C18.003 15.1421 18.3009 15.262 18.5314 15.4716C18.3465 15.3694 18.1386 15.3158 17.9273 15.3158C17.716 15.3158 17.5082 15.3694 17.3232 15.4716C17.9787 15.3854 18.5842 15.3688 18.923 16.0272C19.1619 16.4829 18.6981 16.9469 18.6036 17.0941C18.5092 17.2414 18.2148 17.5998 18.6397 17.9832C18.1537 17.8804 18.037 17.0719 18.037 17.0719H18.0454ZM9.73812 15.8105C9.35246 15.3227 9.03047 14.7877 8.77991 14.2185L8.67159 14.1296L8.15499 15.2076C8.23276 15.3743 8.43273 15.8105 8.50217 15.9383C8.5716 16.0661 8.90212 16.5135 9.14097 16.4329C9.3012 16.1914 9.50346 15.9806 9.73812 15.8105ZM16.9594 24.593C16.8512 24.593 16.7439 24.5732 16.6428 24.5346C16.5046 24.7296 16.4299 24.9625 16.4289 25.2014C16.476 25.1008 16.544 25.0114 16.6282 24.9391C16.7125 24.8668 16.8112 24.8132 16.9177 24.7819C16.8573 24.8418 16.8195 24.9208 16.8109 25.0054C16.8023 25.0901 16.8234 25.1751 16.8705 25.2459C16.8705 25.0514 17.2594 24.8069 17.551 24.7069C17.5154 24.6942 17.4777 24.6885 17.4399 24.6902C17.3151 24.6948 17.1912 24.7135 17.0705 24.7458C17.4038 24.6347 17.7621 24.5069 17.8204 24.1012C17.7292 24.2485 17.6027 24.3706 17.4523 24.4565C17.302 24.5424 17.1325 24.5893 16.9594 24.593ZM10.9185 24.6652C10.7515 24.663 10.5851 24.6453 10.4214 24.6124C10.2757 24.7607 10.1939 24.9602 10.1936 25.1681C10.2535 25.082 10.331 25.0097 10.4211 24.9561C10.5111 24.9024 10.6116 24.8686 10.7158 24.8569C10.5325 24.9903 10.6047 25.1348 10.6658 25.2515C10.6658 25.1764 10.7602 25.0959 10.8852 25.0292C10.8781 25.0702 10.8833 25.1124 10.9001 25.1504C10.9169 25.1885 10.9446 25.2207 10.9796 25.2431C10.9157 25.0903 11.2046 24.9653 11.5101 24.9486C11.4296 24.9486 11.3379 24.9486 11.2463 24.9486C11.1546 24.9486 11.1296 24.9486 11.0741 24.9486C11.1779 24.9103 11.2848 24.8806 11.3935 24.8597C11.3135 24.8351 11.2298 24.8248 11.1463 24.8291C11.038 24.8291 10.9296 24.8291 10.8685 24.8291C11.1657 24.7736 11.3962 24.7263 11.5351 24.468C11.3558 24.6052 11.1327 24.6724 10.9074 24.6569M8.51883 13.9935C8.49099 14.0051 8.46108 14.011 8.4309 14.0109C8.40072 14.0108 8.37087 14.0045 8.34315 13.9926C8.31542 13.9807 8.29037 13.9633 8.2695 13.9415C8.24862 13.9197 8.23235 13.8939 8.22165 13.8657C8.16055 14.0824 8.35774 14.1268 8.45217 14.0713C8.48332 14.0545 8.50709 14.0268 8.51883 13.9935ZM14.6292 11.4929C14.6292 11.4929 14.8319 11.5957 14.9069 11.4624C14.812 11.3172 14.7744 11.1419 14.8014 10.9706C14.8014 10.9706 15.0513 11.5068 15.2152 11.5568C15.1317 11.3519 15.1003 11.1295 15.1235 10.9095C15.1235 10.9095 15.2818 11.3846 16.1762 11.1317C16.4539 11.0539 16.8178 10.7511 16.7928 10.4788C16.7678 10.2065 16.0068 10.1787 15.8734 10.251C15.9893 10.2769 16.0947 10.3369 16.1762 10.4232C15.956 10.3231 15.7062 10.3092 15.4763 10.3843C15.0624 10.5872 15.0347 10.815 15.0013 11.1595C14.9278 11.0195 14.8996 10.8601 14.9205 10.7034C14.9414 10.5466 15.0104 10.4002 15.118 10.2843C14.9541 10.0287 14.4042 10.0287 14.2292 10.0287C14.0542 10.0287 12.6794 10.2315 12.8405 10.451C13.0016 10.6705 13.6126 10.7289 13.9348 10.6288C13.7154 11.1845 13.3793 11.0456 13.1016 10.9873C12.8238 10.9289 12.635 10.7372 12.1517 10.8233C11.6684 10.9095 11.774 11.1762 11.774 11.1762C11.774 11.1762 11.5573 11.1456 11.5323 11.2929C11.5323 11.3596 11.5101 11.6596 12.0295 11.8013C12.352 11.8844 12.6902 11.8844 13.0127 11.8013C13.0127 11.8013 13.146 12.4348 12.8211 12.5543C12.6461 12.6182 12.1378 12.7099 11.9101 12.8321C11.881 12.8424 11.8549 12.8596 11.834 12.8822C11.813 12.9048 11.7978 12.9321 11.7896 12.9618C11.7814 12.9915 11.7805 13.0228 11.787 13.0529C11.7935 13.0831 11.8071 13.1112 11.8267 13.1349C12.1965 12.9356 12.6162 12.8477 13.0349 12.8821C13.5904 12.9349 13.6709 12.8154 13.882 12.6043C14.0527 12.3938 14.1869 12.1562 14.2792 11.9013C14.2792 11.9013 14.4792 12.6015 14.2792 12.9321C14.4646 12.7961 14.6212 12.6246 14.7399 12.4277C14.8586 12.2307 14.9371 12.0122 14.9708 11.7847C14.8959 11.7625 14.8265 11.7249 14.7672 11.6741C14.7079 11.6234 14.6599 11.5607 14.6264 11.4901L14.6292 11.4929ZM8.31886 16.594L9.03821 16.8858L8.32997 16.9524C8.84891 17.3105 9.40825 17.6062 9.99642 17.8332C10.8296 18.1305 11.4629 18.2388 11.8767 18.1471C12.1811 18.0554 12.4643 17.9043 12.71 17.7026C13.269 18.567 14.0921 19.2277 15.0569 19.5863C14.5967 19.5784 14.1467 19.45 13.7515 19.214C14.1487 19.5972 14.6574 19.8444 15.2041 19.9197C14.3403 19.967 13.8987 19.5891 13.4904 19.3641C13.8848 20.0198 14.7764 20.1448 14.7764 20.1448C14.7764 20.1448 14.0848 20.0837 13.8293 20.242C13.5765 20.6643 13.6515 21.4701 13.7237 21.9674C13.7959 22.4647 14.0015 23.0954 14.2792 23.2066C15.3707 23.6344 17.2427 22.9982 17.3955 22.9287C17.5482 22.8593 17.7454 22.7926 17.6482 22.5481C17.551 22.3036 17.3705 22.5092 17.0233 22.6092C16.8712 22.6557 16.7107 22.6681 16.5532 22.6455C16.3958 22.6229 16.2452 22.566 16.1123 22.4786C16.0218 22.4004 15.9465 22.3063 15.8901 22.2008C15.6839 22.4581 15.4165 22.6596 15.1124 22.787C15.3689 22.5416 15.5679 22.2424 15.6952 21.911C15.8224 21.5795 15.8748 21.224 15.8484 20.87C15.7401 19.8836 14.9763 18.8056 14.7375 18.3333C14.5057 17.9097 14.4244 17.4199 14.5069 16.9441C14.2326 17.0737 13.9233 17.1098 13.6265 17.0469C13.6265 17.0469 14.4597 16.7913 14.5708 16.5412C12.9044 16.8191 12.1073 16.4718 12.1073 16.4718C12.1073 16.4718 13.7737 16.4134 14.3542 15.9911C11.9406 16.4773 11.0713 15.7911 11.0713 15.7911C11.0713 15.7911 12.6183 15.8883 13.2377 15.5549C12.4382 15.7015 11.6156 15.6596 10.8352 15.4327C10.5195 15.5884 10.2454 15.817 10.0353 16.0995C10.6809 16.2637 11.3475 16.3302 12.0128 16.2967C11.411 16.5837 10.7698 16.7794 10.1103 16.8774C9.7368 16.9273 9.35694 16.8636 9.02011 16.6947C8.68328 16.5257 8.40507 16.2593 8.22165 15.93C8.10917 15.7075 7.98302 15.4923 7.84392 15.2854C7.31066 15.1131 7.18012 15.316 7.18012 15.316C7.18012 15.316 7.37731 15.316 7.40787 15.491C7.35537 15.4575 7.29664 15.435 7.23522 15.4249C7.1738 15.4147 7.11095 15.4171 7.05048 15.4319C6.99001 15.4467 6.93316 15.4736 6.88336 15.511C6.83356 15.5484 6.79185 15.5954 6.76073 15.6494C6.82711 15.6188 6.90187 15.6114 6.97293 15.6286C7.04399 15.6457 7.1072 15.6863 7.15234 15.7438C6.58297 15.6688 6.54409 15.9355 6.54964 16.1106C6.78572 15.905 6.9607 15.9911 6.9607 15.9911C6.83802 16.0101 6.72698 16.0746 6.64963 16.1717C6.37189 16.4746 6.69407 16.6996 6.98848 16.5385C7.08715 16.4885 7.17288 16.4164 7.23891 16.3277C7.30494 16.239 7.34947 16.1361 7.36898 16.0272C7.54396 16.1912 7.33843 16.4551 7.33843 16.4551C7.39169 16.5312 7.46001 16.5955 7.53915 16.6441C7.61829 16.6927 7.70657 16.7244 7.7985 16.7375C7.89043 16.7505 7.98406 16.7445 8.07357 16.7198C8.16308 16.6951 8.24657 16.6523 8.31886 16.594ZM11.9823 21.12C12.3143 20.9489 12.6673 20.8219 13.0321 20.7421C13.2432 20.6866 13.496 20.5004 13.2349 20.0031C11.274 20.3004 10.3908 21.1561 10.3908 21.1561C11.5573 21.4645 11.6601 21.3089 11.9823 21.12ZM17.1733 11.3596C17.0065 11.228 16.8101 11.1392 16.6011 11.1012L16.5539 11.1373C16.6842 11.3237 16.7784 11.5329 16.8316 11.7541C16.6961 11.5488 16.5028 11.3883 16.2762 11.2929L16.1762 11.3234C16.2706 11.7207 16.5345 12.771 16.0595 13.4628C16.2623 12.8627 15.9345 11.7763 15.7262 11.4012C15.7901 11.8986 16.0762 12.8627 15.1707 13.6517C15.6235 13.0238 15.5596 11.9125 15.4652 11.5485C15.4096 12.4181 15.6568 13.7434 13.857 14.1741C14.032 14.0879 14.6514 13.9407 14.9985 12.8349C14.4416 13.3459 13.7772 13.7257 13.0544 13.9462C13.316 13.9208 13.5751 13.8743 13.8293 13.8073C13.4457 14.0543 12.9995 14.1864 12.5433 14.1879C12.3904 14.1923 12.2374 14.1877 12.085 14.1741C11.9573 14.1741 11.8434 14.1435 11.749 14.1435C11.6882 14.1413 11.6277 14.1517 11.5712 14.1741C11.3381 14.2414 11.1253 14.3655 10.9518 14.5352C11.1304 14.4726 11.3181 14.4397 11.5073 14.438C11.8675 14.4662 12.2224 14.5418 12.5628 14.6631H12.5961C13.7709 14.6631 14.6236 14.4213 14.9319 13.9073C14.6292 14.6686 13.9598 14.9548 13.3599 15.3132C14.1931 15.002 15.2763 14.6325 15.6707 13.6267C15.7818 14.1296 15.4457 15.0159 14.282 15.5716C15.5846 15.2076 16.3817 14.2324 16.6039 12.4876C16.7042 13.0691 16.69 13.6646 16.5622 14.2407C16.9816 13.6378 16.9538 12.4737 16.6733 11.8319C17.0844 12.4658 17.2612 13.2235 17.1733 13.974C17.3843 13.0349 17.4954 11.9625 16.8955 11.3012C17.451 11.7458 17.6232 12.6348 17.7149 13.6684C17.8676 12.721 17.6871 11.3179 16.8066 10.89L16.7844 10.9178C16.9384 11.0417 17.0699 11.1911 17.1733 11.3596ZM10.3436 14.8742C9.93864 14.7164 9.59632 14.4305 9.36872 14.0601C9.56383 13.8201 9.66281 13.5161 9.64646 13.2072C9.42984 12.9715 9.17191 12.7776 8.88545 12.6348C8.64937 12.9266 9.02432 13.2933 9.42427 13.31C9.0021 13.5878 8.71047 13.9435 8.99099 14.049L9.04376 14.0657C9.10765 14.6658 9.90476 15.4243 9.90476 15.4243L10.3436 14.8742ZM8.78824 13.385C8.73179 13.3585 8.68187 13.3198 8.64202 13.2718C8.60218 13.2238 8.5734 13.1676 8.55772 13.1072C8.54624 13.0476 8.54774 12.9862 8.56212 12.9272C8.5765 12.8682 8.60341 12.813 8.64104 12.7654C8.41051 12.8988 8.38274 13.096 8.4494 13.2183C8.4868 13.2696 8.53627 13.3109 8.59344 13.3385C8.6506 13.3662 8.7137 13.3793 8.77713 13.3767M8.47162 13.7184H8.52439C8.55977 13.7115 8.59323 13.6969 8.62248 13.6758C8.65172 13.6547 8.67606 13.6275 8.69381 13.5962C8.66333 13.5991 8.63263 13.5991 8.60215 13.5962C8.51407 13.5993 8.42795 13.5696 8.36052 13.5128C8.31898 13.4641 8.29287 13.4041 8.28553 13.3405C8.22443 13.6351 8.35219 13.7295 8.48273 13.7295M17.6482 24.843C17.573 24.8111 17.4911 24.7982 17.4097 24.8054C17.3283 24.8127 17.25 24.8399 17.1816 24.8847C17.1525 24.9031 17.1283 24.9282 17.111 24.9579C17.0937 24.9876 17.0838 25.0211 17.0822 25.0554C17.0806 25.0898 17.0872 25.124 17.1016 25.1552C17.116 25.1865 17.1377 25.2137 17.1649 25.2348C17.1372 24.8819 17.651 24.8347 17.651 24.8347L17.6482 24.843ZM13.0599 14.8687C12.2517 15.1104 11.7823 14.8075 11.4435 14.7797C11.2259 14.7691 11.0104 14.8264 10.8269 14.9437C11.1749 15.1216 11.5625 15.208 11.9531 15.1949C12.3437 15.1818 12.7246 15.0695 13.0599 14.8687Z" />
<path d="M0.914307 30.2246H23.628V30.0635H0.917084L0.914307 30.2246Z" />
</svg>
