<svg xmlns="http://www.w3.org/2000/svg" width="44" height="36" viewBox="0 0 44 36">
      <g clip-path="url(#clip0_2157_9227)">
        <path d="M1.09336 0.5H0.372803V35.3851H1.09336V0.5Z" />
        <path
          d="M4.66553 20.2842H5.7728L7.69244 25.4131L9.6093 20.2842H10.7166V26.3912H9.9515V21.3072H9.92924L8.03464 26.3912H7.34746L5.45286 21.3072H5.4306V26.3912H4.66553V20.2842Z"
                  />
        <path
          d="M11.7432 21.963H12.4637V26.3912H11.7432V21.963ZM12.4637 21.1698H11.7432V20.2842H12.4637V21.1698Z"
                  />
        <path
          d="M13.343 21.9629H14.0274V22.6636C14.1652 22.4071 14.3725 22.1952 14.6252 22.0528C14.8778 21.9104 15.1655 21.8433 15.4546 21.8592C16.6092 21.8592 16.9736 22.5263 16.9736 23.482V26.3912H16.267V23.3895C16.2736 23.2703 16.255 23.1509 16.2122 23.0395C16.1695 22.9281 16.1037 22.8271 16.0192 22.7433C15.9347 22.6595 15.8334 22.5948 15.7222 22.5535C15.6109 22.5123 15.4922 22.4953 15.3739 22.5039C14.4948 22.5039 14.0747 23.0896 14.0747 23.9052V26.4024H13.3541V21.9629H13.343Z"
                  />
        <path
          d="M17.875 21.963H18.5956V26.3912H17.875V21.963ZM18.6067 21.1698H17.9V20.2842H18.6206L18.6067 21.1698Z"
                  />
        <path
          d="M19.9531 24.9984C19.9754 25.6542 20.5346 25.8392 21.13 25.8392C21.5751 25.8392 22.1927 25.7355 22.1927 25.1834C22.1927 24.6312 21.4722 24.5275 20.7516 24.3678C20.031 24.208 19.3132 23.9642 19.3132 23.1122C19.3132 22.2602 20.1924 21.8594 20.9575 21.8594C21.9284 21.8594 22.7046 22.1705 22.763 23.2607H22.0425C21.998 22.7002 21.4861 22.5124 21.027 22.5124C20.568 22.5124 20.0895 22.6273 20.0895 23.0729C20.0895 23.5914 20.8545 23.6811 21.5278 23.8437C22.2484 24.0034 22.9689 24.2473 22.9689 25.0965C22.9689 26.1559 21.9868 26.4978 21.0966 26.4978C20.1145 26.4978 19.2799 26.0942 19.2354 25.0012L19.9531 24.9984Z"
                  />
        <path
          d="M24.5771 21.963H25.4562V22.6076H24.5771V25.3543C24.5771 25.6878 24.6689 25.7466 25.1335 25.7466H25.4645V26.3913H24.9081C24.1542 26.3913 23.8593 26.2399 23.8593 25.4243V22.6076H23.1165V21.963H23.8593V20.6401H24.5771V21.963Z"
                  />
        <path
          d="M25.9819 21.9631H26.6663V22.8936C27.0224 22.1817 27.501 21.837 28.2883 21.8594V22.6414C27.1226 22.6414 26.7025 23.3084 26.7025 24.4351V26.397H25.9931V21.9631H25.9819Z"
                  />
        <path
          d="M30.6753 26.9881C30.3443 27.8513 30.0466 28.1737 29.3956 28.1737C29.224 28.1817 29.0526 28.154 28.892 28.0924V27.4253C29.0267 27.482 29.1694 27.517 29.3149 27.529C29.4431 27.5306 29.5687 27.4928 29.675 27.4207C29.7814 27.3486 29.8634 27.2456 29.9103 27.1254L30.2052 26.3687L28.4719 21.9629H29.3066L30.5863 25.5868L31.8104 21.9629H32.5755L30.6753 26.9881Z"
                  />
        <path
          d="M6.4239 34.8553C7.17785 34.8553 7.79547 34.2583 7.79547 33.1737C7.79547 32.089 7.17785 31.4921 6.4239 31.4921C5.66996 31.4921 5.05511 32.089 5.05511 33.1737C5.05511 34.2583 5.66996 34.8553 6.4239 34.8553ZM6.4239 30.8643C7.81495 30.8643 8.55777 31.8872 8.55777 33.1877C8.55777 34.4881 7.81773 35.4999 6.4239 35.4999C5.03008 35.4999 4.29004 34.4769 4.29004 33.1877C4.29004 31.8985 5.03008 30.8643 6.4239 30.8643Z"
                  />
        <path
          d="M9.43681 31.6098H8.69678V30.9652H9.43681V30.3094C9.43681 29.5863 9.85969 29.2163 10.647 29.2163C10.8063 29.216 10.9648 29.2396 11.1172 29.2864V29.9198C10.9842 29.877 10.845 29.8571 10.7054 29.8609C10.3632 29.8609 10.149 29.9758 10.149 30.357V30.9764H10.9837V31.6098H10.149V35.3934H9.43681V31.6098Z"
                  />
        <path
          d="M14.77 34.7066H16.1166C16.673 34.7066 18.1614 34.5581 18.1614 32.3019C18.1614 30.8417 17.6245 29.9673 16.1388 29.9673H14.7812V34.7066H14.77ZM13.9604 29.2778H16.0387C17.911 29.2778 18.9487 30.2195 18.9487 32.187C18.9487 34.2358 18.0585 35.3849 16.0387 35.3849H13.9604V29.2778Z"
                  />
        <path
          d="M22.7158 32.7504C22.71 32.4161 22.574 32.0975 22.3373 31.8632C22.1005 31.6289 21.7819 31.4976 21.45 31.4976C21.1184 31.4962 20.7998 31.6272 20.5641 31.8621C20.3283 32.097 20.1947 32.4164 20.1925 32.7504H22.7158ZM23.4141 33.9808C23.2194 34.959 22.5239 35.4887 21.5279 35.4887C20.1368 35.4887 19.4636 34.5105 19.4163 33.154C19.4163 31.8312 20.2843 30.853 21.4834 30.853C23.0358 30.853 23.5171 32.3132 23.4698 33.3754H20.1813C20.1591 34.1462 20.5931 34.8357 21.5529 34.8357C21.8157 34.8612 22.0785 34.7868 22.2896 34.6271C22.5006 34.4673 22.6448 34.2338 22.6936 33.9724L23.4141 33.9808Z"
                  />
        <path
          d="M24.2988 31.6098H23.5615V30.9652H24.2988V30.3094C24.2988 29.5863 24.7217 29.2163 25.509 29.2163C25.6674 29.2162 25.8249 29.2398 25.9764 29.2864V29.9198C25.8436 29.876 25.7042 29.8561 25.5646 29.8609C25.2113 29.8609 25.0082 29.9758 25.0082 30.357V30.9764H25.8428V31.6098H25.0082V35.3934H24.3155V31.6098H24.2988Z"
                  />
        <path
          d="M29.2815 32.7504C29.2757 32.4157 29.1393 32.0966 28.902 31.8622C28.6646 31.6278 28.3452 31.4969 28.0129 31.4976C27.8488 31.4969 27.6862 31.5287 27.5344 31.5913C27.3826 31.6538 27.2444 31.7459 27.1279 31.8623C27.0114 31.9786 26.9188 32.1169 26.8553 32.2693C26.7919 32.4217 26.7589 32.5852 26.7581 32.7504H29.2815ZM29.977 33.9808C29.7851 34.959 29.0867 35.4887 28.0935 35.4887C26.7025 35.4887 26.0264 34.5105 25.9819 33.154C25.9819 31.8312 26.8499 30.853 28.049 30.853C29.6014 30.853 30.08 32.3132 30.0354 33.3754H26.747C26.7248 34.1462 27.1588 34.8357 28.1158 34.8357C28.379 34.862 28.6425 34.7879 28.8542 34.6281C29.0659 34.4683 29.2104 34.2343 29.2592 33.9724L29.977 33.9808Z"
                  />
        <path
          d="M30.6392 30.9567H31.3263V31.6574C31.4638 31.4006 31.6711 31.1885 31.9238 31.0461C32.1766 30.9036 32.4644 30.8367 32.7535 30.853C33.9053 30.853 34.2726 31.52 34.2726 32.4758V35.3849H33.5631V32.3833C33.5697 32.2643 33.5511 32.1452 33.5086 32.034C33.466 31.9228 33.4004 31.8219 33.3163 31.7382C33.2321 31.6544 33.1312 31.5897 33.0202 31.5482C32.9093 31.5067 32.7909 31.4895 32.6729 31.4976C31.7937 31.4976 31.3708 32.0834 31.3708 32.899V35.3934H30.6503V30.9651L30.6392 30.9567Z"
                  />
        <path
          d="M38.1535 32.3833C38.1163 32.1253 37.9839 31.8909 37.7829 31.7268C37.5818 31.5626 37.3267 31.4808 37.0685 31.4976C36.0168 31.4976 35.6969 32.3385 35.6969 33.2241C35.6969 34.0397 36.0641 34.8441 36.9767 34.8441C37.1267 34.8535 37.2772 34.833 37.4194 34.7837C37.5616 34.7344 37.6927 34.6573 37.8051 34.5567C37.9176 34.4562 38.0092 34.3342 38.0747 34.1979C38.1403 34.0615 38.1784 33.9135 38.1869 33.7622H38.9297C38.7683 34.8441 38.0951 35.4887 36.9822 35.4887C35.6357 35.4887 34.9263 34.5442 34.9263 33.2241C34.9263 31.904 35.6134 30.853 37.0045 30.853C37.9977 30.853 38.7989 31.3239 38.9019 32.3721H38.1535V32.3833Z"
                  />
        <path
          d="M42.6161 32.7504C42.6103 32.4161 42.4743 32.0975 42.2376 31.8632C42.0008 31.6289 41.6821 31.4976 41.3502 31.4976C41.0187 31.4962 40.7001 31.6272 40.4643 31.8621C40.2286 32.097 40.0949 32.4164 40.0927 32.7504H42.6161ZM43.3144 33.9808C43.1196 34.959 42.4241 35.4887 41.4309 35.4887C40.026 35.4887 39.3638 34.5105 39.3165 33.154C39.3165 31.8312 40.1845 30.853 41.3836 30.853C42.936 30.853 43.4173 32.3132 43.37 33.3754H40.0816C40.0593 34.1462 40.4934 34.8357 41.4532 34.8357C41.716 34.8612 41.9787 34.7868 42.1898 34.6271C42.4009 34.4673 42.545 34.2338 42.5938 33.9724L43.3144 33.9808Z"
                  />
        <path
          d="M11.7793 5.6991L12.0075 4.56121C11.9604 4.54926 11.9172 4.5251 11.8823 4.49114C11.7537 4.65416 11.5709 4.76469 11.3676 4.80224H11.3453C11.2895 4.80308 11.2357 4.78196 11.1951 4.74339C11.2178 4.71855 11.2304 4.68604 11.2304 4.6523C11.2304 4.61855 11.2178 4.58604 11.1951 4.56121C11.1953 4.5743 11.1924 4.58725 11.1866 4.59897C11.1808 4.61068 11.1722 4.6208 11.1617 4.62847H11.1394C11.1276 4.62858 11.116 4.62552 11.1057 4.61961C11.0955 4.61371 11.0869 4.60516 11.081 4.59484C11.0683 4.57355 11.0607 4.54956 11.0588 4.52478V4.47993H11.1061C11.1283 4.47993 11.1394 4.45751 11.1506 4.43509C11.1525 4.42139 11.1504 4.40743 11.1444 4.39496C11.1385 4.3825 11.129 4.37208 11.1172 4.36502H11.0699C11.0747 4.34405 11.0832 4.32411 11.0949 4.30617C11.1172 4.27253 11.1394 4.2389 11.184 4.2389C11.1959 4.23814 11.2078 4.24093 11.2182 4.2469C11.2286 4.25288 11.237 4.26179 11.2424 4.27253C11.2567 4.29723 11.2643 4.32524 11.2646 4.35381C11.2669 4.35912 11.2681 4.36484 11.2681 4.37063C11.2681 4.37641 11.2669 4.38214 11.2646 4.38744C11.2646 4.38744 11.2646 4.38744 11.2869 4.38744C11.3115 4.38552 11.3353 4.37784 11.3565 4.36502C11.388 4.3416 11.4122 4.30948 11.426 4.27253C11.426 4.27253 11.426 4.25011 11.426 4.2389C11.4357 4.19433 11.4344 4.14805 11.4223 4.1041C11.4101 4.06014 11.3875 4.01983 11.3565 3.98666C11.3422 3.97057 11.3246 3.95793 11.3048 3.94968C11.2851 3.94143 11.2637 3.93778 11.2424 3.93901C11.2002 3.94181 11.1601 3.95855 11.1283 3.98666C11.0768 4.03769 11.0378 4.10005 11.0143 4.16883L10.9809 4.27253C10.9809 4.29495 10.9809 4.30897 10.9809 4.33139H10.9447C10.9447 4.30897 10.9447 4.29495 10.9447 4.27253L10.9809 4.16883C11.0143 4.09036 11.0476 4.02029 11.0838 3.93901C11.1102 3.88974 11.1254 3.83517 11.1283 3.77926C11.1319 3.72778 11.1243 3.67614 11.1061 3.62791L11.0143 3.3028L10.8195 3.58307C10.7929 3.61989 10.7774 3.6637 10.775 3.70919C10.764 3.76564 10.764 3.82371 10.775 3.88016C10.775 3.97265 10.8084 4.05392 10.8195 4.16043V4.33139H10.7973V4.14921C10.7946 4.07126 10.7706 3.99556 10.7277 3.9306C10.7071 3.88456 10.6705 3.84769 10.6248 3.82691C10.6028 3.82155 10.5799 3.82155 10.558 3.82691C10.5389 3.82152 10.5187 3.82152 10.4996 3.82691C10.4602 3.84452 10.4271 3.87382 10.4048 3.91088C10.3824 3.94794 10.3718 3.991 10.3744 4.0343V4.06794C10.375 4.11092 10.3919 4.15204 10.4217 4.18285C10.4319 4.19807 10.4451 4.2111 10.4604 4.2212C10.4756 4.2313 10.4927 4.23826 10.5107 4.2417V4.20527C10.5135 4.17893 10.5265 4.15477 10.5469 4.138C10.5565 4.13073 10.5682 4.12679 10.5802 4.12679C10.5923 4.12679 10.604 4.13073 10.6136 4.138C10.635 4.14951 10.6535 4.16589 10.6675 4.18584C10.6815 4.20579 10.6907 4.22876 10.6943 4.25291C10.6987 4.27134 10.6987 4.29054 10.6943 4.30897H10.6498C10.6248 4.30897 10.6136 4.33139 10.6025 4.35381C10.6004 4.36784 10.6028 4.38217 10.6093 4.39475C10.6158 4.40734 10.6261 4.41753 10.6387 4.42388H10.6832C10.6832 4.42388 10.6832 4.4463 10.6832 4.47152C10.6746 4.49163 10.6634 4.51049 10.6498 4.52758C10.6382 4.53212 10.6253 4.53212 10.6136 4.52758C10.605 4.52737 10.5966 4.52526 10.5889 4.52138C10.5812 4.5175 10.5744 4.51196 10.5691 4.50516C10.5469 4.48273 10.5469 4.46031 10.5691 4.42388C10.5107 4.4463 10.4884 4.51637 10.533 4.59765C10.4877 4.60327 10.4419 4.60327 10.3966 4.59765H10.3048C10.1876 4.5734 10.0788 4.51875 9.98901 4.43912C9.89922 4.35949 9.83163 4.25763 9.79292 4.14361C9.77756 4.14874 9.76097 4.14874 9.74562 4.14361H9.70111C9.66926 4.14284 9.63796 4.13519 9.6093 4.12119C9.56906 4.23423 9.50054 4.3349 9.41038 4.41345C9.32021 4.49201 9.21145 4.5458 9.09461 4.56962H9.01671C8.95829 4.56962 8.91377 4.56962 8.87761 4.56962C8.9249 4.48834 8.90265 4.41827 8.84422 4.39585C8.84962 4.42267 8.84962 4.45031 8.84422 4.47713C8.83125 4.48951 8.81467 4.49737 8.79693 4.49955C8.79166 4.50187 8.78598 4.50306 8.78023 4.50306C8.77449 4.50306 8.76881 4.50187 8.76354 4.49955C8.74427 4.47725 8.72919 4.45161 8.71903 4.42388C8.71514 4.40824 8.71514 4.39187 8.71903 4.37623H8.75241C8.76589 4.37117 8.77689 4.36104 8.78312 4.34797C8.78934 4.33491 8.7903 4.31993 8.7858 4.30617C8.78513 4.29449 8.78023 4.28347 8.77202 4.2752C8.76381 4.26693 8.75287 4.26199 8.74128 4.26132H8.69399C8.6931 4.24167 8.69794 4.22219 8.7079 4.20527C8.71163 4.1815 8.72056 4.15886 8.73403 4.13899C8.7475 4.11912 8.76518 4.10251 8.7858 4.09036H8.80806C8.81363 4.08741 8.81984 4.08587 8.82614 4.08587C8.83244 4.08587 8.83864 4.08741 8.84422 4.09036C8.8558 4.09695 8.86517 4.10687 8.87112 4.11885C8.87707 4.13084 8.87933 4.14434 8.87761 4.15762V4.19126C8.91184 4.1794 8.94314 4.16028 8.96942 4.1352C8.96942 4.11278 9.0028 4.05392 9.01393 4.02029V3.98666C9.01777 3.94315 9.00769 3.89955 8.98516 3.86224C8.96264 3.82492 8.92885 3.79584 8.88874 3.77926C8.87056 3.77397 8.85127 3.77397 8.83309 3.77926C8.81024 3.77367 8.78639 3.77367 8.76354 3.77926C8.7207 3.80401 8.68517 3.8398 8.6606 3.88296C8.62828 3.95255 8.6049 4.02601 8.59105 4.10157C8.59105 4.1352 8.59105 4.18004 8.59105 4.21648V4.27253H8.52428C8.52954 4.25422 8.52954 4.23479 8.52428 4.21648V4.10157C8.52428 4.00908 8.55767 3.9278 8.56879 3.83531C8.57569 3.77854 8.57569 3.72113 8.56879 3.66435C8.55908 3.62025 8.54315 3.57778 8.5215 3.53823C8.48811 3.47937 8.32675 3.27197 8.32675 3.27197C8.32675 3.27197 8.22382 3.55224 8.21269 3.6167C8.19985 3.66619 8.19239 3.71694 8.19043 3.76805C8.19975 3.82302 8.21563 3.87666 8.23773 3.9278C8.27704 4.00204 8.31142 4.07881 8.34066 4.15762L8.37405 4.26132C8.37405 4.28374 8.37405 4.29495 8.37405 4.32018H8.35179C8.35077 4.30057 8.35077 4.28093 8.35179 4.26132L8.31562 4.15762C8.29142 4.08833 8.2525 4.0252 8.20156 3.97265C8.18696 3.95722 8.16918 3.94522 8.14947 3.93747C8.12976 3.92972 8.1086 3.92642 8.08749 3.9278C8.04584 3.93075 8.00606 3.94639 7.97343 3.97265C7.94238 4.00637 7.92004 4.04728 7.9084 4.09176C7.89675 4.13624 7.89616 4.18292 7.90666 4.22769C7.90666 4.22769 7.90666 4.25011 7.90666 4.26132C7.92237 4.29645 7.9451 4.32793 7.97343 4.35381C7.99472 4.36628 8.01846 4.37393 8.04298 4.37623H8.06524C8.06524 4.37623 8.06524 4.35381 8.06524 4.3426C8.06524 4.33139 8.06524 4.28374 8.08749 4.26132C8.0945 4.24808 8.10569 4.23758 8.11931 4.23148C8.13292 4.22539 8.14816 4.22405 8.16261 4.22769C8.18287 4.22823 8.2025 4.23494 8.21889 4.24695C8.23528 4.25896 8.24767 4.2757 8.25442 4.29495C8.26489 4.31326 8.27241 4.33313 8.27668 4.35381H8.22938C8.2159 4.35888 8.2049 4.36901 8.19868 4.38207C8.19245 4.39513 8.19149 4.41012 8.196 4.42388C8.19671 4.43602 8.202 4.44743 8.21079 4.45577C8.21959 4.46411 8.23121 4.46874 8.24329 4.46872H8.2878V4.51356C8.2873 4.5386 8.27956 4.56295 8.26555 4.58363C8.26014 4.59437 8.25172 4.60328 8.24133 4.60926C8.23095 4.61524 8.21906 4.61802 8.20712 4.61726H8.18487C8.16261 4.61726 8.16261 4.58363 8.15148 4.55C8.1288 4.57483 8.11621 4.60734 8.11621 4.64109C8.11621 4.67483 8.1288 4.70734 8.15148 4.73217C8.10576 4.75961 8.05432 4.77592 8.00125 4.77982H7.97899C7.77761 4.73932 7.59656 4.6293 7.46709 4.46872C7.43388 4.50597 7.38843 4.52986 7.33911 4.53599L7.56724 5.67668C8.23537 5.4072 8.94804 5.26741 9.66772 5.26469C10.3913 5.28485 11.1058 5.43185 11.7793 5.6991Z"
                  />
        <path
          d="M9.67888 5.44693C8.96894 5.44609 8.2654 5.58214 7.60622 5.84771C7.60622 5.84771 7.58396 5.84771 7.57283 5.84771C7.57283 5.84771 7.54779 5.86173 7.53667 5.86173C7.49114 5.89015 7.45699 5.93381 7.4402 5.98505C7.42342 6.0363 7.42506 6.09185 7.44486 6.142C7.46188 6.1828 7.49052 6.21762 7.52716 6.24206C7.56379 6.2665 7.60679 6.27947 7.65073 6.27933C7.68108 6.28496 7.71219 6.28496 7.74254 6.27933C8.3558 6.02866 9.01149 5.90017 9.67331 5.90096C10.3345 5.89763 10.9897 6.02623 11.6013 6.27933C11.6316 6.28552 11.6628 6.28552 11.6931 6.27933C11.7382 6.27825 11.7822 6.26492 11.8204 6.24075C11.8586 6.21658 11.8896 6.18246 11.9101 6.142C11.9288 6.09173 11.9299 6.03654 11.9132 5.98557C11.8965 5.93459 11.863 5.8909 11.8183 5.86173C11.8144 5.85664 11.8093 5.85267 11.8035 5.85021C11.7976 5.84775 11.7912 5.84689 11.7849 5.84771C11.7849 5.84771 11.7627 5.84771 11.7515 5.84771C11.0917 5.57779 10.3855 5.44159 9.67331 5.44693"
                  />
        <path
          d="M9.67902 6.19217C10.6298 6.19217 11.5593 6.47621 12.3499 7.00838C13.1405 7.54054 13.7567 8.29692 14.1205 9.18187C14.4844 10.0668 14.5796 11.0406 14.3941 11.9801C14.2086 12.9195 13.7507 13.7825 13.0784 14.4598C12.4061 15.1371 11.5495 15.5983 10.6169 15.7852C9.68435 15.9721 8.71773 15.8762 7.83928 15.5096C6.96084 15.1431 6.21001 14.5223 5.68176 13.7259C5.15351 12.9294 4.87156 11.9931 4.87156 11.0352C4.86839 10.6834 4.90668 10.3325 4.98563 9.98982C4.98563 9.98982 4.98563 9.9646 4.98563 9.95339C4.98563 9.95339 4.98563 9.91975 4.98563 9.90854C5.23725 8.84664 5.83785 7.90161 6.68987 7.22695C7.5419 6.55229 8.59531 6.18763 9.67902 6.19217ZM5.12195 9.10417C4.86197 9.71796 4.73033 10.3791 4.73524 11.0464C4.73499 12.0279 5.02165 12.9878 5.55946 13.8062C6.09726 14.6246 6.86239 15.2653 7.75937 15.6485C8.3706 15.9055 9.02639 16.0379 9.68875 16.0379C10.3511 16.0379 11.0069 15.9055 11.6181 15.6485C12.8069 15.1422 13.753 14.1891 14.2556 12.9915C14.5175 12.3772 14.6501 11.7149 14.645 11.0464C14.6481 10.379 14.5156 9.71804 14.2556 9.10417C13.7552 7.90507 12.8084 6.95123 11.6181 6.44722C11.0094 6.18311 10.3529 6.04948 9.69015 6.05484C8.71409 6.04817 7.7582 6.33469 6.94452 6.87782C6.13085 7.42096 5.49632 8.19606 5.12195 9.10417Z"
                  />
        <path
          d="M9.43677 16.7864C9.45357 17.0081 9.54257 17.2179 9.68994 17.3834C9.8387 17.2191 9.92707 17.0084 9.94033 16.7864C9.92389 16.5652 9.83594 16.3555 9.68994 16.1895C9.53997 16.3532 9.45057 16.564 9.43677 16.7864Z"
                  />
        <path
          d="M8.85536 16.2569C8.67293 16.3758 8.53341 16.5507 8.45752 16.7558C8.67157 16.8069 8.89656 16.7821 9.09462 16.6857C9.27763 16.5705 9.4183 16.3983 9.49524 16.1952C9.28053 16.1442 9.05499 16.1679 8.85536 16.2625"
                  />
        <path
          d="M8.75254 16.1081C8.54767 16.0291 8.32247 16.0212 8.11266 16.0857C7.91291 16.175 7.74843 16.3289 7.64526 16.5229C7.85013 16.602 8.07533 16.6099 8.28514 16.5454C8.48296 16.4531 8.64662 16.3001 8.75254 16.1081Z"
                  />
        <path
          d="M8.0347 15.9147C7.84326 15.8081 7.62236 15.7677 7.40594 15.7998C7.1949 15.8596 7.00981 15.9889 6.88013 16.1669C7.07102 16.2751 7.29214 16.3165 7.50888 16.2847C7.71853 16.2204 7.9026 16.0909 8.0347 15.9147Z"
                  />
        <path
          d="M7.34739 15.6347C7.17572 15.4979 6.96257 15.4246 6.74367 15.4273C6.53331 15.4587 6.33838 15.5569 6.18726 15.7076C6.35369 15.8402 6.55927 15.9132 6.7715 15.915C6.98679 15.8865 7.18701 15.7881 7.34182 15.6347"
                  />
        <path
          d="M6.13741 14.9341C5.92059 14.9333 5.70915 15.002 5.53369 15.1303C5.68589 15.2907 5.88635 15.3961 6.10402 15.4302C6.32172 15.4312 6.53411 15.3625 6.71052 15.234C6.55624 15.0748 6.35537 14.9697 6.13741 14.9341Z"
                  />
        <path
          d="M6.13724 14.7515C6.011 14.573 5.83175 14.4395 5.62533 14.3703C5.41014 14.3372 5.19007 14.3735 4.99658 14.474C5.12423 14.6523 5.30428 14.7856 5.51127 14.8552C5.72556 14.8931 5.94628 14.8565 6.13724 14.7515Z"
                  />
        <path
          d="M5.63643 14.1997C5.5342 14.0062 5.37475 13.8494 5.18016 13.7513C4.97223 13.6832 4.74822 13.6832 4.54028 13.7513C4.64144 13.9456 4.80119 14.1026 4.99655 14.1997C5.20332 14.2748 5.42965 14.2748 5.63643 14.1997Z"
                  />
        <path
          d="M5.22469 13.5773C5.1573 13.3693 5.0207 13.1911 4.83798 13.0728C4.64326 12.9758 4.42195 12.9472 4.20923 12.9915C4.27662 13.1995 4.41322 13.3777 4.59594 13.496C4.79059 13.5932 5.01198 13.6218 5.22469 13.5773Z"
                  />
        <path
          d="M4.28997 12.7252C4.46872 12.8531 4.68606 12.9145 4.90481 12.8989C4.8651 12.6832 4.75669 12.4864 4.596 12.3384C4.41987 12.2113 4.20577 12.149 3.9895 12.1618C4.02638 12.3785 4.13527 12.5762 4.29831 12.7223"
                  />
        <path
          d="M4.68776 12.1874C4.6836 11.9668 4.60289 11.7546 4.45963 11.5877C4.30053 11.4368 4.09579 11.344 3.87817 11.3242C3.88251 11.544 3.96324 11.7552 4.10631 11.9212C4.26356 12.0775 4.46828 12.1762 4.68776 12.2015"
                  />
        <path
          d="M4.57374 11.4303C4.59724 11.2099 4.54942 10.9877 4.43741 10.7969C4.30028 10.6263 4.11183 10.5054 3.90047 10.4521C3.87854 10.6725 3.92625 10.8942 4.03679 11.0856C4.17005 11.2604 4.36013 11.3824 4.57374 11.4303Z"
                  />
        <path
          d="M4.57381 10.6908C4.63145 10.477 4.61576 10.2498 4.5293 10.0461C4.41354 9.85828 4.24091 9.71286 4.03687 9.63135C3.97922 9.84537 3.99591 10.0728 4.08416 10.276C4.1975 10.4649 4.36965 10.6107 4.57381 10.6908Z"
                  />
        <path
          d="M4.6768 9.95334C4.76313 9.75069 4.77978 9.5248 4.7241 9.31153C4.64109 9.10671 4.49216 8.93595 4.30122 8.82666C4.22013 9.03103 4.20839 9.25668 4.26784 9.46848C4.35043 9.67284 4.49955 9.84283 4.69071 9.95054"
                  />
        <path
          d="M4.88263 9.2305C4.99618 9.04029 5.04411 8.8176 5.01895 8.59709C4.96583 8.38741 4.84555 8.20123 4.67676 8.06738C4.56579 8.2544 4.51978 8.47331 4.546 8.68958C4.59687 8.90334 4.71734 9.09377 4.8882 9.2305"
                  />
        <path
          d="M5.20243 8.55224C5.34239 8.38333 5.42264 8.17234 5.43057 7.95246C5.40827 7.73394 5.31655 7.5285 5.16905 7.3667C5.02817 7.53397 4.94775 7.74441 4.94092 7.96367C4.95493 8.18517 5.04779 8.39415 5.20243 8.55224Z"
                  />
        <path
          d="M5.90921 7.36683C5.91831 7.14506 5.85477 6.92643 5.72838 6.74463C5.56736 6.89243 5.45889 7.08933 5.41956 7.30517C5.41072 7.52528 5.47003 7.74271 5.58927 7.92736C5.75591 7.78246 5.86872 7.58481 5.90921 7.36683Z"
                  />
        <path
          d="M6.49339 6.84789C6.53375 6.63326 6.50142 6.4112 6.40159 6.21729C6.2192 6.33661 6.082 6.51431 6.01209 6.72177C5.97042 6.93728 6.0028 7.16067 6.1039 7.35518C6.28914 7.23774 6.42712 7.05803 6.49339 6.84789Z"
                  />
        <path
          d="M7.11945 6.43612C7.19197 6.22746 7.19197 6.00017 7.11945 5.7915C6.92185 5.88536 6.7612 6.04325 6.66319 6.23993C6.59502 6.44932 6.59502 6.67517 6.66319 6.88455C6.8642 6.79167 7.02869 6.63385 7.13058 6.43612"
                  />
        <path
          d="M10.4995 16.2569C10.2992 16.1641 10.0737 16.1424 9.85962 16.1952C9.93393 16.4035 10.0749 16.5809 10.2602 16.6997C10.4593 16.7961 10.6852 16.8208 10.9001 16.7697C10.8285 16.5592 10.687 16.3801 10.4995 16.2625"
                  />
        <path
          d="M11.2424 16.0745C11.0326 16.01 10.8074 16.0178 10.6025 16.0969C10.6481 16.1981 10.7132 16.2893 10.7939 16.365C10.8747 16.4408 10.9696 16.4997 11.073 16.5382C11.1765 16.5768 11.2866 16.5943 11.3968 16.5898C11.5071 16.5852 11.6154 16.5587 11.7154 16.5117C11.6095 16.3198 11.4458 16.1667 11.248 16.0745"
                  />
        <path
          d="M11.949 15.797C11.7334 15.7647 11.5134 15.8051 11.323 15.9119C11.4508 16.0913 11.6351 16.2217 11.846 16.2818C12.0628 16.3137 12.2839 16.2723 12.4748 16.1641C12.3451 15.986 12.16 15.8568 11.949 15.797Z"
                  />
        <path
          d="M12.614 15.4189C12.3955 15.4189 12.1832 15.4918 12.0103 15.6263C12.1614 15.7771 12.3563 15.8752 12.5667 15.9066C12.7859 15.9062 12.999 15.8334 13.1732 15.6992C13.0202 15.5417 12.8176 15.4426 12.6001 15.4189"
                  />
        <path
          d="M13.2066 14.9338C12.9888 14.9674 12.7882 15.0729 12.6362 15.2337C12.8114 15.3625 13.023 15.4313 13.2399 15.4298C13.4532 15.3945 13.6488 15.289 13.7964 15.13C13.6224 14.9987 13.41 14.9297 13.1926 14.9338"
                  />
        <path
          d="M13.7268 14.3816C13.5159 14.4431 13.3334 14.5782 13.2122 14.7627C13.4036 14.8693 13.6257 14.9059 13.8409 14.8664C14.0509 14.8043 14.2322 14.6692 14.3528 14.4853C14.1623 14.3789 13.9411 14.3423 13.7268 14.3816Z"
                  />
        <path
          d="M14.1635 13.7514C13.9637 13.842 13.8021 14.0008 13.7073 14.1998C13.9141 14.2749 14.1404 14.2749 14.3472 14.1998C14.5477 14.1102 14.7096 13.9511 14.8034 13.7514C14.5956 13.6825 14.3714 13.6825 14.1635 13.7514Z"
                  />
        <path
          d="M14.5196 13.073C14.3357 13.1907 14.198 13.369 14.1301 13.5775C14.3428 13.6221 14.5642 13.5934 14.7589 13.4962C14.9416 13.378 15.0782 13.1998 15.1456 12.9918C14.9341 12.9409 14.7114 12.9698 14.5196 13.073Z"
                  />
        <path
          d="M14.759 12.3358C14.5996 12.4849 14.4914 12.6812 14.4502 12.8964C14.6697 12.9108 14.8875 12.8495 15.0678 12.7226C15.2275 12.5742 15.3349 12.3774 15.3738 12.1621C15.1558 12.1527 14.9404 12.2135 14.759 12.3358Z"
                  />
        <path
          d="M14.8841 11.5875C14.7423 11.7553 14.6618 11.967 14.656 12.1873C14.8755 12.162 15.0802 12.0633 15.2375 11.907C15.3791 11.7402 15.4597 11.5295 15.4656 11.3101C15.248 11.3299 15.0432 11.4226 14.8841 11.5735"
                  />
        <path
          d="M14.9064 10.8169C14.7953 11.0081 14.7476 11.2299 14.7701 11.4503C14.9837 11.4025 15.1738 11.2804 15.307 11.1056C15.4196 10.915 15.4675 10.6926 15.4434 10.4722C15.2331 10.5279 15.0454 10.6484 14.9064 10.8169Z"
                  />
        <path
          d="M14.8396 10.0461C14.7516 10.2494 14.7349 10.4767 14.7923 10.6908C14.997 10.6103 15.1699 10.4646 15.2848 10.276C15.371 10.0722 15.3867 9.84516 15.3293 9.63135C15.1257 9.7125 14.9539 9.85808 14.8396 10.0461Z"
                  />
        <path
          d="M14.6673 9.9537C14.8589 9.84529 15.0081 9.67424 15.0901 9.46884C15.1458 9.25463 15.1292 9.02785 15.0429 8.82422C14.853 8.93399 14.7051 9.1047 14.6228 9.30908C14.5668 9.52211 14.5825 9.74778 14.6673 9.9509"
                  />
        <path
          d="M14.4613 9.2305C14.6322 9.09377 14.7527 8.90334 14.8035 8.68958C14.8262 8.47278 14.7784 8.25443 14.6672 8.06738C14.4964 8.20411 14.3759 8.39455 14.325 8.6083C14.2979 8.8289 14.346 9.05223 14.4613 9.24171"
                  />
        <path
          d="M14.1524 8.55224C14.3038 8.39161 14.3969 8.18424 14.4167 7.96367C14.4084 7.74472 14.3282 7.53475 14.1886 7.3667C14.0371 7.52609 13.9439 7.73265 13.9243 7.95246C13.9322 8.17234 14.0125 8.38333 14.1524 8.55224Z"
                  />
        <path
          d="M13.7436 7.91858C13.8718 7.7381 13.932 7.51751 13.9133 7.29638C13.875 7.08018 13.7664 6.88298 13.6045 6.73584C13.476 6.9166 13.4122 7.13598 13.4237 7.35804C13.4654 7.57556 13.578 7.77282 13.7436 7.91858Z"
                  />
        <path
          d="M13.2511 7.36641C13.3506 7.17135 13.3829 6.94855 13.343 6.733C13.2772 6.52332 13.139 6.34434 12.9535 6.22852C12.8556 6.42308 12.8243 6.64478 12.8644 6.85912C12.9371 7.06504 13.0724 7.24258 13.2511 7.36641Z"
                  />
        <path
          d="M12.2246 5.7915C12.1501 5.99981 12.1501 6.22782 12.2246 6.43612C12.3237 6.63204 12.484 6.78964 12.6809 6.88455C12.7555 6.67625 12.7555 6.44824 12.6809 6.23993C12.5871 6.04021 12.4251 5.88108 12.2246 5.7915Z"
                  />
        <path
          d="M11.9211 12.7618L11.8071 12.4619L11.4649 12.6805C11.1567 12.838 10.9171 13.1045 10.7916 13.4288H10.9057C10.9989 13.4265 11.0922 13.434 11.1839 13.4512H11.2312H11.2534C11.2098 13.7288 11.0826 13.9861 10.889 14.1884C10.7955 14.2836 10.692 14.3682 10.5802 14.4406C10.5229 14.4817 10.4613 14.5165 10.3966 14.5443H10.3298C10.2087 14.5497 10.0903 14.5068 10.0002 14.425C9.91018 14.3432 9.85567 14.229 9.84849 14.1071V12.4955C9.78172 12.4955 9.71216 12.4955 9.64261 12.4955C9.5741 12.501 9.50525 12.501 9.43674 12.4955V14.1071C9.43026 14.2288 9.37635 14.343 9.28675 14.4248C9.19714 14.5067 9.07907 14.5496 8.95822 14.5443H8.88867C8.82607 14.514 8.76564 14.4794 8.70783 14.4406C8.62224 14.3828 8.54214 14.3171 8.46857 14.2444L8.39902 14.1771C8.2126 13.9698 8.0865 13.7148 8.03456 13.44H8.05682H8.10133C8.19305 13.4229 8.28629 13.4154 8.37954 13.4176H8.49361C8.43141 13.2733 8.35099 13.1376 8.25435 13.014C8.1297 12.8756 7.98302 12.7591 7.82034 12.6693L7.47815 12.4507L7.36408 12.7506C7.27266 12.926 7.21062 13.1154 7.18046 13.3111C7.1603 13.4756 7.16782 13.6424 7.20272 13.8044C7.32316 13.7252 7.44968 13.6559 7.58108 13.597H7.63672C7.69409 13.9312 7.82322 14.2488 8.01509 14.5275V14.5415C8.0385 14.5711 8.06562 14.5974 8.09577 14.62C8.22876 14.7399 8.36907 14.8512 8.51587 14.9535C8.72174 15.1048 8.97491 15.2534 9.15575 15.3907C9.29882 15.4939 9.43285 15.6092 9.55637 15.7354C9.69154 15.5946 9.83965 15.467 9.99872 15.3543C10.1796 15.2169 10.4327 15.0572 10.6469 14.9171C10.7951 14.8154 10.9363 14.704 11.0698 14.5835C11.079 14.5721 11.0918 14.5642 11.106 14.5611L11.1616 14.5051C11.1616 14.491 11.1616 14.4798 11.1839 14.4686C11.2074 14.4406 11.2271 14.4095 11.2423 14.3761C11.2423 14.3537 11.2646 14.3425 11.2757 14.3201C11.314 14.2586 11.3448 14.1928 11.3675 14.1239C11.4009 14.0426 11.4259 13.9641 11.4482 13.8941C11.467 13.8335 11.4819 13.7717 11.4927 13.7091C11.4927 13.6418 11.515 13.5942 11.515 13.583H11.5623C11.693 13.6414 11.8186 13.7108 11.9378 13.7904C11.9811 13.6296 11.9897 13.4614 11.9629 13.2971C11.9905 13.2039 11.9986 13.106 11.9867 13.0095C11.9747 12.9129 11.9429 12.82 11.8933 12.7366"
                  />
        <path
          d="M9.3702 7.44786C9.33067 7.40873 9.29926 7.36206 9.27783 7.31057C9.25639 7.25908 9.24535 7.2038 9.24535 7.14797C9.24535 7.09214 9.25639 7.03686 9.27783 6.98537C9.29926 6.93388 9.33067 6.88721 9.3702 6.84808C9.44913 6.76828 9.55607 6.72298 9.66789 6.72196C9.7515 6.7217 9.83328 6.74658 9.90278 6.79341C9.97227 6.84025 10.0263 6.90691 10.058 6.98487C10.0897 7.06282 10.0975 7.14852 10.0806 7.231C10.0636 7.31348 10.0226 7.38899 9.96279 7.44786C9.93763 7.47699 9.90624 7.49999 9.87098 7.51512C9.87135 7.48802 9.86637 7.46111 9.85633 7.43597C9.84628 7.41082 9.83138 7.38793 9.81249 7.36864C9.79359 7.34934 9.77108 7.33402 9.74625 7.32356C9.72143 7.3131 9.69479 7.30772 9.66789 7.30772C9.61328 7.30772 9.56092 7.32957 9.52231 7.36847C9.4837 7.40736 9.46201 7.46012 9.46201 7.51512C9.43697 7.4927 9.40359 7.47028 9.3702 7.43665M9.47314 8.51849V9.42656L9.67901 9.53026L9.88489 9.42656V8.5297H10.4552L11.9742 8.28586V7.92992H9.88489V7.81501C10.0435 7.76389 10.1789 7.65755 10.2668 7.51505C10.3547 7.37254 10.3893 7.20318 10.3645 7.03727C10.3398 6.87137 10.2572 6.71977 10.1316 6.60961C10.006 6.49946 9.84554 6.43794 9.67901 6.43609C9.58724 6.43496 9.49616 6.4523 9.41112 6.48708C9.32607 6.52186 9.24878 6.57339 9.18375 6.63864C9.11871 6.70389 9.06726 6.78155 9.0324 6.86709C8.99754 6.95262 8.97996 7.0443 8.98071 7.13676C8.97986 7.28803 9.02726 7.43558 9.11591 7.55769C9.20456 7.67979 9.32978 7.76999 9.47314 7.81501V7.92992H7.38379V8.28586L8.90281 8.5297L9.47314 8.51849Z"
                  />
        <path
          d="M9.83203 9.61985C9.83203 9.61985 9.86542 9.61985 9.87933 9.64507C10.049 9.73476 10.2215 9.81604 10.3801 9.90853C10.5338 9.8266 10.6939 9.75725 10.8586 9.70113C11.6237 9.27512 12.2302 8.9416 12.2747 8.91918C12.4484 8.82305 12.6132 8.71143 12.7671 8.58566C12.8339 8.5296 12.9146 8.44833 12.9841 8.37826C13.0537 8.30819 13.1093 8.24093 13.1093 8.24093L13.19 8.14844H13.0759L12.8923 8.17086C12.7979 8.18674 12.7049 8.21017 12.6141 8.24093C12.4242 8.3061 12.2384 8.38285 12.0577 8.47075L9.89045 9.59182C9.87208 9.60193 9.85242 9.60947 9.83203 9.61424"
                  />
        <path
          d="M7.43942 12.2435C7.47833 12.2417 7.51677 12.2342 7.55348 12.2211C7.60641 12.1903 7.64682 12.1417 7.66755 12.0837C7.69108 12.0244 7.69108 11.9581 7.66755 11.8988C7.6486 11.8603 7.61919 11.828 7.58275 11.8057C7.54631 11.7833 7.50432 11.7719 7.46167 11.7726C7.44367 11.7662 7.42403 11.7662 7.40603 11.7726L7.35874 11.6802V11.6577C7.48671 11.5877 7.85117 11.3775 8.31856 11.128C8.16289 11.1121 8.0097 11.0772 7.8623 11.0243C7.72618 10.9832 7.59542 10.9258 7.4728 10.8534L7.09722 11.0468C7.07496 11.0468 7.06384 11.072 7.05271 11.072L6.99428 10.9683C7.02074 10.9408 7.03988 10.9071 7.04993 10.8702C7.06018 10.8395 7.06325 10.8068 7.05891 10.7747C7.05457 10.7427 7.04292 10.712 7.02489 10.6852C7.00517 10.6479 6.97597 10.6166 6.94029 10.5945C6.9046 10.5723 6.86371 10.5601 6.82179 10.5591C6.78288 10.5609 6.74445 10.5684 6.70773 10.5815C6.6548 10.6123 6.61439 10.6609 6.59366 10.7188C6.58126 10.7481 6.57487 10.7795 6.57487 10.8113C6.57487 10.8431 6.58126 10.8746 6.59366 10.9038L6.77172 11.2429H6.74946C6.72502 11.2456 6.70137 11.2533 6.67991 11.2654C6.6581 11.2769 6.63909 11.2932 6.62427 11.313C6.6221 11.3203 6.6221 11.3281 6.62427 11.3354H6.60201C6.58044 11.3353 6.55959 11.3433 6.54358 11.3578C6.52246 11.3692 6.50359 11.3844 6.48794 11.4027C6.48794 11.4167 6.47403 11.4167 6.47403 11.4279H6.45178C6.42813 11.4303 6.40531 11.4379 6.38501 11.4503C6.36256 11.4609 6.34263 11.4762 6.32658 11.4952C6.32658 11.4952 6.32658 11.4952 6.32658 11.5204H6.30432C6.28285 11.5208 6.26217 11.5287 6.2459 11.5428C6.22298 11.5512 6.20343 11.567 6.19026 11.5877H6.15409C6.13348 11.5882 6.11374 11.5962 6.09845 11.6101C6.07752 11.6241 6.05795 11.64 6.04003 11.6577H6.00664C5.98516 11.6581 5.96449 11.666 5.94822 11.6802C5.92641 11.6917 5.9074 11.708 5.89258 11.7278H5.85641C5.8358 11.7283 5.81606 11.7363 5.80077 11.7502C5.77921 11.7622 5.75952 11.7773 5.74234 11.7951H5.65888C5.63662 11.7951 5.61437 11.7951 5.60046 11.8203C5.58655 11.8455 5.56707 11.8427 5.55594 11.8539H5.52256C5.43945 11.8582 5.36141 11.8955 5.30555 11.9576C5.27717 11.9883 5.25535 12.0245 5.24147 12.0641C5.22759 12.1036 5.22194 12.1456 5.22487 12.1874C5.22843 12.2678 5.26245 12.3436 5.31991 12.3994C5.37736 12.4552 5.45388 12.4867 5.53369 12.4873H5.55594C5.60713 12.4862 5.65713 12.4716 5.70104 12.4451C5.74494 12.4185 5.78123 12.3809 5.80633 12.336C5.81679 12.3321 5.82636 12.3261 5.83449 12.3184C5.84261 12.3107 5.84912 12.3014 5.85363 12.2911H5.88701H5.93152C5.93152 12.2911 5.95656 12.2911 5.96769 12.2911C5.9878 12.2813 6.00363 12.2643 6.01221 12.2435H6.04837H6.09289C6.09289 12.2435 6.11514 12.2435 6.12627 12.2211C6.14693 12.2124 6.16375 12.1965 6.17357 12.1762H6.20695C6.20695 12.1762 6.24034 12.1622 6.25147 12.1622C6.2657 12.1591 6.27846 12.1512 6.28763 12.1398C6.30755 12.131 6.32345 12.115 6.33215 12.095H6.36553C6.37944 12.095 6.4017 12.095 6.41283 12.095C6.42395 12.095 6.43508 12.095 6.44621 12.095C6.46645 12.0843 6.48296 12.0677 6.49351 12.0473H6.52689H6.57141C6.58564 12.0442 6.5984 12.0363 6.60757 12.0249C6.61778 12.0203 6.62697 12.0138 6.63462 12.0056C6.64226 11.9974 6.6482 11.9878 6.65209 11.9772H6.68547H6.73277C6.73277 11.9772 6.75502 11.9772 6.76615 11.9772C6.77728 11.9772 6.79954 11.9436 6.81067 11.9324H6.84683H6.89135C6.89135 11.9324 6.9136 11.9324 6.92751 11.9324C6.94762 11.9225 6.96345 11.9056 6.97203 11.8848H7.00541H7.05271L7.13061 12.0333L7.22242 12.2071C7.24396 12.2458 7.27549 12.278 7.31369 12.3002C7.35189 12.3224 7.39533 12.3338 7.43942 12.3332"
                  />
        <path
          d="M6.35422 8.37821C6.42377 8.44828 6.51558 8.52956 6.57122 8.58561C6.72906 8.70252 6.89347 8.81014 7.06365 8.90792L8.26273 9.57496C8.55176 9.62321 8.83268 9.71188 9.09736 9.83841C9.1263 9.85047 9.15346 9.8665 9.17804 9.88606C9.20597 9.89903 9.23293 9.91402 9.25872 9.9309C9.33074 9.97233 9.39956 10.0192 9.46459 10.071C9.5161 10.1103 9.56197 10.1565 9.60092 10.2084C9.63874 10.2028 9.67716 10.2028 9.71498 10.2084C9.76495 10.2086 9.81462 10.2161 9.86243 10.2308C9.97586 10.1561 10.0939 10.0887 10.2158 10.029C10.1017 9.97014 9.98484 9.90287 9.85965 9.84402L9.65378 9.74873C9.62557 9.73812 9.59926 9.72298 9.57588 9.70388C9.5467 9.69356 9.51943 9.6784 9.4952 9.65904C9.4839 9.64546 9.46807 9.63649 9.45068 9.63382C8.33785 9.05926 7.34742 8.55478 7.28065 8.51274C7.10088 8.42282 6.91492 8.34602 6.72423 8.28292C6.63279 8.25462 6.53993 8.23123 6.44602 8.21285L6.26519 8.19043H6.15112L6.21789 8.28292C6.24015 8.28292 6.28745 8.34177 6.35422 8.40904"
                  />
        <path
          d="M13.8464 11.9546H13.8103L13.7657 11.9209C13.7497 11.9064 13.7289 11.8984 13.7073 11.8985H13.6739C13.6598 11.877 13.6394 11.8604 13.6155 11.8509C13.5983 11.8405 13.5795 11.8329 13.5599 11.8285H13.5265H13.5126C13.4994 11.8078 13.4799 11.792 13.4569 11.7836C13.439 11.772 13.4192 11.7635 13.3985 11.7584H13.3651C13.3516 11.7369 13.3309 11.721 13.3067 11.7135C13.2864 11.7011 13.2636 11.6935 13.2399 11.6911H13.2177C13.2038 11.6693 13.1833 11.6526 13.1593 11.6435C13.1381 11.6307 13.1143 11.623 13.0897 11.6211H13.0674C13.0543 11.6004 13.0347 11.5846 13.0118 11.5762C12.9911 11.5621 12.9672 11.5534 12.9422 11.551H12.92C12.92 11.551 12.92 11.551 12.92 11.5286C12.9058 11.5077 12.8853 11.492 12.8616 11.4837C12.8443 11.4727 12.8256 11.4642 12.8059 11.4585H12.7252C12.7252 11.4585 12.7252 11.4585 12.7252 11.4361C12.7121 11.4154 12.6925 11.3996 12.6696 11.3912C12.6483 11.3788 12.6246 11.3711 12.6001 11.3688H12.5778L12.7614 11.0353C12.7752 11.0064 12.7824 10.9748 12.7824 10.9428C12.7824 10.9108 12.7752 10.8792 12.7614 10.8503C12.7405 10.7925 12.7001 10.7439 12.6473 10.713C12.6124 10.6942 12.5727 10.6863 12.5333 10.6906C12.4904 10.6884 12.4478 10.6992 12.4111 10.7217C12.3744 10.7442 12.3452 10.7773 12.3274 10.8167C12.3123 10.8446 12.3044 10.876 12.3044 10.9078C12.3044 10.9396 12.3123 10.9709 12.3274 10.9989C12.3352 11.0409 12.3592 11.0782 12.3942 11.1026L12.3358 11.1502C12.3358 11.1502 12.2996 11.1502 12.2885 11.1278L11.7793 10.8699C11.6444 10.9647 11.4936 11.034 11.3342 11.0745C11.3342 11.0745 11.3342 11.111 11.3342 11.1222C11.3369 11.1942 11.312 11.2644 11.2646 11.3184C11.6319 11.5258 11.9157 11.6743 12.0186 11.7304L11.9963 11.7668L11.949 11.8341C11.9268 11.8341 11.9157 11.8341 11.8934 11.8341C11.8506 11.8322 11.8081 11.8432 11.7715 11.8657C11.7348 11.8881 11.7056 11.921 11.6875 11.9602C11.6577 12.017 11.6498 12.0828 11.6653 12.1452C11.6874 12.1994 11.7278 12.2441 11.7793 12.2713C11.8141 12.2905 11.854 12.2983 11.8934 12.2937C11.9362 12.2955 11.9787 12.2845 12.0153 12.2621C12.052 12.2396 12.0812 12.2067 12.0993 12.1676L12.18 12.0078L12.2579 11.8593C12.2734 11.8632 12.2896 11.8632 12.3051 11.8593H12.3385C12.3385 11.8817 12.3719 11.8929 12.383 11.9041C12.3947 11.9087 12.4076 11.9087 12.4192 11.9041C12.4338 11.9082 12.4492 11.9082 12.4637 11.9041H12.4999C12.511 11.9232 12.5262 11.9394 12.5444 11.9518C12.5444 11.9518 12.5667 11.9518 12.5778 11.9518C12.5931 11.9569 12.6097 11.9569 12.6251 11.9518H12.6585C12.6585 11.9742 12.6919 11.9854 12.703 11.9966C12.7087 11.9992 12.7148 12.0005 12.7211 12.0005C12.7273 12.0005 12.7335 11.9992 12.7392 11.9966C12.7536 12.0018 12.7693 12.0018 12.7837 11.9966H12.8171C12.8306 12.0138 12.8465 12.0289 12.8644 12.0415C12.8696 12.0438 12.8753 12.045 12.881 12.045C12.8868 12.045 12.8925 12.0438 12.8977 12.0415C12.913 12.047 12.9297 12.047 12.945 12.0415H12.9784C12.987 12.0623 13.0028 12.0792 13.0229 12.0891C13.0229 12.0891 13.048 12.0891 13.0591 12.1115C13.0735 12.1167 13.0892 12.1167 13.1036 12.1115H13.1704C13.1802 12.1318 13.197 12.1477 13.2177 12.1564C13.2177 12.1564 13.2399 12.1564 13.2511 12.1816C13.2655 12.1867 13.2812 12.1867 13.2956 12.1816H13.3317C13.3404 12.2017 13.3563 12.2177 13.3763 12.2264C13.3819 12.229 13.3881 12.2303 13.3943 12.2303C13.4006 12.2303 13.4067 12.229 13.4124 12.2264C13.4268 12.2316 13.4425 12.2316 13.4569 12.2264H13.4903C13.4903 12.2517 13.5265 12.2629 13.5376 12.2741C13.5669 12.3149 13.6043 12.3492 13.6474 12.3748C13.6904 12.4004 13.7383 12.4167 13.788 12.4226C13.8485 12.4307 13.9101 12.4206 13.965 12.3937C14.0199 12.3668 14.0657 12.3242 14.0968 12.2713C14.0937 12.1879 14.0611 12.1084 14.005 12.0471C14.005 11.991 13.9132 11.9546 13.8353 11.9546"
                  />
        <path
          d="M7.43939 10.7016C7.46817 10.7139 7.49528 10.73 7.52007 10.7492C7.54925 10.7595 7.57652 10.7747 7.60075 10.7941C7.68931 10.8419 7.78254 10.8804 7.87896 10.909C8.08501 10.9793 8.30129 11.0143 8.51884 11.0127H8.66629C8.73584 11.0127 8.79427 11.0127 8.83878 11.0127C8.86932 11.0099 8.90005 11.0099 8.93059 11.0127L8.99736 11.3126L8.51884 11.9684C8.51884 11.9684 8.71359 12.3131 9.47866 12.3692C9.54543 12.3692 9.61498 12.3692 9.68454 12.3692C9.75304 12.375 9.82191 12.375 9.89041 12.3692C10.6527 12.3131 10.8141 11.9684 10.8141 11.9684L10.202 11.4303L10.3161 11.15C10.2938 11.15 10.2716 11.15 10.2493 11.15C10.1947 11.1495 10.1403 11.157 10.0879 11.1724H10.0323H9.985C9.99891 11.1724 10.01 11.1724 10.0323 11.15C10.0604 11.1364 10.0874 11.1204 10.113 11.1023C10.1788 11.064 10.2539 11.0446 10.33 11.0463C10.33 11.0463 10.3522 11.0463 10.3745 11.0463L10.4774 11.0799C10.5255 11.0991 10.5747 11.115 10.6249 11.1276H10.6471C10.6776 11.1312 10.7085 11.1312 10.7389 11.1276C10.7853 11.1251 10.8317 11.1251 10.8781 11.1276H10.9226C11.1173 11.1276 11.1062 11.2313 11.1062 11.2313C11.1217 11.22 11.1366 11.2078 11.1507 11.1948C11.1735 11.1783 11.1911 11.1555 11.2014 11.1292C11.2118 11.1028 11.2144 11.0741 11.2091 11.0463C11.1956 11.0215 11.1798 10.998 11.1618 10.9762C11.1424 10.9543 11.1199 10.9354 11.0951 10.9202C11.0823 10.9074 11.0656 10.8995 11.0478 10.8978C11.0951 10.7716 10.7167 10.7128 10.5581 10.6679C10.3861 10.6096 10.2179 10.5403 10.0546 10.4605C10.0069 10.4418 9.96124 10.4183 9.91823 10.3905C9.89598 10.3905 9.88206 10.3905 9.88206 10.368C9.88206 10.368 9.85981 10.368 9.84868 10.368C9.81219 10.3541 9.77362 10.3465 9.73461 10.3456C9.70422 10.3405 9.6732 10.3405 9.6428 10.3456L9.551 10.368C9.52977 10.3301 9.50357 10.2952 9.4731 10.2643L9.43693 10.2307C9.34003 10.139 9.22799 10.065 9.10586 10.0121L9.02796 9.97567L8.94728 9.94203C8.89602 9.91667 8.84181 9.89784 8.78592 9.88598C8.68326 9.84537 8.57709 9.81441 8.46876 9.79349C8.38808 9.77107 8.3074 9.75706 8.21559 9.73464C8.0042 9.69403 7.79049 9.66688 7.57571 9.65336C7.35871 9.65336 7.15561 9.63094 6.96087 9.63094C6.31733 9.6005 5.67486 9.71044 5.07739 9.95325C5.07739 9.95325 5.69223 10.0457 6.35437 10.2335C6.74662 10.3347 7.11781 10.5055 7.45052 10.738"
                  />
        <path
          d="M11.8936 9.60886C11.5603 9.63605 11.233 9.71353 10.9226 9.83868C10.7938 9.884 10.6683 9.93831 10.547 10.0012L10.4663 10.0349C10.4367 10.0454 10.4093 10.0616 10.3857 10.0825C10.1798 10.1974 10.0212 10.2871 9.95166 10.3348H9.98504H9.99896C10.0546 10.3572 10.4552 10.4833 10.6027 10.5197C10.6249 10.5197 10.6472 10.5197 10.6722 10.5197C10.9115 10.5646 11.1062 10.6234 11.173 10.7383C11.173 10.7383 11.173 10.7608 11.173 10.7832C11.2012 10.805 11.2281 10.8284 11.2537 10.8533C11.3875 10.8251 11.5155 10.7739 11.632 10.7019C11.6543 10.7019 11.6766 10.6683 11.6988 10.6571C11.7211 10.6459 11.7461 10.6234 11.7684 10.6122C11.923 10.4802 12.1003 10.3776 12.2914 10.3095C12.9328 10.0922 13.5947 9.94189 14.2667 9.8611C13.5845 9.70978 12.8895 9.62438 12.1912 9.60606C12.0923 9.59486 11.9925 9.59486 11.8936 9.60606"
                  />
        <path
          d="M9.91815 0.95983C9.91937 1.00073 9.90768 1.04096 9.88477 1.07474C9.97341 1.12035 10.0573 1.17481 10.1352 1.2373V0.676758C10.06 0.742157 9.97559 0.795991 9.88477 0.836511C9.90559 0.875319 9.91703 0.918531 9.91815 0.962632"
                  />
        <path
          d="M9.67889 0.729821C9.7194 0.729322 9.75912 0.741035 9.79296 0.763453C9.83771 0.668458 9.89478 0.579867 9.96267 0.5L9.40625 0.5C9.46772 0.576129 9.51743 0.661167 9.5537 0.752242C9.59042 0.739144 9.62885 0.731589 9.66777 0.729821"
                  />
        <path
          d="M9.45065 0.959722C9.4498 0.918874 9.46146 0.878754 9.48403 0.844812C9.39251 0.805618 9.30794 0.751659 9.23364 0.685059V1.2456C9.30735 1.17457 9.39189 1.1159 9.48403 1.07183C9.46112 1.03805 9.44943 0.997816 9.45065 0.95692"
                  />
        <path
          d="M9.96262 1.41923C9.89651 1.34439 9.84295 1.25919 9.80404 1.16699C9.76959 1.18804 9.73026 1.19963 9.68998 1.20062C9.64938 1.20185 9.60945 1.19008 9.57591 1.16699C9.53195 1.25705 9.4778 1.34169 9.41455 1.41923H9.96262Z"
                  />
        <path
          d="M9.58703 1.11092C9.60108 1.12317 9.61744 1.13246 9.63512 1.13824C9.6528 1.14401 9.67145 1.14616 9.68997 1.14456C9.72674 1.14337 9.76243 1.13171 9.7929 1.11092C9.80818 1.09604 9.8213 1.07906 9.83185 1.06048C9.84454 1.02727 9.85205 0.992293 9.85411 0.956777C9.85578 0.921745 9.84809 0.886903 9.83185 0.85588C9.83185 0.833458 9.79847 0.822247 9.78734 0.811037C9.75651 0.786961 9.71761 0.775905 9.67884 0.780207C9.64165 0.781565 9.60576 0.794271 9.5759 0.816642C9.55761 0.82864 9.5416 0.843825 9.5286 0.861485C9.5162 0.894773 9.5087 0.929709 9.50635 0.965185C9.5128 1.00083 9.52921 1.03389 9.55364 1.06048C9.55364 1.06048 9.57868 1.09411 9.60094 1.10812"
                  />
        <path
          d="M9.58707 2.52357C9.60091 2.53632 9.61716 2.54612 9.63485 2.55238C9.65253 2.55864 9.6713 2.56123 9.69001 2.56C9.72701 2.55769 9.76264 2.54508 9.79295 2.52357C9.8152 2.52357 9.82633 2.48994 9.83746 2.47873C9.86175 2.44996 9.87375 2.41268 9.87084 2.37503C9.86835 2.33734 9.85479 2.30124 9.83189 2.27133C9.83189 2.24891 9.79851 2.23769 9.78738 2.22648C9.775 2.21278 9.75998 2.20174 9.74325 2.19403C9.72651 2.18632 9.7084 2.18211 9.69001 2.18164C9.65261 2.18183 9.61636 2.19466 9.58707 2.21808C9.56481 2.21808 9.55369 2.25171 9.53978 2.26292C9.5172 2.29686 9.50555 2.33698 9.50639 2.37783C9.50956 2.4194 9.52617 2.45879 9.55369 2.48994C9.56799 2.5031 9.58388 2.5144 9.60098 2.52357"
                  />
        <path
          d="M9.58698 2.90461C9.60103 2.91686 9.61739 2.92614 9.63507 2.93192C9.65275 2.9377 9.6714 2.93985 9.68991 2.93824C9.72669 2.93705 9.76238 2.92539 9.79285 2.90461C9.81511 2.90461 9.82624 2.86817 9.83737 2.85696C9.85101 2.84148 9.86108 2.82315 9.86685 2.80328C9.87263 2.78341 9.87396 2.7625 9.87075 2.74205C9.86596 2.70834 9.85253 2.67646 9.8318 2.64956C9.8318 2.62714 9.79842 2.61593 9.78729 2.60472C9.75845 2.58077 9.72165 2.56875 9.68435 2.57109C9.64743 2.57145 9.61151 2.58319 9.58141 2.60472C9.55916 2.60472 9.54803 2.63835 9.53412 2.64956C9.51349 2.68026 9.50191 2.71621 9.50073 2.75326C9.50109 2.79045 9.51274 2.82664 9.53412 2.85696C9.53412 2.85696 9.55916 2.8934 9.58141 2.90461"
                  />
        <path
          d="M9.58698 3.27192C9.60103 3.28417 9.61739 3.29346 9.63507 3.29924C9.65275 3.30501 9.6714 3.30716 9.68991 3.30555C9.72669 3.30437 9.76238 3.2927 9.79285 3.27192C9.81068 3.26207 9.82447 3.24618 9.8318 3.22708C9.85557 3.19802 9.86751 3.16096 9.86519 3.12338C9.86707 3.10514 9.86506 3.0867 9.8593 3.0693C9.85354 3.0519 9.84417 3.03594 9.8318 3.02248C9.8318 3.00006 9.79842 2.98885 9.78729 2.97484C9.75845 2.95089 9.72165 2.93887 9.68435 2.9412C9.64743 2.94157 9.61151 2.9533 9.58141 2.97484C9.55857 2.99079 9.5395 3.01162 9.52556 3.03584C9.51161 3.06006 9.50314 3.08708 9.50073 3.11497C9.50191 3.15202 9.51349 3.18798 9.53412 3.21867C9.54467 3.23837 9.56126 3.2541 9.58141 3.26351"
                  />
        <path
          d="M7.21114 4.45757C7.23969 4.48204 7.2767 4.49413 7.31407 4.4912C7.35091 4.49033 7.38668 4.47864 7.41701 4.45757C7.43927 4.45757 7.4504 4.42114 7.46431 4.40993C7.47647 4.39576 7.48569 4.37929 7.49142 4.36148C7.49715 4.34367 7.49929 4.32488 7.49769 4.30623C7.49651 4.26918 7.48494 4.23322 7.46431 4.20253C7.45077 4.18536 7.43484 4.17025 7.41701 4.15768C7.40295 4.14543 7.3866 4.13615 7.36892 4.13037C7.35124 4.12459 7.33259 4.12245 7.31407 4.12405C7.2773 4.12524 7.24161 4.1369 7.21114 4.15768C7.18888 4.15768 7.17775 4.19132 7.16662 4.20253C7.14209 4.23131 7.12919 4.26832 7.13046 4.30623C7.1318 4.34369 7.14442 4.37985 7.16662 4.40993C7.17051 4.42046 7.17645 4.43011 7.18409 4.43829C7.19174 4.44647 7.20093 4.45303 7.21114 4.45757Z"
                  />
        <path
          d="M9.58703 4.05375C9.60108 4.06599 9.61744 4.07528 9.63512 4.08106C9.6528 4.08684 9.67145 4.08898 9.68997 4.08738C9.72674 4.08619 9.76243 4.07453 9.7929 4.05375C9.81516 4.05375 9.82629 4.02011 9.83742 4.0089C9.86119 3.97985 9.87312 3.94278 9.8708 3.9052C9.87044 3.86801 9.85879 3.83183 9.83742 3.8015C9.83742 3.77908 9.80403 3.76787 9.7929 3.75386C9.76315 3.73163 9.727 3.71982 9.68997 3.72022C9.65305 3.72059 9.61713 3.73232 9.58703 3.75386C9.56477 3.76787 9.55364 3.79029 9.53973 3.8015C9.51836 3.83183 9.50671 3.86801 9.50635 3.9052C9.50753 3.94225 9.5191 3.97821 9.53973 4.0089L9.58703 4.05375Z"
                  />
        <path
          d="M9.67885 2.18183C9.77323 2.17365 9.86114 2.1301 9.9252 2.05979C9.98925 1.98947 10.0248 1.8975 10.0248 1.80206C10.0248 1.70663 9.98925 1.61466 9.9252 1.54434C9.86114 1.47403 9.77323 1.43048 9.67885 1.4223C9.62662 1.41778 9.57403 1.42423 9.52441 1.44126C9.47479 1.45829 9.42922 1.48553 9.3906 1.52123C9.35198 1.55694 9.32115 1.60034 9.30005 1.64868C9.27896 1.69702 9.26807 1.74926 9.26807 1.80206C9.26807 1.85487 9.27896 1.9071 9.30005 1.95545C9.32115 2.00379 9.35198 2.04719 9.3906 2.0829C9.42922 2.1186 9.47479 2.14583 9.52441 2.16286C9.57403 2.1799 9.62662 2.18635 9.67885 2.18183Z"
                  />
        <path
          d="M7.21129 3.66435C7.11948 3.38408 6.76615 2.71984 7.28084 2.263C7.45771 2.11399 7.67913 2.02911 7.90959 2.02197C8.09996 2.03013 8.28781 2.06893 8.46601 2.13688C8.77081 2.2577 9.0955 2.31951 9.42305 2.31906V2.50404C9.07494 2.50775 8.72963 2.44104 8.40759 2.30785C8.25775 2.25015 8.10023 2.2152 7.94019 2.20415C7.74659 2.20015 7.55869 2.27026 7.41438 2.40034C7.08331 2.68061 7.19738 3.07859 7.34483 3.47096C7.36672 3.51436 7.38263 3.56057 7.39212 3.6083L7.21129 3.66435Z"
                  />
        <path
          d="M9.10571 4.2612C9.21797 4.16923 9.34137 4.09201 9.47295 4.03138L9.43678 3.96131C9.43009 3.93188 9.42987 3.90133 9.43611 3.8718C9.44236 3.84227 9.45493 3.81447 9.47295 3.79035C9.34224 3.72362 9.21911 3.64281 9.10571 3.54932V4.2612Z"
                  />
        <path
          d="M10.2605 4.2612V3.54932C10.148 3.64276 10.0258 3.72358 9.896 3.79035C9.90909 3.81561 9.92025 3.84185 9.92938 3.86882C9.94141 3.92891 9.92942 3.99136 9.896 4.04259C10.0285 4.0949 10.1516 4.16875 10.2605 4.2612Z"
                  />
        <path
          d="M9.55367 3.69772C9.57875 3.68453 9.60479 3.67329 9.63157 3.66409H9.67886C9.72285 3.66363 9.76613 3.67525 9.80406 3.69772C9.86365 3.56571 9.94036 3.44225 10.0322 3.33057H9.32275C9.42065 3.43825 9.49883 3.56255 9.55367 3.69772Z"
                  />
        <path
          d="M7.25859 4.0763H7.3031C7.33649 4.0763 7.36153 4.0763 7.39491 4.0763C7.44705 3.91067 7.51217 3.74947 7.58966 3.59424L7.13062 3.75679L7.25859 4.0763Z"
                  />
        <path
          d="M7.88455 4.54967L7.7371 3.84619C7.67259 3.96724 7.58348 4.07324 7.47559 4.15729C7.50066 4.19202 7.51949 4.23091 7.53123 4.2722C7.53972 4.29212 7.54411 4.31358 7.54411 4.33526C7.54411 4.35694 7.53972 4.3784 7.53123 4.39832C7.66297 4.41873 7.78794 4.47063 7.89568 4.54967"
                  />
        <path
          d="M8.99737 1.90125C8.97075 1.9241 8.94735 1.9505 8.92782 1.97973C8.9225 2.01409 8.9225 2.04907 8.92782 2.08343C8.92767 2.10516 8.93561 2.12616 8.95008 2.14228C8.97402 2.16807 9.00113 2.19068 9.03076 2.20955C9.06472 2.21657 9.09974 2.21657 9.13369 2.20955C9.15752 2.20617 9.18031 2.19756 9.20046 2.18432C9.22799 2.16705 9.25323 2.14633 9.27558 2.12266C9.2809 2.08831 9.2809 2.05332 9.27558 2.01896C9.27523 1.99733 9.26735 1.9765 9.25332 1.96011C9.22926 1.93805 9.20318 1.91835 9.17543 1.90125C9.14141 1.8948 9.1065 1.8948 9.07249 1.90125C9.06107 1.89461 9.04812 1.89111 9.03493 1.89111C9.02174 1.89111 9.00879 1.89461 8.99737 1.90125Z"
                  />
        <path
          d="M8.66074 1.77783C8.62808 1.78582 8.59764 1.80115 8.57171 1.82268C8.54785 1.84857 8.5315 1.88056 8.52441 1.91516V1.98243C8.5315 2.01703 8.54785 2.04902 8.57171 2.07492C8.5946 2.10124 8.62627 2.11819 8.66074 2.12256H8.71916C8.75284 2.1136 8.78417 2.09734 8.81097 2.07492C8.8369 2.05088 8.85281 2.01783 8.85548 1.98243V1.91516C8.84815 1.88121 8.83289 1.8495 8.81097 1.82268C8.78679 1.79699 8.75415 1.78105 8.71916 1.77783H8.64961"
                  />
        <path
          d="M8.25159 1.62102C8.23424 1.62679 8.21818 1.63594 8.20433 1.64797C8.19049 1.65999 8.17913 1.67464 8.17091 1.69109C8.14954 1.72141 8.13789 1.7576 8.13753 1.79479C8.13222 1.81689 8.13222 1.83995 8.13753 1.86205C8.14893 1.89659 8.17275 1.92559 8.2043 1.94333C8.23558 1.96109 8.27146 1.9689 8.30724 1.96575C8.33009 1.97134 8.35394 1.97134 8.37679 1.96575C8.41384 1.95555 8.44627 1.93278 8.4686 1.90129C8.47992 1.88686 8.48781 1.87001 8.49166 1.85204C8.49552 1.83406 8.49524 1.81544 8.49085 1.79759C8.49085 1.77236 8.49085 1.74994 8.49085 1.72752C8.47747 1.69328 8.45295 1.66462 8.4213 1.64624C8.38744 1.62451 8.34702 1.61557 8.30724 1.62102C8.28923 1.61461 8.2696 1.61461 8.25159 1.62102Z"
                  />
        <path
          d="M7.77046 1.62107C7.74557 1.64754 7.72659 1.67908 7.71482 1.71356C7.70378 1.74723 7.70378 1.78359 7.71482 1.81726C7.7234 1.83737 7.73463 1.85622 7.74821 1.87332C7.77358 1.9002 7.8051 1.9204 7.84002 1.93217C7.87344 1.94329 7.90953 1.94329 7.94295 1.93217C7.96291 1.92353 7.98163 1.91222 7.99859 1.89854C8.02703 1.87448 8.04743 1.84219 8.05702 1.80605C8.06806 1.77238 8.06806 1.73602 8.05702 1.70235C8.0483 1.68144 8.03708 1.66168 8.02363 1.64349C7.99875 1.61663 7.96698 1.59723 7.93182 1.58744C7.8984 1.57632 7.86231 1.57632 7.82889 1.58744C7.81127 1.60164 7.79156 1.61299 7.77046 1.62107Z"
                  />
        <path
          d="M7.32803 1.75259C7.31565 1.76641 7.30707 1.78325 7.30317 1.80145C7.29926 1.81964 7.30016 1.83855 7.30577 1.85629C7.30613 1.89348 7.31778 1.92967 7.33916 1.95999C7.35274 1.97793 7.36864 1.99396 7.38645 2.00763C7.40871 2.03006 7.44209 2.03006 7.48939 2.03006C7.5309 2.03169 7.57185 2.0199 7.60624 1.99642C7.62328 1.98279 7.63827 1.96674 7.65075 1.94878C7.67301 1.92636 7.67301 1.89272 7.67301 1.84508C7.67334 1.8112 7.66148 1.77834 7.63962 1.75259C7.63962 1.73017 7.60624 1.71896 7.59511 1.70775C7.56627 1.6838 7.52947 1.67178 7.49217 1.67411C7.45836 1.67265 7.42535 1.68475 7.40036 1.70775C7.38771 1.70981 7.37577 1.71497 7.36557 1.7228C7.35538 1.73062 7.34726 1.74085 7.34194 1.75259"
                  />
        <path
          d="M6.92733 2.04142C6.92088 2.07655 6.92483 2.11282 6.93868 2.14571C6.95253 2.1786 6.97567 2.20666 7.00523 2.2264C7.02669 2.23849 7.05034 2.24611 7.07478 2.24882C7.10824 2.25975 7.14427 2.25975 7.17772 2.24882C7.21089 2.23537 7.23908 2.21186 7.2584 2.18156C7.27113 2.16026 7.27875 2.13627 7.28066 2.11149C7.29168 2.07877 7.29168 2.04331 7.28066 2.01059C7.26811 1.97585 7.24337 1.94694 7.21111 1.92932C7.18726 1.91272 7.15936 1.90303 7.13043 1.90129C7.09815 1.88902 7.06255 1.88902 7.03027 1.90129C6.99598 1.91277 6.9672 1.93677 6.94959 1.96855C6.93759 1.99017 6.93002 2.014 6.92733 2.03862"
                  />
        <path
          d="M6.66309 2.44519C6.66965 2.47915 6.68614 2.51037 6.71042 2.53484C6.73471 2.5593 6.7657 2.57591 6.79941 2.58252H6.86896C6.90308 2.57476 6.93468 2.55836 6.96077 2.53488C6.9863 2.5117 7.0022 2.47967 7.00528 2.44519V2.37512C6.9973 2.3414 6.98211 2.30984 6.96077 2.28264C6.93659 2.25695 6.90395 2.24101 6.86896 2.23779H6.79941C6.76518 2.2409 6.73339 2.25692 6.71038 2.28264C6.68319 2.30602 6.6662 2.33924 6.66309 2.37512V2.44519Z"
                  />
        <path
          d="M6.57141 2.90452C6.59644 2.92694 6.6187 2.96057 6.65209 2.97178C6.68528 2.98424 6.72182 2.98424 6.75502 2.97178C6.77946 2.96908 6.80312 2.96145 6.82458 2.94936C6.84683 2.92694 6.88022 2.90452 6.89135 2.87089C6.90347 2.8374 6.90347 2.80068 6.89135 2.76719C6.88944 2.74241 6.88182 2.71841 6.86909 2.69712C6.85159 2.66462 6.82289 2.6397 6.78841 2.62705C6.7617 2.61508 6.73279 2.60889 6.70355 2.60889C6.67432 2.60889 6.64541 2.61508 6.6187 2.62705C6.58759 2.64607 6.56324 2.67452 6.54915 2.70833C6.5383 2.74203 6.5383 2.77833 6.54915 2.81203C6.54915 2.84566 6.54915 2.87089 6.57141 2.8821"
                  />
        <path
          d="M6.67431 3.37567C6.69987 3.39769 6.73249 3.40964 6.76612 3.4093C6.80137 3.40722 6.8361 3.39966 6.86906 3.38688C6.88921 3.37747 6.9058 3.36174 6.91635 3.34204C6.93821 3.31629 6.95007 3.28343 6.94974 3.24955C6.94767 3.21403 6.94017 3.17905 6.92748 3.14585C6.91694 3.12546 6.90043 3.10882 6.88018 3.0982C6.8552 3.0752 6.82219 3.06311 6.78838 3.06457C6.75316 3.06695 6.71848 3.0745 6.68544 3.08699C6.66533 3.09688 6.6495 3.11382 6.64092 3.13464C6.61809 3.15981 6.60609 3.19306 6.60754 3.22713C6.6099 3.2626 6.61739 3.29754 6.6298 3.33083C6.6385 3.35089 6.65439 3.36691 6.67431 3.37567Z"
                  />
        <path
          d="M6.81335 3.77923C6.8274 3.79148 6.84376 3.80076 6.86144 3.80654C6.87912 3.81232 6.89777 3.81447 6.91628 3.81286C6.95225 3.81193 6.98712 3.80022 7.01644 3.77923C7.04148 3.77923 7.05261 3.74279 7.06373 3.73158C7.07589 3.71742 7.08511 3.70095 7.09085 3.68314C7.09658 3.66533 7.09871 3.64654 7.09712 3.62788C7.09594 3.59083 7.08436 3.55488 7.06373 3.52418C7.05162 3.50575 7.03543 3.4904 7.01644 3.47934C7.0028 3.46731 6.98692 3.45813 6.96972 3.45236C6.95253 3.44659 6.93436 3.44432 6.91628 3.44571C6.87937 3.44607 6.84345 3.45781 6.81335 3.47934C6.78862 3.49531 6.76828 3.51728 6.75418 3.54323C6.74008 3.56919 6.73268 3.5983 6.73267 3.62788C6.73303 3.66507 6.74468 3.70126 6.76605 3.73158C6.76605 3.73158 6.78831 3.76802 6.81335 3.77923Z"
                  />
        <path
          d="M12.1549 4.45734C12.1408 4.46959 12.1245 4.47888 12.1068 4.48466C12.0891 4.49043 12.0705 4.49258 12.052 4.49097C12.0152 4.48979 11.9795 4.47812 11.949 4.45734C11.9268 4.45734 11.9156 4.42091 11.9045 4.4097C11.8923 4.39553 11.8831 4.37906 11.8774 4.36125C11.8717 4.34344 11.8695 4.32465 11.8711 4.306C11.8723 4.26895 11.8839 4.23299 11.9045 4.2023C11.9045 4.17988 11.9379 4.16866 11.949 4.15745C11.9779 4.13351 12.0147 4.12148 12.052 4.12382C12.0889 4.12418 12.1248 4.13592 12.1549 4.15745C12.1732 4.16945 12.1892 4.18464 12.2022 4.2023C12.226 4.23135 12.2379 4.26842 12.2356 4.306C12.2352 4.34319 12.2236 4.37937 12.2022 4.4097C12.1978 4.42041 12.1914 4.43014 12.1833 4.43833C12.1752 4.44651 12.1655 4.45297 12.1549 4.45734Z"
                  />
        <path
          d="M12.1438 3.66435C12.2356 3.38408 12.5889 2.71984 12.0631 2.263C11.8873 2.114 11.6668 2.02908 11.4371 2.02197C11.2467 2.02959 11.0588 2.06841 10.8807 2.13688C10.575 2.25799 10.2494 2.3198 9.9209 2.31906V2.50404C10.272 2.508 10.6203 2.44031 10.9447 2.30504C11.1028 2.24598 11.2688 2.21103 11.4371 2.20134C11.6248 2.20687 11.8052 2.27599 11.949 2.39753C12.2801 2.6778 12.166 3.07578 12.0186 3.46816C11.9988 3.51215 11.9839 3.5582 11.9741 3.60549L12.1438 3.66435Z"
                  />
        <path
          d="M12.1106 4.0763H12.0577C12.0243 4.0763 12.0021 4.0763 11.9687 4.0763C11.9141 3.91156 11.8491 3.75054 11.7739 3.59424L12.2302 3.75679L12.1106 4.0763Z"
                  />
        <path
          d="M11.4706 4.54967L11.6181 3.84619C11.6836 3.96737 11.7736 4.07335 11.8824 4.15729C11.8563 4.19185 11.8366 4.23074 11.8239 4.2722C11.8154 4.29212 11.811 4.31358 11.811 4.33526C11.811 4.35694 11.8154 4.3784 11.8239 4.39832C11.6931 4.42185 11.5688 4.47346 11.4595 4.54967"
                  />
        <path
          d="M10.3634 1.90132C10.3885 1.92564 10.4118 1.95188 10.4329 1.9798C10.4382 2.01416 10.4382 2.04914 10.4329 2.0835C10.4331 2.09453 10.4309 2.10547 10.4266 2.11562C10.4223 2.12576 10.4159 2.13487 10.4079 2.14235C10.3843 2.16749 10.3582 2.19004 10.33 2.20962C10.296 2.21607 10.2611 2.21607 10.227 2.20962C10.2053 2.20825 10.1846 2.19934 10.1686 2.18439C10.1474 2.1656 10.1278 2.14497 10.1102 2.12273C10.1049 2.08838 10.1049 2.05339 10.1102 2.01904C10.1105 1.9974 10.1184 1.97657 10.1324 1.96018C10.1538 1.93841 10.177 1.9187 10.202 1.90132C10.236 1.89487 10.2709 1.89487 10.3049 1.90132C10.3159 1.90077 10.3269 1.90275 10.337 1.90712C10.3472 1.91149 10.3562 1.91814 10.3634 1.92655"
                  />
        <path
          d="M10.6944 1.77783C10.7279 1.78587 10.7592 1.80118 10.7862 1.82268C10.8121 1.84671 10.828 1.87977 10.8307 1.91516V1.98243C10.8234 2.01638 10.8081 2.04809 10.7862 2.07492C10.7623 2.10143 10.7297 2.11835 10.6944 2.12256H10.6248C10.5914 2.11299 10.5602 2.09679 10.533 2.07492C10.5071 2.05088 10.4912 2.01783 10.4885 1.98243V1.91516C10.4959 1.88121 10.5111 1.8495 10.533 1.82268C10.5575 1.7974 10.59 1.78153 10.6248 1.77783H10.6944Z"
                  />
        <path
          d="M11.1173 1.62101C11.151 1.63378 11.1788 1.65876 11.1952 1.69107C11.2155 1.72153 11.2244 1.7583 11.2202 1.79477C11.2256 1.81687 11.2256 1.83993 11.2202 1.86204C11.2067 1.89617 11.1822 1.92476 11.1507 1.94331C11.1195 1.96142 11.0835 1.96926 11.0477 1.96574C11.0249 1.97092 11.0011 1.97092 10.9782 1.96574C10.9415 1.95631 10.9097 1.93329 10.8892 1.90127C10.8838 1.86692 10.8838 1.83193 10.8892 1.79757C10.8836 1.77455 10.8836 1.75053 10.8892 1.72751C10.8969 1.69203 10.9165 1.66033 10.9448 1.63782C10.9799 1.61963 11.0201 1.61371 11.0589 1.62101C11.0781 1.61657 11.0981 1.61657 11.1173 1.62101Z"
                  />
        <path
          d="M11.5846 1.62106C11.6094 1.64813 11.6292 1.67945 11.6431 1.71355C11.6541 1.74722 11.6541 1.78358 11.6431 1.81725C11.6326 1.83694 11.6205 1.85569 11.6069 1.8733C11.584 1.90304 11.5515 1.92384 11.5151 1.93216C11.4817 1.94328 11.4456 1.94328 11.4121 1.93216C11.3922 1.92352 11.3735 1.9122 11.3565 1.89853C11.3299 1.8729 11.3099 1.84117 11.2981 1.80604C11.287 1.77237 11.287 1.73601 11.2981 1.70234C11.3086 1.68181 11.3207 1.66213 11.3342 1.64348C11.3601 1.61788 11.3915 1.59868 11.426 1.58743C11.4585 1.57633 11.4937 1.57633 11.5262 1.58743C11.5473 1.59551 11.567 1.60686 11.5846 1.62106Z"
                  />
        <path
          d="M12.0296 1.75282C12.0495 1.78345 12.0574 1.82037 12.0519 1.85652C12.0515 1.89371 12.0399 1.9299 12.0185 1.96022C12.0066 1.97864 11.9915 1.99477 11.974 2.00786C11.9436 2.02785 11.9069 2.03583 11.8711 2.03029C11.8373 2.03175 11.8042 2.01965 11.7793 1.99665C11.7614 1.98297 11.7455 1.96695 11.732 1.94901C11.7193 1.93534 11.7106 1.9185 11.7067 1.90024C11.7028 1.88199 11.7038 1.86301 11.7097 1.84531C11.7094 1.81143 11.7212 1.77857 11.7431 1.75282C11.7532 1.73638 11.7654 1.72131 11.7793 1.70798C11.7933 1.69573 11.8097 1.68644 11.8273 1.68066C11.845 1.67489 11.8637 1.67274 11.8822 1.67434C11.919 1.67553 11.9547 1.68719 11.9851 1.70798C11.9982 1.72136 12.0094 1.73644 12.0185 1.75282"
                  />
        <path
          d="M12.4415 2.04154C12.4524 2.07525 12.4524 2.11154 12.4415 2.14524C12.4274 2.17905 12.4031 2.2075 12.372 2.22652C12.3497 2.22652 12.3386 2.24894 12.3163 2.24894C12.2829 2.26006 12.2468 2.26006 12.2134 2.24894C12.1752 2.23948 12.1423 2.21533 12.1216 2.18168C12.1089 2.16038 12.1012 2.13639 12.0993 2.11161C12.0883 2.07889 12.0883 2.04343 12.0993 2.01071C12.1107 1.97617 12.1346 1.94718 12.1661 1.92943C12.1876 1.91634 12.2111 1.90687 12.2357 1.90141C12.268 1.88964 12.3034 1.88964 12.3358 1.90141C12.3692 1.91453 12.3975 1.93811 12.4165 1.96867C12.4165 1.9939 12.4165 2.01632 12.4387 2.03874"
                  />
        <path
          d="M12.703 2.44519C12.6951 2.47809 12.6799 2.50875 12.6585 2.53488C12.6353 2.56228 12.6023 2.57939 12.5667 2.58252H12.4972C12.4633 2.57411 12.4318 2.55779 12.4054 2.53488C12.3798 2.5117 12.3639 2.47967 12.3608 2.44519C12.3608 2.41997 12.3608 2.39755 12.3608 2.37512C12.3688 2.3414 12.384 2.30984 12.4054 2.28264C12.4298 2.25736 12.4623 2.24149 12.4972 2.23779H12.5667C12.6014 2.24195 12.6338 2.25776 12.6585 2.28267C12.6832 2.30758 12.6989 2.34014 12.703 2.37512V2.44519Z"
                  />
        <path
          d="M12.7836 2.90495C12.7628 2.93383 12.735 2.95696 12.703 2.97221C12.6698 2.98467 12.6332 2.98467 12.6 2.97221C12.5764 2.96987 12.5536 2.96221 12.5333 2.94979C12.5038 2.92999 12.4799 2.90299 12.4637 2.87131C12.4529 2.83761 12.4529 2.80132 12.4637 2.76761C12.4656 2.74283 12.4732 2.71884 12.486 2.69755C12.5042 2.66566 12.5326 2.64096 12.5666 2.62748C12.6001 2.61636 12.6361 2.61636 12.6696 2.62748C12.6932 2.62982 12.716 2.63748 12.7363 2.6499C12.7614 2.67513 12.7948 2.69755 12.8059 2.73118C12.8167 2.76488 12.8167 2.80118 12.8059 2.83488C12.8072 2.86019 12.7993 2.88512 12.7836 2.90495Z"
                  />
        <path
          d="M12.6918 3.3756C12.6669 3.3986 12.6338 3.41069 12.6 3.40923C12.5648 3.40685 12.5301 3.3993 12.4971 3.38681C12.4772 3.37804 12.4613 3.36203 12.4526 3.34196C12.4307 3.31621 12.4189 3.28336 12.4192 3.24948C12.4213 3.21396 12.4288 3.17898 12.4415 3.14578C12.4508 3.12547 12.4664 3.10876 12.486 3.09813C12.5113 3.07564 12.5441 3.06362 12.5778 3.0645C12.613 3.06658 12.6478 3.07414 12.6807 3.08692C12.7008 3.09681 12.7166 3.11375 12.7252 3.13456C12.7374 3.1465 12.747 3.16093 12.7532 3.17688C12.7595 3.19283 12.7622 3.20993 12.7614 3.22705C12.759 3.26253 12.7515 3.29747 12.7391 3.33075C12.7286 3.35045 12.712 3.36618 12.6918 3.3756Z"
                  />
        <path
          d="M12.5555 3.77935C12.527 3.80382 12.49 3.81591 12.4526 3.81298C12.4158 3.81211 12.38 3.80042 12.3497 3.77935C12.3274 3.77935 12.3163 3.74291 12.3051 3.7317C12.2919 3.71817 12.2818 3.70186 12.2755 3.68393C12.2693 3.666 12.2671 3.64691 12.269 3.628C12.27 3.59048 12.2826 3.55421 12.3051 3.5243C12.3051 3.50188 12.3385 3.49067 12.3497 3.47946C12.3637 3.46721 12.3801 3.45792 12.3978 3.45215C12.4154 3.44637 12.4341 3.44422 12.4526 3.44583C12.4894 3.4467 12.5252 3.45839 12.5555 3.47946C12.5778 3.47946 12.5889 3.51309 12.6001 3.5243C12.6246 3.55308 12.6375 3.59009 12.6362 3.628C12.6349 3.66546 12.6223 3.70163 12.6001 3.7317L12.5555 3.77935Z"
                  />
      </g>
      <defs>
        <clipPath id="clip0_2157_9227">
          <rect width="43" height="35" fill="white" transform="translate(0.372803 0.5)" />
        </clipPath>
      </defs>
    </svg>
