<svg width="53" height="24" viewBox="0 0 53 24" fill="none" xmlns="http://www.w3.org/2000/svg">
<g clip-path="url(#clip0_2157_9419)">
<path d="M12.8741 0.500011C14.2159 0.501205 15.5273 0.903343 16.6424 1.65558C17.7574 2.40782 18.6262 3.47638 19.1387 4.72615C19.6512 5.97593 19.7846 7.35081 19.5219 8.67695C19.2591 10.0031 18.6121 11.2209 17.6627 12.1765C16.7132 13.1321 15.504 13.7826 14.1878 14.0456C12.8715 14.3086 11.5075 14.1724 10.2681 13.6542C9.02868 13.136 7.96956 12.2591 7.22463 11.1343C6.4797 10.0095 6.08242 8.68739 6.08301 7.33507C6.08261 6.4366 6.25807 5.54688 6.59932 4.71684C6.94057 3.8868 7.44093 3.13275 8.07173 2.49786C8.70254 1.86297 9.45141 1.3597 10.2755 1.01689C11.0995 0.674065 11.9826 0.498422 12.8741 0.500011Z" fill="black"/>
<path d="M24.7151 9.51894C24.4167 9.68028 24.0786 9.75158 23.7411 9.72432H22.8749V7.56779H23.774C24.1091 7.55037 24.4423 7.62779 24.736 7.79129C24.8706 7.88031 24.9803 8.00252 25.0548 8.14631C25.1293 8.2901 25.166 8.45069 25.1616 8.61283C25.1684 8.79044 25.1301 8.96686 25.0504 9.12541C24.9707 9.28397 24.8522 9.41941 24.7061 9.51894M25.2665 10.7905C25.7348 10.6558 26.1451 10.3676 26.4328 9.97163C26.7204 9.57563 26.8689 9.09433 26.8549 8.60377C26.8785 8.12924 26.7531 7.6593 26.4964 7.26075C26.2398 6.86221 25.865 6.55535 25.4253 6.38381C24.8451 6.16702 24.2274 6.07046 23.6092 6.09989H21.1697V13.7535H22.8749V11.1167H23.0637C23.2317 11.115 23.3982 11.1481 23.5529 11.2141C23.7076 11.2801 23.8471 11.3775 23.9628 11.5003C24.5267 12.1615 25.0031 12.8934 25.3804 13.678L25.4193 13.7535H27.3943L27.2685 13.542C27.0317 13.1464 25.9678 11.4006 25.2845 10.7905" />
<path d="M33.3193 9.92948C33.3193 11.4125 32.582 12.3699 31.3773 12.3699C30.1725 12.3699 29.4113 11.4125 29.4113 9.92948C29.4113 8.44649 30.1665 7.49205 31.3773 7.49205C32.588 7.49205 33.3193 8.44951 33.3193 9.92948ZM31.3773 5.96678C30.8979 5.94923 30.4197 6.02717 29.9703 6.19613C29.5208 6.36509 29.1088 6.62175 28.7579 6.95141C28.0327 7.6612 27.6521 8.68812 27.661 9.9325C27.661 12.3095 29.1595 13.9073 31.3743 13.9073C33.589 13.9073 35.0635 12.3095 35.0635 9.92948C35.0635 7.54944 33.625 5.96678 31.3743 5.96678" />
<path d="M40.2422 6.09961L38.0874 9.47637L37.1074 6.09961H35.3362L36.9396 11.1104L35.1594 13.7532H37.0625L42.1633 6.09961H40.2422Z" />
<path d="M49.6527 12.2853V6.09961H47.9474V13.7532H52.266L52.8744 12.2853H49.6527Z" />
<path d="M43.0323 10.4308L44.7556 7.77893V10.4308H43.0323ZM46.4579 6.09961H44.1592L38.9475 13.7532H40.8596L42.0583 11.8715H44.7346V13.7532H46.4369L46.4579 6.09961Z" />
<path d="M16.5933 19.0996C16.2949 19.2609 15.9568 19.3322 15.6193 19.305H14.7532V17.1484H15.6523C15.9863 17.1316 16.3185 17.209 16.6113 17.3719C16.7475 17.4599 16.859 17.5816 16.9351 17.7255C17.0112 17.8693 17.0493 18.0305 17.0458 18.1935C17.0523 18.3714 17.0136 18.548 16.9333 18.7065C16.8531 18.8651 16.734 19.0004 16.5873 19.0996M17.1507 20.3711C17.6185 20.2365 18.0285 19.9489 18.316 19.5535C18.6036 19.1581 18.7525 18.6775 18.7391 18.1874C18.7627 17.7121 18.6369 17.2415 18.3797 16.8423C18.1225 16.4432 17.747 16.136 17.3066 15.9645C16.7264 15.7474 16.1086 15.6508 15.4904 15.6805H13.0509V23.3341H14.7532V20.6973H14.927C15.0949 20.696 15.2613 20.7293 15.416 20.7953C15.5706 20.8613 15.7102 20.9585 15.8261 21.0809C16.3879 21.743 16.8633 22.4748 17.2406 23.2586L17.2796 23.3341H19.2576L19.1287 23.1227C18.892 22.727 17.828 20.9813 17.1477 20.3711" />
<path d="M37.8237 19.0995C37.5254 19.2608 37.1872 19.3321 36.8497 19.3049H35.9836V17.1484H36.8827C37.2178 17.1309 37.551 17.2084 37.8447 17.3719C37.9803 17.4602 38.0912 17.5821 38.1668 17.7259C38.2424 17.8697 38.28 18.0307 38.2762 18.1934C38.283 18.371 38.2448 18.5474 38.1651 18.706C38.0854 18.8645 37.9668 19 37.8207 19.0995M38.3811 20.3711C38.8489 20.2365 39.2589 19.9488 39.5465 19.5534C39.8341 19.158 39.9829 18.6774 39.9695 18.1874C39.9938 17.7123 39.8686 17.2417 39.612 16.8426C39.3553 16.4434 38.9801 16.1361 38.54 15.9644C37.9597 15.7476 37.342 15.651 36.7238 15.6805H34.2783V23.334H35.9806V20.6973H36.1514C36.3193 20.6959 36.4857 20.7292 36.6404 20.7952C36.795 20.8612 36.9346 20.9584 37.0505 21.0809C37.6143 21.742 38.0908 22.474 38.4681 23.2585L38.507 23.334H40.482L40.3561 23.1226C40.1194 22.7269 39.0555 20.9812 38.3721 20.3711" />
<path d="M31.6231 19.5282C31.6231 21.0112 30.8858 21.9686 29.6841 21.9686C28.4823 21.9686 27.7181 21.0051 27.7181 19.5282C27.7181 18.0512 28.4733 17.0907 29.6841 17.0907C30.8948 17.0907 31.6231 18.0482 31.6231 19.5282ZM29.6841 15.5564C28.717 15.5228 27.7762 15.8768 27.0677 16.541C26.3425 17.2538 25.9618 18.2808 25.9678 19.5251C25.9678 21.9022 27.4663 23.4999 29.6841 23.4999C31.9018 23.4999 33.3733 21.9022 33.3733 19.5282C33.3733 17.1542 31.9318 15.5624 29.6841 15.5624" />
<path d="M4.9562 20.0114L6.67945 17.3595V20.0114H4.9562ZM8.37872 15.6802H6.08605L0.886353 23.3338H2.7984L3.99718 21.4521H6.67046V23.3338H8.37872V15.6802Z" />
<path d="M11.5106 15.6802H9.8053V23.3338H11.5106V15.6802Z" />
<path d="M22.872 17.1541H25.5902L26.3455 15.6802H21.1727V23.3398H22.872V20.2409H24.9609V18.7791H22.872V17.1541Z" />
<path d="M45.1392 21.9626C44.5776 21.9726 44.023 21.8352 43.5299 21.564C43.195 21.3352 42.9244 21.0231 42.7443 20.658C42.5642 20.2929 42.4807 19.8871 42.5019 19.4799C42.4906 18.9171 42.668 18.367 43.0054 17.9184C43.2453 17.6435 43.5446 17.4278 43.8802 17.2879C44.2159 17.1481 44.579 17.0879 44.9414 17.1119C45.4942 17.1119 46.0445 17.186 46.5778 17.3324V15.777C45.9787 15.6213 45.3623 15.5441 44.7436 15.5474C43.6775 15.5239 42.6421 15.9081 41.8456 16.6227C41.4807 17.003 41.1941 17.4523 41.0022 17.9448C40.8104 18.4372 40.7171 18.9631 40.7277 19.492C40.7119 20.0675 40.8181 20.6397 41.0393 21.1705C41.2605 21.7012 41.5916 22.1783 42.0104 22.5697C42.7956 23.2554 43.9585 23.4758 44.9235 23.4758C45.5423 23.4792 46.1586 23.3958 46.7546 23.2282V21.7482C46.2288 21.8905 45.6867 21.9626 45.1422 21.9626" />
<path fill-rule="evenodd" clip-rule="evenodd" d="M49.6496 21.8628V20.1745H51.7085V18.7126H49.6496V17.1541H52.3139L52.8863 15.6802H47.9443V23.3398H52.5956V21.8628H49.6496Z" />
<path d="M12.8741 0.802264C14.156 0.803458 15.4087 1.18763 16.4739 1.90621C17.5392 2.6248 18.3691 3.64553 18.8588 4.83939C19.3485 6.03325 19.476 7.34663 19.2252 8.61352C18.9744 9.8804 18.3566 11.0439 17.4498 11.957C16.543 12.87 15.3879 13.4916 14.1306 13.7432C12.8733 13.9948 11.5702 13.8651 10.3861 13.3704C9.2019 12.8758 8.18984 12.0384 7.47781 10.9642C6.76578 9.89 6.38575 8.62714 6.38575 7.33529C6.38456 6.47652 6.55162 5.62596 6.87735 4.8324C7.20308 4.03884 7.68106 3.3179 8.28387 2.71094C8.88669 2.10398 9.60248 1.62293 10.3902 1.29539C11.1779 0.967855 12.022 0.800275 12.8741 0.802264Z" fill="#1B3054"/>
<path d="M12.8741 2.98292C13.7287 2.98411 14.5638 3.24064 15.2737 3.72007C15.9837 4.19951 16.5367 4.88031 16.8627 5.67643C17.1888 6.47255 17.2734 7.34823 17.1057 8.19277C16.938 9.0373 16.5257 9.81278 15.9208 10.4212C15.3158 11.0295 14.5455 11.4435 13.7072 11.6107C12.8688 11.778 12.0001 11.6909 11.2108 11.3606C10.4216 11.0304 9.7472 10.4716 9.27296 9.75515C8.79872 9.03865 8.54592 8.19653 8.54651 7.33525C8.54651 6.76293 8.65851 6.19623 8.8761 5.66759C9.09369 5.13895 9.4126 4.65875 9.81458 4.25448C10.2165 3.85021 10.6937 3.52981 11.2187 3.31162C11.7437 3.09343 12.3062 2.98173 12.8741 2.98292Z" fill="white"/>
<path d="M12.8742 5.16065C13.3017 5.16065 13.7196 5.28844 14.075 5.52786C14.4304 5.76728 14.7073 6.10757 14.8708 6.50566C15.0342 6.90376 15.0769 7.34177 14.9932 7.76428C14.9096 8.18679 14.7035 8.57481 14.401 8.87924C14.0985 9.18367 13.7132 9.39084 13.2939 9.47452C12.8745 9.55821 12.44 9.51465 12.0452 9.34936C11.6504 9.18408 11.3132 8.90449 11.0761 8.54598C10.839 8.18746 10.7128 7.76613 10.7134 7.3353C10.7134 7.04947 10.7693 6.76644 10.8779 6.5024C10.9865 6.23836 11.1458 5.99849 11.3464 5.79652C11.5471 5.59454 11.7854 5.43442 12.0475 5.32531C12.3096 5.21621 12.5906 5.16025 12.8742 5.16065Z" fill="#D50F2A"/>
</g>
<defs>
<clipPath id="clip0_2157_9419">
<rect width="52" height="23" fill="white" transform="translate(0.886353 0.5)"/>
</clipPath>
</defs>
</svg>
