<?xml version="1.0" encoding="UTF-8"?>
<svg id="FAQS-plain" xmlns="http://www.w3.org/2000/svg" viewBox="0 0 1500 1500">
  <defs>
    <style>
      .cls-1 {
        fill: #d2a02d;
      }

      .cls-2 {
        fill: #1a9e9f;
      }

      .cls-3 {
        fill: #002442;
      }

      .cls-4 {
        fill: #7f904e;
      }
    </style>
  </defs>
  <circle class="cls-4" cx="750.04" cy="749.95" r="572"/>
  <g>
    <g>
      <path class="cls-2" d="M1128.36,983.51c0,16.31-14.11,30.51-30.51,30.51H402.15c-16.31,0-30.51-14.11-30.51-30.51v-467.03c0-16.31,14.11-30.51,30.51-30.51h695.69c16.31,0,30.51,14.11,30.51,30.51v467.03Z"/>
      <path class="cls-3" d="M1097.85,1028.23H402.15c-24.18,0-44.72-20.44-44.72-44.72v-467.03c0-24.18,20.44-44.72,44.72-44.72h695.69c24.18,0,44.72,20.44,44.72,44.72v467.03c0,24.18-20.44,44.72-44.72,44.72ZM402.15,500.17c-8.54,0-16.31,7.77-16.31,16.31v467.03c0,8.54,7.77,16.31,16.31,16.31h695.69c8.54,0,16.31-7.77,16.31-16.31v-467.03c0-8.54-7.77-16.31-16.31-16.31H402.15Z"/>
    </g>
    <g>
      <path class="cls-2" d="M851.81,750.53l253.71,242.77c11.99,11.99,8.73,20.73-8.73,20.73H402.15c-16.31,0-20.73-9.79-8.73-20.73l253.71-242.77"/>
      <path class="cls-3" d="M1096.79,1028.23H402.15c-20.06,0-26.48-10.84-28.31-15.55-1.82-4.61-4.32-16.6,9.88-29.75l253.62-242.68c5.66-5.37,14.59-5.18,20.06.48,5.37,5.66,5.18,14.59-.48,20.06l-249.87,239.03h684.75l-249.87-239.03c-5.66-5.37-5.85-14.39-.48-20.06,5.37-5.66,14.39-5.85,20.06-.48l253.71,242.77.19.19c13.72,13.72,11.99,24.95,9.79,30.32-2.78,6.62-9.98,14.59-28.5,14.59l.1.1Z"/>
    </g>
    <g>
      <path class="cls-2" d="M1097.85,487.12c16.31,0,20.73,9.79,8.73,20.73l-335.37,320.02c-11.99,11.99-31.57,11.99-43.56,0l-334.22-320.11c-11.99-11.99-8.73-20.73,8.73-20.73,0,.1,695.69.1,695.69.1Z"/>
      <path class="cls-3" d="M749.42,851.09c-11.99,0-23.22-4.61-31.67-13.05l-334.12-320.02s-.19-.1-.19-.19c-13.72-13.72-11.99-24.95-9.79-30.32,2.78-6.62,9.98-14.59,28.5-14.59s.19,0,.29,0h695.4c20.06,0,26.48,10.84,28.31,15.55,1.82,4.61,4.32,16.6-9.88,29.75l-335.18,319.83c-8.44,8.44-19.67,13.05-31.67,13.05h0ZM407.05,501.23l330.38,316.37s.19.1.19.19c3.17,3.17,7.29,4.8,11.8,4.8s8.64-1.73,11.8-4.8l.19-.19,331.44-316.28H407.14l-.1-.1ZM1102.16,501.81h0Z"/>
    </g>
  </g>
  <g>
    <circle class="cls-1" cx="1161.06" cy="1058.68" r="236.9"/>
    <path class="cls-3" d="M1161.06,1310.38c-67.2,0-130.4-26.2-178-73.7-47.5-47.5-73.7-110.7-73.7-178s26.2-130.4,73.7-178c47.5-47.5,110.7-73.7,178-73.7s130.4,26.2,178,73.7c47.5,47.5,73.7,110.7,73.7,178s-26.2,130.4-73.7,178c-47.5,47.5-110.7,73.7-178,73.7ZM1161.06,836.58c-59.3,0-115.1,23.1-157,65.1-41.9,41.9-65,97.7-65,157s23.1,115.1,65,157,97.7,65,157,65,115.1-23.1,157-65,65.1-97.7,65.1-157-23.1-115.1-65.1-157-97.7-65.1-157-65.1Z"/>
    <path class="cls-3" d="M1116.16,1197.38c-5.6,0-11.2-1.8-15.9-5.5l-84-65.3c-11.3-8.8-13.3-25.1-4.6-36.4,8.8-11.3,25.1-13.3,36.4-4.6l63.7,49.5,146.8-185.6c8.9-11.2,25.2-13.1,36.4-4.3,11.2,8.9,13.1,25.2,4.3,36.4l-162.7,205.8c-5.1,6.5-12.7,9.8-20.3,9.8l-.1.2Z"/>
  </g>
</svg>