<svg viewBox="0 0 122 36" xmlns="http://www.w3.org/2000/svg">
<path d="M117.359 0.915449C119.436 0.915449 121.127 2.56373 121.127 4.58936V30.8394C121.127 32.865 119.436 34.5133 117.359 34.5133H5.17944C3.10188 34.5133 1.41133 32.865 1.41133 30.8394V4.58936C1.41133 2.56373 3.10188 0.915449 5.17944 0.915449H117.359ZM117.359 0.214358H5.17944C2.71261 0.214358 0.692261 2.1842 0.692261 4.58936V30.8394C0.692261 33.2445 2.71261 35.2144 5.17944 35.2144H117.359C119.826 35.2144 121.846 33.2445 121.846 30.8394V4.58936C121.846 2.1842 119.826 0.214358 117.359 0.214358Z" />
<path d="M10.057 6.81101C9.7934 7.08007 9.64084 7.49898 9.64084 8.04148V27.3921C9.64084 27.9346 9.7934 28.3535 10.057 28.6226L10.1221 28.6816L21.2436 17.8426V17.5866L10.1221 6.74757L10.057 6.81101Z" fill="url(#paint0_linear_791_17280)"/>
<path d="M24.9466 21.4575L21.2435 17.8427V17.5867L24.9511 13.9719L25.0341 14.0189L29.4248 16.4547C30.6778 17.146 30.6778 18.2835 29.4248 18.9791L25.0341 21.4105L24.9466 21.4575Z" fill="url(#paint1_linear_791_17280)"/>
<path d="M25.0341 21.4103L21.2435 17.7145L10.057 28.6225C10.4732 29.049 11.1519 29.1004 11.9237 28.6739L25.0341 21.4103Z" fill="url(#paint2_linear_791_17280)"/>
<path d="M25.0341 14.0186L11.9237 6.75498C11.1519 6.33279 10.4732 6.3842 10.057 6.81076L21.2435 17.7144L25.0341 14.0186Z" fill="url(#paint3_linear_791_17280)"/>
<path d="M43.2464 9.1776C43.2464 9.90822 43.0221 10.4934 42.5801 10.9298C42.0719 11.4471 41.41 11.7074 40.599 11.7074C39.8238 11.7074 39.162 11.4428 38.619 10.921C38.0749 10.3917 37.8035 9.74197 37.8035 8.96432C37.8035 8.18666 38.0749 7.53697 38.619 7.01197C39.162 6.48588 39.8238 6.22119 40.599 6.22119C40.9849 6.22119 41.3528 6.29885 41.7039 6.44322C42.0539 6.58869 42.3389 6.78557 42.5453 7.02838L42.0764 7.48994C41.7163 7.07541 41.2261 6.87088 40.599 6.87088C40.0336 6.87088 39.5434 7.06338 39.1272 7.45166C38.7155 7.84104 38.5091 8.34525 38.5091 8.96432C38.5091 9.58338 38.7155 10.092 39.1272 10.4813C39.5434 10.8653 40.0336 11.0621 40.599 11.0621C41.1991 11.0621 41.7039 10.8653 42.1022 10.477C42.3647 10.2199 42.5139 9.86557 42.5531 9.41275H40.599V8.78057H43.206C43.2374 8.91729 43.2464 9.04963 43.2464 9.1776Z" stroke-width="0.16" stroke-miterlimit="10"/>
<path d="M47.3825 6.98602H44.9336V8.64852H47.1413V9.2807H44.9336V10.9432H47.3825V11.5874H44.2403V6.3418H47.3825V6.98602Z" stroke-width="0.16" stroke-miterlimit="10"/>
<path d="M50.3014 11.5874H49.6081V6.98602H48.106V6.3418H51.8046V6.98602H50.3014V11.5874Z" stroke-width="0.16" stroke-miterlimit="10"/>
<path d="M54.4812 11.5874V6.3418H55.1734V11.5874H54.4812Z" stroke-width="0.16" stroke-miterlimit="10"/>
<path d="M58.2414 11.5874H57.5538V6.98602H56.0461V6.3418H59.7491V6.98602H58.2414V11.5874Z" stroke-width="0.16" stroke-miterlimit="10"/>
<path d="M66.7514 10.9123C66.2208 11.4428 65.5634 11.7074 64.7793 11.7074C63.9906 11.7074 63.3333 11.4428 62.8027 10.9123C62.2732 10.3829 62.0096 9.73322 62.0096 8.96432C62.0096 8.19541 62.2732 7.54572 62.8027 7.01635C63.3333 6.48588 63.9906 6.22119 64.7793 6.22119C65.5589 6.22119 66.2163 6.48588 66.7469 7.02072C67.2809 7.55447 67.5445 8.19979 67.5445 8.96432C67.5445 9.73322 67.2809 10.3829 66.7514 10.9123ZM63.3153 10.4726C63.7147 10.8653 64.2004 11.0621 64.7793 11.0621C65.3536 11.0621 65.8438 10.8653 66.2387 10.4726C66.637 10.0799 66.8389 9.57572 66.8389 8.96432C66.8389 8.35291 66.637 7.84869 66.2387 7.45604C65.8438 7.06338 65.3536 6.8665 64.7793 6.8665C64.2004 6.8665 63.7147 7.06338 63.3153 7.45604C62.9171 7.84869 62.7152 8.35291 62.7152 8.96432C62.7152 9.57572 62.9171 10.0799 63.3153 10.4726Z" stroke-width="0.16" stroke-miterlimit="10"/>
<path d="M68.5171 11.5874V6.3418H69.3584L71.9745 10.4215H72.0047L71.9745 9.41305V6.3418H72.6666V11.5874H71.9442L69.2047 7.30648H69.1745L69.2047 8.3193V11.5874H68.5171Z" stroke-width="0.16" stroke-miterlimit="10"/>
<path d="M61.8391 19.2479C59.7312 19.2479 58.0093 20.8119 58.0093 22.9699C58.0093 25.1104 59.7312 26.6908 61.8391 26.6908C63.9514 26.6908 65.6734 25.1104 65.6734 22.9699C65.6734 20.8119 63.9514 19.2479 61.8391 19.2479ZM61.8391 25.2252C60.6825 25.2252 59.6875 24.2944 59.6875 22.9699C59.6875 21.6279 60.6825 20.7135 61.8391 20.7135C62.9956 20.7135 63.9951 21.6279 63.9951 22.9699C63.9951 24.2944 62.9956 25.2252 61.8391 25.2252ZM53.4828 19.2479C51.3705 19.2479 49.653 20.8119 49.653 22.9699C49.653 25.1104 51.3705 26.6908 53.4828 26.6908C55.594 26.6908 57.3126 25.1104 57.3126 22.9699C57.3126 20.8119 55.594 19.2479 53.4828 19.2479ZM53.4828 25.2252C52.3251 25.2252 51.3267 24.2944 51.3267 22.9699C51.3267 21.6279 52.3251 20.7135 53.4828 20.7135C54.6394 20.7135 55.6344 21.6279 55.6344 22.9699C55.6344 24.2944 54.6394 25.2252 53.4828 25.2252ZM43.5392 20.3886V21.9702H47.4128C47.2995 22.8539 46.9966 23.5036 46.5322 23.9564C45.9668 24.5033 45.0862 25.1104 43.5392 25.1104C41.1554 25.1104 39.2887 23.2346 39.2887 20.9104C39.2887 18.5861 41.1554 16.7104 43.5392 16.7104C44.8282 16.7104 45.766 17.2015 46.4581 17.838L47.6012 16.7235C46.6331 15.8222 45.3453 15.1299 43.5392 15.1299C40.2703 15.1299 37.523 17.7232 37.523 20.9104C37.523 24.0975 40.2703 26.6908 43.5392 26.6908C45.3061 26.6908 46.6331 26.1264 47.6764 25.0677C48.7455 24.0254 49.0786 22.5597 49.0786 21.3763C49.0786 21.0088 49.0472 20.6708 48.9911 20.3886H43.5392ZM84.1998 21.6147C83.8846 20.7824 82.912 19.2479 80.9309 19.2479C78.9677 19.2479 77.3333 20.7561 77.3333 22.9699C77.3333 25.0546 78.9509 26.6908 81.1193 26.6908C82.8727 26.6908 83.8846 25.6485 84.3008 25.0414L82.9995 24.196C82.5653 24.815 81.9741 25.2252 81.1193 25.2252C80.2701 25.2252 79.661 24.8457 79.2706 24.0975L84.3759 22.038L84.1998 21.6147ZM78.9947 22.8539C78.9509 21.4189 80.1378 20.6839 80.9881 20.6839C81.6544 20.6839 82.2198 21.0088 82.4083 21.4736L78.9947 22.8539ZM74.8451 26.4644H76.5233V15.5269H74.8451V26.4644ZM72.0967 20.0769H72.0407C71.6637 19.6416 70.9447 19.2479 70.0338 19.2479C68.1222 19.2479 66.3745 20.8841 66.3745 22.9819C66.3745 25.0677 68.1222 26.6908 70.0338 26.6908C70.9447 26.6908 71.6637 26.2938 72.0407 25.8454H72.0967V26.3791C72.0967 27.8021 71.3171 28.5666 70.0596 28.5666C69.0342 28.5666 68.3982 27.8447 68.1357 27.2377L66.6762 27.8316C67.0969 28.8182 68.2108 30.0322 70.0596 30.0322C72.0272 30.0322 73.6875 28.9035 73.6875 26.1571V19.4743H72.0967V20.0769ZM70.1774 25.2252C69.0208 25.2252 68.0527 24.2813 68.0527 22.9819C68.0527 21.6705 69.0208 20.7135 70.1774 20.7135C71.3171 20.7135 72.2157 21.6705 72.2157 22.9819C72.2157 24.2813 71.3171 25.2252 70.1774 25.2252ZM92.0568 15.5269H88.0431V26.4644H89.7168V22.3202H92.0568C93.9157 22.3202 95.7386 21.0088 95.7386 18.923C95.7386 16.8383 93.9112 15.5269 92.0568 15.5269ZM92.1006 20.7988H89.7168V17.0483H92.1006C93.3503 17.0483 94.0637 18.06 94.0637 18.923C94.0637 19.7696 93.3503 20.7988 92.1006 20.7988ZM102.447 19.2271C101.238 19.2271 99.9801 19.7477 99.4629 20.9016L100.948 21.5086C101.268 20.9016 101.856 20.7047 102.477 20.7047C103.345 20.7047 104.226 21.2133 104.24 22.1113V22.2261C103.937 22.0555 103.288 21.8029 102.491 21.8029C100.891 21.8029 99.261 22.6614 99.261 24.2638C99.261 25.7294 100.571 26.6733 102.044 26.6733C103.17 26.6733 103.792 26.1779 104.182 25.6014H104.24V26.4469H105.856V22.2513C105.856 20.3121 104.371 19.2271 102.447 19.2271ZM102.245 25.2208C101.698 25.2208 100.935 24.9561 100.935 24.2944C100.935 23.4479 101.886 23.123 102.709 23.123C103.446 23.123 103.792 23.2816 104.24 23.4905C104.108 24.5033 103.214 25.2208 102.245 25.2208ZM111.745 19.4666L109.822 24.208H109.764L107.775 19.4666H105.97L108.959 26.0925L107.254 29.7796H109.003L113.608 19.4666H111.745ZM96.6584 26.4644H98.3366V15.5269H96.6584V26.4644Z"/>
<defs>
<linearGradient id="paint0_linear_791_17280" x1="20.2561" y1="27.5936" x2="5.57621" y2="12.5373" gradientUnits="userSpaceOnUse">
<stop stop-color="#00A0FF"/>
<stop offset="0.0066" stop-color="#00A1FF"/>
<stop offset="0.2601" stop-color="#00BEFF"/>
<stop offset="0.5122" stop-color="#00D2FF"/>
<stop offset="0.7604" stop-color="#00DFFF"/>
<stop offset="1" stop-color="#00E3FF"/>
</linearGradient>
<linearGradient id="paint1_linear_791_17280" x1="31.0565" y1="17.7135" x2="9.34129" y2="17.7135" gradientUnits="userSpaceOnUse">
<stop stop-color="#FFE000"/>
<stop offset="0.4087" stop-color="#FFBD00"/>
<stop offset="0.7754" stop-color="#FFA500"/>
<stop offset="1" stop-color="#FF9C00"/>
</linearGradient>
<linearGradient id="paint2_linear_791_17280" x1="22.9729" y1="15.7054" x2="3.06578" y2="-4.71217" gradientUnits="userSpaceOnUse">
<stop stop-color="#FF3A44"/>
<stop offset="1" stop-color="#C31162"/>
</linearGradient>
<linearGradient id="paint3_linear_791_17280" x1="7.24112" y1="35.0602" x2="16.1305" y2="25.9429" gradientUnits="userSpaceOnUse">
<stop stop-color="#32A071"/>
<stop offset="0.0685" stop-color="#2DA771"/>
<stop offset="0.4762" stop-color="#15CF74"/>
<stop offset="0.8009" stop-color="#06E775"/>
<stop offset="1" stop-color="#00F076"/>
</linearGradient>
</defs>
</svg>
