<svg width="150" height="43" viewBox="0 0 150 43" fill="none" xmlns="http://www.w3.org/2000/svg">
<path d="M143.525 43H5.70423C2.67355 43 0.191406 40.5799 0.191406 37.625V5.375C0.191406 2.4201 2.67355 3.8147e-06 5.70423 3.8147e-06H143.525C146.555 3.8147e-06 149.038 2.4201 149.038 5.375V37.625C149.038 40.5799 146.555 43 143.525 43Z" fill="black"/>
<path d="M143.525 0.861346C146.077 0.861346 148.154 2.88638 148.154 5.375V37.625C148.154 40.1136 146.077 42.1387 143.525 42.1387H5.70423C3.15179 42.1387 1.07484 40.1136 1.07484 37.625V5.375C1.07484 2.88638 3.15179 0.861346 5.70423 0.861346H143.525ZM143.525 3.8147e-06H5.70423C2.67355 3.8147e-06 0.191406 2.4201 0.191406 5.375V37.625C0.191406 40.5799 2.67355 43 5.70423 43H143.525C146.555 43 149.038 40.5799 149.038 37.625V5.375C149.038 2.4201 146.555 3.8147e-06 143.525 3.8147e-06Z" fill="#A6A6A6"/>
<path d="M11.6988 8.10425C11.3749 8.43481 11.1875 8.94947 11.1875 9.61597V33.3896C11.1875 34.0561 11.3749 34.5708 11.6988 34.9013L11.7787 34.9739L25.4423 21.6573V21.3429L11.7787 8.02631L11.6988 8.10425Z" fill="url(#paint0_linear_10448_56805)"/>
<path d="M29.9909 26.0985L25.4414 21.6574V21.343L29.9964 16.9019L30.0984 16.9597L35.4927 19.9522C37.0321 20.8014 37.0321 22.1989 35.4927 23.0536L30.0984 26.0407L29.9909 26.0985V26.0985Z" fill="url(#paint1_linear_10448_56805)"/>
<path d="M30.0996 26.0404L25.4427 21.4999L11.6992 34.9011C12.2105 35.4252 13.0443 35.4883 13.9926 34.9643L30.0996 26.0404" fill="url(#paint2_linear_10448_56805)"/>
<path d="M30.0996 16.9595L13.9926 8.03563C13.0443 7.51694 12.2105 7.58009 11.6992 8.10416L25.4427 21.5L30.0996 16.9595Z" fill="url(#paint3_linear_10448_56805)"/>
<path d="M52.4722 11.0125C52.4722 11.9102 52.1966 12.6291 51.6536 13.1652C51.0292 13.8008 50.2161 14.1206 49.2196 14.1206C48.2673 14.1206 47.4542 13.7954 46.7871 13.1545C46.1187 12.5041 45.7852 11.7059 45.7852 10.7505C45.7852 9.79509 46.1187 8.9969 46.7871 8.3519C47.4542 7.70556 48.2673 7.38037 49.2196 7.38037C49.6937 7.38037 50.1458 7.47578 50.5772 7.65315C51.0072 7.83187 51.3572 8.07375 51.6108 8.37206L51.0347 8.93912C50.5923 8.42984 49.9901 8.17856 49.2196 8.17856C48.525 8.17856 47.9228 8.41506 47.4114 8.89209C46.9056 9.37047 46.652 9.98993 46.652 10.7505C46.652 11.5111 46.9056 12.1359 47.4114 12.6143C47.9228 13.0859 48.525 13.3278 49.2196 13.3278C49.957 13.3278 50.5772 13.0859 51.0664 12.6089C51.3889 12.2931 51.5722 11.8577 51.6205 11.3014H49.2196V10.5247H52.4226C52.4612 10.6927 52.4722 10.8553 52.4722 11.0125V11.0125Z" fill="white" stroke="white" stroke-width="0.132308" stroke-miterlimit="10"/>
<path d="M57.5518 8.31954H54.5431V10.362H57.2554V11.1387H54.5431V13.1812H57.5518V13.9727H53.6914V7.52808H57.5518V8.31954Z" fill="white" stroke="white" stroke-width="0.132308" stroke-miterlimit="10"/>
<path d="M61.1386 13.9727H60.2868V8.31954H58.4414V7.52808H62.9853V8.31954H61.1386V13.9727V13.9727Z" fill="white" stroke="white" stroke-width="0.132308" stroke-miterlimit="10"/>
<path d="M66.2734 13.9727V7.52808H67.1238V13.9727H66.2734Z" fill="white" stroke="white" stroke-width="0.132308" stroke-miterlimit="10"/>
<path d="M70.8925 13.9727H70.0476V8.31954H68.1953V7.52808H72.7448V8.31954H70.8925V13.9727Z" fill="white" stroke="white" stroke-width="0.132308" stroke-miterlimit="10"/>
<path d="M81.3491 13.1437C80.6972 13.7954 79.8896 14.1206 78.9262 14.1206C77.9573 14.1206 77.1497 13.7954 76.4978 13.1437C75.8473 12.4933 75.5234 11.6952 75.5234 10.7505C75.5234 9.80584 75.8473 9.00765 76.4978 8.35728C77.1497 7.70556 77.9573 7.38037 78.9262 7.38037C79.8841 7.38037 80.6917 7.70556 81.3436 8.36265C81.9996 9.0184 82.3235 9.81122 82.3235 10.7505C82.3235 11.6952 81.9996 12.4933 81.3491 13.1437ZM77.1277 12.6035C77.6183 13.0859 78.2151 13.3278 78.9262 13.3278C79.6319 13.3278 80.2341 13.0859 80.7193 12.6035C81.2085 12.1211 81.4566 11.5017 81.4566 10.7505C81.4566 9.99934 81.2085 9.37987 80.7193 8.89747C80.2341 8.41506 79.6319 8.17318 78.9262 8.17318C78.2151 8.17318 77.6183 8.41506 77.1277 8.89747C76.6384 9.37987 76.3903 9.99934 76.3903 10.7505C76.3903 11.5017 76.6384 12.1211 77.1277 12.6035V12.6035Z" fill="white" stroke="white" stroke-width="0.132308" stroke-miterlimit="10"/>
<path d="M83.5195 13.9727V7.52808H84.5532L87.7672 12.5403H87.8044L87.7672 11.3013V7.52808H88.6175V13.9727H87.7299L84.3644 8.71326H84.3272L84.3644 9.95757V13.9727H83.5195V13.9727Z" fill="white" stroke="white" stroke-width="0.132308" stroke-miterlimit="10"/>
<path d="M75.3193 23.3841C72.7296 23.3841 70.6141 25.3056 70.6141 27.9568C70.6141 30.5865 72.7296 32.5283 75.3193 32.5283C77.9144 32.5283 80.03 30.5865 80.03 27.9568C80.03 25.3056 77.9144 23.3841 75.3193 23.3841ZM75.3193 30.7276C73.8983 30.7276 72.6759 29.5841 72.6759 27.9568C72.6759 26.3081 73.8983 25.1847 75.3193 25.1847C76.7402 25.1847 77.9682 26.3081 77.9682 27.9568C77.9682 29.5841 76.7402 30.7276 75.3193 30.7276V30.7276ZM65.053 23.3841C62.4579 23.3841 60.3478 25.3056 60.3478 27.9568C60.3478 30.5865 62.4579 32.5283 65.053 32.5283C67.6468 32.5283 69.7582 30.5865 69.7582 27.9568C69.7582 25.3056 67.6468 23.3841 65.053 23.3841ZM65.053 30.7276C63.6307 30.7276 62.4041 29.5841 62.4041 27.9568C62.4041 26.3081 63.6307 25.1847 65.053 25.1847C66.474 25.1847 67.6964 26.3081 67.6964 27.9568C67.6964 29.5841 66.474 30.7276 65.053 30.7276ZM52.8366 24.7856V26.7286H57.5956C57.4564 27.8144 57.0842 28.6126 56.5137 29.1689C55.8191 29.8408 54.7372 30.5865 52.8366 30.5865C49.9079 30.5865 47.6146 28.282 47.6146 25.4266C47.6146 22.5711 49.9079 20.2666 52.8366 20.2666C54.4202 20.2666 55.5724 20.8699 56.4227 21.652L57.8271 20.2827C56.6377 19.1754 55.0555 18.3248 52.8366 18.3248C48.8205 18.3248 45.4453 21.5109 45.4453 25.4266C45.4453 29.3422 48.8205 32.5283 52.8366 32.5283C55.0073 32.5283 56.6377 31.8349 57.9194 30.5341C59.2329 29.2535 59.6422 27.4529 59.6422 25.999C59.6422 25.5475 59.6036 25.1323 59.5347 24.7856H52.8366ZM102.791 26.2919C102.404 25.2693 101.209 23.3841 98.7749 23.3841C96.3631 23.3841 94.355 25.2371 94.355 27.9568C94.355 30.518 96.3424 32.5283 99.0065 32.5283C101.161 32.5283 102.404 31.2477 102.915 30.5019L101.316 29.4632C100.783 30.2237 100.057 30.7276 99.0065 30.7276C97.9632 30.7276 97.2148 30.2614 96.7352 29.3422L103.007 26.812L102.791 26.2919V26.2919ZM96.3962 27.8144C96.3424 26.0514 97.8006 25.1484 98.8452 25.1484C99.6639 25.1484 100.358 25.5475 100.59 26.1186L96.3962 27.8144V27.8144ZM91.2982 32.2501H93.36V18.8126H91.2982V32.2501ZM87.9216 24.4026H87.8527C87.3896 23.8678 86.5062 23.3841 85.3871 23.3841C83.0386 23.3841 80.8914 25.3943 80.8914 27.9716C80.8914 30.5341 83.0386 32.5283 85.3871 32.5283C86.5062 32.5283 87.3896 32.0405 87.8527 31.4895H87.9216V32.1453C87.9216 33.8935 86.9637 34.8328 85.4188 34.8328C84.1591 34.8328 83.3776 33.9459 83.0551 33.2001L81.2621 33.9298C81.7789 35.1419 83.1475 36.6334 85.4188 36.6334C87.8361 36.6334 89.8759 35.2467 89.8759 31.8725V23.6622H87.9216V24.4026V24.4026ZM85.5635 30.7276C84.1425 30.7276 82.9531 29.568 82.9531 27.9716C82.9531 26.3605 84.1425 25.1847 85.5635 25.1847C86.9637 25.1847 88.0677 26.3605 88.0677 27.9716C88.0677 29.568 86.9637 30.7276 85.5635 30.7276V30.7276ZM112.444 18.8126H107.513V32.2501H109.569V27.1586H112.444C114.728 27.1586 116.967 25.5475 116.967 22.985C116.967 20.4238 114.722 18.8126 112.444 18.8126V18.8126ZM112.498 25.2895H109.569V20.6818H112.498C114.033 20.6818 114.91 21.9247 114.91 22.985C114.91 24.025 114.033 25.2895 112.498 25.2895ZM125.209 23.3585C123.723 23.3585 122.178 23.9981 121.543 25.4158L123.368 26.1616C123.76 25.4158 124.483 25.1739 125.246 25.1739C126.313 25.1739 127.395 25.7988 127.411 26.902V27.0431C127.039 26.8335 126.243 26.5231 125.263 26.5231C123.297 26.5231 121.295 27.5779 121.295 29.5465C121.295 31.3471 122.905 32.5068 124.714 32.5068C126.098 32.5068 126.861 31.898 127.341 31.1899H127.411V32.2286H129.397V27.074C129.397 24.6915 127.573 23.3585 125.209 23.3585ZM124.961 30.7223C124.288 30.7223 123.351 30.3971 123.351 29.5841C123.351 28.5441 124.52 28.145 125.531 28.145C126.437 28.145 126.861 28.3398 127.411 28.5965C127.25 29.8408 126.152 30.7223 124.961 30.7223V30.7223ZM136.633 23.6528L134.269 29.478H134.199L131.755 23.6528H129.538L133.209 31.7932L131.115 36.323H133.263L138.921 23.6528H136.633V23.6528ZM118.097 32.2501H120.159V18.8126H118.097V32.2501Z" fill="white"/>
<defs>
<linearGradient id="paint0_linear_10448_56805" x1="24.2291" y1="33.6372" x2="6.19382" y2="15.1394" gradientUnits="userSpaceOnUse">
<stop stop-color="#00A0FF"/>
<stop offset="0.0066" stop-color="#00A1FF"/>
<stop offset="0.2601" stop-color="#00BEFF"/>
<stop offset="0.5122" stop-color="#00D2FF"/>
<stop offset="0.7604" stop-color="#00DFFF"/>
<stop offset="1" stop-color="#00E3FF"/>
</linearGradient>
<linearGradient id="paint1_linear_10448_56805" x1="37.4973" y1="21.4987" x2="10.8187" y2="21.4987" gradientUnits="userSpaceOnUse">
<stop stop-color="#FFE000"/>
<stop offset="0.4087" stop-color="#FFBD00"/>
<stop offset="0.7754" stop-color="#FFA500"/>
<stop offset="1" stop-color="#FF9C00"/>
</linearGradient>
<linearGradient id="paint2_linear_10448_56805" x1="27.5673" y1="19.0316" x2="3.10999" y2="-6.05286" gradientUnits="userSpaceOnUse">
<stop stop-color="#FF3A44"/>
<stop offset="1" stop-color="#C31162"/>
</linearGradient>
<linearGradient id="paint3_linear_10448_56805" x1="8.23971" y1="42.8106" x2="19.161" y2="31.6094" gradientUnits="userSpaceOnUse">
<stop stop-color="#32A071"/>
<stop offset="0.0685" stop-color="#2DA771"/>
<stop offset="0.4762" stop-color="#15CF74"/>
<stop offset="0.8009" stop-color="#06E775"/>
<stop offset="1" stop-color="#00F076"/>
</linearGradient>
</defs>
</svg>
