<?xml version="1.0" encoding="UTF-8"?>
<svg xmlns="http://www.w3.org/2000/svg" xmlns:xlink="http://www.w3.org/1999/xlink" fill="currentColor" viewBox="0 0 226 40" version="1.1">
<g id="surface1">
<rect x="0" y="0" style="fill:currentColor;fill-opacity:1;stroke:none;"/>
<path style=" stroke:none;fill-rule:nonzero;fill:rgb(100%,100%,100%);fill-opacity:1;" d="M 7.050781 14.660156 C 5.171875 15.375 3.378906 17.117188 1.71875 18.25 C 1.089844 18.675781 0.1875 19.128906 0.1875 20 C 0.1875 20.882812 1.085938 21.320312 1.71875 21.75 C 3.382812 22.886719 5.167969 24.625 7.050781 25.339844 C 6.363281 27.511719 6.152344 29.972656 5.761719 32.21875 C 5.613281 33.074219 5.496094 34.085938 6.597656 34.339844 C 7.207031 34.480469 7.988281 34.195312 8.589844 34.082031 C 9.914062 33.835938 11.238281 33.59375 12.566406 33.355469 C 13.082031 33.261719 13.953125 32.917969 14.460938 33.089844 C 15.023438 33.28125 15.453125 34.285156 15.78125 34.75 C 16.519531 35.796875 17.242188 36.855469 17.960938 37.917969 C 18.316406 38.445312 18.683594 39.167969 19.191406 39.5625 C 19.882812 40.097656 20.695312 39.71875 21.148438 39.09375 C 22.097656 37.792969 22.992188 36.445312 23.898438 35.113281 C 24.371094 34.414062 24.984375 33.722656 25.3125 32.941406 C 27.347656 33.585938 29.628906 33.757812 31.730469 34.152344 C 32.484375 34.292969 33.464844 34.636719 34.042969 33.925781 C 34.53125 33.324219 34.175781 32.261719 34.058594 31.582031 C 33.695312 29.5 33.308594 27.417969 32.90625 25.339844 C 34.785156 24.617188 36.679688 22.847656 38.328125 21.679688 C 38.929688 21.257812 39.742188 20.84375 39.746094 20 C 39.746094 19.109375 38.863281 18.714844 38.238281 18.269531 C 36.589844 17.089844 34.773438 15.445312 32.90625 14.660156 C 33.308594 12.582031 33.695312 10.5 34.058594 8.417969 C 34.175781 7.738281 34.53125 6.675781 34.042969 6.074219 C 33.464844 5.363281 32.484375 5.707031 31.730469 5.847656 C 29.632812 6.238281 27.347656 6.414062 25.3125 7.058594 C 24.429688 4.960938 22.574219 2.957031 21.273438 1.085938 C 20.816406 0.421875 20.050781 -0.164062 19.257812 0.410156 C 18.710938 0.800781 18.332031 1.53125 17.960938 2.082031 C 17.242188 3.144531 16.519531 4.203125 15.78125 5.25 C 15.453125 5.714844 15.023438 6.71875 14.460938 6.910156 C 13.953125 7.082031 13.082031 6.738281 12.566406 6.644531 C 11.269531 6.410156 9.96875 6.195312 8.679688 5.9375 C 8.058594 5.8125 7.226562 5.515625 6.597656 5.660156 C 5.496094 5.914062 5.613281 6.925781 5.761719 7.78125 C 6.148438 10.011719 6.328125 12.523438 7.050781 14.660156 Z M 7.050781 14.660156 "/>
<path style=" stroke:none;fill-rule:nonzero;fill:currentColor;fill-opacity:1;" d="M 19.796875 38.191406 C 20.460938 37.996094 20.902344 37.023438 21.273438 36.46875 C 22.011719 35.378906 22.753906 34.285156 23.515625 33.210938 C 23.859375 32.730469 24.160156 32.097656 24.679688 31.785156 C 25.34375 31.386719 26.320312 31.78125 27.03125 31.90625 C 28.933594 32.25 30.886719 32.789062 32.816406 32.941406 C 32.808594 31.027344 32.171875 29.03125 31.84375 27.148438 C 31.722656 26.457031 31.34375 25.464844 31.679688 24.796875 C 31.957031 24.25 32.605469 23.949219 33.085938 23.605469 C 34.277344 22.757812 35.503906 21.949219 36.703125 21.109375 C 37.191406 20.769531 37.871094 20.449219 38.148438 19.910156 C 36.542969 18.816406 34.960938 17.6875 33.359375 16.59375 C 32.746094 16.175781 31.761719 15.71875 31.585938 14.933594 C 31.445312 14.3125 31.722656 13.550781 31.839844 12.941406 C 32.078125 11.707031 32.277344 10.464844 32.507812 9.230469 C 32.582031 8.835938 33.042969 7.527344 32.746094 7.210938 C 32.449219 6.894531 31.121094 7.34375 30.734375 7.421875 C 29.414062 7.679688 28.085938 7.925781 26.757812 8.152344 C 26.222656 8.242188 25.585938 8.492188 25.039062 8.367188 C 24.253906 8.183594 23.796875 7.226562 23.382812 6.605469 C 22.304688 4.992188 21.199219 3.386719 20.070312 1.808594 C 19.503906 2.085938 19.195312 2.757812 18.839844 3.257812 C 18.019531 4.425781 17.238281 5.621094 16.414062 6.789062 C 16.039062 7.320312 15.652344 8.089844 15.007812 8.335938 C 14.457031 8.542969 13.664062 8.253906 13.109375 8.144531 C 11.785156 7.886719 10.457031 7.640625 9.128906 7.414062 C 8.769531 7.351562 7.398438 6.886719 7.148438 7.207031 C 6.882812 7.546875 7.320312 8.738281 7.390625 9.140625 C 7.632812 10.53125 7.886719 11.917969 8.152344 13.304688 C 8.277344 13.941406 8.535156 14.683594 8.1875 15.289062 C 7.882812 15.828125 7.1875 16.164062 6.691406 16.5 C 5.597656 17.246094 4.515625 18 3.433594 18.757812 C 3.121094 18.980469 1.796875 19.621094 1.929688 20.085938 C 2.0625 20.546875 3.058594 21.003906 3.433594 21.265625 C 4.609375 22.074219 5.796875 22.867188 6.960938 23.699219 C 7.476562 24.0625 8.144531 24.414062 8.332031 25.066406 C 8.496094 25.628906 8.207031 26.40625 8.101562 26.96875 C 7.859375 28.265625 7.617188 29.5625 7.390625 30.859375 C 7.320312 31.269531 6.886719 32.445312 7.148438 32.792969 C 7.394531 33.125 8.769531 32.667969 9.128906 32.597656 C 10.453125 32.34375 11.78125 32.089844 13.109375 31.863281 C 13.632812 31.773438 14.296875 31.523438 14.824219 31.621094 C 15.585938 31.765625 16 32.644531 16.402344 33.210938 C 17.542969 34.828125 18.835938 36.460938 19.796875 38.191406 Z M 19.796875 38.191406 "/>
<path style=" stroke:none;fill-rule:nonzero;fill:rgb(100%,100%,100%);fill-opacity:1;" d="M 19.710938 6.066406 C 19.3125 6.269531 19.074219 6.792969 18.832031 7.148438 C 18.152344 8.160156 17.179688 10.308594 16 10.753906 C 15.566406 10.921875 15.082031 10.746094 14.644531 10.671875 C 13.617188 10.496094 12.597656 10.292969 11.570312 10.113281 C 11.171875 10.042969 10.324219 9.734375 10.035156 10.164062 C 9.773438 10.558594 10.042969 11.339844 10.125 11.765625 C 10.316406 12.757812 10.503906 13.753906 10.675781 14.75 C 10.757812 15.246094 10.925781 15.730469 10.660156 16.199219 C 10.027344 17.3125 8.253906 18.082031 7.230469 18.8125 C 6.855469 19.078125 6.085938 19.402344 6 19.910156 C 5.898438 20.507812 6.75 20.878906 7.140625 21.152344 C 8.164062 21.863281 10.160156 22.738281 10.707031 23.890625 C 10.921875 24.34375 10.757812 24.871094 10.667969 25.339844 C 10.480469 26.300781 10.328125 27.273438 10.144531 28.234375 C 10.058594 28.675781 9.75 29.53125 10.089844 29.914062 C 10.421875 30.289062 11.246094 29.976562 11.660156 29.898438 C 12.8125 29.683594 14.871094 28.890625 16 29.257812 C 17.167969 29.636719 18.152344 31.882812 18.828125 32.851562 C 19.097656 33.234375 19.390625 33.910156 19.886719 34.035156 C 20.4375 34.171875 20.835938 33.300781 21.089844 32.941406 C 21.796875 31.925781 22.75 29.71875 23.957031 29.277344 C 24.40625 29.113281 24.949219 29.292969 25.402344 29.375 C 26.367188 29.558594 27.332031 29.726562 28.296875 29.902344 C 28.691406 29.972656 29.433594 30.261719 29.804688 30.027344 C 30.234375 29.753906 29.941406 28.8125 29.867188 28.417969 C 29.679688 27.421875 29.511719 26.425781 29.324219 25.429688 C 29.242188 24.984375 29.046875 24.429688 29.1875 23.980469 C 29.550781 22.832031 31.773438 21.835938 32.726562 21.179688 C 33.109375 20.914062 33.855469 20.601562 33.941406 20.089844 C 34.058594 19.386719 32.484375 18.640625 32 18.3125 C 31.136719 17.722656 29.144531 16.859375 29.125 15.65625 C 29.101562 14.3125 29.625 12.816406 29.855469 11.492188 C 29.921875 11.109375 30.214844 10.324219 29.804688 10.046875 C 29.410156 9.785156 28.628906 10.050781 28.203125 10.136719 C 27.242188 10.324219 26.277344 10.507812 25.3125 10.671875 C 24.878906 10.746094 24.386719 10.921875 23.957031 10.773438 C 22.746094 10.347656 21.726562 8.085938 21.035156 7.058594 C 20.757812 6.648438 20.34375 5.746094 19.710938 6.066406 Z M 19.710938 6.066406 "/>
<path style=" stroke:none;fill-rule:nonzero;fill:currentColor;fill-opacity:1;" d="M 19.886719 9.050781 C 19.675781 9.792969 19.480469 11.488281 18.867188 11.980469 C 18.351562 12.402344 17.265625 12.441406 16.632812 12.742188 C 16.171875 12.957031 15.425781 13.632812 14.914062 13.582031 C 14.03125 13.496094 13.027344 12.5625 12.203125 12.21875 C 12.457031 13.101562 13.535156 14.125 13.546875 15.023438 C 13.550781 15.542969 12.902344 16.261719 12.683594 16.742188 C 12.398438 17.378906 12.390625 18.332031 12.023438 18.890625 C 11.628906 19.488281 9.722656 19.769531 9.039062 19.910156 C 9.597656 20.726562 11.183594 20.394531 11.902344 21.046875 C 12.167969 21.285156 12.175781 21.757812 12.269531 22.082031 C 12.46875 22.78125 12.738281 23.445312 13.109375 24.074219 C 13.285156 24.367188 13.605469 24.699219 13.542969 25.066406 C 13.378906 26.019531 12.496094 26.855469 12.203125 27.78125 L 15.007812 26.441406 L 17.265625 27.511719 L 18.972656 28.082031 L 19.976562 31.039062 C 20.324219 30.242188 20.371094 28.605469 21.019531 28.019531 C 21.507812 27.574219 22.777344 27.488281 23.414062 27.199219 C 23.847656 27.003906 24.464844 26.390625 24.949219 26.449219 C 25.949219 26.574219 26.753906 27.589844 27.753906 27.78125 C 27.421875 26.988281 26.378906 25.835938 26.382812 24.976562 C 26.382812 24.519531 26.894531 24.019531 27.09375 23.621094 C 27.496094 22.820312 27.824219 21.894531 27.84375 20.996094 C 28.726562 20.863281 30.199219 20.535156 30.917969 20 L 27.84375 19.09375 C 27.824219 18.195312 27.539062 17.273438 27.136719 16.46875 C 26.929688 16.054688 26.382812 15.503906 26.402344 15.023438 C 26.4375 14.089844 27.472656 13.109375 27.753906 12.21875 C 26.890625 12.53125 25.867188 13.535156 24.949219 13.570312 C 24.429688 13.589844 23.796875 12.957031 23.324219 12.746094 C 22.664062 12.457031 21.664062 12.414062 21.089844 12.035156 C 20.496094 11.644531 20.167969 9.726562 20.070312 9.050781 Z M 19.886719 9.050781 "/>
<path style=" stroke:none;fill-rule:nonzero;fill:rgb(100%,100%,100%);fill-opacity:1;" d="M 132.34375 26.0625 C 132.355469 27.210938 132.789062 28.234375 134.0625 28.234375 C 134.367188 28.234375 134.847656 28.265625 135.054688 27.992188 C 135.226562 27.761719 135.148438 27.324219 135.148438 27.058594 L 135.148438 21.449219 C 135.148438 20.957031 135.246094 20.335938 134.910156 19.929688 C 134.589844 19.542969 134.066406 19.546875 133.609375 19.546875 C 132.554688 19.546875 130.144531 19.105469 129.324219 19.878906 C 128.355469 20.785156 129.21875 22.257812 130.355469 22.261719 L 132.074219 22.261719 C 132.074219 23.117188 131.941406 24.019531 131.378906 24.699219 C 130.261719 26.046875 128.324219 25.792969 127.355469 24.433594 C 126.0625 22.628906 126.246094 19.480469 126.871094 17.464844 C 127.199219 16.402344 128.003906 15.332031 129.179688 15.207031 C 130.121094 15.105469 130.90625 15.5 131.433594 16.289062 C 131.664062 16.640625 131.816406 17.40625 132.265625 17.527344 C 133.191406 17.777344 134.382812 16.933594 134.496094 16.019531 C 134.710938 14.332031 133.382812 13.082031 131.894531 12.578125 C 129.484375 11.765625 126.632812 12.253906 124.847656 14.117188 C 122.230469 16.847656 122.171875 22.003906 123.78125 25.25 C 124.957031 27.617188 127.722656 29.292969 130.355469 28.097656 C 131.363281 27.640625 131.628906 26.773438 132.34375 26.0625 M 176.460938 17.738281 C 178.601562 17.738281 179.789062 16.054688 178.589844 14.117188 C 178.015625 13.195312 177.03125 12.679688 176.007812 12.414062 C 175.328125 12.234375 174.628906 12.214844 173.929688 12.21875 C 169.148438 12.242188 167.691406 16.949219 167.691406 20.90625 C 167.691406 23.378906 168.582031 26.265625 170.855469 27.570312 C 172.742188 28.652344 175.488281 28.796875 177.363281 27.59375 C 178.527344 26.851562 179.511719 25.324219 178.996094 23.890625 C 178.738281 23.179688 177.378906 22.183594 176.589844 22.71875 C 176.273438 22.929688 176.226562 23.5625 176.070312 23.890625 C 175.640625 24.8125 174.882812 25.414062 173.839844 25.332031 C 172.785156 25.246094 172.089844 24.277344 171.765625 23.347656 C 171.128906 21.507812 171.160156 18.921875 171.855469 17.105469 C 172.925781 14.304688 175.863281 15.160156 176.460938 17.738281 M 186.132812 12.347656 C 185.644531 12.410156 185.105469 12.421875 184.691406 12.730469 C 183.925781 13.292969 183.761719 14.875 183.527344 15.746094 C 182.796875 18.4375 181.996094 21.109375 181.265625 23.800781 C 181.035156 24.652344 179.941406 26.9375 180.558594 27.683594 C 181.148438 28.398438 182.621094 28.605469 183.3125 27.945312 C 184.261719 27.035156 183.8125 25.125 184.734375 24.308594 C 185.085938 23.996094 185.964844 24.164062 186.40625 24.164062 C 186.9375 24.164062 188.285156 23.921875 188.691406 24.308594 C 189.960938 25.519531 188.894531 28.695312 191.648438 28.296875 C 194.0625 27.949219 192.675781 25.5 192.242188 23.980469 C 191.5 21.382812 190.726562 18.792969 189.96875 16.199219 C 189.691406 15.25 189.53125 13.589844 188.824219 12.871094 C 188.21875 12.253906 186.933594 12.238281 186.132812 12.347656 M 67.4375 24.886719 L 67.4375 15.203125 C 67.4375 14.585938 67.5625 13.804688 67.359375 13.210938 C 67.019531 12.203125 65.074219 12.046875 64.386719 12.773438 C 63.675781 13.523438 64.003906 15.246094 64.003906 16.199219 L 64.003906 24.34375 C 64.003906 25.316406 63.738281 26.789062 64.402344 27.597656 C 65.183594 28.554688 67.234375 28.144531 68.34375 28.144531 C 69.394531 28.144531 71.832031 28.59375 72.632812 27.824219 C 73.3125 27.171875 73.253906 25.464844 72.320312 25.066406 C 70.976562 24.5 68.875 24.886719 67.4375 24.886719 M 75.574219 12.457031 C 74.890625 12.671875 74.679688 13.382812 74.671875 14.027344 C 74.652344 15.535156 74.671875 17.042969 74.671875 18.550781 C 74.671875 21.835938 73.957031 27.042969 78.105469 28.15625 C 78.757812 28.328125 79.421875 28.417969 80.09375 28.417969 C 80.882812 28.417969 81.683594 28.371094 82.445312 28.140625 C 86.957031 26.769531 85.878906 20.550781 85.878906 16.921875 C 85.878906 15.789062 86.417969 12.863281 84.976562 12.449219 C 84.714844 12.375 84.429688 12.398438 84.164062 12.398438 C 82.289062 12.398438 82.355469 13.777344 82.355469 15.292969 C 82.355469 17.867188 82.703125 20.714844 82.328125 23.257812 C 82.167969 24.328125 81.390625 25.15625 80.273438 25.15625 C 78.925781 25.15625 78.328125 24.085938 78.15625 22.894531 C 77.808594 20.453125 78.105469 17.765625 78.105469 15.292969 C 78.105469 13.78125 78.292969 12.398438 76.386719 12.398438 C 76.121094 12.398438 75.832031 12.375 75.574219 12.457031 M 92.207031 25.160156 L 92.207031 21.628906 C 93.410156 21.628906 95.457031 22.023438 96.546875 21.488281 C 97.359375 21.085938 97.453125 19.5 96.722656 18.976562 C 96.285156 18.664062 95.699219 18.734375 95.191406 18.734375 L 92.207031 18.734375 L 92.207031 15.476562 C 93.976562 15.476562 96.191406 15.832031 97.902344 15.363281 C 98.839844 15.105469 99.0625 13.8125 98.613281 13.035156 C 98.210938 12.339844 97.238281 12.398438 96.546875 12.398438 L 91.484375 12.398438 C 90.769531 12.398438 89.886719 12.316406 89.335938 12.871094 C 88.542969 13.660156 88.773438 15.183594 88.773438 16.199219 L 88.773438 24.34375 C 88.773438 25.359375 88.535156 26.855469 89.261719 27.683594 C 90.023438 28.554688 92.148438 28.144531 93.203125 28.144531 L 97.089844 28.144531 C 97.679688 28.144531 98.359375 28.175781 98.707031 27.597656 C 99.191406 26.796875 98.945312 25.503906 97.992188 25.242188 C 96.28125 24.769531 93.984375 25.160156 92.207031 25.160156 M 108.660156 24.886719 L 108.660156 15.292969 C 108.660156 14.628906 108.777344 13.84375 108.535156 13.210938 C 108.160156 12.238281 106.222656 12.007812 105.535156 12.78125 C 104.886719 13.507812 105.226562 15.285156 105.226562 16.199219 L 105.226562 24.433594 C 105.226562 25.386719 104.933594 26.90625 105.621094 27.675781 C 106.417969 28.5625 108.570312 28.144531 109.65625 28.144531 C 110.699219 28.144531 112.972656 28.570312 113.792969 27.835938 C 114.535156 27.171875 114.398438 25.464844 113.453125 25.066406 C 112.128906 24.511719 110.074219 24.886719 108.660156 24.886719 M 117.339844 12.460938 C 116.042969 12.90625 116.527344 15.410156 116.527344 16.46875 L 116.527344 23.980469 C 116.527344 25 116.261719 26.457031 116.613281 27.421875 C 116.949219 28.335938 118.230469 28.421875 119.058594 28.183594 C 120.414062 27.792969 119.960938 25.402344 119.960938 24.34375 L 119.960938 16.921875 C 119.960938 15.808594 120.199219 14.375 119.875 13.304688 C 119.582031 12.324219 118.195312 12.167969 117.339844 12.460938 M 141.386719 21.808594 L 145.90625 21.808594 L 145.90625 25.609375 C 145.90625 26.25 145.816406 27.011719 146.128906 27.601562 C 146.644531 28.582031 148.769531 28.523438 149.21875 27.511719 C 149.699219 26.421875 149.339844 24.53125 149.339844 23.347656 C 149.339844 20.128906 149.605469 16.78125 149.332031 13.574219 C 149.210938 12.175781 146.746094 11.859375 146.128906 13.03125 C 145.816406 13.621094 145.90625 14.382812 145.90625 15.023438 L 145.90625 18.824219 L 141.386719 18.824219 L 141.386719 14.933594 C 141.386719 14.34375 141.511719 13.578125 141.242188 13.03125 C 140.753906 12.039062 138.566406 12.121094 138.128906 13.121094 C 137.628906 14.273438 137.949219 16.050781 137.949219 17.285156 C 137.949219 20.382812 137.816406 23.511719 137.953125 26.605469 C 137.976562 27.105469 138.082031 27.675781 138.5 27.996094 C 139.175781 28.507812 140.824219 28.390625 141.234375 27.601562 C 141.5 27.078125 141.386719 26.359375 141.386719 25.792969 L 141.386719 21.808594 M 58.941406 19.820312 C 59.480469 19.503906 60.042969 19.253906 60.421875 18.734375 C 61.449219 17.3125 61.253906 14.703125 59.925781 13.527344 C 58.261719 12.050781 55.65625 12.488281 53.605469 12.488281 C 52.890625 12.488281 51.882812 12.308594 51.257812 12.734375 C 50.539062 13.222656 50.535156 14.0625 50.535156 14.839844 L 50.535156 24.976562 C 50.535156 25.753906 50.378906 26.730469 50.804688 27.421875 C 51.300781 28.226562 52.152344 28.144531 52.972656 28.144531 C 54.851562 28.144531 56.949219 28.410156 58.761719 27.84375 C 62.199219 26.761719 62.695312 20.902344 58.941406 19.820312 M 155.308594 15.65625 L 155.308594 24.976562 C 155.308594 25.871094 154.964844 27.625 155.941406 28.117188 C 156.867188 28.582031 158.484375 28.265625 158.699219 27.148438 C 158.929688 25.957031 158.742188 24.5625 158.742188 23.347656 L 158.742188 15.65625 C 159.652344 15.65625 161.191406 15.949219 161.992188 15.46875 C 162.882812 14.929688 162.832031 13.089844 161.90625 12.621094 C 161.195312 12.257812 159.972656 12.488281 159.195312 12.488281 L 154.3125 12.488281 C 153.628906 12.488281 152.683594 12.320312 152.054688 12.632812 C 151.085938 13.109375 151.195312 14.953125 152.054688 15.472656 C 152.84375 15.953125 154.402344 15.65625 155.308594 15.65625 M 198.519531 22.261719 C 199.355469 22.289062 199.640625 23.070312 200.039062 23.710938 C 200.8125 24.960938 201.601562 26.976562 202.773438 27.878906 C 203.476562 28.417969 206.007812 28.476562 205.988281 27.148438 C 205.976562 26.277344 204.628906 24.96875 204.152344 24.253906 C 203.605469 23.433594 203.046875 22.625 202.496094 21.808594 C 203.480469 21.53125 204.359375 21.117188 204.984375 20.269531 C 206.269531 18.523438 206.035156 15.179688 204.480469 13.671875 C 203.042969 12.28125 200.984375 12.488281 199.152344 12.488281 C 198.058594 12.488281 195.949219 12.058594 195.324219 13.214844 C 194.902344 13.992188 195.082031 15.074219 195.082031 15.925781 L 195.082031 26.246094 C 195.082031 26.898438 195.09375 27.671875 195.71875 28.066406 C 196.472656 28.542969 198.0625 28.328125 198.371094 27.421875 C 198.878906 25.921875 198.519531 23.832031 198.519531 22.261719 M 209.636719 12.546875 C 208.929688 12.75 208.527344 13.410156 208.46875 14.117188 C 208.328125 15.875 208.460938 17.695312 208.460938 19.457031 L 208.460938 24.886719 C 208.460938 25.738281 208.324219 26.679688 208.832031 27.417969 C 209.339844 28.148438 210.105469 28.144531 210.902344 28.144531 C 212.398438 28.144531 213.96875 28.296875 215.421875 27.882812 C 220.480469 26.429688 221.59375 18.828125 218.753906 14.933594 C 217.085938 12.644531 214.753906 12.488281 212.167969 12.488281 C 211.386719 12.488281 210.394531 12.328125 209.636719 12.546875 M 18.894531 13.253906 C 17.964844 13.398438 17.066406 13.726562 16.273438 14.230469 C 15.574219 14.667969 14.949219 15.273438 14.453125 15.925781 C 10.832031 20.71875 15.160156 27.582031 20.972656 26.75 C 21.914062 26.613281 22.785156 26.289062 23.59375 25.785156 C 24.359375 25.3125 25.003906 24.71875 25.519531 23.980469 C 28.898438 19.148438 24.78125 12.332031 18.894531 13.253906 Z M 18.894531 13.253906 "/>
<path style=" stroke:none;fill-rule:nonzero;fill:currentColor;fill-opacity:1;" d="M 53.96875 15.023438 L 53.96875 19.183594 C 54.8125 19.183594 55.925781 19.375 56.679688 18.914062 C 57.832031 18.210938 57.953125 16 56.769531 15.257812 C 56.027344 14.796875 54.808594 15.023438 53.96875 15.023438 M 198.429688 15.203125 L 198.429688 20.179688 C 199.375 20.179688 200.675781 20.40625 201.496094 19.832031 C 202.699219 18.992188 202.667969 16.25 201.410156 15.476562 C 200.601562 14.976562 199.335938 15.203125 198.429688 15.203125 M 211.898438 15.292969 L 211.898438 25.339844 C 213.09375 25.339844 214.375 25.46875 215.324219 24.589844 C 215.863281 24.089844 216.164062 23.324219 216.335938 22.625 C 216.820312 20.644531 216.921875 17.277344 215.152344 15.871094 C 214.230469 15.140625 212.996094 15.292969 211.898438 15.292969 M 186.585938 15.566406 L 185.140625 21.539062 L 188.210938 21.539062 L 187.207031 17.554688 L 186.585938 15.566406 M 18.804688 17.738281 L 17.355469 16.742188 L 17.265625 16.742188 C 16.945312 17.117188 16.058594 18.027344 16.101562 18.542969 C 16.144531 19.058594 17.464844 19.742188 17.898438 19.910156 L 17.898438 20.089844 C 17.464844 20.257812 16.144531 20.941406 16.101562 21.457031 C 16.058594 21.972656 16.945312 22.882812 17.265625 23.257812 L 17.355469 23.257812 L 18.804688 22.261719 C 18.804688 22.675781 18.628906 23.59375 18.894531 23.925781 C 19.121094 24.210938 20.824219 24.210938 21.046875 23.925781 C 21.320312 23.578125 21.152344 22.6875 21.152344 22.261719 C 21.507812 22.519531 22.121094 23.140625 22.582031 23.113281 C 23.113281 23.085938 23.777344 21.722656 23.867188 21.265625 L 22.058594 20.089844 L 22.058594 19.910156 L 23.867188 18.734375 C 23.777344 18.277344 23.113281 16.914062 22.582031 16.886719 C 22.121094 16.859375 21.507812 17.480469 21.152344 17.738281 C 21.152344 17.3125 21.320312 16.421875 21.046875 16.074219 C 20.824219 15.789062 19.121094 15.789062 18.894531 16.074219 C 18.628906 16.40625 18.804688 17.324219 18.804688 17.738281 M 53.96875 21.175781 L 53.96875 25.609375 C 54.972656 25.609375 56.324219 25.847656 57.21875 25.304688 C 58.375 24.609375 58.339844 22.242188 57.222656 21.539062 C 56.324219 20.972656 54.980469 21.175781 53.96875 21.175781 Z M 53.96875 21.175781 "/>
<path style=" stroke:none;fill-rule:nonzero;fill:rgb(100%,100%,100%);fill-opacity:1;" d="M 223.738281 26.695312 L 223.832031 26.695312 C 223.960938 27.640625 224.695312 27.640625 224.824219 26.695312 L 224.914062 26.695312 C 224.914062 27.046875 224.804688 27.632812 225.007812 27.933594 C 225.207031 28.234375 225.699219 28.175781 225.84375 27.859375 C 226.117188 27.25 225.976562 25.910156 225.898438 25.25 C 225.84375 24.742188 225.226562 24.375 224.796875 24.773438 C 224.515625 25.035156 224.425781 25.609375 224.371094 25.972656 C 224.21875 25.628906 224.164062 25.128906 223.925781 24.835938 C 223.664062 24.507812 222.988281 24.554688 222.863281 24.988281 C 222.679688 25.648438 222.667969 27.199219 222.863281 27.859375 C 222.964844 28.199219 223.460938 28.214844 223.648438 27.933594 C 223.847656 27.632812 223.738281 27.046875 223.738281 26.695312 M 220.847656 25.609375 C 220.847656 26.152344 220.59375 27.601562 220.992188 28 C 221.273438 28.28125 221.769531 28.132812 221.878906 27.777344 C 222.082031 27.140625 221.933594 26.273438 221.933594 25.609375 C 222.367188 25.597656 223.058594 25.0625 222.371094 24.761719 C 221.933594 24.570312 221.140625 24.6875 220.667969 24.707031 C 219.820312 24.746094 220.097656 25.601562 220.847656 25.609375 Z M 220.847656 25.609375 "/>
<path style=" stroke:none;fill-rule:nonzero;fill:currentColor;fill-opacity:1;" d="M 223.648438 26.335938 L 223.738281 26.425781 Z M 223.648438 26.335938 "/>
</g>
</svg>
