<?xml version="1.0" encoding="UTF-8"?>
<svg viewBox="0 0 300 62" xmlns="http://www.w3.org/2000/svg">
<path d="M37.7754 53.8933C37.2051 54.0291 36.6348 53.7983 36.3225 53.3366L31.1763 45.8821L22.2689 47.5115C21.8209 47.593 21.3592 47.4572 21.0469 47.1313C20.721 46.8054 20.5852 46.3573 20.6667 45.9092L22.2961 37.0018L14.8416 31.8557C14.475 31.5977 14.2441 31.1767 14.2441 30.7151C14.2441 30.267 14.4614 29.8325 14.8416 29.5745L22.2961 24.4283L20.6667 15.5209C20.5852 15.0728 20.721 14.6111 21.0469 14.2988C21.3728 13.973 21.8209 13.8372 22.2689 13.9187L31.1763 15.5481L36.3225 8.09354C36.5805 7.72693 37.0015 7.49609 37.4631 7.49609C37.9248 7.49609 38.3457 7.71335 38.6037 8.09354L43.7499 15.5481L52.6573 13.9187C53.1054 13.8372 53.567 13.9865 53.8793 14.2988C54.2052 14.6247 54.341 15.0728 54.2595 15.5209L52.6301 24.4283L60.0846 29.5745C60.4648 29.8325 60.6821 30.267 60.6821 30.7286C60.6821 31.0817 60.5191 31.4211 60.2612 31.6791L60.0846 31.8557L52.6301 37.0018L54.2595 45.9092C54.341 46.3573 54.2052 46.819 53.8793 47.1313C53.5535 47.4436 53.1054 47.593 52.6573 47.5115L43.7499 45.8821L38.6309 53.2959C38.4 53.5946 38.1149 53.8118 37.7754 53.8933ZM31.2171 44.3885C31.6652 44.3885 32.0997 44.6057 32.3577 44.9859L37.2323 52.0466C37.3409 52.196 37.5717 52.196 37.6804 52.0466L42.555 44.9859C42.8673 44.5378 43.4104 44.3206 43.94 44.4156L52.3857 45.9636C52.5758 45.9907 52.7252 45.8413 52.698 45.6513L51.1501 37.2055C51.055 36.676 51.2723 36.1328 51.7204 35.8205L58.7811 30.9459C58.9305 30.8373 58.9305 30.6064 58.7811 30.4978L51.7204 25.6232C51.2723 25.3109 51.055 24.7678 51.1501 24.2382L52.698 15.7925C52.7252 15.6024 52.5758 15.453 52.3857 15.4802L43.94 17.0281C43.4104 17.1231 42.8673 16.9059 42.555 16.4578L37.6804 9.39706C37.5717 9.2477 37.3409 9.2477 37.2323 9.39706L32.3577 16.4578C32.0454 16.9059 31.5022 17.1231 30.9727 17.0281L22.5269 15.4802C22.3368 15.453 22.1875 15.6024 22.2146 15.7925L23.7626 24.2382C23.8576 24.7678 23.6404 25.3109 23.1923 25.6232L16.1315 30.4978C15.9822 30.6064 15.9822 30.8373 16.1315 30.9459L23.1923 35.8205C23.6404 36.1328 23.8576 36.676 23.7626 37.2055L22.2146 45.6513C22.1875 45.8413 22.3368 45.9907 22.5269 45.9636L30.9727 44.4156C31.0541 44.3885 31.1356 44.3885 31.2171 44.3885Z"/>
<path d="M48.814 34.5028L53.6615 31.1625C53.9738 30.9453 53.9738 30.4836 53.6615 30.2664L48.814 26.9261C48.3116 26.5866 48.0672 25.9756 48.1758 25.3782L49.2349 19.5802C49.3028 19.2 48.9769 18.8741 48.5967 18.942L42.7988 20.0011C42.2013 20.1098 41.5903 19.8653 41.2509 19.3629L37.9106 14.5155C37.6933 14.2032 37.2317 14.2032 37.0144 14.5155L33.6741 19.3629C33.3347 19.8653 32.7236 20.1098 32.1262 20.0011L26.3282 18.942C25.9481 18.8741 25.6222 19.2 25.6901 19.5802L26.7492 25.351C26.8578 25.962 26.5998 26.5866 26.0974 26.9397L21.2635 30.2799C20.9512 30.4972 20.9512 30.9589 21.2635 31.1761L26.111 34.5164C26.6134 34.8694 26.8714 35.4804 26.7628 36.0779L25.7036 41.8758C25.6358 42.256 25.9616 42.5819 26.3418 42.514L32.1534 41.4549C32.7508 41.3463 33.3483 41.5907 33.6877 42.0931L37.0416 46.9541C37.2588 47.2664 37.7205 47.2664 37.9377 46.9541L41.278 42.1067C41.631 41.6043 42.2285 41.3463 42.8395 41.4685L48.6375 42.5276C49.0177 42.5955 49.3435 42.2696 49.2757 41.8894L48.2165 36.0915C48.0536 35.4669 48.298 34.8558 48.814 34.5028ZM43.1926 38.1961C41.9026 39.1873 40.3411 39.8527 38.6574 40.0699L37.5847 43.6275C37.544 43.7497 37.3674 43.7497 37.3267 43.6275L36.254 40.0699C34.5567 39.8527 33.0088 39.1873 31.7189 38.1961L28.4465 39.9477C28.3243 40.0156 28.2021 39.8798 28.2564 39.7576L30.008 36.4852C29.0032 35.1953 28.3243 33.6338 28.107 31.9365L24.5766 30.8638C24.4544 30.8231 24.4544 30.6466 24.5766 30.6058L28.107 29.5331C28.3243 27.8223 28.9896 26.2472 29.9944 24.9436L28.2428 21.7256C28.1749 21.6034 28.3107 21.4812 28.4329 21.5355L31.6645 23.2599C32.9681 22.2416 34.5431 21.5626 36.2676 21.3454L37.3267 17.8422C37.3674 17.72 37.544 17.72 37.5847 17.8422L38.6438 21.3454C40.3683 21.5626 41.9433 22.2416 43.2469 23.2599L46.4785 21.5355C46.6007 21.4676 46.7229 21.6034 46.6686 21.7256L44.9442 24.9572C45.949 26.2607 46.6279 27.8358 46.8316 29.5467L50.3619 30.6194C50.4841 30.6601 50.4841 30.8366 50.3619 30.8774L46.8316 31.9501C46.6143 33.6474 45.9354 35.2089 44.9306 36.4988L46.6822 39.7712C46.7501 39.8934 46.6143 40.0156 46.4921 39.9613L43.1926 38.1961Z"/>
<path d="M37.965 22.7848C33.1718 22.4725 29.2069 26.451 29.5192 31.2305C29.7772 35.1954 32.9681 38.3863 36.933 38.6443C41.7262 38.9566 45.691 34.9782 45.3787 30.1986C45.1208 26.2337 41.9298 23.0428 37.965 22.7848ZM42.0928 32.5612L40.7893 34.435C40.6942 34.5572 40.5313 34.598 40.3955 34.5029L38.8747 33.4438V35.304C38.8747 35.4534 38.7525 35.5892 38.5896 35.5892H36.3084C36.159 35.5892 36.0233 35.467 36.0233 35.304V33.4438L34.5025 34.5029C34.3803 34.598 34.2038 34.5572 34.1087 34.435L32.8052 32.5612C32.7101 32.439 32.7509 32.2625 32.8731 32.1674L34.9506 30.7146L32.8731 29.2617C32.7509 29.1666 32.7101 29.0037 32.8052 28.8679L34.1087 26.9941C34.2038 26.8719 34.3667 26.8311 34.5025 26.9262L36.0233 27.9853V26.1251C36.0233 25.9757 36.1455 25.8399 36.3084 25.8399H38.5896C38.7389 25.8399 38.8747 25.9621 38.8747 26.1251V27.9853L40.3955 26.9262C40.5177 26.8311 40.6942 26.8719 40.7893 26.9941L42.0928 28.8679C42.1878 28.9901 42.1471 29.1666 42.0249 29.2617L39.9474 30.7146L42.0249 32.1674C42.1471 32.2625 42.1742 32.439 42.0928 32.5612Z"/>
<path d="M73.4863 37.9655V24.1971C73.4863 22.7442 74.1924 21.9023 75.5638 21.9023H80.4113C83.738 21.9023 85.7476 23.5453 85.7476 26.5869C85.7476 28.6644 84.7564 29.9407 83.0183 30.4703C85.2316 31.0949 86.3043 32.7922 86.3043 35.0733C86.3043 38.6173 84.2675 40.2603 79.9768 40.2603H75.5502C74.1924 40.2603 73.4863 39.4184 73.4863 37.9655ZM79.4744 29.7914C80.9816 29.7914 81.7691 28.8545 81.7691 27.2386C81.7691 25.6228 81.0087 24.7945 79.5559 24.7945H77.3969V29.7914H79.4744ZM79.7595 37.3681C81.484 37.3681 82.3123 36.567 82.3123 34.6388C82.3123 32.8736 81.484 32.0861 79.7052 32.0861H77.3969V37.3681H79.7595Z"/>
<path d="M89.3457 37.9919V23.6668C89.3457 22.4176 89.9431 21.793 91.0158 21.793H91.5861C92.7267 21.793 93.3106 22.4176 93.3106 23.6668V36.5526H98.0358C99.2851 36.5526 99.8825 37.1229 99.8825 38.2499V38.4808C99.8825 39.6485 99.2851 40.2731 98.0358 40.2731H91.4232C90.0654 40.2595 89.3457 39.472 89.3457 37.9919Z"/>
<path d="M101.892 23.6668C101.892 22.4176 102.544 21.793 103.617 21.793H104.16C105.301 21.793 105.857 22.4176 105.857 23.6668V33.6604C105.857 35.7651 106.713 36.8378 108.437 36.8378C110.162 36.8378 110.963 35.7651 110.963 33.6604V23.6668C110.963 22.4176 111.614 21.793 112.687 21.793H113.23C114.371 21.793 114.955 22.4176 114.955 23.6668V33.1716C114.955 38.2771 112.714 40.5447 108.369 40.5447C104.119 40.5447 101.865 38.2771 101.865 33.1988V23.6668H101.892Z"/>
<path d="M118.525 38.0197V24.1697C118.525 22.7169 119.259 21.875 120.562 21.875H128.343C129.565 21.875 130.162 22.4453 130.162 23.4908V23.7217C130.162 24.8351 129.565 25.3103 128.343 25.3103H122.436V29.2616H126.414C127.745 29.2616 128.261 29.7097 128.261 30.7417V31.0268C128.261 32.0995 127.718 32.6155 126.414 32.6155H122.436V36.8383H128.451C129.728 36.8383 130.298 37.3272 130.298 38.3455V38.5764C130.298 39.7169 129.728 40.2737 128.451 40.2737H120.562C119.259 40.2601 118.525 39.4725 118.525 38.0197Z"/>
<path d="M137.793 37.9919V23.6668C137.793 22.4176 138.39 21.793 139.463 21.793H140.033C141.174 21.793 141.758 22.4176 141.758 23.6668V36.5526H146.47C147.719 36.5526 148.316 37.1229 148.316 38.2499V38.4808C148.316 39.6485 147.719 40.2731 146.47 40.2731H139.857C138.499 40.2595 137.793 39.472 137.793 37.9919Z"/>
<path d="M151.1 23.6668C151.1 22.4176 151.724 21.793 152.797 21.793H153.367C154.481 21.793 155.064 22.4176 155.064 23.6668V38.5079C155.064 39.73 154.467 40.3817 153.367 40.3817H152.797C151.724 40.3817 151.1 39.73 151.1 38.5079V23.6668Z"/>
<path d="M172.988 32.1812V39.9888C172.988 40.0974 172.391 40.3826 171.657 40.3826C170.856 40.3826 170.204 40.0703 169.838 38.7396C169.756 38.3458 169.702 37.857 169.634 37.3274C169.037 39.2556 167.557 40.5862 165.208 40.5862C161.121 40.5862 158.486 36.6078 158.486 31.19C158.486 25.5686 161.379 21.6309 166.43 21.6309C168.222 21.6309 169.784 22.1468 170.829 23.0159C171.739 23.7219 172.214 24.6588 172.214 25.5414C172.214 27.7819 169.743 27.8633 169.349 27.7275C168.833 25.9624 167.842 24.9711 166.375 24.9711C164.135 24.9711 162.709 26.9807 162.709 31.2986C162.709 35.4129 164.013 37.3682 166.28 37.3682C167.923 37.3682 169.118 36.3498 169.376 34.5031C169.43 34.1637 169.458 33.7971 169.485 33.3626H167.584C166.443 33.3626 165.819 33.0502 165.819 31.9097V31.706C165.819 30.5383 166.389 30.2531 167.638 30.2531H171.617C172.757 30.2803 172.988 30.932 172.988 32.1812Z"/>
<path d="M176.383 38.5079V23.6668C176.383 22.4176 176.98 21.793 178.08 21.793H178.596C179.737 21.793 180.321 22.4176 180.321 23.6668V29.3425H185.738V23.6668C185.738 22.4176 186.336 21.793 187.408 21.793H187.952C189.065 21.793 189.676 22.4176 189.676 23.6668V38.5079C189.676 39.73 189.051 40.3817 187.952 40.3817H187.408C186.336 40.3817 185.738 39.73 185.738 38.5079V32.7779H180.321V38.5079C180.321 39.73 179.723 40.3817 178.596 40.3817H178.053C176.98 40.3817 176.383 39.73 176.383 38.5079Z"/>
<path d="M196.736 25.5957H193.98C192.785 25.5957 192.16 24.971 192.16 23.8305V23.5996C192.16 22.4591 192.785 21.9023 193.98 21.9023H203.403C204.625 21.9023 205.223 22.4726 205.223 23.5996V23.8305C205.223 24.971 204.625 25.5957 203.403 25.5957H200.701V38.5087C200.701 39.7307 200.076 40.3825 198.909 40.3825H198.338C197.266 40.3825 196.722 39.7307 196.722 38.5087L196.736 25.5957Z"/>
<path d="M218.924 21.6172C221.001 21.6172 222.563 22.2689 223.486 23.1787C224.192 23.8848 224.627 24.7945 224.627 25.65C224.627 28.0397 221.925 28.1212 221.68 27.9719C221.232 26.1524 220.255 25.0797 218.788 25.0797C216.806 25.0797 215.557 26.8992 215.557 31.122C215.557 35.3177 216.806 37.0829 218.815 37.0829C220.486 37.0829 221.259 35.8066 221.653 33.9599C221.708 33.7834 224.668 33.6476 224.668 36.2003C224.668 37.1101 224.247 38.1013 223.5 38.8345C222.536 39.8529 220.92 40.5318 218.843 40.5318C214.185 40.5318 211.293 36.8928 211.293 31.1899C211.293 25.4191 214.212 21.6172 218.924 21.6172Z"/>
<path d="M226.215 39.1866L230.777 22.9605C230.981 22.2273 231.714 21.7656 233.642 21.7656C235.57 21.7656 236.249 22.2137 236.453 22.9605L241.192 39.1595C241.273 39.4718 240.431 40.4359 238.979 40.4359C237.756 40.463 237.254 39.6076 236.996 38.5349L236.127 35.5748H231.185L230.302 38.5892C229.99 39.947 229.284 40.463 228.347 40.4359C226.907 40.4359 226.106 39.4175 226.215 39.1866ZM235.502 32.574L233.601 25.1331L231.701 32.574H235.502Z"/>
<path d="M243.555 38.2778V24.1699C243.555 22.717 244.261 21.9023 245.591 21.9023H250.072C254.024 21.9023 256.006 23.8848 256.006 27.6052C256.006 30.1851 254.933 31.896 252.774 32.6021C252.598 32.6564 252.286 32.7379 252.068 32.8058L256.359 39.0518C256.468 39.2283 255.68 40.3825 254.037 40.3825C252.897 40.3825 252.272 39.7307 251.824 38.8753L248.361 33.3082H247.452V38.5358C247.452 39.7036 246.881 40.3825 245.754 40.3825H245.238C244.152 40.3825 243.555 39.69 243.555 38.2778ZM249.488 30.9863C251.335 30.9863 252.095 29.9407 252.095 27.9719C252.095 25.9351 251.267 24.9982 249.434 24.9982H247.425V30.9863H249.488Z"/>
<path d="M259.307 24.1971C259.307 22.717 260.189 21.9023 261.384 21.9023H265.213C270.034 21.9023 272.994 25.3648 272.994 31.0134C272.994 36.7163 269.735 40.2603 264.874 40.2603H261.52C260.271 40.2603 259.307 39.2419 259.307 38.0198V24.1971ZM268.852 31.0406C268.852 26.8177 267.372 25.134 264.969 25.134H263.244V37.0286H264.915C267.318 37.0286 268.852 35.3585 268.852 31.0406Z"/>
<path d="M277.092 38.3582C277.092 39.5802 276.128 40.5443 274.879 40.5443C273.644 40.5443 272.652 39.5802 272.652 38.3582C272.652 37.1633 273.644 36.1992 274.879 36.1992C276.128 36.1992 277.092 37.1633 277.092 38.3582ZM273.209 38.3582C273.209 39.3222 273.915 40.0826 274.893 40.0826C275.843 40.0826 276.536 39.3222 276.536 38.3718C276.536 37.4077 275.843 36.6337 274.879 36.6337C273.915 36.6337 273.209 37.4077 273.209 38.3582ZM274.54 39.4988H274.037V37.3398C274.241 37.2991 274.513 37.2719 274.866 37.2719C275.273 37.2719 275.463 37.3398 275.612 37.4348C275.735 37.5299 275.83 37.6928 275.83 37.9101C275.83 38.1409 275.64 38.331 275.382 38.4125V38.4396C275.599 38.5211 275.707 38.6705 275.775 38.9692C275.843 39.2951 275.884 39.4309 275.938 39.5123H275.395C275.327 39.4309 275.287 39.2408 275.219 38.9828C275.178 38.7519 275.042 38.6433 274.771 38.6433H274.54V39.4988ZM274.553 38.2631H274.784C275.056 38.2631 275.287 38.1681 275.287 37.9508C275.287 37.7471 275.137 37.6249 274.825 37.6249C274.689 37.6249 274.608 37.6385 274.553 37.6521V38.2631Z"/>
</svg>

