<?xml version="1.0" encoding="UTF-8"?>
<svg version="1.1" xmlns="http://www.w3.org/2000/svg" width="526" height="682">
<path d="M0 0 C173.58 0 347.16 0 526 0 C526 225.06 526 450.12 526 682 C352.42 682 178.84 682 0 682 C0 456.94 0 231.88 0 0 Z " fill="#F0F0F0" transform="translate(0,0)"/>
<path d="M0 0 C1.32 0 2.64 0 4 0 C4 13.86 4 27.72 4 42 C18.19 42 32.38 42 47 42 C47 28.14 47 14.28 47 0 C61.19 0 75.38 0 90 0 C90 13.86 90 27.72 90 42 C104.19 42 118.38 42 133 42 C133 28.14 133 14.28 133 0 C147.19 0 161.38 0 176 0 C176 13.86 176 27.72 176 42 C190.19 42 204.38 42 219 42 C219 28.14 219 14.28 219 0 C233.19 0 247.38 0 262 0 C262 13.86 262 27.72 262 42 C276.19 42 290.38 42 305 42 C305 28.14 305 14.28 305 0 C319.19 0 333.38 0 348 0 C348 13.86 348 27.72 348 42 C362.19 42 376.38 42 391 42 C391 28.14 391 14.28 391 0 C405.19 0 419.38 0 434 0 C434 13.86 434 27.72 434 42 C448.19 42 462.38 42 477 42 C477 28.14 477 14.28 477 0 C491.19 0 505.38 0 520 0 C520 13.86 520 27.72 520 42 C521.98 42 523.96 42 526 42 C526 56.19 526 70.38 526 85 C524.02 85 522.04 85 520 85 C520 71.14 520 57.28 520 43 C505.81 43 491.62 43 477 43 C477 56.86 477 70.72 477 85 C462.81 85 448.62 85 434 85 C434 71.14 434 57.28 434 43 C419.81 43 405.62 43 391 43 C391 56.86 391 70.72 391 85 C376.81 85 362.62 85 348 85 C348 71.14 348 57.28 348 43 C333.81 43 319.62 43 305 43 C305 56.86 305 70.72 305 85 C290.81 85 276.62 85 262 85 C262 71.14 262 57.28 262 43 C247.81 43 233.62 43 219 43 C219 56.86 219 70.72 219 85 C204.81 85 190.62 85 176 85 C176 71.14 176 57.28 176 43 C161.81 43 147.62 43 133 43 C133 56.86 133 70.72 133 85 C118.81 85 104.62 85 90 85 C90 71.14 90 57.28 90 43 C75.81 43 61.62 43 47 43 C47 56.86 47 70.72 47 85 C32.81 85 18.62 85 4 85 C4 71.14 4 57.28 4 43 C2.68 43 1.36 43 0 43 C0 28.81 0 14.62 0 0 Z " fill="#EBEBEB" transform="translate(0,514)"/>
<path d="M0 0 C1.32 0 2.64 0 4 0 C4 13.86 4 27.72 4 42 C18.19 42 32.38 42 47 42 C47 28.14 47 14.28 47 0 C61.19 0 75.38 0 90 0 C90 13.86 90 27.72 90 42 C104.19 42 118.38 42 133 42 C133 28.14 133 14.28 133 0 C147.19 0 161.38 0 176 0 C176 13.86 176 27.72 176 42 C190.19 42 204.38 42 219 42 C219 28.14 219 14.28 219 0 C233.19 0 247.38 0 262 0 C262 13.86 262 27.72 262 42 C276.19 42 290.38 42 305 42 C305 28.14 305 14.28 305 0 C319.19 0 333.38 0 348 0 C348 13.86 348 27.72 348 42 C362.19 42 376.38 42 391 42 C391 28.14 391 14.28 391 0 C405.19 0 419.38 0 434 0 C434 13.86 434 27.72 434 42 C448.19 42 462.38 42 477 42 C477 28.14 477 14.28 477 0 C491.19 0 505.38 0 520 0 C520 13.86 520 27.72 520 42 C521.98 42 523.96 42 526 42 C526 56.19 526 70.38 526 85 C524.02 85 522.04 85 520 85 C520 71.14 520 57.28 520 43 C505.81 43 491.62 43 477 43 C477 56.86 477 70.72 477 85 C462.81 85 448.62 85 434 85 C434 71.14 434 57.28 434 43 C419.81 43 405.62 43 391 43 C391 56.86 391 70.72 391 85 C376.81 85 362.62 85 348 85 C348 71.14 348 57.28 348 43 C333.81 43 319.62 43 305 43 C305 56.86 305 70.72 305 85 C290.81 85 276.62 85 262 85 C262 71.14 262 57.28 262 43 C247.81 43 233.62 43 219 43 C219 56.86 219 70.72 219 85 C204.81 85 190.62 85 176 85 C176 71.14 176 57.28 176 43 C161.81 43 147.62 43 133 43 C133 56.86 133 70.72 133 85 C118.81 85 104.62 85 90 85 C90 71.14 90 57.28 90 43 C75.81 43 61.62 43 47 43 C47 56.86 47 70.72 47 85 C32.81 85 18.62 85 4 85 C4 71.14 4 57.28 4 43 C2.68 43 1.36 43 0 43 C0 28.81 0 14.62 0 0 Z " fill="#F9F9F9" transform="translate(0,471)"/>
<path d="M0 0 C1.32 0 2.64 0 4 0 C4 13.86 4 27.72 4 42 C18.19 42 32.38 42 47 42 C47 28.14 47 14.28 47 0 C61.19 0 75.38 0 90 0 C90 13.86 90 27.72 90 42 C104.19 42 118.38 42 133 42 C133 28.14 133 14.28 133 0 C147.19 0 161.38 0 176 0 C176 13.86 176 27.72 176 42 C190.19 42 204.38 42 219 42 C219 28.14 219 14.28 219 0 C233.19 0 247.38 0 262 0 C262 13.86 262 27.72 262 42 C276.19 42 290.38 42 305 42 C305 28.14 305 14.28 305 0 C319.19 0 333.38 0 348 0 C348 13.86 348 27.72 348 42 C362.19 42 376.38 42 391 42 C391 28.14 391 14.28 391 0 C405.19 0 419.38 0 434 0 C434 13.86 434 27.72 434 42 C448.19 42 462.38 42 477 42 C477 28.14 477 14.28 477 0 C491.19 0 505.38 0 520 0 C520 13.86 520 27.72 520 42 C521.98 42 523.96 42 526 42 C526 56.19 526 70.38 526 85 C524.02 85 522.04 85 520 85 C520 71.14 520 57.28 520 43 C505.81 43 491.62 43 477 43 C477 56.86 477 70.72 477 85 C462.81 85 448.62 85 434 85 C434 71.14 434 57.28 434 43 C419.81 43 405.62 43 391 43 C391 56.86 391 70.72 391 85 C376.81 85 362.62 85 348 85 C348 71.14 348 57.28 348 43 C333.81 43 319.62 43 305 43 C305 56.86 305 70.72 305 85 C290.81 85 276.62 85 262 85 C262 71.14 262 57.28 262 43 C247.81 43 233.62 43 219 43 C219 56.86 219 70.72 219 85 C204.81 85 190.62 85 176 85 C176 71.14 176 57.28 176 43 C161.81 43 147.62 43 133 43 C133 56.86 133 70.72 133 85 C118.81 85 104.62 85 90 85 C90 71.14 90 57.28 90 43 C75.81 43 61.62 43 47 43 C47 56.86 47 70.72 47 85 C32.81 85 18.62 85 4 85 C4 71.14 4 57.28 4 43 C2.68 43 1.36 43 0 43 C0 28.81 0 14.62 0 0 Z " fill="#EBEBEB" transform="translate(0,428)"/>
<path d="M0 0 C1.32 0 2.64 0 4 0 C4 13.86 4 27.72 4 42 C18.19 42 32.38 42 47 42 C47 28.14 47 14.28 47 0 C61.19 0 75.38 0 90 0 C90 13.86 90 27.72 90 42 C104.19 42 118.38 42 133 42 C133 28.14 133 14.28 133 0 C147.19 0 161.38 0 176 0 C176 13.86 176 27.72 176 42 C190.19 42 204.38 42 219 42 C219 28.14 219 14.28 219 0 C233.19 0 247.38 0 262 0 C262 13.86 262 27.72 262 42 C276.19 42 290.38 42 305 42 C305 28.14 305 14.28 305 0 C319.19 0 333.38 0 348 0 C348 13.86 348 27.72 348 42 C362.19 42 376.38 42 391 42 C391 28.14 391 14.28 391 0 C405.19 0 419.38 0 434 0 C434 13.86 434 27.72 434 42 C448.19 42 462.38 42 477 42 C477 28.14 477 14.28 477 0 C491.19 0 505.38 0 520 0 C520 13.86 520 27.72 520 42 C521.98 42 523.96 42 526 42 C526 56.19 526 70.38 526 85 C524.02 85 522.04 85 520 85 C520 71.14 520 57.28 520 43 C505.81 43 491.62 43 477 43 C477 56.86 477 70.72 477 85 C462.81 85 448.62 85 434 85 C434 71.14 434 57.28 434 43 C419.81 43 405.62 43 391 43 C391 56.86 391 70.72 391 85 C376.81 85 362.62 85 348 85 C348 71.14 348 57.28 348 43 C333.81 43 319.62 43 305 43 C305 56.86 305 70.72 305 85 C290.81 85 276.62 85 262 85 C262 71.14 262 57.28 262 43 C247.81 43 233.62 43 219 43 C219 56.86 219 70.72 219 85 C204.81 85 190.62 85 176 85 C176 71.14 176 57.28 176 43 C161.81 43 147.62 43 133 43 C133 56.86 133 70.72 133 85 C118.81 85 104.62 85 90 85 C90 71.14 90 57.28 90 43 C75.81 43 61.62 43 47 43 C47 56.86 47 70.72 47 85 C32.81 85 18.62 85 4 85 C4 71.14 4 57.28 4 43 C2.68 43 1.36 43 0 43 C0 28.81 0 14.62 0 0 Z " fill="#F9F9F9" transform="translate(0,385)"/>
<path d="M0 0 C1.32 0 2.64 0 4 0 C4 13.86 4 27.72 4 42 C18.19 42 32.38 42 47 42 C47 28.14 47 14.28 47 0 C61.19 0 75.38 0 90 0 C90 13.86 90 27.72 90 42 C104.19 42 118.38 42 133 42 C133 28.14 133 14.28 133 0 C147.19 0 161.38 0 176 0 C176 13.86 176 27.72 176 42 C190.19 42 204.38 42 219 42 C219 28.14 219 14.28 219 0 C233.19 0 247.38 0 262 0 C262 13.86 262 27.72 262 42 C276.19 42 290.38 42 305 42 C305 28.14 305 14.28 305 0 C319.19 0 333.38 0 348 0 C348 13.86 348 27.72 348 42 C362.19 42 376.38 42 391 42 C391 28.14 391 14.28 391 0 C405.19 0 419.38 0 434 0 C434 13.86 434 27.72 434 42 C448.19 42 462.38 42 477 42 C477 28.14 477 14.28 477 0 C491.19 0 505.38 0 520 0 C520 13.86 520 27.72 520 42 C521.98 42 523.96 42 526 42 C526 56.19 526 70.38 526 85 C524.02 85 522.04 85 520 85 C520 71.14 520 57.28 520 43 C505.81 43 491.62 43 477 43 C477 56.86 477 70.72 477 85 C462.81 85 448.62 85 434 85 C434 71.14 434 57.28 434 43 C419.81 43 405.62 43 391 43 C391 56.86 391 70.72 391 85 C376.81 85 362.62 85 348 85 C348 71.14 348 57.28 348 43 C333.81 43 319.62 43 305 43 C305 56.86 305 70.72 305 85 C290.81 85 276.62 85 262 85 C262 71.14 262 57.28 262 43 C247.81 43 233.62 43 219 43 C219 56.86 219 70.72 219 85 C204.81 85 190.62 85 176 85 C176 71.14 176 57.28 176 43 C161.81 43 147.62 43 133 43 C133 56.86 133 70.72 133 85 C118.81 85 104.62 85 90 85 C90 71.14 90 57.28 90 43 C75.81 43 61.62 43 47 43 C47 56.86 47 70.72 47 85 C32.81 85 18.62 85 4 85 C4 71.14 4 57.28 4 43 C2.68 43 1.36 43 0 43 C0 28.81 0 14.62 0 0 Z " fill="#EBEBEB" transform="translate(0,342)"/>
<path d="M0 0 C1.32 0 2.64 0 4 0 C4 13.86 4 27.72 4 42 C18.19 42 32.38 42 47 42 C47 28.14 47 14.28 47 0 C61.19 0 75.38 0 90 0 C90 13.86 90 27.72 90 42 C104.19 42 118.38 42 133 42 C133 28.14 133 14.28 133 0 C147.19 0 161.38 0 176 0 C176 13.86 176 27.72 176 42 C190.19 42 204.38 42 219 42 C219 28.14 219 14.28 219 0 C233.19 0 247.38 0 262 0 C262 13.86 262 27.72 262 42 C276.19 42 290.38 42 305 42 C305 28.14 305 14.28 305 0 C319.19 0 333.38 0 348 0 C348 13.86 348 27.72 348 42 C362.19 42 376.38 42 391 42 C391 28.14 391 14.28 391 0 C405.19 0 419.38 0 434 0 C434 13.86 434 27.72 434 42 C448.19 42 462.38 42 477 42 C477 28.14 477 14.28 477 0 C491.19 0 505.38 0 520 0 C520 13.86 520 27.72 520 42 C521.98 42 523.96 42 526 42 C526 56.19 526 70.38 526 85 C524.02 85 522.04 85 520 85 C520 71.14 520 57.28 520 43 C505.81 43 491.62 43 477 43 C477 56.86 477 70.72 477 85 C462.81 85 448.62 85 434 85 C434 71.14 434 57.28 434 43 C419.81 43 405.62 43 391 43 C391 56.86 391 70.72 391 85 C376.81 85 362.62 85 348 85 C348 71.14 348 57.28 348 43 C333.81 43 319.62 43 305 43 C305 56.86 305 70.72 305 85 C290.81 85 276.62 85 262 85 C262 71.14 262 57.28 262 43 C247.81 43 233.62 43 219 43 C219 56.86 219 70.72 219 85 C204.81 85 190.62 85 176 85 C176 71.14 176 57.28 176 43 C161.81 43 147.62 43 133 43 C133 56.86 133 70.72 133 85 C118.81 85 104.62 85 90 85 C90 71.14 90 57.28 90 43 C75.81 43 61.62 43 47 43 C47 56.86 47 70.72 47 85 C32.81 85 18.62 85 4 85 C4 71.14 4 57.28 4 43 C2.68 43 1.36 43 0 43 C0 28.81 0 14.62 0 0 Z " fill="#F9F9F9" transform="translate(0,299)"/>
<path d="M0 0 C1.32 0 2.64 0 4 0 C4 13.86 4 27.72 4 42 C18.19 42 32.38 42 47 42 C47 28.14 47 14.28 47 0 C61.19 0 75.38 0 90 0 C90 13.86 90 27.72 90 42 C104.19 42 118.38 42 133 42 C133 28.14 133 14.28 133 0 C147.19 0 161.38 0 176 0 C176 13.86 176 27.72 176 42 C190.19 42 204.38 42 219 42 C219 28.14 219 14.28 219 0 C233.19 0 247.38 0 262 0 C262 13.86 262 27.72 262 42 C276.19 42 290.38 42 305 42 C305 28.14 305 14.28 305 0 C319.19 0 333.38 0 348 0 C348 13.86 348 27.72 348 42 C362.19 42 376.38 42 391 42 C391 28.14 391 14.28 391 0 C405.19 0 419.38 0 434 0 C434 13.86 434 27.72 434 42 C448.19 42 462.38 42 477 42 C477 28.14 477 14.28 477 0 C491.19 0 505.38 0 520 0 C520 13.86 520 27.72 520 42 C521.98 42 523.96 42 526 42 C526 56.19 526 70.38 526 85 C524.02 85 522.04 85 520 85 C520 71.14 520 57.28 520 43 C505.81 43 491.62 43 477 43 C477 56.86 477 70.72 477 85 C462.81 85 448.62 85 434 85 C434 71.14 434 57.28 434 43 C419.81 43 405.62 43 391 43 C391 56.86 391 70.72 391 85 C376.81 85 362.62 85 348 85 C348 71.14 348 57.28 348 43 C333.81 43 319.62 43 305 43 C305 56.86 305 70.72 305 85 C290.81 85 276.62 85 262 85 C262 71.14 262 57.28 262 43 C247.81 43 233.62 43 219 43 C219 56.86 219 70.72 219 85 C204.81 85 190.62 85 176 85 C176 71.14 176 57.28 176 43 C161.81 43 147.62 43 133 43 C133 56.86 133 70.72 133 85 C118.81 85 104.62 85 90 85 C90 71.14 90 57.28 90 43 C75.81 43 61.62 43 47 43 C47 56.86 47 70.72 47 85 C32.81 85 18.62 85 4 85 C4 71.14 4 57.28 4 43 C2.68 43 1.36 43 0 43 C0 28.81 0 14.62 0 0 Z " fill="#EBEBEB" transform="translate(0,256)"/>
<path d="M0 0 C1.32 0 2.64 0 4 0 C4 13.86 4 27.72 4 42 C18.19 42 32.38 42 47 42 C47 28.14 47 14.28 47 0 C61.19 0 75.38 0 90 0 C90 13.86 90 27.72 90 42 C104.19 42 118.38 42 133 42 C133 28.14 133 14.28 133 0 C147.19 0 161.38 0 176 0 C176 13.86 176 27.72 176 42 C190.19 42 204.38 42 219 42 C219 28.14 219 14.28 219 0 C233.19 0 247.38 0 262 0 C262 13.86 262 27.72 262 42 C276.19 42 290.38 42 305 42 C305 28.14 305 14.28 305 0 C319.19 0 333.38 0 348 0 C348 13.86 348 27.72 348 42 C362.19 42 376.38 42 391 42 C391 28.14 391 14.28 391 0 C405.19 0 419.38 0 434 0 C434 13.86 434 27.72 434 42 C448.19 42 462.38 42 477 42 C477 28.14 477 14.28 477 0 C491.19 0 505.38 0 520 0 C520 13.86 520 27.72 520 42 C521.98 42 523.96 42 526 42 C526 56.19 526 70.38 526 85 C524.02 85 522.04 85 520 85 C520 71.14 520 57.28 520 43 C505.81 43 491.62 43 477 43 C477 56.86 477 70.72 477 85 C462.81 85 448.62 85 434 85 C434 71.14 434 57.28 434 43 C419.81 43 405.62 43 391 43 C391 56.86 391 70.72 391 85 C376.81 85 362.62 85 348 85 C348 71.14 348 57.28 348 43 C333.81 43 319.62 43 305 43 C305 56.86 305 70.72 305 85 C290.81 85 276.62 85 262 85 C262 71.14 262 57.28 262 43 C247.81 43 233.62 43 219 43 C219 56.86 219 70.72 219 85 C204.81 85 190.62 85 176 85 C176 71.14 176 57.28 176 43 C161.81 43 147.62 43 133 43 C133 56.86 133 70.72 133 85 C118.81 85 104.62 85 90 85 C90 71.14 90 57.28 90 43 C75.81 43 61.62 43 47 43 C47 56.86 47 70.72 47 85 C32.81 85 18.62 85 4 85 C4 71.14 4 57.28 4 43 C2.68 43 1.36 43 0 43 C0 28.81 0 14.62 0 0 Z " fill="#F9F9F9" transform="translate(0,213)"/>
<path d="M0 0 C1.32 0 2.64 0 4 0 C4 13.86 4 27.72 4 42 C18.19 42 32.38 42 47 42 C47 28.14 47 14.28 47 0 C61.19 0 75.38 0 90 0 C90 13.86 90 27.72 90 42 C104.19 42 118.38 42 133 42 C133 28.14 133 14.28 133 0 C147.19 0 161.38 0 176 0 C176 13.86 176 27.72 176 42 C190.19 42 204.38 42 219 42 C219 28.14 219 14.28 219 0 C233.19 0 247.38 0 262 0 C262 13.86 262 27.72 262 42 C276.19 42 290.38 42 305 42 C305 28.14 305 14.28 305 0 C319.19 0 333.38 0 348 0 C348 13.86 348 27.72 348 42 C362.19 42 376.38 42 391 42 C391 28.14 391 14.28 391 0 C405.19 0 419.38 0 434 0 C434 13.86 434 27.72 434 42 C448.19 42 462.38 42 477 42 C477 28.14 477 14.28 477 0 C491.19 0 505.38 0 520 0 C520 13.86 520 27.72 520 42 C521.98 42 523.96 42 526 42 C526 56.19 526 70.38 526 85 C524.02 85 522.04 85 520 85 C520 71.14 520 57.28 520 43 C505.81 43 491.62 43 477 43 C477 56.86 477 70.72 477 85 C462.81 85 448.62 85 434 85 C434 71.14 434 57.28 434 43 C419.81 43 405.62 43 391 43 C391 56.86 391 70.72 391 85 C376.81 85 362.62 85 348 85 C348 71.14 348 57.28 348 43 C333.81 43 319.62 43 305 43 C305 56.86 305 70.72 305 85 C290.81 85 276.62 85 262 85 C262 71.14 262 57.28 262 43 C247.81 43 233.62 43 219 43 C219 56.86 219 70.72 219 85 C204.81 85 190.62 85 176 85 C176 71.14 176 57.28 176 43 C161.81 43 147.62 43 133 43 C133 56.86 133 70.72 133 85 C118.81 85 104.62 85 90 85 C90 71.14 90 57.28 90 43 C75.81 43 61.62 43 47 43 C47 56.86 47 70.72 47 85 C32.81 85 18.62 85 4 85 C4 71.14 4 57.28 4 43 C2.68 43 1.36 43 0 43 C0 28.81 0 14.62 0 0 Z " fill="#EBEBEB" transform="translate(0,170)"/>
<path d="M0 0 C1.32 0 2.64 0 4 0 C4 13.86 4 27.72 4 42 C18.19 42 32.38 42 47 42 C47 28.14 47 14.28 47 0 C61.19 0 75.38 0 90 0 C90 13.86 90 27.72 90 42 C104.19 42 118.38 42 133 42 C133 28.14 133 14.28 133 0 C147.19 0 161.38 0 176 0 C176 13.86 176 27.72 176 42 C190.19 42 204.38 42 219 42 C219 28.14 219 14.28 219 0 C233.19 0 247.38 0 262 0 C262 13.86 262 27.72 262 42 C276.19 42 290.38 42 305 42 C305 28.14 305 14.28 305 0 C319.19 0 333.38 0 348 0 C348 13.86 348 27.72 348 42 C362.19 42 376.38 42 391 42 C391 28.14 391 14.28 391 0 C405.19 0 419.38 0 434 0 C434 13.86 434 27.72 434 42 C448.19 42 462.38 42 477 42 C477 28.14 477 14.28 477 0 C491.19 0 505.38 0 520 0 C520 13.86 520 27.72 520 42 C521.98 42 523.96 42 526 42 C526 56.19 526 70.38 526 85 C524.02 85 522.04 85 520 85 C520 71.14 520 57.28 520 43 C505.81 43 491.62 43 477 43 C477 56.86 477 70.72 477 85 C462.81 85 448.62 85 434 85 C434 71.14 434 57.28 434 43 C419.81 43 405.62 43 391 43 C391 56.86 391 70.72 391 85 C376.81 85 362.62 85 348 85 C348 71.14 348 57.28 348 43 C333.81 43 319.62 43 305 43 C305 56.86 305 70.72 305 85 C290.81 85 276.62 85 262 85 C262 71.14 262 57.28 262 43 C247.81 43 233.62 43 219 43 C219 56.86 219 70.72 219 85 C204.81 85 190.62 85 176 85 C176 71.14 176 57.28 176 43 C161.81 43 147.62 43 133 43 C133 56.86 133 70.72 133 85 C118.81 85 104.62 85 90 85 C90 71.14 90 57.28 90 43 C75.81 43 61.62 43 47 43 C47 56.86 47 70.72 47 85 C32.81 85 18.62 85 4 85 C4 71.14 4 57.28 4 43 C2.68 43 1.36 43 0 43 C0 28.81 0 14.62 0 0 Z " fill="#F9F9F9" transform="translate(0,127)"/>
<path d="M0 0 C1.32 0 2.64 0 4 0 C4 13.86 4 27.72 4 42 C18.19 42 32.38 42 47 42 C47 28.14 47 14.28 47 0 C61.19 0 75.38 0 90 0 C90 13.86 90 27.72 90 42 C104.19 42 118.38 42 133 42 C133 28.14 133 14.28 133 0 C147.19 0 161.38 0 176 0 C176 13.86 176 27.72 176 42 C190.19 42 204.38 42 219 42 C219 28.14 219 14.28 219 0 C233.19 0 247.38 0 262 0 C262 13.86 262 27.72 262 42 C276.19 42 290.38 42 305 42 C305 28.14 305 14.28 305 0 C319.19 0 333.38 0 348 0 C348 13.86 348 27.72 348 42 C362.19 42 376.38 42 391 42 C391 28.14 391 14.28 391 0 C405.19 0 419.38 0 434 0 C434 13.86 434 27.72 434 42 C448.19 42 462.38 42 477 42 C477 28.14 477 14.28 477 0 C491.19 0 505.38 0 520 0 C520 13.86 520 27.72 520 42 C521.98 42 523.96 42 526 42 C526 56.19 526 70.38 526 85 C524.02 85 522.04 85 520 85 C520 71.14 520 57.28 520 43 C505.81 43 491.62 43 477 43 C477 56.86 477 70.72 477 85 C462.81 85 448.62 85 434 85 C434 71.14 434 57.28 434 43 C419.81 43 405.62 43 391 43 C391 56.86 391 70.72 391 85 C376.81 85 362.62 85 348 85 C348 71.14 348 57.28 348 43 C333.81 43 319.62 43 305 43 C305 56.86 305 70.72 305 85 C290.81 85 276.62 85 262 85 C262 71.14 262 57.28 262 43 C247.81 43 233.62 43 219 43 C219 56.86 219 70.72 219 85 C204.81 85 190.62 85 176 85 C176 71.14 176 57.28 176 43 C161.81 43 147.62 43 133 43 C133 56.86 133 70.72 133 85 C118.81 85 104.62 85 90 85 C90 71.14 90 57.28 90 43 C75.81 43 61.62 43 47 43 C47 56.86 47 70.72 47 85 C32.81 85 18.62 85 4 85 C4 71.14 4 57.28 4 43 C2.68 43 1.36 43 0 43 C0 28.81 0 14.62 0 0 Z " fill="#EBEBEB" transform="translate(0,84)"/>
<path d="M0 0 C14.19 0 28.38 0 43 0 C43 13.86 43 27.72 43 42 C28.81 42 14.62 42 0 42 C0 28.14 0 14.28 0 0 Z " fill="#EBEBEB" transform="translate(477,600)"/>
<path d="M0 0 C14.19 0 28.38 0 43 0 C43 13.86 43 27.72 43 42 C28.81 42 14.62 42 0 42 C0 28.14 0 14.28 0 0 Z " fill="#FAFAFA" transform="translate(434,600)"/>
<path d="M0 0 C14.19 0 28.38 0 43 0 C43 13.86 43 27.72 43 42 C28.81 42 14.62 42 0 42 C0 28.14 0 14.28 0 0 Z " fill="#EBEBEB" transform="translate(391,600)"/>
<path d="M0 0 C14.19 0 28.38 0 43 0 C43 13.86 43 27.72 43 42 C28.81 42 14.62 42 0 42 C0 28.14 0 14.28 0 0 Z " fill="#FAFAFA" transform="translate(348,600)"/>
<path d="M0 0 C14.19 0 28.38 0 43 0 C43 13.86 43 27.72 43 42 C28.81 42 14.62 42 0 42 C0 28.14 0 14.28 0 0 Z " fill="#EBEBEB" transform="translate(305,600)"/>
<path d="M0 0 C14.19 0 28.38 0 43 0 C43 13.86 43 27.72 43 42 C28.81 42 14.62 42 0 42 C0 28.14 0 14.28 0 0 Z " fill="#FAFAFA" transform="translate(262,600)"/>
<path d="M0 0 C14.19 0 28.38 0 43 0 C43 13.86 43 27.72 43 42 C28.81 42 14.62 42 0 42 C0 28.14 0 14.28 0 0 Z " fill="#EBEBEB" transform="translate(219,600)"/>
<path d="M0 0 C14.19 0 28.38 0 43 0 C43 13.86 43 27.72 43 42 C28.81 42 14.62 42 0 42 C0 28.14 0 14.28 0 0 Z " fill="#FAFAFA" transform="translate(176,600)"/>
<path d="M0 0 C14.19 0 28.38 0 43 0 C43 13.86 43 27.72 43 42 C28.81 42 14.62 42 0 42 C0 28.14 0 14.28 0 0 Z " fill="#EBEBEB" transform="translate(133,600)"/>
<path d="M0 0 C14.19 0 28.38 0 43 0 C43 13.86 43 27.72 43 42 C28.81 42 14.62 42 0 42 C0 28.14 0 14.28 0 0 Z " fill="#FAFAFA" transform="translate(90,600)"/>
<path d="M0 0 C14.19 0 28.38 0 43 0 C43 13.86 43 27.72 43 42 C28.81 42 14.62 42 0 42 C0 28.14 0 14.28 0 0 Z " fill="#EBEBEB" transform="translate(47,600)"/>
<path d="M0 0 C14.19 0 28.38 0 43 0 C43 13.86 43 27.72 43 42 C28.81 42 14.62 42 0 42 C0 28.14 0 14.28 0 0 Z " fill="#FAFAFA" transform="translate(477,557)"/>
<path d="M0 0 C14.19 0 28.38 0 43 0 C43 13.86 43 27.72 43 42 C28.81 42 14.62 42 0 42 C0 28.14 0 14.28 0 0 Z " fill="#FAFAFA" transform="translate(391,557)"/>
<path d="M0 0 C14.19 0 28.38 0 43 0 C43 13.86 43 27.72 43 42 C28.81 42 14.62 42 0 42 C0 28.14 0 14.28 0 0 Z " fill="#FAFAFA" transform="translate(305,557)"/>
<path d="M0 0 C14.19 0 28.38 0 43 0 C43 13.86 43 27.72 43 42 C28.81 42 14.62 42 0 42 C0 28.14 0 14.28 0 0 Z " fill="#FAFAFA" transform="translate(219,557)"/>
<path d="M0 0 C14.19 0 28.38 0 43 0 C43 13.86 43 27.72 43 42 C28.81 42 14.62 42 0 42 C0 28.14 0 14.28 0 0 Z " fill="#FAFAFA" transform="translate(133,557)"/>
<path d="M0 0 C14.19 0 28.38 0 43 0 C43 13.86 43 27.72 43 42 C28.81 42 14.62 42 0 42 C0 28.14 0 14.28 0 0 Z " fill="#FAFAFA" transform="translate(47,557)"/>
<path d="M0 0 C14.19 0 28.38 0 43 0 C43 13.86 43 27.72 43 42 C28.81 42 14.62 42 0 42 C0 28.14 0 14.28 0 0 Z " fill="#FAFAFA" transform="translate(434,84)"/>
<path d="M0 0 C14.19 0 28.38 0 43 0 C43 13.86 43 27.72 43 42 C28.81 42 14.62 42 0 42 C0 28.14 0 14.28 0 0 Z " fill="#FAFAFA" transform="translate(348,84)"/>
<path d="M0 0 C14.19 0 28.38 0 43 0 C43 13.86 43 27.72 43 42 C28.81 42 14.62 42 0 42 C0 28.14 0 14.28 0 0 Z " fill="#FAFAFA" transform="translate(262,84)"/>
<path d="M0 0 C14.19 0 28.38 0 43 0 C43 13.86 43 27.72 43 42 C28.81 42 14.62 42 0 42 C0 28.14 0 14.28 0 0 Z " fill="#FAFAFA" transform="translate(176,84)"/>
<path d="M0 0 C14.19 0 28.38 0 43 0 C43 13.86 43 27.72 43 42 C28.81 42 14.62 42 0 42 C0 28.14 0 14.28 0 0 Z " fill="#FAFAFA" transform="translate(90,84)"/>
<path d="M0 0 C14.19 0 28.38 0 43 0 C43 13.86 43 27.72 43 42 C28.81 42 14.62 42 0 42 C0 28.14 0 14.28 0 0 Z " fill="#FAFAFA" transform="translate(4,84)"/>
<path d="M0 0 C14.19 0 28.38 0 43 0 C43 13.86 43 27.72 43 42 C28.81 42 14.62 42 0 42 C0 28.14 0 14.28 0 0 Z " fill="#FAFAFA" transform="translate(477,41)"/>
<path d="M0 0 C14.19 0 28.38 0 43 0 C43 13.86 43 27.72 43 42 C28.81 42 14.62 42 0 42 C0 28.14 0 14.28 0 0 Z " fill="#EBEBEB" transform="translate(434,41)"/>
<path d="M0 0 C14.19 0 28.38 0 43 0 C43 13.86 43 27.72 43 42 C28.81 42 14.62 42 0 42 C0 28.14 0 14.28 0 0 Z " fill="#FAFAFA" transform="translate(391,41)"/>
<path d="M0 0 C14.19 0 28.38 0 43 0 C43 13.86 43 27.72 43 42 C28.81 42 14.62 42 0 42 C0 28.14 0 14.28 0 0 Z " fill="#EBEBEB" transform="translate(348,41)"/>
<path d="M0 0 C14.19 0 28.38 0 43 0 C43 13.86 43 27.72 43 42 C28.81 42 14.62 42 0 42 C0 28.14 0 14.28 0 0 Z " fill="#FAFAFA" transform="translate(305,41)"/>
<path d="M0 0 C14.19 0 28.38 0 43 0 C43 13.86 43 27.72 43 42 C28.81 42 14.62 42 0 42 C0 28.14 0 14.28 0 0 Z " fill="#EBEBEB" transform="translate(262,41)"/>
<path d="M0 0 C14.19 0 28.38 0 43 0 C43 13.86 43 27.72 43 42 C28.81 42 14.62 42 0 42 C0 28.14 0 14.28 0 0 Z " fill="#FAFAFA" transform="translate(219,41)"/>
<path d="M0 0 C14.19 0 28.38 0 43 0 C43 13.86 43 27.72 43 42 C28.81 42 14.62 42 0 42 C0 28.14 0 14.28 0 0 Z " fill="#EBEBEB" transform="translate(176,41)"/>
<path d="M0 0 C14.19 0 28.38 0 43 0 C43 13.86 43 27.72 43 42 C28.81 42 14.62 42 0 42 C0 28.14 0 14.28 0 0 Z " fill="#FAFAFA" transform="translate(133,41)"/>
<path d="M0 0 C14.19 0 28.38 0 43 0 C43 13.86 43 27.72 43 42 C28.81 42 14.62 42 0 42 C0 28.14 0 14.28 0 0 Z " fill="#EBEBEB" transform="translate(90,41)"/>
<path d="M0 0 C14.19 0 28.38 0 43 0 C43 13.86 43 27.72 43 42 C28.81 42 14.62 42 0 42 C0 28.14 0 14.28 0 0 Z " fill="#FAFAFA" transform="translate(47,41)"/>
<path d="M0 0 C14.19 0 28.38 0 43 0 C43 13.86 43 27.72 43 42 C28.81 42 14.62 42 0 42 C0 28.14 0 14.28 0 0 Z " fill="#EBEBEB" transform="translate(4,41)"/>
<path d="M0 0 C15.51 0 31.02 0 47 0 C47 13.2 47 26.4 47 40 C32.81 40 18.62 40 4 40 C3.67 28.12 3.34 16.24 3 4 C2.01 4.66 1.02 5.32 0 6 C0 4.02 0 2.04 0 0 Z " fill="#FAFAFA" transform="translate(0,0)"/>
<path d="M0 0 C14.19 0 28.38 0 43 0 C43 13.2 43 26.4 43 40 C28.81 40 14.62 40 0 40 C0 26.8 0 13.6 0 0 Z " fill="#FAFAFA" transform="translate(434,0)"/>
<path d="M0 0 C14.19 0 28.38 0 43 0 C43 13.2 43 26.4 43 40 C28.81 40 14.62 40 0 40 C0 26.8 0 13.6 0 0 Z " fill="#EBEBEB" transform="translate(391,0)"/>
<path d="M0 0 C14.19 0 28.38 0 43 0 C43 13.2 43 26.4 43 40 C28.81 40 14.62 40 0 40 C0 26.8 0 13.6 0 0 Z " fill="#FAFAFA" transform="translate(348,0)"/>
<path d="M0 0 C14.19 0 28.38 0 43 0 C43 13.2 43 26.4 43 40 C28.81 40 14.62 40 0 40 C0 26.8 0 13.6 0 0 Z " fill="#EBEBEB" transform="translate(305,0)"/>
<path d="M0 0 C14.19 0 28.38 0 43 0 C43 13.2 43 26.4 43 40 C28.81 40 14.62 40 0 40 C0 26.8 0 13.6 0 0 Z " fill="#FAFAFA" transform="translate(262,0)"/>
<path d="M0 0 C14.19 0 28.38 0 43 0 C43 13.2 43 26.4 43 40 C28.81 40 14.62 40 0 40 C0 26.8 0 13.6 0 0 Z " fill="#EBEBEB" transform="translate(219,0)"/>
<path d="M0 0 C14.19 0 28.38 0 43 0 C43 13.2 43 26.4 43 40 C28.81 40 14.62 40 0 40 C0 26.8 0 13.6 0 0 Z " fill="#FAFAFA" transform="translate(176,0)"/>
<path d="M0 0 C14.19 0 28.38 0 43 0 C43 13.2 43 26.4 43 40 C28.81 40 14.62 40 0 40 C0 26.8 0 13.6 0 0 Z " fill="#FAFAFA" transform="translate(90,0)"/>
<path d="M0 0 C6.538125 -0.04125 13.07625 -0.0825 19.8125 -0.125 C21.87346924 -0.14320801 23.93443848 -0.16141602 26.05786133 -0.18017578 C27.69091532 -0.18601686 29.32397221 -0.19111333 30.95703125 -0.1953125 C31.80535522 -0.20554443 32.6536792 -0.21577637 33.52770996 -0.22631836 C34.33945679 -0.22656006 35.15120361 -0.22680176 35.98754883 -0.22705078 C36.6914827 -0.231492 37.39541656 -0.23593323 38.12068176 -0.24050903 C40 0 40 0 43 2 C43.26642348 4.90640324 43.34798967 7.60311231 43.29296875 10.5078125 C43.28994751 11.25281006 43.28692627 11.99780762 43.28381348 12.76538086 C43.26810071 15.55206121 43.22621664 18.33854431 43.1875 21.125 C43.125625 27.35375 43.06375 33.5825 43 40 C28.81 40 14.62 40 0 40 C0 26.8 0 13.6 0 0 Z " fill="#EBEBEB" transform="translate(477,0)"/>
<path d="M0 0 C14.19 0 28.38 0 43 0 C43.33 11.88 43.66 23.76 44 36 C45.65 34.68 47.3 33.36 49 32 C49 34.31 49 36.62 49 39 C32.83 39 16.66 39 0 39 C0 26.13 0 13.26 0 0 Z " fill="#FAFAFA" transform="translate(477,643)"/>
<path d="M0 0 C14.19 0 28.38 0 43 0 C43 12.87 43 25.74 43 39 C28.81 39 14.62 39 0 39 C0 26.13 0 13.26 0 0 Z " fill="#EBEBEB" transform="translate(434,643)"/>
<path d="M0 0 C14.19 0 28.38 0 43 0 C43 12.87 43 25.74 43 39 C28.81 39 14.62 39 0 39 C0 26.13 0 13.26 0 0 Z " fill="#FAFAFA" transform="translate(391,643)"/>
<path d="M0 0 C14.19 0 28.38 0 43 0 C43 12.87 43 25.74 43 39 C28.81 39 14.62 39 0 39 C0 26.13 0 13.26 0 0 Z " fill="#EBEBEB" transform="translate(348,643)"/>
<path d="M0 0 C14.19 0 28.38 0 43 0 C43 12.87 43 25.74 43 39 C28.81 39 14.62 39 0 39 C0 26.13 0 13.26 0 0 Z " fill="#FAFAFA" transform="translate(305,643)"/>
<path d="M0 0 C14.19 0 28.38 0 43 0 C43 12.87 43 25.74 43 39 C28.81 39 14.62 39 0 39 C0 26.13 0 13.26 0 0 Z " fill="#EBEBEB" transform="translate(262,643)"/>
<path d="M0 0 C14.19 0 28.38 0 43 0 C43 12.87 43 25.74 43 39 C28.81 39 14.62 39 0 39 C0 26.13 0 13.26 0 0 Z " fill="#FAFAFA" transform="translate(219,643)"/>
<path d="M0 0 C14.19 0 28.38 0 43 0 C43 12.87 43 25.74 43 39 C28.81 39 14.62 39 0 39 C0 26.13 0 13.26 0 0 Z " fill="#EBEBEB" transform="translate(176,643)"/>
<path d="M0 0 C14.19 0 28.38 0 43 0 C43 12.87 43 25.74 43 39 C28.81 39 14.62 39 0 39 C0 26.13 0 13.26 0 0 Z " fill="#FAFAFA" transform="translate(133,643)"/>
<path d="M0 0 C14.19 0 28.38 0 43 0 C43 12.87 43 25.74 43 39 C28.81 39 14.62 39 0 39 C0 26.13 0 13.26 0 0 Z " fill="#EBEBEB" transform="translate(90,643)"/>
<path d="M0 0 C14.19 0 28.38 0 43 0 C43 12.87 43 25.74 43 39 C28.81 39 14.62 39 0 39 C0 26.13 0 13.26 0 0 Z " fill="#FAFAFA" transform="translate(47,643)"/>
<path d="M0 0 C14.19 0 28.38 0 43 0 C43 12.87 43 25.74 43 39 C37.19754207 39.02292455 31.39524053 39.0428472 25.59277344 39.05493164 C23.61783313 39.0599681 21.64289657 39.06679751 19.66796875 39.07543945 C16.83332395 39.08753508 13.99872834 39.0932351 11.1640625 39.09765625 C10.27756012 39.10281754 9.39105774 39.10797882 8.47769165 39.11329651 C2.22774341 39.11387171 2.22774341 39.11387171 0 38 C0 25.46 0 12.92 0 0 Z " fill="#EBEBEB" transform="translate(4,643)"/>
<path d="M0 0 C1.98 0 3.96 0 6 0 C6 13.86 6 27.72 6 42 C4.02 42 2.04 42 0 42 C0 28.14 0 14.28 0 0 Z " fill="#FAFAFA" transform="translate(520,600)"/>
<path d="M0 0 C1.98 0 3.96 0 6 0 C6 13.86 6 27.72 6 42 C4.02 42 2.04 42 0 42 C0 28.14 0 14.28 0 0 Z " fill="#FAFAFA" transform="translate(520,514)"/>
<path d="M0 0 C1.98 0 3.96 0 6 0 C6 13.86 6 27.72 6 42 C4.02 42 2.04 42 0 42 C0 28.14 0 14.28 0 0 Z " fill="#FAFAFA" transform="translate(520,428)"/>
<path d="M0 0 C1.98 0 3.96 0 6 0 C6 13.86 6 27.72 6 42 C4.02 42 2.04 42 0 42 C0 28.14 0 14.28 0 0 Z " fill="#FAFAFA" transform="translate(520,342)"/>
<path d="M0 0 C1.98 0 3.96 0 6 0 C6 13.86 6 27.72 6 42 C4.02 42 2.04 42 0 42 C0 28.14 0 14.28 0 0 Z " fill="#FAFAFA" transform="translate(520,256)"/>
<path d="M0 0 C1.98 0 3.96 0 6 0 C6 13.86 6 27.72 6 42 C4.02 42 2.04 42 0 42 C0 28.14 0 14.28 0 0 Z " fill="#FAFAFA" transform="translate(520,170)"/>
<path d="M0 0 C1.98 0 3.96 0 6 0 C6 13.86 6 27.72 6 42 C4.02 42 2.04 42 0 42 C0 28.14 0 14.28 0 0 Z " fill="#FAFAFA" transform="translate(520,84)"/>
<path d="M0 0 C1.98 0 3.96 0 6 0 C6 13.86 6 27.72 6 42 C4.02 42 2.04 42 0 42 C0 28.14 0 14.28 0 0 Z " fill="#EBEBEB" transform="translate(520,41)"/>
<path d="M0 0 C2.97 0 5.94 0 9 0 C9 13.2 9 26.4 9 40 C7.02 40 5.04 40 3 40 C3 27.46 3 14.92 3 2 C2.01 1.67 1.02 1.34 0 1 C0 0.67 0 0.34 0 0 Z " fill="#FAFAFA" transform="translate(517,0)"/>
<path d="M0 0 C1.98 0 3.96 0 6 0 C6.14876435 4.46560056 6.25740399 8.92987491 6.32958984 13.3972168 C6.35969086 14.91537611 6.40058346 16.43336251 6.45263672 17.95092773 C6.52576394 20.13829199 6.55951745 22.3233517 6.5859375 24.51171875 C6.6173584 25.82615967 6.6487793 27.14060059 6.68115234 28.49487305 C6 32 6 32 0 37 C0 24.79 0 12.58 0 0 Z " fill="#EBEBEB" transform="translate(520,643)"/>
<path d="M0 0 C1.32 0 2.64 0 4 0 C4 13.86 4 27.72 4 42 C2.68 42 1.36 42 0 42 C0 28.14 0 14.28 0 0 Z " fill="#EBEBEB" transform="translate(0,600)"/>
<path d="M0 0 C1.32 0 2.64 0 4 0 C4 13.86 4 27.72 4 42 C2.68 42 1.36 42 0 42 C0 28.14 0 14.28 0 0 Z " fill="#FAFAFA" transform="translate(0,557)"/>
<path d="M0 0 C1.32 0 2.64 0 4 0 C4 13.86 4 27.72 4 42 C2.68 42 1.36 42 0 42 C0 28.14 0 14.28 0 0 Z " fill="#EBEBEB" transform="translate(0,514)"/>
<path d="M0 0 C1.32 0 2.64 0 4 0 C4 13.86 4 27.72 4 42 C2.68 42 1.36 42 0 42 C0 28.14 0 14.28 0 0 Z " fill="#FAFAFA" transform="translate(0,471)"/>
<path d="M0 0 C1.32 0 2.64 0 4 0 C4 13.86 4 27.72 4 42 C2.68 42 1.36 42 0 42 C0 28.14 0 14.28 0 0 Z " fill="#EBEBEB" transform="translate(0,428)"/>
<path d="M0 0 C1.32 0 2.64 0 4 0 C4 13.86 4 27.72 4 42 C2.68 42 1.36 42 0 42 C0 28.14 0 14.28 0 0 Z " fill="#FAFAFA" transform="translate(0,385)"/>
<path d="M0 0 C1.32 0 2.64 0 4 0 C4 13.86 4 27.72 4 42 C2.68 42 1.36 42 0 42 C0 28.14 0 14.28 0 0 Z " fill="#EBEBEB" transform="translate(0,342)"/>
<path d="M0 0 C1.32 0 2.64 0 4 0 C4 13.86 4 27.72 4 42 C2.68 42 1.36 42 0 42 C0 28.14 0 14.28 0 0 Z " fill="#FAFAFA" transform="translate(0,299)"/>
<path d="M0 0 C1.32 0 2.64 0 4 0 C4 13.86 4 27.72 4 42 C2.68 42 1.36 42 0 42 C0 28.14 0 14.28 0 0 Z " fill="#EBEBEB" transform="translate(0,256)"/>
<path d="M0 0 C1.32 0 2.64 0 4 0 C4 13.86 4 27.72 4 42 C2.68 42 1.36 42 0 42 C0 28.14 0 14.28 0 0 Z " fill="#FAFAFA" transform="translate(0,213)"/>
<path d="M0 0 C1.32 0 2.64 0 4 0 C4 13.86 4 27.72 4 42 C2.68 42 1.36 42 0 42 C0 28.14 0 14.28 0 0 Z " fill="#EBEBEB" transform="translate(0,170)"/>
<path d="M0 0 C1.32 0 2.64 0 4 0 C4 13.86 4 27.72 4 42 C2.68 42 1.36 42 0 42 C0 28.14 0 14.28 0 0 Z " fill="#FAFAFA" transform="translate(0,127)"/>
<path d="M0 0 C1.32 0 2.64 0 4 0 C4 13.86 4 27.72 4 42 C2.68 42 1.36 42 0 42 C0 28.14 0 14.28 0 0 Z " fill="#EBEBEB" transform="translate(0,84)"/>
<path d="M0 0 C1.32 0 2.64 0 4 0 C4 13.86 4 27.72 4 42 C2.68 42 1.36 42 0 42 C0 28.14 0 14.28 0 0 Z " fill="#FAFAFA" transform="translate(0,41)"/>
<path d="M0 0 C1.32 0 2.64 0 4 0 C4 12.54 4 25.08 4 38 C4.66 38.33 5.32 38.66 6 39 C4.02 39 2.04 39 0 39 C0 26.13 0 13.26 0 0 Z " fill="#FAFAFA" transform="translate(0,643)"/>
<path d="M0 0 C0 12.21 0 24.42 0 37 C-1.32 37 -2.64 37 -4 37 C-4.07415168 32.21284377 -4.12860204 27.42602173 -4.16479492 22.63842773 C-4.17988243 21.00978777 -4.20035506 19.38118844 -4.22631836 17.75268555 C-4.26270449 15.41184465 -4.2797262 13.07154081 -4.29296875 10.73046875 C-4.30845261 10.00224411 -4.32393646 9.27401947 -4.33988953 8.52372742 C-4.34157393 3.46530355 -4.34157393 3.46530355 -2.54418945 1.0168457 C-1 0 -1 0 0 0 Z " fill="#EBEBEB" transform="translate(4,3)"/>
</svg>
