<svg width="101" height="101" viewBox="0 0 101 101" fill="none" xmlns="http://www.w3.org/2000/svg">
<path d="M50.5 92.875C73.9721 92.875 93 73.8471 93 50.375C93 26.9029 73.9721 7.875 50.5 7.875C27.0279 7.875 8 26.9029 8 50.375C8 73.8471 27.0279 92.875 50.5 92.875Z" fill="#B3EDFF"/>
<path d="M62.8208 20.6216H38.4208C35.6475 20.6216 33.3994 22.8697 33.3994 25.6429V72.6089C33.3994 75.3821 35.6475 77.6302 38.4208 77.6302H62.8208C65.594 77.6302 67.8421 75.3821 67.8421 72.6089V25.6429C67.8421 22.8697 65.594 20.6216 62.8208 20.6216Z" fill="white" stroke="#020097" stroke-width="1.97267" stroke-linecap="round" stroke-linejoin="round"/>
<path d="M60.1215 20.6216L59.1048 23.4176C58.6782 24.5909 57.5628 25.3722 56.3142 25.3722H44.9255C43.6768 25.3722 42.5615 24.5909 42.1348 23.4176L41.1182 20.6216" fill="#020097"/>
<path d="M57.4045 76.6192C58.2498 75.5459 59.8045 75.3612 60.8778 76.2066L64.5365 79.0879L62.3018 71.6766L59.5518 62.5572C59.1572 61.2492 59.8978 59.8699 61.2058 59.4752C62.5138 59.0806 63.8932 59.8212 64.2878 61.1292L67.1438 70.6006C66.7492 69.2926 67.4898 67.9132 68.7978 67.5186C70.1058 67.1239 71.4852 67.8646 71.8798 69.1726L72.3558 70.7512C71.9612 69.4432 72.7018 68.0639 74.0098 67.6692C75.3179 67.2746 76.6972 68.0152 77.0918 69.3232L77.5679 70.9019C77.1732 69.5939 77.9138 68.2146 79.2218 67.8199C80.5298 67.4252 81.9092 68.1659 82.3038 69.4739L83.2558 72.6312L84.9045 78.0986C84.9345 78.1972 84.9598 78.2932 84.9872 78.3899C85.9938 81.4359 85.5032 84.9126 83.3698 87.6219C79.9898 91.9146 73.7692 92.6532 69.4765 89.2732L57.8192 80.0939C56.7458 79.2486 56.5612 77.6939 57.4065 76.6206L57.4045 76.6192Z" fill="white" stroke="#020097" stroke-width="1.96667" stroke-linecap="round" stroke-linejoin="round"/>
<rect x="38.3574" y="32.7915" width="23.2244" height="23.5551" rx="2.35294" fill="#FFFF27"/>
<path d="M46.6623 36.4673H42.6941C42.3303 36.4673 42.0327 36.7649 42.0327 37.1287V41.0969C42.0327 41.4607 42.3303 41.7583 42.6941 41.7583H46.6623C47.0261 41.7583 47.3237 41.4607 47.3237 41.0969V37.1287C47.3237 36.7649 47.0261 36.4673 46.6623 36.4673ZM42.6941 35.1445H46.6623C47.7577 35.1445 48.6465 36.0333 48.6465 37.1287V41.0969C48.6465 42.1923 47.7577 43.081 46.6623 43.081H42.6941C41.5987 43.081 40.71 42.1923 40.71 41.0969V37.1287C40.71 36.0333 41.5987 35.1445 42.6941 35.1445ZM46.6623 47.0493H42.6941C42.3303 47.0493 42.0327 47.3469 42.0327 47.7107V51.6789C42.0327 52.0427 42.3303 52.3403 42.6941 52.3403H46.6623C47.0261 52.3403 47.3237 52.0427 47.3237 51.6789V47.7107C47.3237 47.3469 47.0261 47.0493 46.6623 47.0493ZM42.6941 45.7265H46.6623C47.7577 45.7265 48.6465 46.6153 48.6465 47.7107V51.6789C48.6465 52.7743 47.7577 53.6631 46.6623 53.6631H42.6941C41.5987 53.6631 40.71 52.7743 40.71 51.6789V47.7107C40.71 46.6153 41.5987 45.7265 42.6941 45.7265ZM53.2761 36.4673C52.9123 36.4673 52.6147 36.7649 52.6147 37.1287V41.0969C52.6147 41.4607 52.9123 41.7583 53.2761 41.7583H57.2444C57.6081 41.7583 57.9057 41.4607 57.9057 41.0969V37.1287C57.9057 36.7649 57.6081 36.4673 57.2444 36.4673H53.2761ZM51.292 37.1287C51.292 36.0333 52.1807 35.1445 53.2761 35.1445H57.2444C58.3398 35.1445 59.2285 36.0333 59.2285 37.1287V41.0969C59.2285 42.1923 58.3398 43.081 57.2444 43.081H53.2761C52.1807 43.081 51.292 42.1923 51.292 41.0969V37.1287ZM51.292 46.3879C51.292 46.0242 51.5896 45.7265 51.9533 45.7265H54.5988C54.9626 45.7265 55.2602 46.0242 55.2602 46.3879V49.1988H57.9057V46.3879C57.9057 46.0242 58.2033 45.7265 58.5671 45.7265C58.9309 45.7265 59.2285 46.0242 59.2285 46.3879V49.8601C59.2285 50.2239 58.9309 50.5215 58.5671 50.5215H54.5988C54.2351 50.5215 53.9375 50.2239 53.9375 49.8601V47.0493H52.6147V53.3324C52.6147 53.6961 52.3171 53.9937 51.9533 53.9937C51.5896 53.9937 51.292 53.6961 51.292 53.3324V46.3879ZM44.3475 38.1207H45.0089C45.3727 38.1207 45.6703 38.4183 45.6703 38.7821V39.4435C45.6703 39.8072 45.3727 40.1048 45.0089 40.1048H44.3475C43.9838 40.1048 43.6862 39.8072 43.6862 39.4435V38.7821C43.6862 38.4183 43.9838 38.1207 44.3475 38.1207ZM43.6862 49.3641C43.6862 49.0004 43.9838 48.7027 44.3475 48.7027H45.0089C45.3727 48.7027 45.6703 49.0004 45.6703 49.3641V50.0255C45.6703 50.3892 45.3727 50.6869 45.0089 50.6869H44.3475C43.9838 50.6869 43.6862 50.3892 43.6862 50.0255V49.3641ZM54.9295 38.1207H55.5909C55.9547 38.1207 56.2523 38.4183 56.2523 38.7821V39.4435C56.2523 39.8072 55.9547 40.1048 55.5909 40.1048H54.9295C54.5658 40.1048 54.2682 39.8072 54.2682 39.4435V38.7821C54.2682 38.4183 54.5658 38.1207 54.9295 38.1207ZM53.9375 52.3403C53.9375 51.9765 54.2351 51.6789 54.5988 51.6789H55.2602C55.624 51.6789 55.9216 51.9765 55.9216 52.3403V53.0017C55.9216 53.3654 55.624 53.6631 55.2602 53.6631H54.5988C54.2351 53.6631 53.9375 53.3654 53.9375 53.0017V52.3403ZM57.9057 51.6789H58.5671C58.9309 51.6789 59.2285 51.9765 59.2285 52.3403V53.0017C59.2285 53.3654 58.9309 53.6631 58.5671 53.6631H57.9057C57.542 53.6631 57.2444 53.3654 57.2444 53.0017V52.3403C57.2444 51.9765 57.542 51.6789 57.9057 51.6789Z" fill="#001B80"/>
</svg>
