<svg xmlns="http://www.w3.org/2000/svg" width="101" height="101" fill="none"><path fill="#B3EDFF" d="M50.5 88.258c21.06 0 38.133-17.072 38.133-38.133 0-21.06-17.073-38.133-38.133-38.133-21.06 0-38.134 17.073-38.134 38.133 0 21.06 17.073 38.133 38.133 38.133Z"/><path fill="#fff" stroke="#009" stroke-linecap="round" stroke-linejoin="round" stroke-miterlimit="10" stroke-width="1.728" d="M68.98 57.458H31.493a5.153 5.153 0 0 1-5.153-5.153v-21.96a5.153 5.153 0 0 1 5.153-5.153H68.98a5.153 5.153 0 0 1 5.153 5.153v21.953a5.154 5.154 0 0 1-5.153 5.16Z"/><path fill="#25CBFD" d="M68.98 25.192H50.814a19.093 19.093 0 0 0-.454 4.126c0 10.52 8.527 19.047 19.047 19.047 1.633 0 3.22-.207 4.733-.593V30.345a5.162 5.162 0 0 0-5.16-5.153Z"/><path stroke="#009" stroke-linecap="round" stroke-linejoin="round" stroke-miterlimit="10" stroke-width="1.728" d="M33.927 50.785h10.606M33.927 44.831h10.606M68.98 57.458H31.493a5.153 5.153 0 0 1-5.153-5.153v-21.96a5.153 5.153 0 0 1 5.153-5.153H68.98a5.153 5.153 0 0 1 5.153 5.153v21.953a5.154 5.154 0 0 1-5.153 5.16Z"/><path fill="#009" d="M44.312 84.592a10.062 10.062 0 0 1-1.827-.314c-.02-.006-.033-.013-.053-.013l-21.434-7.127a.965.965 0 1 1 .607-1.833l21.406 7.113c.954.254 1.94.334 2.927.227 4.82-.52 16.334-1.747 19.14-1.92a3.37 3.37 0 0 0 1.167-.287l13.513-7.213.08-.04c.767-.32 1.154-1.193.874-1.933a1.474 1.474 0 0 0-.814-.847c-.38-.16-.793-.16-1.173 0l-13.24 5.693c-.013.007-.027.007-.034.014-.34.133-.686.146-.82.146a2.634 2.634 0 0 1-.58-.033l-14.46-2.553a2.664 2.664 0 0 1-2.14-3.1 2.66 2.66 0 0 1 3.094-2.134l4.98.914 4.507.813a1.976 1.976 0 0 0 1.513-.347c.44-.32.727-.786.8-1.326.153-1.047-.607-2.054-1.68-2.247l-12.147-2.187c-.22-.04-.453-.04-.68 0a.812.812 0 0 1-.127.014c-1.906.066-8 3.106-11.273 4.74-1.04.52-1.933.966-2.56 1.253a.958.958 0 0 1-.8.007l-11.233-4.98a.968.968 0 0 1-.493-1.274.968.968 0 0 1 1.273-.493l10.827 4.8c.566-.273 1.3-.633 2.12-1.047 5.08-2.533 9.826-4.813 12-4.933.433-.067.86-.06 1.286.013l12.147 2.187c2.087.373 3.547 2.36 3.246 4.42a3.88 3.88 0 0 1-1.586 2.62 3.899 3.899 0 0 1-2.987.68l-4.506-.813-4.98-.914a.738.738 0 0 0-.854.587.738.738 0 0 0 .587.853l14.46 2.554c.053.013.14.006.173.006h.047a.88.88 0 0 0 .14-.02l13.22-5.686a3.42 3.42 0 0 1 2.686 0 3.42 3.42 0 0 1 1.86 1.933c.647 1.687-.2 3.64-1.88 4.38l-13.506 7.207c-.013.006-.034.02-.047.026a5.245 5.245 0 0 1-1.886.474c-2.767.166-14.24 1.393-19.047 1.906a9.373 9.373 0 0 1-1.834.034Z"/><path fill="#009" d="M66.013 71.092a.963.963 0 0 1-.82-.607.971.971 0 0 1 .54-1.253l6.706-2.647a2.948 2.948 0 0 1 3.414.953.967.967 0 0 1-1.54 1.167 1.007 1.007 0 0 0-1.167-.327l-6.707 2.647c-.14.053-.286.073-.426.067ZM62.853 67.512a.965.965 0 0 1-.28-1.86l3.946-1.54a2.932 2.932 0 0 1 3.407.96.967.967 0 0 1-1.54 1.166 1.004 1.004 0 0 0-1.167-.326l-3.946 1.54a.907.907 0 0 1-.42.06Z"/><path fill="#FF0" stroke="#009" stroke-linecap="round" stroke-linejoin="round" stroke-miterlimit="10" stroke-width="1.967" d="m26.546 6.485 5.093 10.733 11.407 1.72-8.253 8.354 1.946 11.8-10.193-5.574-10.2 5.574 1.947-11.8-8.247-8.354 11.4-1.72 5.1-10.733Z"/></svg>
