<svg width="32" height="32" viewBox="0 0 32 32" fill="none" xmlns="http://www.w3.org/2000/svg">
<g id="Frame 1000006529">
<path id="Vector" d="M27.2 0H4.8C2.14903 0 0 2.14903 0 4.8V27.2C0 29.851 2.14903 32 4.8 32H27.2C29.851 32 32 29.851 32 27.2V4.8C32 2.14903 29.851 0 27.2 0Z" fill="url(#paint0_linear_11449_36341)"/>
<path id="Vector_2" d="M10.0096 25.0179C9.7969 24.8599 9.66624 24.6473 9.61764 24.3799C9.5751 24.1186 9.61464 23.8087 9.73617 23.4502L11.6138 17.8812L6.82857 14.445C6.5187 14.2262 6.30297 13.9983 6.18144 13.7614C6.0599 13.5183 6.0417 13.2692 6.12677 13.014C6.21184 12.7649 6.37284 12.5795 6.60984 12.458C6.84684 12.3365 7.1567 12.2757 7.5395 12.2757H13.4002L15.1866 6.71579C15.3021 6.35119 15.454 6.07473 15.6424 5.88639C15.8368 5.69193 16.0647 5.59473 16.326 5.59473C16.5934 5.59473 16.8212 5.69193 17.0096 5.88639C17.204 6.07473 17.359 6.35119 17.4744 6.71579L19.2609 12.2757H25.1216C25.5044 12.2757 25.8142 12.3365 26.0512 12.458C26.2882 12.5795 26.4492 12.7649 26.5343 13.014C26.6194 13.2692 26.6012 13.5183 26.4796 13.7614C26.3581 13.9983 26.1424 14.2262 25.8325 14.445L21.0474 17.8812L22.925 23.4502C23.0464 23.8087 23.0829 24.1186 23.0343 24.3799C22.9918 24.6473 22.8642 24.8599 22.6515 25.0179C22.4388 25.1881 22.1988 25.2488 21.9314 25.2002C21.6641 25.1516 21.3785 25.0179 21.0747 24.7991L16.326 21.3083L11.5864 24.7991C11.2826 25.0179 10.997 25.1516 10.7296 25.2002C10.4622 25.2488 10.2222 25.1881 10.0096 25.0179Z" fill="white"/>
</g>
<defs>
<linearGradient id="paint0_linear_11449_36341" x1="12.4644" y1="32" x2="12.4644" y2="0" gradientUnits="userSpaceOnUse">
<stop stop-color="#001B80"/>
<stop offset="1" stop-color="#325CFF"/>
</linearGradient>
</defs>
</svg>
