<svg width="20" height="20" viewBox="0 0 20 20" fill="none" xmlns="http://www.w3.org/2000/svg">
<path d="M15.3727 6.9493C15.8289 7.67138 15.38 8.57397 14.6604 8.67155C14.5969 8.67887 14.5335 8.68375 14.4677 8.68375C14.0651 8.68375 13.7065 8.50811 13.4553 8.23245C13.3065 8.06901 13.0967 7.97631 12.8771 7.97631C12.6576 7.97631 12.4478 8.06901 12.299 8.23245C12.0502 8.50567 11.694 8.68131 11.289 8.68131C10.8865 8.68131 10.5255 8.50567 10.2791 8.23245C10.1303 8.06901 9.92051 7.97631 9.70096 7.97631C9.48141 7.97631 9.26918 8.06901 9.12281 8.23245C8.86911 8.50811 8.51051 8.68375 8.10556 8.68375C7.70305 8.68375 7.34201 8.50811 7.09562 8.23489C6.94682 8.07145 6.73703 7.97875 6.51747 7.97875C6.29792 7.97875 6.08569 8.07145 5.93932 8.23489C5.68806 8.50811 5.3319 8.68375 4.92695 8.68375C4.86352 8.68375 4.8001 8.67887 4.73423 8.67155C4.01947 8.57397 3.57061 7.67138 4.02435 6.9493L5.39533 4.78062H14.0017L15.3727 6.9493ZM14.4652 9.46437C14.5652 9.46437 14.6628 9.45706 14.7604 9.44486C16.1143 9.26434 16.7559 7.67626 16.0313 6.53215L14.6335 4.31957C14.5091 4.12197 14.2871 4 14.0505 4H5.34654C5.10991 4 4.88792 4.12197 4.76351 4.31957L3.36326 6.53215C2.64118 7.67382 3.28032 9.2619 4.62934 9.44486C4.72692 9.45706 4.82693 9.46437 4.92451 9.46437C5.40264 9.46437 5.83931 9.30825 6.19303 9.04967C6.31012 8.96429 6.41746 8.86427 6.51503 8.75937C6.61261 8.86671 6.71995 8.96429 6.83704 9.04967C7.19076 9.30825 7.62743 9.46437 8.10556 9.46437C8.58369 9.46437 9.02035 9.30825 9.37407 9.04967C9.49117 8.96429 9.5985 8.86427 9.69608 8.75693C9.79366 8.86427 9.901 8.96185 10.0181 9.04723C10.3718 9.30581 10.8085 9.46194 11.2866 9.46194C11.7696 9.46194 12.2087 9.30337 12.5624 9.03991C12.6771 8.95453 12.782 8.85939 12.8771 8.75449C12.9723 8.85939 13.0796 8.95697 13.1943 9.04235C13.548 9.30337 13.9871 9.46194 14.4677 9.46194L14.4652 9.46437ZM4.62446 10.245C4.40979 10.245 4.23415 10.4206 4.23415 10.6353V12.5869V12.9772V13.3675V14.9287C4.23415 15.7899 4.93427 16.49 5.7954 16.49H13.6016C14.4628 16.49 15.1629 15.7899 15.1629 14.9287V13.3675V12.9772V12.5869V10.6353C15.1629 10.4206 14.9873 10.245 14.7726 10.245C14.5579 10.245 14.3823 10.4206 14.3823 10.6353V12.5869H5.01477V10.6353C5.01477 10.4206 4.83913 10.245 4.62446 10.245ZM5.01477 13.3675H14.3823V14.9287C14.3823 15.3605 14.0334 15.7094 13.6016 15.7094H5.7954C5.36361 15.7094 5.01477 15.3605 5.01477 14.9287V13.3675Z" fill="#202125"/>
<path d="M0.801737 2.91416L0.801725 2.91415L0.799585 2.91677C0.518178 3.26047 0.586484 3.75902 0.934196 4.02394L0.934193 4.02395L0.935585 4.025L17.0845 16.2107L17.0852 16.2112C17.4256 16.4669 17.9195 16.4221 18.1978 16.0835C18.4816 15.7383 18.4153 15.2416 18.0663 14.9757L18.0649 14.9747L1.91334 2.78644L1.91334 2.78644L1.91208 2.78549C1.57069 2.53012 1.07682 2.58429 0.801737 2.91416Z" fill="#202125" stroke="white" stroke-width="0.75"/>
</svg>
