<svg width="20" height="20" viewBox="0 0 20 20" fill="none" xmlns="http://www.w3.org/2000/svg">
<path d="M8.77603 4.00117C9.13544 4.00117 9.4807 4.1455 9.7354 4.4002L14.6228 9.28478C15.3303 9.99228 15.3303 11.1384 14.6228 11.8459L10.8476 15.624C10.1401 16.3315 8.99394 16.3315 8.28644 15.624L3.39903 10.7394C3.14433 10.4847 3 10.1394 3 9.78003V5.35957C3 4.60962 3.60845 4.00117 4.3584 4.00117H8.77603ZM4.03861 10.097L8.92602 14.9844C9.27977 15.3382 9.85426 15.3382 10.208 14.9844L13.9832 11.2063C14.337 10.8526 14.337 10.2781 13.9832 9.92436L9.09582 5.03978C9.01092 4.95488 8.89489 4.90677 8.77603 4.90677H4.3584C4.10936 4.90677 3.9056 5.11053 3.9056 5.35957V9.7772C3.9056 9.89606 3.95371 10.0121 4.03861 10.097ZM11.7277 4.13984C11.9004 3.95872 12.1862 3.95306 12.3673 4.12569L16.3661 7.94619C17.8603 9.37251 17.8603 11.7582 16.3661 13.1845L12.8399 16.5522C12.6588 16.7249 12.373 16.7192 12.2003 16.5381C12.0277 16.357 12.0334 16.0711 12.2145 15.8985L15.7407 12.5308C16.8613 11.461 16.8613 9.67249 15.7407 8.60275L11.7419 4.78225C11.5608 4.60962 11.5551 4.32379 11.7277 4.14267V4.13984ZM5.9432 6.26517C6.12334 6.26517 6.29609 6.33672 6.42347 6.4641C6.55084 6.59147 6.6224 6.76423 6.6224 6.94437C6.6224 7.1245 6.55084 7.29726 6.42347 7.42463C6.29609 7.55201 6.12334 7.62357 5.9432 7.62357C5.76307 7.62357 5.59031 7.55201 5.46293 7.42463C5.33556 7.29726 5.264 7.1245 5.264 6.94437C5.264 6.76423 5.33556 6.59147 5.46293 6.4641C5.59031 6.33672 5.76307 6.26517 5.9432 6.26517Z" fill="#202125"/>
<path d="M0.801737 2.91416L0.801725 2.91415L0.799585 2.91677C0.518178 3.26047 0.586484 3.75902 0.934196 4.02394L0.934193 4.02395L0.935585 4.025L17.0845 16.2107L17.0852 16.2112C17.4256 16.4669 17.9195 16.4221 18.1978 16.0835C18.4816 15.7383 18.4153 15.2416 18.0663 14.9757L18.0649 14.9747L1.91334 2.78644L1.91334 2.78644L1.91208 2.78549C1.57069 2.53012 1.07682 2.58429 0.801737 2.91416Z" fill="#202125" stroke="white" stroke-width="0.75"/>
</svg>
