<svg width="160" height="70" viewBox="0 0 160 70" fill="none" xmlns="http://www.w3.org/2000/svg">
<path d="M76.8929 13.4663V7.72331C76.8929 7.11236 77.1896 6.76324 77.7657 6.76324H79.7905C81.1695 6.76324 82.0074 7.44402 82.0074 8.71829C82.0074 9.59108 81.5885 10.1148 80.8728 10.3417C81.7979 10.6035 82.2343 11.3017 82.2343 12.2618C82.2343 13.7456 81.379 14.4263 79.5985 14.4263H77.7482C77.1896 14.4263 76.8929 14.0772 76.8929 13.4663ZM79.389 10.0624C80.0175 10.0624 80.3491 9.67836 80.3491 8.99758C80.3491 8.31681 80.0349 7.98515 79.424 7.98515H78.5337V10.0624H79.389ZM79.5112 13.2219C80.2269 13.2219 80.576 12.8902 80.576 12.0873C80.576 11.3541 80.2269 11.0225 79.4938 11.0225H78.5337V13.2219H79.5112ZM84.364 14.4263H87.122C87.6456 14.4263 87.89 14.1645 87.89 13.6757V13.571C87.89 13.0997 87.6456 12.8553 87.122 12.8553H85.1495V7.51384C85.1495 6.99016 84.9051 6.72833 84.4338 6.72833H84.1894C83.7355 6.72833 83.4912 6.99016 83.4912 7.51384V13.4837C83.5086 14.0947 83.8054 14.4263 84.364 14.4263ZM88.7279 7.51384L88.7104 11.4763C88.7104 13.5885 89.6531 14.5311 91.4161 14.5311C93.1791 14.5311 94.1567 13.5885 94.1567 11.4589V7.51384C94.1567 6.99016 93.9123 6.72833 93.441 6.72833H93.2141C92.7602 6.72833 92.4984 6.99016 92.4984 7.51384V11.6683C92.4984 12.5411 92.1667 12.995 91.451 12.995C90.7353 12.995 90.3688 12.5411 90.3688 11.6683V7.51384C90.3688 6.99016 90.1418 6.72833 89.6705 6.72833H89.4436C88.9897 6.72833 88.7279 6.99016 88.7279 7.51384ZM96.4958 14.4263H99.7774C100.301 14.4263 100.545 14.1994 100.545 13.7107V13.6234C100.545 13.2044 100.301 12.995 99.7774 12.995H97.2813V11.2319H98.9396C99.4807 11.2319 99.7076 11.0225 99.7076 10.5686V10.4464C99.7076 10.01 99.4982 9.83546 98.9396 9.83546H97.2813V8.19462H99.7425C100.249 8.19462 100.493 8.0026 100.493 7.53129V7.44402C100.493 7.00762 100.249 6.76324 99.7425 6.76324H96.4958C95.9546 6.76324 95.6404 7.11236 95.6404 7.72331V13.4837C95.6579 14.0947 95.9546 14.4263 96.4958 14.4263ZM104.543 14.4263H107.301C107.825 14.4263 108.069 14.1645 108.069 13.6757V13.571C108.069 13.0997 107.825 12.8553 107.301 12.8553H105.346V7.51384C105.346 6.99016 105.101 6.72833 104.63 6.72833H104.368C103.914 6.72833 103.67 6.99016 103.67 7.51384V13.4837C103.688 14.0947 103.967 14.4263 104.543 14.4263ZM109.221 13.6932C109.221 14.1994 109.483 14.4787 109.919 14.4787H110.164C110.618 14.4787 110.862 14.1994 110.862 13.6932V7.51384C110.862 6.99016 110.618 6.72833 110.164 6.72833H109.919C109.465 6.72833 109.221 6.99016 109.221 7.51384V13.6932ZM117.757 10.2544H116.099C115.575 10.2544 115.348 10.3766 115.348 10.8654V10.9526C115.348 11.4239 115.61 11.5636 116.081 11.5636H116.867C116.849 11.7381 116.849 11.8952 116.814 12.0349C116.71 12.8029 116.203 13.2219 115.523 13.2219C114.58 13.2219 114.039 12.4015 114.039 10.6908C114.039 8.89285 114.632 8.05497 115.575 8.05497C116.186 8.05497 116.605 8.47391 116.814 9.20705C116.971 9.25942 118.001 9.22451 118.001 8.29935C118.001 7.93278 117.809 7.54875 117.425 7.252C116.989 6.88543 116.343 6.67596 115.592 6.67596C113.498 6.67596 112.276 8.31681 112.276 10.6559C112.276 12.995 113.376 14.566 115.069 14.566C116.046 14.566 116.657 14.0074 116.919 13.2044C116.954 13.4314 116.971 13.6234 117.006 13.7979C117.163 14.3565 117.425 14.4787 117.757 14.4787C118.071 14.4787 118.316 14.3565 118.316 14.3216V11.0574C118.333 10.5337 118.246 10.2719 117.757 10.2544ZM120.445 14.4787H120.672C121.143 14.4787 121.388 14.1994 121.388 13.6932V11.3017H123.64V13.6932C123.64 14.1994 123.884 14.4787 124.338 14.4787H124.565C125.019 14.4787 125.28 14.1994 125.28 13.6932V7.51384C125.28 6.99016 125.019 6.72833 124.565 6.72833H124.338C123.884 6.72833 123.64 6.99016 123.64 7.51384V9.87037H121.388V7.51384C121.388 6.99016 121.143 6.72833 120.672 6.72833H120.463C120.009 6.72833 119.764 6.99016 119.764 7.51384V13.6932C119.747 14.1994 119.991 14.4787 120.445 14.4787ZM128.23 8.31681V13.6932C128.23 14.1994 128.457 14.4787 128.911 14.4787H129.156C129.644 14.4787 129.906 14.1994 129.906 13.6932V8.31681H131.041C131.547 8.31681 131.791 8.05497 131.791 7.58366V7.49638C131.791 7.02508 131.547 6.79815 131.041 6.79815H127.113C126.624 6.79815 126.363 7.02508 126.363 7.49638V7.58366C126.363 8.05497 126.624 8.31681 127.113 8.31681H128.23ZM134.288 10.6384C134.288 13.0124 135.492 14.5311 137.43 14.5311C138.302 14.5311 138.966 14.2518 139.367 13.8154C139.681 13.5012 139.856 13.0997 139.856 12.7157C139.856 11.6509 138.617 11.7032 138.599 11.7905C138.442 12.5586 138.11 13.0822 137.412 13.0822C136.574 13.0822 136.051 12.3491 136.051 10.6035C136.051 8.85794 136.574 8.08988 137.395 8.08988C138.006 8.08988 138.407 8.54373 138.599 9.29433C138.704 9.36415 139.821 9.32924 139.821 8.33426C139.821 7.98515 139.647 7.60112 139.35 7.30437C138.966 6.92034 138.32 6.6585 137.447 6.6585C135.509 6.6585 134.288 8.22953 134.288 10.6384ZM140.502 13.9725L142.405 7.21709C142.492 6.90288 142.789 6.72833 143.592 6.72833C144.395 6.72833 144.674 6.92034 144.761 7.21709L146.734 13.9725C146.768 14.1121 146.419 14.5136 145.808 14.5136C145.302 14.5311 145.093 14.1645 144.988 13.7281L144.621 12.4887H142.562L142.195 13.7456C142.055 14.3041 141.776 14.5311 141.375 14.5136C140.799 14.4962 140.467 14.0772 140.502 13.9725ZM144.377 11.2145L143.592 8.10734L142.806 11.2145H144.377ZM147.729 13.5885V7.72331C147.729 7.11236 148.025 6.78069 148.584 6.78069H150.452C152.093 6.78069 152.93 7.60112 152.93 9.15469C152.93 10.2369 152.477 10.9352 151.586 11.2319C151.516 11.2494 151.377 11.2843 151.29 11.3192L153.07 13.9201C153.122 13.9899 152.791 14.4787 152.11 14.4787C151.639 14.4787 151.377 14.1994 151.185 13.8503L149.736 11.5287H149.352V13.7107C149.352 14.1994 149.108 14.4787 148.654 14.4787H148.444C147.973 14.4787 147.729 14.182 147.729 13.5885ZM150.19 10.5511C150.958 10.5511 151.272 10.1148 151.272 9.29433C151.272 8.47391 150.923 8.05497 150.172 8.05497H149.334V10.5511H150.19ZM154.292 7.72331C154.292 7.11236 154.659 6.76324 155.165 6.76324H156.753C158.761 6.76324 160 8.21207 160 10.5511C160 12.8902 158.638 14.4089 156.614 14.4089H155.217C154.693 14.4089 154.292 13.9899 154.292 13.4837V7.72331ZM158.254 10.5861C158.254 8.82302 157.643 8.12479 156.631 8.12479H155.915V13.0822H156.614C157.626 13.0822 158.254 12.384 158.254 10.5861ZM76.6136 21.8101C76.6136 20.2391 77.3991 19.4362 78.9876 19.4362H87.3314C88.9025 19.4362 90.1418 19.4885 91.0146 19.6107C91.8874 19.7329 92.6555 19.9075 93.3188 20.1693C95.0644 20.8326 96.4608 21.9323 97.4733 23.4684C98.4857 25.0046 99.0094 26.8898 99.0094 29.1241C99.0094 29.962 98.9221 30.7824 98.7301 31.6029C98.5381 32.4233 98.2588 33.2088 97.8748 33.9768C97.4907 34.7449 97.002 35.4257 96.4259 36.0366C95.8499 36.6476 95.1691 37.1538 94.4011 37.5204V37.6077C94.4883 37.7298 94.5931 37.8695 94.6978 38.044C94.82 38.1837 94.9422 38.3757 95.0644 38.6201C95.1866 38.8645 95.3611 39.1438 95.5531 39.458L99.952 47.3829C100.441 48.2208 100.511 48.9016 100.196 49.4252C99.8647 49.9489 99.2363 50.2282 98.3286 50.2282H95.0644C93.825 50.2282 92.8998 49.6696 92.2714 48.5525L87.7155 39.8595H84.1894V47.8717C84.1894 49.4427 83.4039 50.2457 81.8154 50.2457H79.0225C77.4514 50.2457 76.6485 49.4602 76.6485 47.8717L76.6136 21.8101ZM87.4187 33.4008C88.6232 33.4008 89.5832 33.0691 90.2815 32.4233C90.9797 31.7774 91.3288 30.8348 91.3288 29.6129C91.3288 28.8448 91.2066 28.1641 90.9623 27.6055C90.7179 27.0469 90.2291 26.628 89.5134 26.3312C88.8501 26.0519 87.9075 25.8948 86.6681 25.8948H84.137V33.3833L87.4187 33.4008ZM102.71 21.8101C102.71 20.2391 103.496 19.4362 105.084 19.4362H107.877C109.448 19.4362 110.251 20.2217 110.251 21.8101V47.8542C110.251 49.4252 109.465 50.2282 107.877 50.2282H105.084C103.513 50.2282 102.71 49.4427 102.71 47.8542V21.8101ZM113.812 21.8101C113.812 20.2391 114.597 19.4362 116.186 19.4362H130.308C131.879 19.4362 132.682 20.2217 132.682 21.8101V23.5383C132.682 25.1093 131.896 25.9123 130.308 25.9123H121.353V32.3709H128.37C129.941 32.3709 130.744 33.1564 130.744 34.7449V36.473C130.744 38.044 129.959 38.847 128.37 38.847H121.353V47.8891C121.353 49.4602 120.567 50.2631 118.979 50.2631H116.186C114.615 50.2631 113.812 49.4776 113.812 47.8891C113.812 47.8542 113.812 21.8101 113.812 21.8101ZM143.277 37.6077L134.707 22.2815C134.218 21.4436 134.148 20.7628 134.462 20.2391C134.776 19.7155 135.422 19.4362 136.33 19.4362H139.734C141.026 19.4362 141.951 20.0297 142.492 21.1992L145.163 26.8374C145.389 27.3785 145.616 27.9197 145.843 28.4259C146.07 28.9496 146.28 29.4209 146.454 29.8398C146.664 30.3635 146.838 30.8348 147.013 31.2537H147.1C147.275 30.8173 147.449 30.346 147.659 29.8398C147.833 29.4034 148.025 28.9321 148.235 28.4259C148.444 27.9022 148.689 27.3785 148.95 26.8374L151.569 21.1992C152.11 20.0297 153.035 19.4362 154.327 19.4362H157.731C158.656 19.4362 159.267 19.698 159.599 20.2391C159.93 20.7628 159.843 21.4436 159.354 22.2815L150.783 37.6077V47.8542C150.783 49.4252 149.998 50.2282 148.409 50.2282H145.616C144.045 50.2282 143.242 49.4427 143.242 47.8542L143.277 37.6077ZM71.4816 43.7696H61.4968V37.9568H68.5141C70.0851 37.9568 70.8881 37.1713 70.8881 35.5828V33.8721C70.8881 32.3011 70.1026 31.4981 68.5141 31.4981H61.4968V25.8948H70.8881C72.4591 25.8948 73.2621 25.1093 73.2621 23.5208V21.7927C73.2621 20.2217 72.4765 19.4187 70.8881 19.4187H64.1152C63.3471 20.2915 62.5965 21.1817 61.8634 22.072C58.9483 25.6504 56.3474 29.4383 53.9734 33.3659V47.8193C53.9734 49.3903 54.7589 50.1933 56.3474 50.1933H71.499C73.07 50.1933 73.873 49.4078 73.873 47.8193V46.0912C73.8556 44.5551 73.0526 43.7696 71.4816 43.7696ZM59.7862 53.0037H56.1554C55.108 53.0037 54.4447 52.864 54.4447 52.864C54.5494 53.4226 54.7065 54.1209 54.7938 54.6794C54.7938 54.7144 54.7938 54.7493 54.7938 54.8365C54.0956 54.7144 53.3973 54.5922 52.6991 54.4525C49.9062 53.9463 47.1132 53.4226 44.3203 52.9339C42.8366 52.672 41.6321 53.2306 40.7768 54.4525C38.8741 57.1931 36.9714 59.9511 35.0862 62.7091C34.9989 62.8313 34.9116 62.9535 34.7894 63.1106C34.0563 62.0458 33.3406 61.0159 32.6249 59.9686C31.3681 58.1531 30.1287 56.3552 28.8719 54.5398C27.9118 53.1608 26.6201 52.6546 24.9793 52.9513C21.715 53.5623 18.4333 54.1558 15.1691 54.7493C15.0644 54.7667 14.9596 54.7667 14.7851 54.8016C14.9073 54.1558 14.9945 53.5448 15.1167 52.9339C15.6404 50.0711 16.199 47.2084 16.6878 44.3456C16.9321 42.8793 16.4259 41.6749 15.204 40.8195C12.4285 38.8819 9.61815 36.9618 6.82522 35.0416C6.72049 34.9718 6.63321 34.902 6.49356 34.7973C7.31399 34.2387 8.0995 33.6801 8.90247 33.1215C10.9972 31.6727 13.0919 30.2413 15.1866 28.775C16.4434 27.8848 16.9321 26.6454 16.6703 25.1442C16.0768 21.7927 15.4484 18.4237 14.8374 15.0722C14.82 14.9849 14.82 14.9151 14.82 14.7755C15.815 14.95 16.775 15.1246 17.7351 15.2991C20.2487 15.753 22.7624 16.2243 25.276 16.6607C26.7772 16.9225 27.9817 16.3465 28.837 15.1071C30.3906 12.8728 31.9441 10.621 33.4803 8.36917C33.8992 7.75822 34.3356 7.12981 34.7894 6.48395C34.8767 6.60614 34.9465 6.69342 35.0164 6.79815C36.8492 9.45143 38.6995 12.0698 40.4975 14.758C41.5099 16.2767 42.8191 17.0273 45.0185 16.5734C45.8215 16.4163 47.8115 16.0323 48.6144 15.8752C50.7266 13.5885 52.926 11.2668 54.7414 9.45143C51.8612 9.99256 47.6893 10.7606 44.8265 11.2843C44.5821 11.3367 44.46 11.2668 44.3203 11.0748C42.1209 7.88041 39.9389 4.70345 37.722 1.50904C36.535 -0.166718 34.1785 -0.515834 32.59 0.810807C32.3107 1.03773 32.0663 1.33448 31.8569 1.63123C29.6749 4.77328 27.5104 7.91532 25.3458 11.0574C25.1713 11.3017 25.0316 11.389 24.7174 11.3192C21.1564 10.6559 17.5955 10.01 14.0345 9.3467C13.2839 9.20705 12.5333 9.06741 11.7827 9.27688C9.94981 9.80055 8.88501 11.5287 9.23413 13.4314C9.93236 17.2367 10.6306 21.0421 11.3463 24.8475C11.3986 25.1268 11.2765 25.214 11.0844 25.3362C8.13441 27.3611 5.21929 29.4209 2.2518 31.4108C1.15208 32.144 0.244381 32.9819 0 34.3434V35.3035C0.104735 35.6351 0.174558 35.9668 0.314205 36.281C0.593498 36.9269 1.0648 37.4156 1.64085 37.8171C4.78289 39.9816 7.92494 42.1636 11.0844 44.3281C11.3114 44.4852 11.3637 44.6249 11.3114 44.9042C10.5957 48.7968 9.84508 52.672 9.19921 56.5821C8.81519 58.8688 10.9797 60.8588 13.2664 60.4399C17.0543 59.7416 20.8597 59.0608 24.6476 58.3452C24.9793 58.2753 25.1713 58.3452 25.3633 58.6419C27.5104 61.784 29.6749 64.926 31.8569 68.0506C33.3581 70.1977 36.2557 70.2151 37.7569 68.0506C39.9389 64.9085 42.1034 61.7665 44.2679 58.607C44.4425 58.3452 44.5996 58.2753 44.9138 58.3277C48.597 59.0085 52.2802 59.6718 55.9633 60.37C57.8137 60.7191 59.3672 60.0209 60.1178 58.4848C60.4495 57.804 60.5368 57.0709 60.3971 56.3203C60.2051 55.2206 59.9956 54.1209 59.7862 53.0037ZM36.3779 36.1065C34.6672 33.9594 32.9217 31.8472 30.9492 29.9446C29.3258 28.391 27.5976 26.9945 25.66 25.8599C24.8396 25.3711 23.9494 25.1791 23.0068 25.3013C20.9993 25.5282 19.5505 27.6578 20.6328 29.6478C20.947 30.2413 21.3659 30.7999 21.8198 31.2887C24.3683 34.0118 26.6899 36.9094 28.645 40.0689C30.1986 42.5651 31.6125 45.166 33.0788 47.7146C33.4628 48.3779 33.9166 48.9539 34.5101 49.4427C35.575 50.2806 36.7969 50.7519 38.1235 50.6821C39.3279 50.6297 40.3753 50.0536 41.2655 49.2158C42.2256 48.3255 42.8017 47.1909 43.3428 46.0214C46.415 39.2834 49.9236 32.7899 54.0607 26.6454C56.7489 22.6829 59.664 18.9125 62.9631 15.4213C64.988 13.2568 67.1525 11.2494 69.4741 9.39907C70.4168 8.64847 71.2197 7.79313 71.6038 6.58868C72.2496 4.52889 70.6611 2.62621 68.5141 2.83568C67.5191 2.94042 66.6987 3.41172 65.9132 3.95285C62.422 6.36176 59.2276 9.11977 56.2426 12.1222C53.9385 14.4438 51.7216 16.8352 49.5221 19.2616C45.4375 23.7477 41.7892 28.583 38.6995 33.8197C38.106 34.8147 37.5475 35.8097 36.954 36.8396C36.7619 36.5603 36.5699 36.3334 36.3779 36.1065ZM71.4816 43.7696H61.4968V37.9568H68.5141C70.0851 37.9568 70.8881 37.1713 70.8881 35.5828V33.8721C70.8881 32.3011 70.1026 31.4981 68.5141 31.4981H61.4968V25.8948H70.8881C72.4591 25.8948 73.2621 25.1093 73.2621 23.5208V21.7927C73.2621 20.2217 72.4765 19.4187 70.8881 19.4187H63.1377C59.9433 23.1717 57.1503 26.8898 53.9734 32.0043V47.8368C53.9734 49.4078 54.7589 50.2108 56.3474 50.2108H71.499C73.07 50.2108 73.873 49.4252 73.873 47.8368V46.1086C73.8381 44.5551 73.0526 43.7696 71.4816 43.7696Z" fill="black"/>
</svg>
