<svg width="83" height="80" viewBox="0 0 83 80" fill="none" xmlns="http://www.w3.org/2000/svg">
<g clip-path="url(#clip0_63_9)">
<path d="M79.9243 39.5386C79.7509 38.1144 78.9468 37.1442 77.7864 36.3549C74.4566 34.0908 71.153 31.789 67.8358 29.506C66.6554 31.1184 65.5171 32.757 64.424 34.424C66.9371 36.1636 69.4534 37.8968 71.9687 39.6332C72.119 39.7373 72.2661 39.8445 72.4564 39.978C72.0906 40.2344 71.7521 40.4751 71.4095 40.7116C68.4717 42.7392 65.5318 44.7625 62.5972 46.7942C61.0448 47.8695 60.4562 49.3347 60.803 51.1993C61.523 55.0662 62.222 58.9363 62.9283 62.8054C62.9336 62.8316 62.9241 62.86 62.9157 62.9504C61.0059 62.6015 59.1223 62.2578 57.2388 61.914C55.103 61.5251 52.9724 61.1047 50.8293 60.76C49.2085 60.4993 47.8673 61.0847 46.9266 62.4249C44.7151 65.5781 42.5405 68.7566 40.3511 71.9246C40.2323 72.0959 40.1114 72.2662 39.9727 72.4659C38.663 70.5687 37.3828 68.7125 36.1005 66.8562C35.123 65.4394 34.1434 64.0246 33.1669 62.6067C32.0801 61.028 30.5949 60.4604 28.7219 60.8083C24.9664 61.5073 21.2066 62.1905 17.449 62.8789C17.3271 62.901 17.202 62.9094 17.0118 62.9315C17.12 62.3093 17.2199 61.7185 17.3271 61.1278C17.9546 57.7024 18.6189 54.2842 19.198 50.8504C19.4755 49.2065 18.8501 47.8506 17.4806 46.8836C15.9134 45.7778 14.3252 44.7005 12.7465 43.6094C11.1099 42.4795 9.47341 41.3486 7.83792 40.2166C7.73492 40.1461 7.63612 40.0694 7.49842 39.9685C8.4917 39.2821 9.45239 38.6179 10.4141 37.9536C12.7475 36.3433 15.0862 34.7394 17.4133 33.1196C18.8901 32.0906 19.4871 30.6696 19.1675 28.8943C18.4833 25.0925 17.7833 21.2939 17.0906 17.4932C17.0664 17.3587 17.0496 17.222 17.0181 17.0087C17.8558 17.159 18.6388 17.2987 19.4219 17.4417C22.6256 18.025 25.8261 18.6284 29.034 19.1854C30.7452 19.4829 32.1137 18.8459 33.1028 17.4354C34.4555 15.5067 35.782 13.559 37.12 11.6208C38.0576 10.2628 38.9952 8.90585 39.9685 7.49845C40.0683 7.63299 40.1492 7.73705 40.2239 7.84531C42.3239 10.8861 44.4671 13.8995 46.5083 16.9792C47.7917 18.9153 49.444 19.5397 51.6954 19.0803C52.6308 18.8901 53.5695 18.7072 54.5081 18.5306C56.5756 16.2487 58.6578 13.9805 60.8125 11.7848C61.0059 11.5872 61.2045 11.3938 61.399 11.1983C58.1091 11.8153 54.8108 12.3944 51.5188 13.0061C51.2045 13.065 51.0511 12.9893 50.8745 12.7318C48.3918 9.11502 45.8987 5.50665 43.4044 1.89829C41.6523 -0.636925 38.3004 -0.639027 36.5514 1.89198C34.0498 5.51191 31.5503 9.13394 29.0551 12.7591C28.9037 12.9799 28.7744 13.0681 28.478 13.0124C24.0719 12.1936 19.6626 11.3885 15.2512 10.5939C12.5562 10.1083 10.1188 12.4575 10.5865 15.1461C11.358 19.5901 12.1873 24.0236 13.0103 28.4581C13.0692 28.7755 12.9693 28.9101 12.7381 29.0688C9.08976 31.5798 5.4404 34.0887 1.80366 36.6166C-0.598064 38.2857 -0.601217 41.6324 1.78159 43.3225C2.44902 43.7955 3.12697 44.2538 3.79966 44.7183C6.78264 46.7774 9.76666 48.8354 12.7496 50.8945C12.9199 51.0122 13.0881 51.0953 13.0345 51.3854C12.2304 55.7085 11.4473 60.0358 10.6433 64.3599C10.4677 65.3038 10.5066 66.2077 10.9071 67.0885C11.5398 68.4844 13.2279 69.794 15.7305 69.2958C19.9464 68.4581 24.1844 67.7328 28.4108 66.9456C28.7418 66.8836 28.9058 66.9729 29.0908 67.243C31.5651 70.8483 34.0572 74.4409 36.5335 78.044C37.1242 78.9037 37.8863 79.5134 38.8911 79.7961C39.2232 79.8897 39.5711 79.9307 39.9117 79.9948H39.9968C40.2291 79.9569 40.4635 79.9254 40.6948 79.8813C41.8509 79.6595 42.7328 79.0299 43.395 78.0681C45.8451 74.5144 48.3067 70.9691 50.741 67.4039C51.0195 66.995 51.2634 66.8899 51.7584 66.9834C56.0942 67.8022 60.433 68.6021 64.7782 69.3725C67.4627 69.8487 69.8539 67.3807 69.362 64.6763C68.5663 60.308 67.7612 55.9408 66.9508 51.5756C66.8898 51.2466 66.956 51.0511 67.2504 50.8493C70.8104 48.4087 74.3588 45.9502 77.9115 43.5001C78.9941 42.7528 79.7246 41.7816 79.9127 40.4488C79.918 40.4142 79.9558 40.3837 79.9779 40.3511V39.5891C79.959 39.5701 79.9243 39.5533 79.9222 39.5323L79.9243 39.5386Z" fill="black"/>
<path d="M42.4353 42.2094C43.3035 40.7232 44.1339 39.2527 45.0115 37.8106C48.4234 32.2 52.3838 26.9992 56.79 22.14C59.0256 19.6753 61.2634 17.2084 63.5936 14.834C67.3733 10.9839 71.4011 7.41017 75.8629 4.35257C76.6712 3.79865 77.5163 3.34038 78.5137 3.2153C81.1814 2.88001 83.0597 5.23233 82.1253 7.75177C81.6996 8.90166 80.9186 9.79613 79.9874 10.5403C72.9766 16.1415 67.2714 22.9157 62.2409 30.2964C57.3691 37.4459 53.2909 45.0379 49.7046 52.9031C49.136 54.1508 48.5064 55.3637 47.5037 56.337C46.4894 57.3208 45.2943 57.982 43.8942 58.1176C42.7097 58.2311 41.5766 57.8916 40.5308 57.3093C39.3904 56.6755 38.5547 55.7558 37.9188 54.6143C36.5125 52.0906 35.1293 49.5502 33.6294 47.0833C31.1677 43.0335 28.2825 39.2979 25.0347 35.842C24.4923 35.2649 24.0172 34.587 23.6567 33.8817C22.5194 31.6597 24.1623 29.279 26.4431 29.0099C27.5131 28.8838 28.5127 29.093 29.4461 29.6364C32.1 31.1804 34.465 33.1007 36.5325 35.3532C38.4665 37.4606 40.2722 39.6858 42.1347 41.8594C42.2335 41.975 42.3323 42.0896 42.4332 42.2084L42.4353 42.2094Z" fill="black"/>
</g>
<defs>
<clipPath id="clip0_63_9">
<rect width="82.3681" height="80" fill="white"/>
</clipPath>
</defs>
</svg>
