<?xml version="1.0" encoding="UTF-8"?>
<svg id="Layer_2" data-name="Layer 2" xmlns="http://www.w3.org/2000/svg" viewBox="0 0 1341.14 1341.14">
  <defs>
    <style>
      .cls-1 {
        stroke-width: 51.82px;
      }

      .cls-1, .cls-2, .cls-3, .cls-4, .cls-5, .cls-6, .cls-7 {
        stroke-linecap: round;
      }

      .cls-1, .cls-2, .cls-7 {
        fill: none;
      }

      .cls-1, .cls-3, .cls-4, .cls-5, .cls-6, .cls-7 {
        stroke: #020097;
        stroke-linejoin: round;
      }

      .cls-8 {
        fill: #b3edff;
      }

      .cls-2 {
        stroke: #009;
        stroke-dasharray: 0 0 54.86 43.89;
        stroke-miterlimit: 10;
        stroke-width: 21.15px;
      }

      .cls-3 {
        fill: #3cf;
        stroke-width: 29.55px;
      }

      .cls-4 {
        fill: #fff;
      }

      .cls-4, .cls-5, .cls-6, .cls-7 {
        stroke-width: 29.61px;
      }

      .cls-5 {
        fill: #ffff27;
      }

      .cls-6 {
        fill: #ff0;
      }
    </style>
  </defs>
  <g id="Successful-generic">
    <g>
      <circle class="cls-8" cx="670.57" cy="670.57" r="571.74"/>
      <circle class="cls-2" cx="670.57" cy="670.57" r="660"/>
      <circle class="cls-6" cx="337.23" cy="260.36" r="236.86"/>
      <g>
        <path class="cls-3" d="m790.14,1031.03l-619.49,288.3c-11.28,5.25-24.65,2.71-33.21-6.31l-11.99-12.63h0s-11.99-12.62-11.99-12.62c-8.57-9.02-10.41-22.5-4.59-33.5l319.94-603.76c21.88-41.3,142.26,26.91,242.03,131.98,99.78,105.08,161.68,228.82,119.3,248.53"/>
        <path class="cls-5" d="m910.17,464.05c-1.36.29-2.79.27-4.18-.12l-41.35-11.46-32.88,27.57c-2.55,2.13-6.08,2.63-9.12,1.3-3.04-1.34-5.05-4.28-5.2-7.6l-1.88-42.87-36.38-22.76c-2.81-1.76-4.38-4.96-4.05-8.27.33-3.3,2.51-6.13,5.62-7.29l40.19-15.03,10.4-41.63c.8-3.22,3.37-5.7,6.61-6.41h0c3.24-.7,6.61.5,8.67,3.09l26.72,33.58,42.81-2.97c3.31-.23,6.47,1.44,8.14,4.31,1.67,2.87,1.57,6.44-.26,9.2l-23.68,35.79,16.06,39.79c1.24,3.08.63,6.59-1.58,9.07-1.25,1.4-2.89,2.33-4.66,2.71Z"/>
        <path class="cls-5" d="m1038.27,568c-1.27-.76-2.37-1.83-3.17-3.15l-23.8-39.22-45.8-2.62c-3.54-.2-6.66-2.4-8.05-5.67-1.39-3.27-.8-7.04,1.52-9.73l29.94-34.76-11.66-44.37c-.9-3.43.22-7.08,2.9-9.41,2.68-2.33,6.45-2.93,9.72-1.56l42.31,17.73,38.6-24.8c2.99-1.92,6.8-1.97,9.84-.15h0c3.04,1.83,4.78,5.23,4.49,8.76l-3.79,45.72,35.51,29.04c2.75,2.25,3.98,5.86,3.18,9.32-.8,3.46-3.49,6.16-6.94,6.98l-44.65,10.52-16.65,42.75c-1.29,3.31-4.34,5.6-7.88,5.9-2,.17-3.96-.3-5.62-1.3Z"/>
        <path class="cls-5" d="m1026.34,797.33c-1.46-.48-2.82-1.31-3.93-2.46l-33.14-34.2-46.97,7.91c-3.63.61-7.3-.89-9.45-3.88-2.16-2.99-2.43-6.94-.71-10.19l22.29-42.09-22.04-42.22c-1.7-3.27-1.41-7.22.77-10.19,2.17-2.97,5.85-4.46,9.48-3.82l46.92,8.19,33.35-34c2.58-2.63,6.43-3.57,9.93-2.42h0c3.5,1.15,6.04,4.19,6.56,7.83l6.71,47.15,42.64,21.21c3.3,1.64,5.38,5.01,5.37,8.7-.01,3.68-2.11,7.04-5.42,8.66l-42.77,20.95-6.99,47.11c-.54,3.64-3.1,6.67-6.61,7.79-1.98.64-4.08.61-5.98-.02Z"/>
        <circle class="cls-7" cx="991.92" cy="927.89" r="14.35"/>
        <circle class="cls-7" cx="586.3" cy="594.78" r="14.35"/>
        <circle class="cls-7" cx="694.23" cy="385.63" r="14.35"/>
        <path class="cls-7" d="m650.55,666.9c30-24.09,54.46-97.72,52.32-193.88"/>
        <path class="cls-4" d="m799.97,830.42s46.46-21.17,109.56-11.38"/>
        <path class="cls-7" d="m714.07,713.95c19.27-3.68,43.7-10.34,51.35-30.75,5.44-14.52,1.12-31.05,5.16-46.02,3.92-14.55,15.67-26.21,29.44-32.32,19.74-8.76,41.88-6.7,62.51-2.76,9.62,1.83,20.1,2.61,28.74-2.01,17.08-9.12,15.82-33.02,14.95-49.46"/>
        <circle class="cls-7" cx="846.31" cy="701.43" r="14.35"/>
      </g>
      <polyline class="cls-1" points="208.38 307.81 292.36 373.09 455.02 167.28"/>
    </g>
  </g>
</svg>