<?xml version="1.0" encoding="UTF-8"?>
<svg id="Layer_2" data-name="Layer 2" xmlns="http://www.w3.org/2000/svg" viewBox="0 0 1340.32 1340.32">
  <defs>
    <style>
      .cls-1 {
        stroke-width: 51.68px;
      }

      .cls-1, .cls-2 {
        fill: none;
      }

      .cls-1, .cls-2, .cls-3, .cls-4, .cls-5 {
        stroke-linecap: round;
      }

      .cls-1, .cls-3, .cls-4, .cls-5 {
        stroke: #020097;
        stroke-linejoin: round;
      }

      .cls-6 {
        fill: #b3edff;
      }

      .cls-2 {
        stroke: #009;
        stroke-dasharray: 0 0 54.83 43.86;
        stroke-miterlimit: 10;
        stroke-width: 21.14px;
      }

      .cls-3 {
        fill: #3cf;
      }

      .cls-3, .cls-4, .cls-5 {
        stroke-width: 29.53px;
      }

      .cls-4 {
        fill: #e799b2;
      }

      .cls-5 {
        fill: #ff0;
      }
    </style>
  </defs>
  <g id="Unsuccessful-generic">
    <g>
      <circle class="cls-6" cx="670.16" cy="670.16" r="571.39"/>
      <circle class="cls-2" cx="670.16" cy="670.16" r="659.59"/>
      <g>
        <g>
          <path class="cls-5" d="m615.59,367.81c-106.83,26.27-186.08,122.7-186.08,237.64,0,32.21,6.22,62.96,17.53,91.12l1.66,4.03c31.29,67.47,10.41,106.15-68.38,106.15h-7.65s-73.62,0-73.62,0c-26.97,0-48.83,21.86-48.83,48.83h0c0,26.97,21.86,48.83,48.83,48.83h201.38s7.69,0,7.69,0c1.93,0,3.55,1.49,3.68,3.41,1.8,27.81,25.92,34.7,55.41,34.7h427.94c30.66,0,55.52-24.86,55.52-55.52h0c0-30.66-24.86-55.52-55.52-55.52h-83.77c-48.63,0-60.21-51.31-36.52-85.93l4.93-7.32c12.37-19.12,22.15-40.08,28.84-62.38l-81.11-156.72-211.96-151.32Z"/>
          <path class="cls-3" d="m626.98,344.47l508.17-236.5c5.14-2.39,11.79-2.43,18.61-1.3,23.73,3.93,41.98,23.69,42.65,47.74.16,5.55-.59,10.84-2.84,15.09l-262.44,495.27c-18.42,34.76-119.74-22.65-203.73-111.1-83.99-88.45-136.09-192.61-100.42-209.2"/>
          <rect class="cls-5" x="317.76" y="998.39" width="378.46" height="77.97" rx="38.99" ry="38.99"/>
          <rect class="cls-5" x="787.6" y="1037.38" width="163.51" height="62.92" rx="31.46" ry="31.46"/>
        </g>
        <g>
          <circle class="cls-4" cx="414.68" cy="271.59" r="236.23"/>
          <g>
            <line class="cls-1" x1="325.73" y1="363.96" x2="503.63" y2="179.21"/>
            <line class="cls-1" x1="503.63" y1="363.96" x2="325.73" y2="179.21"/>
          </g>
        </g>
      </g>
    </g>
  </g>
</svg>