<svg viewBox="0 0 270 87" xmlns="http://www.w3.org/2000/svg">
<g clip-path="url(#clip0_3341_1145)">
<path d="M95.4512 16.1846H108.306C118.448 16.1846 123.777 22.0272 123.777 32.543C123.777 43.0588 118.448 48.9014 108.306 48.9014H95.4512V16.1846ZM107.51 42.0783C113.773 42.0783 115.736 39.3193 115.736 32.543C115.736 25.7666 113.773 23.0076 107.51 23.0076H103.257V42.0783H107.51Z" />
<path d="M124.949 36.6584C124.949 27.5899 130.839 24.1328 137.335 24.1328C143.831 24.1328 149.114 27.2631 149.114 36.7518C149.114 37.641 149.067 38.1079 148.974 38.6682H132.193C132.613 42.2208 134.483 43.577 137.475 43.577C140.468 43.577 141.635 42.2675 142.055 40.6802H148.785C147.662 46.2893 143.315 49.3729 137.333 49.3729C131.35 49.3729 124.947 46.1004 124.947 36.6584H124.949ZM141.87 34.2284C141.73 32.1253 140.654 29.9287 137.15 29.9287C134.3 29.9287 132.711 31.4249 132.242 34.2284H141.87Z" />
<path d="M160.757 15.4375H164.683V21.2334H162.58C160.616 21.2334 159.963 22.4962 159.963 24.2258V24.5993H164.543V30.4886H159.963V48.9035H152.297V30.4886H148.838V24.5993H152.297V23.4299C152.297 17.7741 155.616 15.4375 160.757 15.4375Z" />
<path d="M164.405 36.6584C164.405 27.5899 170.294 24.1328 176.79 24.1328C183.286 24.1328 188.569 27.2631 188.569 36.7518C188.569 37.641 188.522 38.1079 188.429 38.6682H171.648C172.068 42.2208 173.938 43.577 176.93 43.577C179.923 43.577 181.09 42.2675 181.51 40.6802H188.24C187.117 46.2893 182.771 49.3729 176.788 49.3729C170.805 49.3729 164.402 46.1004 164.402 36.6584H164.405ZM181.325 34.2284C181.185 32.1253 180.109 29.9287 176.606 29.9287C173.755 29.9287 172.166 31.4249 171.697 34.2284H181.325Z" />
<path d="M202.549 30.442C200.119 30.442 198.062 31.7982 198.062 35.2575V48.9058H190.396V24.6016H198.062V29.7439H198.342C198.809 27.3606 201.146 24.1348 205.915 24.1348C210.683 24.1348 214.234 27.2651 214.234 33.39V48.908H206.568V35.2597C206.568 31.8004 204.979 30.4442 202.549 30.4442V30.442Z" />
<path d="M216.105 36.7984C216.105 27.5899 222.555 24.1328 228.491 24.1328C232.697 24.1328 238.913 25.7224 239.803 34.3218H232.84C232.326 31.7051 230.923 30.5357 228.447 30.5357C224.754 30.5357 223.304 33.3858 223.304 36.7984C223.304 40.2111 224.754 42.9678 228.447 42.9678C231.017 42.9678 232.326 41.7051 232.84 39.135H239.803C239.102 47.641 232.791 49.3707 228.491 49.3707C222.555 49.3707 216.105 46.0047 216.105 36.7962V36.7984Z" />
<path d="M240.459 36.6584C240.459 27.5899 246.349 24.1328 252.845 24.1328C259.341 24.1328 264.623 27.2631 264.623 36.7518C264.623 37.641 264.577 38.1079 264.483 38.6682H247.702C248.123 42.2208 249.992 43.577 252.985 43.577C255.977 43.577 257.144 42.2675 257.565 40.6802H264.294C263.172 46.2893 258.825 49.3729 252.843 49.3729C246.86 49.3729 240.457 46.1004 240.457 36.6584H240.459ZM257.38 34.2284C257.24 32.1253 256.164 29.9287 252.66 29.9287C249.81 29.9287 248.221 31.4249 247.751 34.2284H257.38Z" />
<path d="M95.168 54.3857H100.535C105.806 54.3857 108.396 57.3782 108.396 62.6983C108.396 68.0185 105.808 71.0087 100.535 71.0087H95.168V54.3857ZM100.368 69.2746C104.572 69.2746 106.424 67.1381 106.424 62.6961C106.424 58.2541 104.572 56.1176 100.368 56.1176H97.1155V69.2746H100.368Z" />
<path d="M111.43 53.8145C112.071 53.8145 112.618 54.3369 112.618 55.0016C112.618 55.6664 112.071 56.2133 111.43 56.2133C110.79 56.2133 110.219 55.6664 110.219 55.0016C110.219 54.3369 110.788 53.8145 111.43 53.8145ZM110.481 58.6588H112.382V71.0066H110.481V58.6588Z" />
<path d="M114.09 67.4935H115.8C116.038 69.1787 117.581 69.7501 119.197 69.7501C120.813 69.7501 122.236 69.1321 122.236 67.5891C122.236 66.3775 121.404 65.9751 120.075 65.6661L117.747 65.1192C115.562 64.5967 114.47 63.4807 114.47 61.7955C114.47 59.61 116.322 58.4229 119.126 58.4229C121.929 58.4229 123.732 59.61 123.874 62.08H122.26C121.998 60.466 120.835 59.9191 119.126 59.9191C117.32 59.9191 116.322 60.5127 116.322 61.7955C116.322 62.7448 116.891 63.3384 118.388 63.6718L120.691 64.2188C122.734 64.6923 124.181 65.4771 124.181 67.5669C124.181 70.2748 121.711 71.2486 119.17 71.2486C116.344 71.2486 114.208 70.0836 114.088 67.4958L114.09 67.4935Z" />
<path d="M125.295 64.8571C125.295 60.464 128.074 58.4209 131.255 58.4209C133.463 58.4209 136.053 59.3947 136.504 62.8607H134.77C134.415 60.7953 132.847 60.035 131.233 60.035C128.834 60.035 127.1 61.7201 127.1 64.8549C127.1 67.9896 128.834 69.6036 131.233 69.6036C132.872 69.6036 134.415 68.8678 134.77 66.7313H136.504C136.077 70.2462 133.465 71.2444 131.255 71.2444C128.074 71.2444 125.295 69.2257 125.295 64.8571Z" />
<path d="M137.568 64.8346C137.568 60.4415 140.443 58.4229 143.504 58.4229C146.566 58.4229 149.44 60.4415 149.44 64.8346C149.44 69.2277 146.568 71.2463 143.504 71.2463C140.441 71.2463 137.568 69.2277 137.568 64.8346ZM143.504 69.6323C145.641 69.6323 147.613 68.1605 147.613 64.8346C147.613 61.5087 145.641 60.0147 143.504 60.0147C141.368 60.0147 139.371 61.5109 139.371 64.8346C139.371 68.1583 141.343 69.6323 143.504 69.6323Z" />
<path d="M156.326 69.63C158.392 69.63 159.817 68.3961 159.959 66.2574L159.984 58.6585H161.884L161.86 71.0062H159.959V68.5851H159.912C159.699 69.4166 158.512 71.2441 155.662 71.2441C153.216 71.2441 151.244 69.9146 151.244 66.2796L151.269 58.6562H153.169L153.145 65.8995C153.145 68.2516 154.143 69.6278 156.326 69.6278V69.63Z" />
<path d="M169.856 60.0369C167.67 60.0369 166.223 61.4131 166.223 63.7652V71.0084H164.322V58.6607H166.223V61.0818H166.27C166.483 60.2503 167.67 58.4229 170.521 58.4229C172.966 58.4229 174.938 59.7523 174.938 63.3873V71.0107H173.037V63.7674C173.037 61.4153 172.039 60.0391 169.856 60.0391V60.0369Z" />
<path d="M178.307 68.1121V60.2042H176.312V58.6613H178.307V55.5732H180.208V58.6613H182.653V60.2042H180.208V67.7564C180.208 69.0859 180.659 69.6084 181.988 69.6084C182.297 69.6084 182.511 69.6084 182.842 69.5617V71.0335C182.415 71.129 181.964 71.1757 181.466 71.1757C179.614 71.1757 178.307 70.3909 178.307 68.1121Z" />
<path d="M189.348 66.1646H191.32C191.437 68.0654 192.745 69.5617 195.737 69.5617C198.467 69.5617 199.821 68.3033 199.821 66.4269C199.821 64.5505 198.492 63.8147 196.544 63.4345L194.337 62.9832C191.44 62.414 189.826 61.0134 189.826 58.6146C189.826 55.9067 191.867 54.1748 195.595 54.1748C199.323 54.1748 201.366 55.9089 201.366 58.6146H199.419C199.348 57.025 198.112 55.8355 195.57 55.8355C193.029 55.8355 191.867 57.0694 191.867 58.6146C191.867 59.9685 192.698 60.9667 194.883 61.3936L197.02 61.8204C200.059 62.4385 201.864 63.6968 201.864 66.4025C201.864 69.4905 199.514 71.2469 195.715 71.2469C191.535 71.2469 189.35 69.1326 189.35 66.1646H189.348Z" />
<path d="M203.354 64.8571C203.354 60.3684 205.966 58.4209 209.125 58.4209C212.284 58.4209 214.634 60.4151 214.634 64.5481C214.634 64.9527 214.61 65.1884 214.563 65.4262H205.183C205.326 68.3231 206.751 69.7259 209.243 69.7259C210.763 69.7259 212.14 69.2279 212.733 67.5405H214.467C213.66 70.2706 211.571 71.2466 209.218 71.2466C205.821 71.2466 203.354 69.2035 203.354 64.8593V64.8571ZM212.804 63.9789C212.78 61.3911 211.379 59.9171 209.101 59.9171C206.94 59.9171 205.372 61.2244 205.183 63.9789H212.807H212.804Z" />
<path d="M216.459 58.6608H218.36V61.4154H218.407C218.74 60.1326 219.903 58.5186 222.302 58.5186C222.611 58.5186 222.942 58.543 223.229 58.6364V60.2504C222.92 60.2037 222.635 60.1793 222.326 60.1793C219.834 60.1793 218.36 61.8645 218.36 64.5012V71.0085H216.459V58.6608Z" />
<path d="M223.985 58.6611H225.908L229.921 69.2058H229.992L233.98 58.6611H235.928L231.13 71.0089H228.756L223.982 58.6611H223.985Z" />
<path d="M238.346 53.8145C238.987 53.8145 239.534 54.3369 239.534 55.0016C239.534 55.6664 238.987 56.2133 238.346 56.2133C237.706 56.2133 237.135 55.6664 237.135 55.0016C237.135 54.3369 237.704 53.8145 238.346 53.8145ZM237.397 58.6588H239.298V71.0066H237.397V58.6588Z" />
<path d="M241.127 64.8571C241.127 60.464 243.906 58.4209 247.087 58.4209C249.295 58.4209 251.885 59.3947 252.336 62.8607H250.602C250.247 60.7953 248.679 60.035 247.065 60.035C244.666 60.035 242.932 61.7201 242.932 64.8549C242.932 67.9896 244.666 69.6036 247.065 69.6036C248.704 69.6036 250.247 68.8678 250.602 66.7313H252.336C251.91 70.2462 249.297 71.2444 247.087 71.2444C243.906 71.2444 241.127 69.2257 241.127 64.8571Z" />
<path d="M253.4 64.8571C253.4 60.3684 256.013 58.4209 259.172 58.4209C262.331 58.4209 264.681 60.4151 264.681 64.5481C264.681 64.9527 264.656 65.1884 264.61 65.4262H255.23C255.372 68.3231 256.797 69.7259 259.29 69.7259C260.81 69.7259 262.187 69.2279 262.78 67.5405H264.514C263.707 70.2706 261.617 71.2466 259.265 71.2466C255.868 71.2466 253.4 69.2035 253.4 64.8593V64.8571ZM262.851 63.9789C262.827 61.3911 261.426 59.9171 259.147 59.9171C256.986 59.9171 255.419 61.2244 255.23 63.9789H262.853H262.851Z" />
<path d="M39.4097 85.0618C14.6964 74.9862 5.93699 56.109 2.94232 42.0494C-0.288006 26.8826 2.26202 14.2815 2.37096 13.7523L2.5288 12.9942L39.9054 1.37793L77.2821 12.9942L77.4399 13.7523C77.5489 14.2815 80.1011 26.8826 76.8686 42.0494C73.8739 56.109 65.1144 74.9863 40.4012 85.0596L39.9054 85.2619L39.4074 85.0596L39.4097 85.0618Z" fill="white"/>
<path d="M39.906 0L39.1257 0.24233L2.88068 11.5073L1.40002 11.9675L1.08433 13.4838C0.973166 14.024 -1.63244 26.8875 1.65569 42.3233C3.601 51.4495 7.21372 59.5709 12.3916 66.4629C18.8656 75.0756 27.7895 81.7452 38.9123 86.2784L39.906 86.683L40.8998 86.2784C52.0225 81.743 60.9465 75.0756 67.4205 66.4629C72.6006 59.5709 76.2111 51.4495 78.1564 42.3233C81.4445 26.8875 78.8411 14.024 78.7278 13.4838L78.4121 11.9675L76.9314 11.5073L40.6886 0.24233L39.9083 0H39.906ZM39.906 2.75678L76.1533 14.0218C76.1533 14.0218 86.7158 64.7599 39.906 83.8439C-6.90367 64.7577 3.66103 14.0218 3.66103 14.0218L39.906 2.75678Z" fill="white"/>
<path d="M56.1082 58.0059C49.0206 58.0059 45.5546 59.8244 41.884 61.7497C37.989 63.7929 33.9605 65.9072 25.9859 65.9072C20.2188 65.9072 16.5172 64.8 13.4336 63.4172C19.045 71.4341 27.4421 78.7618 39.9076 83.844C53.7938 78.1837 62.6311 69.7355 68.1913 60.6559C65.1811 59.1886 61.8196 58.0081 56.1082 58.0081" fill="#002442"/>
<path d="M77.1732 26.2139C77.1687 18.9062 76.1527 14.0218 76.1527 14.0218L39.9077 2.75684L3.66271 14.0218C3.66271 14.0218 1.39282 24.9311 3.62492 38.5349C24.1918 29.9133 43.476 25.6959 77.1754 26.2139" fill="#0073CF"/>
<path d="M35.2151 32.3117C24.915 34.2193 15.4797 37.0983 4.24805 41.8471C5.34186 46.9561 7.10931 52.3362 9.87943 57.5875C10.5219 57.9076 11.1444 58.2322 11.7625 58.559C15.433 60.4843 18.899 62.3029 25.9866 62.3029C33.0742 62.3029 36.5401 60.4843 40.2106 58.559C44.1057 56.5159 48.1342 54.4016 56.1088 54.4016C62.7162 54.4016 66.6157 55.8534 69.9727 57.5141C75.1017 47.7586 76.7735 37.5652 77.107 29.4994C60.2373 29.2237 47.0092 30.1263 35.2151 32.3117Z" fill="#C93B3B"/>
<path d="M270 68.7418C270 69.7534 269.202 70.5538 268.166 70.5538C267.13 70.5538 266.32 69.7556 266.32 68.7418C266.32 67.7281 267.141 66.9521 268.166 66.9521C269.19 66.9521 270 67.7503 270 68.7418ZM266.783 68.7418C266.783 69.54 267.367 70.1714 268.177 70.1714C268.986 70.1714 269.537 69.5422 269.537 68.753C269.537 67.9637 268.964 67.3123 268.166 67.3123C267.367 67.3123 266.783 67.9526 266.783 68.7418ZM267.885 69.6867H267.47V67.897C267.639 67.8637 267.863 67.8414 268.157 67.8414C268.495 67.8414 268.652 67.897 268.775 67.9771C268.877 68.0549 268.955 68.1905 268.955 68.3706C268.955 68.5618 268.797 68.7196 268.584 68.7863V68.8085C268.764 68.8752 268.853 68.9997 268.91 69.2465C268.966 69.5155 268.999 69.6289 269.046 69.6956H268.597C268.541 69.6289 268.508 69.471 268.45 69.2576C268.417 69.0664 268.303 68.9753 268.079 68.9753H267.888V69.6845L267.885 69.6867ZM267.897 68.664H268.088C268.312 68.664 268.503 68.5862 268.503 68.4061C268.503 68.2372 268.379 68.1371 268.121 68.1371C268.008 68.1371 267.941 68.1482 267.897 68.1594V68.6662V68.664Z"/>
</g>
<defs>
<clipPath id="clip0_3341_1145">
<rect width="270" height="86.6852" fill="white"/>
</clipPath>
</defs>
</svg>
