<?xml version="1.0" encoding="UTF-8"?>
<svg xmlns="http://www.w3.org/2000/svg" viewBox="0 0 1500 1500">
  <defs>
    <style>
      .cls-1 {
        fill: #b3edff;
      }

      .cls-2 {
        fill: #b894b7;
      }

      .cls-2, .cls-3 {
        stroke: #009;
        stroke-linecap: round;
        stroke-linejoin: round;
        stroke-width: 29.55px;
      }

      .cls-3 {
        fill: none;
      }
    </style>
  </defs>
  <g id="Empty-state_plain">
    <circle class="cls-1" cx="750" cy="753.51" r="575.47"/>
  </g>
  <g id="Layer_5" data-name="Layer 5">
    <g>
      <path class="cls-3" d="m414.46,871.61c-4.79-12.77-8.64-25.73-11.74-38.78l-131.28-20.28v-124.81l131.19-20.28c8.55-36.44,23.01-71.84,43.2-104.52l-78.41-107.15,88.09-88.18,107.15,78.32c32.77-20.19,68.18-34.65,104.61-43.2l12.3-131.28h140.58l12.4,131.28c36.34,8.64,71.65,23.01,104.43,43.2l107.06-78.51,88.27,88.18-78.51,107.24c20.19,32.68,34.56,67.9,43.2,104.33l131.47,20.28.09,124.71-131.57,20.38c-8.55,36.34-22.91,71.56-43.2,104.24l78.7,107.34-88.18,88.27-107.34-78.6c-32.68,20.1-67.8,34.56-104.15,43.1h-.09l-20.19,131.57-132.69.09-12.49-131.57c-15.21-3.57-30.14-8.17-44.89-13.8"/>
      <path class="cls-2" d="m573.44,819.58c-3.19-7.9-5.9-16.04-8.06-24.23-17.15-66.99.82-141.08,53.81-193.05,59.52-58.38,146.03-72.13,218.25-41.65l-125.21,122.81,108.3,110.42,125.21-122.81c29.13,72.86,13.71,159.08-45.81,217.46-52.98,51.96-127.41,68.49-194.12,49.99-8.09-2.26-16.17-5.12-24.13-8.47l-328.1,321.8c-20.25,19.86-52.77,19.55-72.63-.7l-36.38-37.09c-19.86-20.25-19.55-52.77.7-72.63l328.16-321.85Z"/>
    </g>
  </g>
</svg>