<svg width="16" height="16" viewBox="0 0 16 16" fill="none" xmlns="http://www.w3.org/2000/svg">
<g clip-path="url(#clip0_3190_575)">
<path d="M8.06666 12.3667L7.99999 12.4333L7.92666 12.3667C4.75999 9.49333 2.66666 7.59333 2.66666 5.66667C2.66666 4.33333 3.66666 3.33333 4.99999 3.33333C6.02666 3.33333 7.02666 4 7.37999 4.90667H8.61999C8.97333 4 9.97333 3.33333 11 3.33333C12.3333 3.33333 13.3333 4.33333 13.3333 5.66667C13.3333 7.59333 11.24 9.49333 8.06666 12.3667ZM11 2C9.83999 2 8.72666 2.54 7.99999 3.38667C7.27333 2.54 6.15999 2 4.99999 2C2.94666 2 1.33333 3.60667 1.33333 5.66667C1.33333 8.18 3.59999 10.24 7.03333 13.3533L7.99999 14.2333L8.96666 13.3533C12.4 10.24 14.6667 8.18 14.6667 5.66667C14.6667 3.60667 13.0533 2 11 2Z" fill="white"/>
</g>
<defs>
<clipPath id="clip0_3190_575">
<rect width="16" height="16" fill="white"/>
</clipPath>
</defs>
</svg>
