<svg width="16" height="16" viewBox="0 0 16 16" fill="none" xmlns="http://www.w3.org/2000/svg">
<g clip-path="url(#clip0_3190_534)">
<path d="M12.72 1.55467L2.05333 14.3547C1.77067 14.6933 1.816 15.2 2.15466 15.4827C2.48266 15.7573 3.008 15.7093 3.28 15.3813L13.9467 2.58133C14.2293 2.24267 14.184 1.736 13.8453 1.45333C13.696 1.328 13.5147 1.26933 13.3333 1.26933C13.104 1.26933 12.8747 1.368 12.7173 1.55733L12.72 1.55467Z" fill="white"/>
<path d="M3.2 7.4C4.96533 7.4 6.4 5.96533 6.4 4.2C6.4 2.43467 4.96533 1 3.2 1C1.43467 1 0 2.43467 0 4.2C0 5.96533 1.43467 7.4 3.2 7.4ZM3.2 2.6C4.08267 2.6 4.8 3.31733 4.8 4.2C4.8 5.08267 4.08267 5.8 3.2 5.8C2.31733 5.8 1.6 5.08267 1.6 4.2C1.6 3.31733 2.31733 2.6 3.2 2.6Z" fill="white"/>
<path d="M12.8 9.53333C11.0347 9.53333 9.6 10.968 9.6 12.7333C9.6 14.4987 11.0347 15.9333 12.8 15.9333C14.5653 15.9333 16 14.4987 16 12.7333C16 10.968 14.5653 9.53333 12.8 9.53333ZM12.8 14.3333C11.9173 14.3333 11.2 13.616 11.2 12.7333C11.2 11.8507 11.9173 11.1333 12.8 11.1333C13.6827 11.1333 14.4 11.8507 14.4 12.7333C14.4 13.616 13.6827 14.3333 12.8 14.3333Z" fill="white"/>
</g>
<defs>
<clipPath id="clip0_3190_534">
<rect width="16" height="14.9333" fill="white" transform="translate(0 1)"/>
</clipPath>
</defs>
</svg>
