<svg width="16" height="16" viewBox="0 0 16 16" fill="none" xmlns="http://www.w3.org/2000/svg">
<g clip-path="url(#clip0_3190_572)">
<path d="M11.5 5.66667L12.136 5.26917C11.9989 5.04988 11.7586 4.91667 11.5 4.91667V5.66667ZM13.4444 8.77778L14.0089 9.27166C14.2266 9.0228 14.2557 8.66069 14.0804 8.38028L13.4444 8.77778ZM8 15L7.42105 15.4768L7.98267 16.1587L8.56443 15.4939L8 15ZM2.55556 8.38889L1.94526 7.95296C1.74792 8.22923 1.76078 8.6036 1.97661 8.86567L2.55556 8.38889ZM4.5 5.66667V4.91667C4.25779 4.91667 4.03048 5.03364 3.8897 5.23074L4.5 5.66667ZM12.9141 3.58078C12.6212 3.87367 12.6212 4.34855 12.9141 4.64144C13.207 4.93433 13.6819 4.93433 13.9748 4.64144L12.9141 3.58078ZM15.5303 3.08589C15.8232 2.79299 15.8232 2.31812 15.5303 2.02523C15.2374 1.73233 14.7626 1.73233 14.4697 2.02523L15.5303 3.08589ZM7.25 3.33333C7.25 3.74755 7.58579 4.08333 8 4.08333C8.41421 4.08333 8.75 3.74755 8.75 3.33333H7.25ZM8.75 1C8.75 0.585786 8.41421 0.25 8 0.25C7.58579 0.25 7.25 0.585786 7.25 1H8.75ZM2.02523 4.64144C2.31812 4.93433 2.79299 4.93433 3.08589 4.64144C3.37878 4.34855 3.37878 3.87367 3.08589 3.58078L2.02523 4.64144ZM1.53033 2.02523C1.23744 1.73233 0.762563 1.73233 0.46967 2.02523C0.176777 2.31812 0.176777 2.79299 0.46967 3.08589L1.53033 2.02523ZM8 6.41667H11.5V4.91667H8V6.41667ZM10.864 6.06417L12.8084 9.17528L14.0804 8.38028L12.136 5.26917L10.864 6.06417ZM12.88 8.2839L7.43557 14.5061L8.56443 15.4939L14.0089 9.27166L12.88 8.2839ZM8.57895 14.5232L3.1345 7.91211L1.97661 8.86567L7.42105 15.4768L8.57895 14.5232ZM3.16586 8.82482L5.1103 6.1026L3.8897 5.23074L1.94526 7.95296L3.16586 8.82482ZM4.5 6.41667H8V4.91667H4.5V6.41667ZM13.9748 4.64144L15.5303 3.08589L14.4697 2.02523L12.9141 3.58078L13.9748 4.64144ZM8.75 3.33333V1H7.25V3.33333H8.75ZM3.08589 3.58078L1.53033 2.02523L0.46967 3.08589L2.02523 4.64144L3.08589 3.58078Z" fill="white"/>
</g>
<defs>
<clipPath id="clip0_3190_572">
<rect width="16" height="16" fill="white"/>
</clipPath>
</defs>
</svg>
