<svg width="290" height="59" viewBox="0 0 290 59" fill="none" xmlns="http://www.w3.org/2000/svg">
<path d="M37.2123 51.7619C36.6646 51.8924 36.1169 51.6706 35.8169 51.2272L30.8742 44.0674L22.3189 45.6324C21.8885 45.7107 21.4451 45.5802 21.1451 45.2672C20.8322 44.9542 20.7017 44.5239 20.78 44.0935L22.345 35.5382L15.1852 30.5955C14.833 30.3477 14.6113 29.9434 14.6113 29.5C14.6113 29.0696 14.82 28.6523 15.1852 28.4045L22.345 23.4618L20.78 14.9065C20.7017 14.4761 20.8322 14.0327 21.1451 13.7328C21.4581 13.4198 21.8885 13.2894 22.3189 13.3676L30.8742 14.9326L35.8169 7.77277C36.0647 7.42065 36.469 7.19894 36.9124 7.19894C37.3558 7.19894 37.7601 7.40761 38.0079 7.77277L42.9506 14.9326L51.5059 13.3676C51.9363 13.2894 52.3797 13.4328 52.6796 13.7328C52.9926 14.0458 53.123 14.4761 53.0448 14.9065L51.4798 23.4618L58.6396 28.4045C59.0048 28.6523 59.2135 29.0696 59.2135 29.513C59.2135 29.8521 59.057 30.1782 58.8092 30.426L58.6396 30.5955L51.4798 35.5382L53.0448 44.0935C53.123 44.5239 52.9926 44.9673 52.6796 45.2672C52.3666 45.5672 51.9363 45.7107 51.5059 45.6324L42.9506 44.0674L38.034 51.1881C37.8123 51.475 37.5384 51.6837 37.2123 51.7619ZM30.9133 42.6328C31.3436 42.6328 31.761 42.8415 32.0088 43.2067L36.6907 49.9883C36.795 50.1317 37.0167 50.1317 37.1211 49.9883L41.803 43.2067C42.1029 42.7763 42.6246 42.5676 43.1332 42.6589L51.2451 44.1457C51.4276 44.1718 51.5711 44.0283 51.545 43.8457L50.0583 35.7339C49.967 35.2252 50.1757 34.7036 50.606 34.4036L57.3876 29.7217C57.5311 29.6174 57.5311 29.3957 57.3876 29.2913L50.606 24.6094C50.1757 24.3095 49.967 23.7878 50.0583 23.2792L51.545 15.1673C51.5711 14.9848 51.4276 14.8413 51.2451 14.8674L43.1332 16.3541C42.6246 16.4454 42.1029 16.2367 41.803 15.8064L37.1211 9.02476C37.0167 8.8813 36.795 8.8813 36.6907 9.02476L32.0088 15.8064C31.7088 16.2367 31.1871 16.4454 30.6785 16.3541L22.5667 14.8674C22.3841 14.8413 22.2406 14.9848 22.2667 15.1673L23.7535 23.2792C23.8448 23.7878 23.6361 24.3095 23.2057 24.6094L16.4241 29.2913C16.2806 29.3957 16.2806 29.6174 16.4241 29.7217L23.2057 34.4036C23.6361 34.7036 23.8448 35.2252 23.7535 35.7339L22.2667 43.8457C22.2406 44.0283 22.3841 44.1718 22.5667 44.1457L30.6785 42.6589C30.7568 42.6329 30.835 42.6328 30.9133 42.6328Z" fill="#000099"/>
<path d="M47.8152 33.1386L52.471 29.9304C52.771 29.7217 52.771 29.2783 52.471 29.0696L47.8152 25.8614C47.3327 25.5354 47.0979 24.9485 47.2022 24.3747L48.2195 18.8059C48.2847 18.4408 47.9717 18.1278 47.6065 18.193L42.0378 19.2102C41.464 19.3145 40.8771 19.0798 40.551 18.5973L37.3428 13.9414C37.1342 13.6415 36.6907 13.6415 36.4821 13.9414L33.2739 18.5973C32.9478 19.0798 32.3609 19.3145 31.7871 19.2102L26.2184 18.193C25.8532 18.1278 25.5402 18.4408 25.6054 18.8059L26.6227 24.3486C26.727 24.9355 26.4792 25.5354 25.9967 25.8745L21.3539 29.0827C21.0539 29.2913 21.0539 29.7348 21.3539 29.9434L26.0097 33.1516C26.4922 33.4907 26.74 34.0776 26.6357 34.6514L25.6185 40.2202C25.5533 40.5853 25.8663 40.8983 26.2314 40.8331L31.8132 39.8159C32.387 39.7115 32.9609 39.9463 33.2869 40.4288L36.5082 45.0977C36.7168 45.3977 37.1602 45.3977 37.3689 45.0977L40.5771 40.4419C40.9162 39.9593 41.49 39.7115 42.0769 39.8289L47.6457 40.8462C48.0108 40.9114 48.3238 40.5984 48.2586 40.2332L47.2414 34.6645C47.0849 34.0645 47.3196 33.4777 47.8152 33.1386ZM42.416 36.6859C41.177 37.6379 39.6773 38.277 38.0601 38.4856L37.0298 41.9025C36.9907 42.0199 36.8212 42.0199 36.782 41.9025L35.7518 38.4856C34.1216 38.277 32.6348 37.6379 31.3959 36.6859L28.2529 38.3683C28.1355 38.4335 28.0181 38.3031 28.0703 38.1857L29.7526 35.0427C28.7876 33.8037 28.1355 32.3039 27.9268 30.6737L24.536 29.6435C24.4186 29.6043 24.4186 29.4348 24.536 29.3957L27.9268 28.3654C28.1355 26.7222 28.7745 25.2093 29.7396 23.9573L28.0572 20.8665C27.992 20.7491 28.1224 20.6317 28.2398 20.6839L31.3437 22.3402C32.5957 21.3621 34.1085 20.71 35.7648 20.5013L36.782 17.1366C36.8212 17.0192 36.9907 17.0192 37.0298 17.1366L38.0471 20.5013C39.7033 20.71 41.2162 21.3621 42.4682 22.3402L45.572 20.6839C45.6894 20.6187 45.8068 20.7491 45.7546 20.8665L44.0983 23.9704C45.0634 25.2224 45.7155 26.7352 45.9111 28.3784L49.3019 29.4087C49.4193 29.4478 49.4193 29.6174 49.3019 29.6565L45.9111 30.6868C45.7025 32.317 45.0504 33.8168 44.0853 35.0557L45.7677 38.1987C45.8329 38.3161 45.7025 38.4335 45.5851 38.3813L42.416 36.6859Z" fill="#000099"/>
<path d="M37.395 21.8837C32.7914 21.5838 28.9832 25.405 29.2832 29.9956C29.531 33.8037 32.5957 36.8685 36.4039 37.1163C41.0076 37.4162 44.8157 33.595 44.5157 29.0044C44.2679 25.1963 41.2032 22.1315 37.395 21.8837ZM41.3597 31.2737L40.1077 33.0734C40.0164 33.1908 39.8599 33.2299 39.7295 33.1386L38.2688 32.1214V33.908C38.2688 34.0515 38.1515 34.1819 37.995 34.1819H35.804C35.6605 34.1819 35.5301 34.0645 35.5301 33.908V32.1214L34.0694 33.1386C33.9521 33.2299 33.7825 33.1908 33.6912 33.0734L32.4393 31.2737C32.348 31.1563 32.3871 30.9867 32.5045 30.8954L34.4998 29.5L32.5045 28.1046C32.3871 28.0133 32.348 27.8568 32.4393 27.7264L33.6912 25.9266C33.7825 25.8092 33.939 25.7701 34.0694 25.8614L35.5301 26.8787V25.092C35.5301 24.9485 35.6475 24.8181 35.804 24.8181H37.995C38.1384 24.8181 38.2688 24.9355 38.2688 25.092V26.8787L39.7295 25.8614C39.8469 25.7701 40.0164 25.8092 40.1077 25.9266L41.3597 27.7264C41.451 27.8437 41.4118 28.0133 41.2945 28.1046L39.2991 29.5L41.2945 30.8954C41.4118 30.9867 41.4379 31.1563 41.3597 31.2737Z" fill="#000099"/>
<path d="M71.5098 36.4642V23.24C71.5098 21.8446 72.1879 21.036 73.5051 21.036H78.161C81.3561 21.036 83.2863 22.6141 83.2863 25.5354C83.2863 27.5307 82.3343 28.7566 80.6649 29.2652C82.7907 29.8652 83.821 31.4954 83.821 33.6863C83.821 37.0902 81.8648 38.6682 77.7436 38.6682H73.4921C72.1879 38.6682 71.5098 37.8596 71.5098 36.4642ZM77.2611 28.6132C78.7087 28.6132 79.4651 27.7133 79.4651 26.1614C79.4651 24.6094 78.7348 23.8139 77.3393 23.8139H75.2657V28.6132H77.2611ZM77.535 35.8904C79.1912 35.8904 79.9868 35.1209 79.9868 33.269C79.9868 31.5736 79.1912 30.8172 77.4828 30.8172H75.2657V35.8904H77.535Z" fill="#000099"/>
<path d="M86.7422 36.4903V22.7314C86.7422 21.5316 87.316 20.9317 88.3463 20.9317H88.894C89.9895 20.9317 90.5503 21.5316 90.5503 22.7314V35.1079H95.0888C96.2886 35.1079 96.8624 35.6556 96.8624 36.7381V36.9598C96.8624 38.0813 96.2886 38.6813 95.0888 38.6813H88.7375C87.4334 38.6682 86.7422 37.9118 86.7422 36.4903Z" fill="#000099"/>
<path d="M98.7927 22.7314C98.7927 21.5316 99.4187 20.9317 100.449 20.9317H100.971C102.066 20.9317 102.601 21.5316 102.601 22.7314V32.33C102.601 34.3515 103.422 35.3817 105.079 35.3817C106.735 35.3817 107.504 34.3515 107.504 32.33V22.7314C107.504 21.5316 108.13 20.9317 109.161 20.9317H109.682C110.778 20.9317 111.339 21.5316 111.339 22.7314V31.8605C111.339 36.7641 109.187 38.9421 105.014 38.9421C100.931 38.9421 98.7666 36.7641 98.7666 31.8866V22.7314H98.7927Z" fill="#000099"/>
<path d="M114.769 36.5164V23.214C114.769 21.8185 115.473 21.0099 116.725 21.0099H124.198C125.371 21.0099 125.945 21.5577 125.945 22.5619V22.7836C125.945 23.853 125.371 24.3095 124.198 24.3095H118.525V28.1045H122.346C123.624 28.1045 124.119 28.5349 124.119 29.5261V29.7999C124.119 30.8302 123.598 31.3258 122.346 31.3258H118.525V35.3817H124.302C125.528 35.3817 126.076 35.8512 126.076 36.8293V37.0511C126.076 38.1465 125.528 38.6812 124.302 38.6812H116.725C115.473 38.6682 114.769 37.9118 114.769 36.5164Z" fill="#000099"/>
<path d="M133.274 36.4903V22.7314C133.274 21.5316 133.848 20.9317 134.879 20.9317H135.426C136.522 20.9317 137.083 21.5316 137.083 22.7314V35.1079H141.608C142.808 35.1079 143.382 35.6556 143.382 36.7381V36.9598C143.382 38.0813 142.808 38.6813 141.608 38.6813H135.257C133.953 38.6682 133.274 37.9118 133.274 36.4903Z" fill="#000099"/>
<path d="M146.055 22.7314C146.055 21.5316 146.655 20.9317 147.685 20.9317H148.233C149.302 20.9317 149.863 21.5316 149.863 22.7314V36.9858C149.863 38.1596 149.289 38.7856 148.233 38.7856H147.685C146.655 38.7856 146.055 38.1596 146.055 36.9858V22.7314Z" fill="#000099"/>
<path d="M167.079 30.9085V38.4074C167.079 38.5117 166.505 38.7856 165.801 38.7856C165.031 38.7856 164.405 38.4856 164.053 37.2076C163.975 36.8293 163.923 36.3599 163.858 35.8512C163.284 37.7031 161.862 38.9812 159.606 38.9812C155.68 38.9812 153.15 35.16 153.15 29.9564C153.15 24.5572 155.928 20.7752 160.78 20.7752C162.501 20.7752 164.001 21.2708 165.005 22.1054C165.879 22.7836 166.335 23.6835 166.335 24.5312C166.335 26.683 163.962 26.7613 163.584 26.6309C163.088 24.9354 162.136 23.9834 160.728 23.9834C158.576 23.9834 157.206 25.9136 157.206 30.0608C157.206 34.0124 158.458 35.8904 160.636 35.8904C162.214 35.8904 163.362 34.9122 163.61 33.1386C163.662 32.8125 163.688 32.4604 163.714 32.0431H161.888C160.793 32.0431 160.193 31.7431 160.193 30.6476V30.452C160.193 29.3305 160.741 29.0566 161.94 29.0566H165.762C166.857 29.0827 167.079 29.7087 167.079 30.9085Z" fill="#000099"/>
<path d="M170.339 36.9858V22.7314C170.339 21.5316 170.913 20.9317 171.969 20.9317H172.465C173.56 20.9317 174.121 21.5316 174.121 22.7314V28.1828H179.325V22.7314C179.325 21.5316 179.898 20.9317 180.929 20.9317H181.45C182.52 20.9317 183.107 21.5316 183.107 22.7314V36.9858C183.107 38.1596 182.507 38.7856 181.45 38.7856H180.929C179.898 38.7856 179.325 38.1596 179.325 36.9858V31.4823H174.121V36.9858C174.121 38.1596 173.547 38.7856 172.465 38.7856H171.943C170.913 38.7856 170.339 38.1596 170.339 36.9858Z" fill="#000099"/>
<path d="M189.888 24.5833H187.241C186.093 24.5833 185.493 23.9834 185.493 22.8879V22.6662C185.493 21.5707 186.093 21.036 187.241 21.036H196.292C197.465 21.036 198.039 21.5838 198.039 22.6662V22.8879C198.039 23.9834 197.465 24.5833 196.292 24.5833H193.696V36.9859C193.696 38.1596 193.096 38.7856 191.975 38.7856H191.427C190.397 38.7856 189.875 38.1596 189.875 36.9859L189.888 24.5833Z" fill="#000099"/>
<path d="M211.198 20.7622C213.193 20.7622 214.693 21.3881 215.579 22.2619C216.258 22.9401 216.675 23.8139 216.675 24.6355C216.675 26.9308 214.08 27.0091 213.845 26.8656C213.415 25.118 212.476 24.0878 211.067 24.0878C209.163 24.0878 207.963 25.8353 207.963 29.8912C207.963 33.9211 209.163 35.6165 211.093 35.6165C212.697 35.6165 213.441 34.3906 213.819 32.6169C213.871 32.4474 216.714 32.317 216.714 34.7688C216.714 35.6426 216.31 36.5946 215.593 37.2988C214.667 38.277 213.115 38.929 211.119 38.929C206.646 38.929 203.868 35.4339 203.868 29.9565C203.868 24.4138 206.672 20.7622 211.198 20.7622Z" fill="#000099"/>
<path d="M218.202 37.6379L222.584 22.0533C222.779 21.349 223.484 20.9056 225.336 20.9056C227.187 20.9056 227.84 21.336 228.035 22.0533L232.587 37.6118C232.665 37.9118 231.856 38.8378 230.461 38.8378C229.287 38.8638 228.805 38.0422 228.557 37.0119L227.722 34.1689H222.975L222.127 37.0641C221.827 38.3683 221.149 38.8638 220.249 38.8378C218.867 38.8378 218.097 37.8596 218.202 37.6379ZM227.122 31.2867L225.296 24.1399L223.471 31.2867H227.122Z" fill="#000099"/>
<path d="M234.854 36.7641V23.214C234.854 21.8185 235.533 21.036 236.811 21.036H241.114C244.91 21.036 246.814 22.9401 246.814 26.5135C246.814 28.9914 245.783 30.6346 243.71 31.3128C243.54 31.3649 243.24 31.4432 243.032 31.5084L247.153 37.5075C247.257 37.6771 246.501 38.7856 244.923 38.7856C243.827 38.7856 243.227 38.1596 242.797 37.338L239.471 31.9909H238.597V37.0119C238.597 38.1335 238.05 38.7856 236.967 38.7856H236.472C235.428 38.7856 234.854 38.1205 234.854 36.7641ZM240.554 29.7608C242.327 29.7608 243.058 28.7566 243.058 26.8656C243.058 24.9094 242.262 24.0095 240.502 24.0095H238.571V29.7608H240.554Z" fill="#000099"/>
<path d="M249.983 23.24C249.983 21.8185 250.831 21.036 251.979 21.036H255.656C260.286 21.036 263.129 24.3616 263.129 29.7869C263.129 35.2644 259.999 38.6682 255.33 38.6682H252.109C250.909 38.6682 249.983 37.6901 249.983 36.5164V23.24ZM259.152 29.813C259.152 25.7571 257.73 24.1399 255.422 24.1399H253.765V35.5643H255.37C257.678 35.5643 259.152 33.9602 259.152 29.813Z" fill="#000099"/>
<path d="M267.069 36.8424C267.069 38.0161 266.143 38.9421 264.944 38.9421C263.757 38.9421 262.805 38.0161 262.805 36.8424C262.805 35.6947 263.757 34.7688 264.944 34.7688C266.143 34.7688 267.069 35.6947 267.069 36.8424ZM263.339 36.8424C263.339 37.7683 264.018 38.4987 264.957 38.4987C265.869 38.4987 266.535 37.7683 266.535 36.8554C266.535 35.9295 265.869 35.1861 264.944 35.1861C264.018 35.1861 263.339 35.9295 263.339 36.8424ZM264.617 37.9379H264.135V35.8643C264.331 35.8252 264.591 35.7991 264.93 35.7991C265.322 35.7991 265.504 35.8643 265.648 35.9556C265.765 36.0469 265.856 36.2034 265.856 36.412C265.856 36.6337 265.674 36.8163 265.426 36.8946V36.9206C265.635 36.9989 265.739 37.1424 265.804 37.4293C265.869 37.7423 265.909 37.8727 265.961 37.9509H265.439C265.374 37.8727 265.335 37.6901 265.27 37.4423C265.23 37.2206 265.1 37.1163 264.839 37.1163H264.617V37.9379ZM264.631 36.7511H264.852C265.113 36.7511 265.335 36.6598 265.335 36.4512C265.335 36.2555 265.191 36.1382 264.891 36.1382C264.761 36.1382 264.683 36.1512 264.631 36.1642V36.7511Z" fill="#000099"/>
</svg>
