<svg width="340" height="340" viewBox="0 0 340 340" fill="none" xmlns="http://www.w3.org/2000/svg">
<path d="M170 299.593C241.573 299.593 299.594 241.572 299.594 169.999C299.594 98.4257 241.573 40.4043 170 40.4043C98.4267 40.4043 40.4053 98.4257 40.4053 169.999C40.4053 241.572 98.4267 299.593 170 299.593Z" fill="#B3EDFF"/>
<path d="M170 319.598C252.622 319.598 319.6 252.62 319.6 169.998C319.6 87.3766 252.622 20.3984 170 20.3984C87.3781 20.3984 20.3999 87.3766 20.3999 169.998C20.3999 252.62 87.3781 319.598 170 319.598Z" stroke="#000099" stroke-width="4.7799" stroke-miterlimit="10" stroke-linecap="round"/>
<path d="M89.6904 115.191H250.311C259.067 115.191 266.178 122.302 266.178 131.058V193.901C266.178 197.029 263.639 199.568 260.511 199.568H79.4904C76.3624 199.568 73.8237 197.029 73.8237 193.901V131.058C73.8237 122.302 80.9343 115.191 89.6904 115.191Z" fill="white" stroke="#000099" stroke-width="5.86018" stroke-linecap="round" stroke-linejoin="round"/>
<path d="M239.429 169.186H100.573V199.568H239.429V169.186Z" fill="#000099" stroke="#000099" stroke-width="5.86018" stroke-linecap="round" stroke-linejoin="round"/>
<path d="M237.792 238.923C237.792 247.679 228.093 254.778 216.129 254.778H123.872C111.908 254.778 102.209 247.679 102.209 238.923L113.508 169.434H226.495L237.794 238.923H237.792Z" fill="white" stroke="#000099" stroke-width="5.86018" stroke-linecap="round" stroke-linejoin="round"/>
<mask id="mask0_2196_1203" style="mask-type:luminance" maskUnits="userSpaceOnUse" x="108" y="145" width="87" height="59">
<path d="M113.508 158.256L108.248 201.633C112.899 202.345 122.988 203.335 127.949 203.335C164.78 203.335 194.637 182.693 194.637 157.227C194.637 153.274 193.914 149.436 192.561 145.773H131.56C121.589 145.773 113.508 151.361 113.508 158.256Z" fill="white"/>
</mask>
<g mask="url(#mask0_2196_1203)">
<path d="M237.792 239.394C237.792 248.15 228.093 255.249 216.129 255.249H123.872C111.908 255.249 102.209 248.15 102.209 239.394L113.508 169.436H226.495L237.794 239.394H237.792Z" fill="#33CCFF" stroke="#000099" stroke-width="5.86018" stroke-linecap="round" stroke-linejoin="round"/>
</g>
<path d="M208.373 232.447L201.748 207.004" stroke="#000099" stroke-width="5.86018" stroke-linecap="round" stroke-linejoin="round"/>
<path d="M183.356 232.447L180.899 207.004" stroke="#000099" stroke-width="5.86018" stroke-linecap="round" stroke-linejoin="round"/>
<path d="M131.787 85.2285H208.213C212.592 85.2285 216.146 88.7826 216.146 93.1618V115.189H123.854V93.1618C123.854 88.7826 127.408 85.2285 131.787 85.2285Z" fill="white" stroke="#000099" stroke-width="5.86018" stroke-linecap="round" stroke-linejoin="round"/>
<path d="M249.28 139.836C250.728 136.423 249.136 132.481 245.723 131.033C242.309 129.584 238.368 131.176 236.919 134.589C235.47 138.003 237.063 141.944 240.476 143.393C243.889 144.842 247.831 143.249 249.28 139.836Z" fill="#25CCFE" stroke="#000099" stroke-width="5.86018" stroke-linecap="round" stroke-linejoin="round"/>
<path d="M221.824 137.221H218.795" stroke="#000099" stroke-width="5.86018" stroke-linecap="round" stroke-linejoin="round"/>
<path d="M206.184 137.221H203.155" stroke="#000099" stroke-width="5.86018" stroke-linecap="round" stroke-linejoin="round"/>
</svg>
