<svg width="340" height="340" viewBox="0 0 340 340" fill="none" xmlns="http://www.w3.org/2000/svg">
<path d="M170 299.595C241.573 299.595 299.595 241.574 299.595 170.001C299.595 98.4276 241.573 40.4062 170 40.4062C98.4272 40.4062 40.4058 98.4276 40.4058 170.001C40.4058 241.574 98.4272 299.595 170 299.595Z" fill="#33CCFF" fill-opacity="0.3"/>
<path d="M170 319.6C252.622 319.6 319.6 252.622 319.6 170C319.6 87.3786 252.622 20.4004 170 20.4004C87.3781 20.4004 20.3999 87.3786 20.3999 170C20.3999 252.622 87.3781 319.6 170 319.6Z" stroke="#000099" stroke-width="4.794" stroke-miterlimit="10" stroke-linecap="round"/>
<path d="M276.962 88.6816H63.0361V243.774H276.962V88.6816Z" fill="white" stroke="#000099" stroke-width="6.698" stroke-linecap="round" stroke-linejoin="round"/>
<path d="M216.823 217.88H86.9043V114.576" stroke="#000099" stroke-width="6.698" stroke-linecap="round" stroke-linejoin="round"/>
<path d="M126.877 162.68H107.168V202.247H126.877V162.68Z" fill="#996699" stroke="#000099" stroke-width="6.698" stroke-linecap="round" stroke-linejoin="round"/>
<path d="M165.057 127.598H145.348V202.246H165.057V127.598Z" fill="#FFFF00" stroke="#000099" stroke-width="6.698" stroke-linecap="round" stroke-linejoin="round"/>
<path d="M203.237 145.838H183.528V202.246H203.237V145.838Z" fill="#CC3366" stroke="#000099" stroke-width="6.698" stroke-linecap="round" stroke-linejoin="round"/>
<path d="M146.755 243.773H193.242L223.724 272.787H116.275L146.755 243.773Z" fill="#33CCFF" stroke="#000099" stroke-width="6.698" stroke-linecap="round" stroke-linejoin="round"/>
<path d="M229.824 166.227H244.49" stroke="#000099" stroke-width="6.698" stroke-linecap="round" stroke-linejoin="round"/>
<path d="M229.824 182.463H259.153" stroke="#000099" stroke-width="6.698" stroke-linecap="round" stroke-linejoin="round"/>
<path d="M229.824 198.699H252.208" stroke="#000099" stroke-width="6.698" stroke-linecap="round" stroke-linejoin="round"/>
</svg>
