<svg width="16" height="16" viewBox="0 0 16 16" fill="none" xmlns="http://www.w3.org/2000/svg">
<path d="M1.8125 1.8125V5.1875H5.1875V1.8125H1.8125ZM0.125 1.8125C0.125 0.880859 0.880859 0.125 1.8125 0.125H5.1875C6.11914 0.125 6.875 0.880859 6.875 1.8125V5.1875C6.875 6.11914 6.11914 6.875 5.1875 6.875H1.8125C0.880859 6.875 0.125 6.11914 0.125 5.1875V1.8125ZM1.8125 10.8125V14.1875H5.1875V10.8125H1.8125ZM0.125 10.8125C0.125 9.88086 0.880859 9.125 1.8125 9.125H5.1875C6.11914 9.125 6.875 9.88086 6.875 10.8125V14.1875C6.875 15.1191 6.11914 15.875 5.1875 15.875H1.8125C0.880859 15.875 0.125 15.1191 0.125 14.1875V10.8125ZM14.1875 1.8125H10.8125V5.1875H14.1875V1.8125ZM10.8125 0.125H14.1875C15.1191 0.125 15.875 0.880859 15.875 1.8125V5.1875C15.875 6.11914 15.1191 6.875 14.1875 6.875H10.8125C9.88086 6.875 9.125 6.11914 9.125 5.1875V1.8125C9.125 0.880859 9.88086 0.125 10.8125 0.125ZM10.8125 10.8125V14.1875H14.1875V10.8125H10.8125ZM9.125 10.8125C9.125 9.88086 9.88086 9.125 10.8125 9.125H14.1875C15.1191 9.125 15.875 9.88086 15.875 10.8125V14.1875C15.875 15.1191 15.1191 15.875 14.1875 15.875H10.8125C9.88086 15.875 9.125 15.1191 9.125 14.1875V10.8125Z" fill="#32363C"/>
</svg>
