<svg width="348" height="347" viewBox="0 0 348 347" fill="none" xmlns="http://www.w3.org/2000/svg">
<path d="M174 338.004C264.853 338.004 338.504 264.353 338.504 173.5C338.504 82.6469 264.853 8.99609 174 8.99609C83.1469 8.99609 9.49609 82.6469 9.49609 173.5C9.49609 264.353 83.1469 338.004 174 338.004Z" fill="#9E9EFF"/>
<path d="M292.847 181.955C297.516 116.318 248.092 59.323 182.455 54.6538C116.817 49.9845 59.8229 99.4088 55.1536 165.046C50.4844 230.683 99.9087 287.678 165.546 292.347C231.183 297.016 288.178 247.592 292.847 181.955Z" fill="#7676FF"/>
<path d="M138.154 69.2174V233.274C138.155 234.763 137.863 236.238 137.294 237.614C136.725 238.99 135.89 240.24 134.837 241.293C133.784 242.346 132.534 243.181 131.158 243.751C129.782 244.32 128.307 244.613 126.818 244.612H77.8014C76.3121 244.613 74.8371 244.321 73.4608 243.752C72.0845 243.184 70.8339 242.349 69.7805 241.296C68.7272 240.243 67.8918 238.993 67.3222 237.617C66.7526 236.241 66.4599 234.766 66.4609 233.276V69.2149C66.4596 67.7256 66.7519 66.2506 67.3212 64.8744C67.8905 63.4982 68.7256 62.2478 69.7787 61.1947C70.8318 60.1416 72.0822 59.3066 73.4584 58.7373C74.8346 58.1679 76.3095 57.8756 77.7988 57.877H126.816C128.305 57.8756 129.78 58.1679 131.156 58.737C132.532 59.3061 133.782 60.141 134.835 61.1938C135.888 62.2466 136.723 63.4968 137.293 64.8727C137.862 66.2485 138.155 67.7232 138.154 69.2123V69.2174Z" fill="#4F4FE8"/>
<path d="M137.611 236.774C136.874 239.057 135.432 241.047 133.492 242.457C131.552 243.868 129.214 244.627 126.815 244.624H77.7982C74.7921 244.623 71.9093 243.429 69.7837 241.303C67.6581 239.178 66.4636 236.295 66.4629 233.289V69.2116C66.4597 66.8193 67.2126 64.4872 68.6141 62.5484C70.0156 60.6095 71.9939 59.1632 74.2665 58.416C73.9221 59.547 73.7268 60.7242 73.7268 61.9503V202.966C73.7268 221.956 89.0847 237.314 108.072 237.314H134.076C135.275 237.31 136.466 237.128 137.611 236.774Z" fill="#3535D1"/>
<path d="M123.436 141.268V77.5045C123.436 76.2031 122.919 74.955 121.998 74.0348C121.078 73.1146 119.83 72.5977 118.529 72.5977H86.0933C85.4485 72.5973 84.8099 72.7241 84.2141 72.9707C83.6183 73.2173 83.077 73.5789 82.6211 74.0348C82.1651 74.4908 81.8035 75.0321 81.5569 75.6279C81.3103 76.2237 81.1835 76.8623 81.1839 77.5071V141.268C81.1839 143.977 83.3815 146.174 86.0933 146.174H118.531C119.176 146.175 119.815 146.048 120.411 145.801C121.006 145.555 121.548 145.193 122.004 144.737C122.46 144.281 122.821 143.74 123.068 143.144C123.314 142.548 123.441 141.91 123.441 141.265L123.436 141.268ZM123.436 196.788C123.436 208.434 113.987 217.942 102.338 217.942C90.63 217.942 81.1787 208.434 81.1787 196.788C81.1747 194.008 81.7192 191.255 82.7811 188.686C83.843 186.117 85.4015 183.782 87.3671 181.817C89.3327 179.851 91.6669 178.293 94.2359 177.231C96.8049 176.169 99.5582 175.624 102.338 175.628C113.987 175.628 123.436 185.08 123.436 196.788Z" fill="white"/>
<path d="M115.897 196.788C115.897 204.278 109.818 210.393 102.326 210.393C98.7176 210.391 95.2579 208.956 92.7069 206.405C90.1558 203.853 88.7221 200.393 88.7207 196.785C88.7183 194.998 89.0687 193.227 89.7517 191.575C90.4347 189.923 91.4369 188.422 92.701 187.158C93.965 185.894 95.4661 184.892 97.1181 184.209C98.7701 183.526 100.541 183.175 102.328 183.178C104.113 183.179 105.88 183.532 107.528 184.217C109.176 184.902 110.673 185.905 111.934 187.169C113.194 188.432 114.193 189.932 114.873 191.582C115.553 193.233 115.901 195.003 115.897 196.788Z" fill="#24242B"/>
<path d="M113.519 189.131C111.293 187.611 108.657 186.806 105.962 186.825C104.175 186.817 102.404 187.163 100.751 187.843C99.0984 188.524 97.5969 189.524 96.3334 190.788C95.0698 192.052 94.0692 193.554 93.3893 195.207C92.7094 196.859 92.3637 198.63 92.3722 200.417C92.3534 203.128 93.1574 205.78 94.6778 208.023C92.8483 206.775 91.3511 205.099 90.3164 203.14C89.2817 201.182 88.7406 199 88.7403 196.786C88.7359 194.999 89.0844 193.23 89.7659 191.579C90.4474 189.928 91.4485 188.428 92.7115 187.165C93.9745 185.902 95.4746 184.901 97.1257 184.219C98.7768 183.538 100.546 183.189 102.332 183.193C106.992 183.193 111.115 185.55 113.519 189.131Z" fill="#000033"/>
<path d="M117.858 87.1353V87.1635C117.856 88.0458 117.504 88.8911 116.881 89.5152C116.257 90.1392 115.412 90.4914 114.53 90.4947H90.0855C89.2033 90.4914 88.3582 90.1392 87.7346 89.5152C87.111 88.8911 86.7595 88.0458 86.7568 87.1635V87.1378C86.7595 86.2556 87.111 85.4103 87.7346 84.7862C88.3582 84.1622 89.2033 83.81 90.0855 83.8066H114.53C115.412 83.81 116.257 84.1622 116.881 84.7862C117.504 85.4103 117.856 86.2531 117.858 87.1353ZM117.858 101.961V101.987C117.856 102.869 117.504 103.714 116.881 104.338C116.257 104.963 115.412 105.315 114.53 105.318H90.0855C89.2033 105.315 88.3582 104.963 87.7346 104.338C87.111 103.714 86.7595 102.869 86.7568 101.987V101.961C86.7595 101.079 87.111 100.234 87.7346 99.6095C88.3582 98.9855 89.2033 98.6334 90.0855 98.63H114.53C115.412 98.6334 116.257 98.9855 116.881 99.6095C117.504 100.234 117.856 101.079 117.858 101.961ZM117.858 116.784V116.81C117.856 117.692 117.504 118.538 116.881 119.162C116.257 119.786 115.412 120.138 114.53 120.141H90.0855C89.2037 120.138 88.359 119.786 87.7355 119.163C87.112 118.539 86.7602 117.695 86.7568 116.813V116.784C86.7595 115.902 87.111 115.057 87.7346 114.433C88.3582 113.809 89.2033 113.457 90.0855 113.453H114.53C115.412 113.457 116.257 113.809 116.881 114.433C117.504 115.057 117.856 115.902 117.858 116.784ZM108.045 131.608V131.634C108.042 132.516 107.69 133.361 107.067 133.985C106.443 134.609 105.598 134.961 104.716 134.965H90.0855C89.2037 134.961 88.359 134.61 87.7355 133.986C87.112 133.363 86.7602 132.518 86.7568 131.636V131.608C86.7595 130.726 87.111 129.88 87.7346 129.256C88.3582 128.632 89.2033 128.28 90.0855 128.277H104.716C105.598 128.28 106.443 128.632 107.067 129.256C107.69 129.88 108.042 130.726 108.045 131.608Z" fill="#E5E5F9"/>
<path d="M100.369 90.5086H90.0645C88.2498 90.5086 86.7795 88.987 86.7795 87.1723V87.1235C86.7795 85.3088 88.2498 83.7871 90.0645 83.7871H100.372C99.4868 83.7878 98.6383 84.1394 98.0123 84.7649C97.3864 85.3904 97.0341 86.2386 97.0327 87.1235V87.1749C97.0348 88.0588 97.387 88.906 98.0123 89.5308C98.6376 90.1557 99.4851 90.5073 100.369 90.5086ZM100.369 105.327H90.0645C88.2498 105.327 86.7795 103.805 86.7795 101.99V101.939C86.7795 100.127 88.2498 98.6541 90.0645 98.6541H100.372C98.5055 98.6541 97.0327 100.127 97.0327 101.942V101.99C97.0341 102.875 97.386 103.723 98.0114 104.348C98.6368 104.974 99.4846 105.325 100.369 105.327ZM100.369 120.145H90.0645C88.2498 120.145 86.7795 118.623 86.7795 116.809C86.7795 114.945 88.2498 113.472 90.0645 113.472H100.372C98.5055 113.472 97.0327 114.945 97.0327 116.809C97.0341 117.693 97.386 118.541 98.0114 119.166C98.6368 119.792 99.4846 120.144 100.369 120.145ZM100.369 134.963H90.0645C89.6292 134.962 89.1986 134.874 88.7974 134.705C88.3963 134.536 88.0325 134.289 87.7272 133.979C87.4218 133.669 87.1808 133.301 87.0182 132.898C86.8555 132.494 86.7744 132.062 86.7795 131.627C86.7795 129.761 88.2498 128.291 90.0645 128.291H100.372C98.5055 128.291 97.0327 129.761 97.0327 131.627C97.0327 133.49 98.5055 134.963 100.369 134.963Z" fill="#D3D3ED"/>
<path d="M209.846 69.2174V233.274C209.848 234.763 209.555 236.238 208.986 237.614C208.417 238.991 207.582 240.241 206.529 241.294C205.476 242.347 204.225 243.182 202.849 243.752C201.473 244.321 199.998 244.613 198.509 244.612H149.492C148.003 244.613 146.528 244.32 145.153 243.751C143.777 243.182 142.527 242.347 141.474 241.294C140.421 240.241 139.586 238.991 139.017 237.616C138.448 236.24 138.155 234.765 138.156 233.276V69.2149C138.155 67.7258 138.447 66.251 139.016 64.875C139.585 63.499 140.42 62.2487 141.473 61.1956C142.526 60.1426 143.776 59.3074 145.152 58.738C146.528 58.1685 148.003 57.8759 149.492 57.877H198.509C199.997 57.8759 201.472 58.1684 202.848 58.7377C204.223 59.307 205.473 60.142 206.526 61.1947C207.579 62.2475 208.414 63.4975 208.983 64.8732C209.552 66.249 209.845 67.7234 209.844 69.2123L209.846 69.2174Z" fill="#4343FF"/>
<path d="M209.304 236.774C208.567 239.057 207.125 241.047 205.185 242.457C203.245 243.868 200.907 244.627 198.509 244.624H149.492C146.485 244.623 143.603 243.429 141.477 241.303C139.351 239.178 138.157 236.295 138.156 233.289V69.2116C138.153 66.8196 138.905 64.4877 140.306 62.5489C141.707 60.6102 143.685 59.1637 145.957 58.416C145.615 59.547 145.418 60.7242 145.418 61.9503V202.966C145.418 221.956 160.776 237.314 179.765 237.314H205.77C206.968 237.31 208.159 237.128 209.304 236.774Z" fill="#000099"/>
<path d="M195.129 141.268V77.5045C195.129 76.2031 194.612 74.955 193.692 74.0348C192.772 73.1146 191.524 72.5977 190.222 72.5977H157.784C157.139 72.5973 156.501 72.7241 155.905 72.9707C155.309 73.2173 154.768 73.5789 154.312 74.0348C153.856 74.4908 153.494 75.0321 153.248 75.6279C153.001 76.2237 152.874 76.8623 152.875 77.5071V141.268C152.875 143.977 155.072 146.174 157.784 146.174H190.222C190.867 146.174 191.505 146.048 192.101 145.801C192.696 145.554 193.237 145.192 193.693 144.736C194.148 144.281 194.51 143.739 194.756 143.144C195.003 142.548 195.129 141.912 195.129 141.268ZM195.129 196.788C195.129 208.434 185.68 217.942 174.029 217.942C162.321 217.942 152.872 208.434 152.872 196.788C152.868 194.008 153.412 191.255 154.474 188.686C155.536 186.117 157.094 183.783 159.06 181.818C161.025 179.852 163.359 178.294 165.927 177.231C168.496 176.169 171.249 175.625 174.029 175.628C185.68 175.628 195.129 185.08 195.129 196.788Z" fill="white"/>
<path d="M187.589 196.788C187.589 204.278 181.51 210.393 174.018 210.393C170.409 210.391 166.949 208.957 164.397 206.406C161.846 203.854 160.412 200.394 160.41 196.785C160.408 194.998 160.758 193.227 161.441 191.575C162.124 189.923 163.126 188.422 164.39 187.158C165.654 185.894 167.156 184.892 168.808 184.209C170.46 183.526 172.23 183.175 174.018 183.178C175.803 183.179 177.57 183.532 179.218 184.216C180.867 184.901 182.364 185.904 183.625 187.168C184.885 188.432 185.884 189.932 186.564 191.582C187.245 193.232 187.593 195.003 187.589 196.788Z" fill="#24242B"/>
<path d="M185.212 189.131C182.987 187.611 180.35 186.806 177.655 186.825C175.868 186.817 174.097 187.163 172.444 187.843C170.791 188.523 169.289 189.524 168.025 190.787C166.761 192.051 165.76 193.553 165.08 195.206C164.4 196.859 164.054 198.63 164.063 200.417C164.045 203.128 164.85 205.78 166.371 208.023C164.542 206.775 163.045 205.099 162.01 203.14C160.975 201.182 160.434 199 160.434 196.785C160.429 195 160.778 193.23 161.459 191.579C162.14 189.929 163.141 188.429 164.404 187.166C165.667 185.903 167.167 184.901 168.817 184.22C170.468 183.538 172.237 183.189 174.023 183.193C178.686 183.193 182.806 185.55 185.212 189.131Z" fill="#000033"/>
<path d="M189.551 87.1353V87.1635C189.548 88.0458 189.197 88.8911 188.573 89.5152C187.949 90.1392 187.104 90.4914 186.222 90.4947H161.778C160.896 90.4914 160.051 90.1392 159.427 89.5152C158.803 88.8911 158.452 88.0458 158.449 87.1635V87.1378C158.452 86.2556 158.803 85.4103 159.427 84.7862C160.051 84.1622 160.896 83.81 161.778 83.8066H186.222C187.104 83.81 187.949 84.1622 188.573 84.7862C189.197 85.4103 189.548 86.2531 189.551 87.1353ZM189.551 101.961V101.987C189.548 102.869 189.197 103.714 188.573 104.338C187.949 104.963 187.104 105.315 186.222 105.318H161.778C160.896 105.315 160.051 104.963 159.427 104.338C158.803 103.714 158.452 102.869 158.449 101.987V101.961C158.452 101.079 158.803 100.234 159.427 99.6095C160.051 98.9855 160.896 98.6334 161.778 98.63H186.222C187.104 98.6334 187.949 98.9855 188.573 99.6095C189.197 100.234 189.548 101.079 189.551 101.961ZM189.551 116.784V116.81C189.548 117.692 189.197 118.538 188.573 119.162C187.949 119.786 187.104 120.138 186.222 120.141H161.778C160.896 120.138 160.051 119.786 159.428 119.163C158.804 118.539 158.453 117.695 158.449 116.813V116.784C158.452 115.902 158.803 115.057 159.427 114.433C160.051 113.809 160.896 113.457 161.778 113.453H186.222C187.104 113.457 187.949 113.809 188.573 114.433C189.197 115.057 189.548 115.902 189.551 116.784ZM179.737 131.608V131.634C179.734 132.516 179.383 133.361 178.759 133.985C178.136 134.609 177.291 134.961 176.408 134.965H161.778C160.896 134.961 160.051 134.61 159.428 133.986C158.804 133.363 158.453 132.518 158.449 131.636V131.608C158.452 130.726 158.803 129.88 159.427 129.256C160.051 128.632 160.896 128.28 161.778 128.277H176.408C177.291 128.28 178.136 128.632 178.759 129.256C179.383 129.88 179.734 130.726 179.737 131.608Z" fill="#E5E5F9"/>
<path d="M172.062 90.5086H161.757C159.943 90.5086 158.47 88.987 158.47 87.1723V87.1235C158.47 85.3088 159.943 83.7871 161.76 83.7871H172.062C171.178 83.7885 170.33 84.1404 169.704 84.7658C169.079 85.3912 168.727 86.239 168.726 87.1235V87.1749C168.728 88.0588 169.08 88.906 169.705 89.5308C170.331 90.1557 171.178 90.5073 172.062 90.5086ZM172.062 105.327H161.757C159.943 105.327 158.47 103.805 158.47 101.99V101.939C158.47 100.127 159.943 98.6541 161.76 98.6541H172.062C170.199 98.6541 168.726 100.127 168.726 101.942V101.99C168.727 102.875 169.079 103.723 169.704 104.348C170.33 104.974 171.178 105.325 172.062 105.327ZM172.062 120.145H161.757C159.943 120.145 158.47 118.623 158.47 116.809C158.47 114.945 159.943 113.472 161.76 113.472H172.062C170.199 113.472 168.726 114.945 168.726 116.809C168.727 117.693 169.079 118.541 169.704 119.166C170.33 119.792 171.178 120.144 172.062 120.145ZM172.062 134.963H161.757C161.322 134.962 160.891 134.874 160.49 134.706C160.088 134.537 159.724 134.29 159.418 133.98C159.113 133.67 158.872 133.302 158.709 132.898C158.546 132.494 158.465 132.062 158.47 131.627C158.47 129.761 159.943 128.291 161.76 128.291H172.062C170.199 128.291 168.726 129.761 168.726 131.627C168.726 133.49 170.199 134.963 172.062 134.963Z" fill="#D3D3ED"/>
<path d="M281.539 69.2174V233.274C281.541 234.763 281.248 236.238 280.679 237.614C280.11 238.991 279.275 240.241 278.222 241.294C277.169 242.347 275.918 243.182 274.542 243.752C273.166 244.321 271.691 244.613 270.202 244.612H221.185C219.696 244.613 218.221 244.321 216.845 243.752C215.469 243.183 214.218 242.348 213.165 241.295C212.112 240.242 211.277 238.992 210.708 237.616C210.138 236.24 209.846 234.766 209.847 233.276V69.2149C209.845 67.7258 210.138 66.251 210.707 64.875C211.276 63.499 212.111 62.2487 213.164 61.1956C214.216 60.1426 215.466 59.3074 216.842 58.738C218.218 58.1685 219.693 57.8759 221.182 57.877H270.199C271.688 57.8753 273.163 58.1673 274.54 58.7363C275.916 59.3053 277.167 60.1401 278.22 61.1929C279.273 62.2458 280.109 63.496 280.678 64.8721C281.248 66.2481 281.54 67.723 281.539 69.2123V69.2174Z" fill="#5454FC"/>
<path d="M280.994 236.774C280.257 239.057 278.815 241.047 276.875 242.457C274.935 243.868 272.597 244.627 270.198 244.624H221.181C218.176 244.623 215.294 243.428 213.169 241.302C211.043 239.177 209.849 236.294 209.849 233.289V69.2116C209.845 66.8196 210.598 64.4877 211.999 62.5489C213.4 60.6102 215.378 59.1637 217.65 58.416C217.296 59.5608 217.114 60.7519 217.11 61.9503V202.966C217.11 221.956 232.468 237.314 251.458 237.314H277.462C278.688 237.314 279.866 237.116 280.994 236.774Z" fill="#4444F1"/>
<path d="M266.821 141.268V77.5045C266.821 76.8599 266.694 76.2216 266.448 75.6261C266.201 75.0306 265.839 74.4896 265.383 74.0339C264.927 73.5783 264.386 73.2169 263.791 72.9704C263.195 72.724 262.557 72.5973 261.912 72.5977H229.474C228.829 72.5977 228.191 72.7247 227.596 72.9714C227 73.2182 226.459 73.5798 226.003 74.0357C225.548 74.4917 225.186 75.0329 224.94 75.6285C224.693 76.2241 224.567 76.8625 224.567 77.5071V141.268C224.567 143.977 226.765 146.174 229.476 146.174H261.915C262.559 146.174 263.197 146.048 263.793 145.801C264.388 145.554 264.929 145.192 265.385 144.736C265.841 144.281 266.202 143.739 266.449 143.144C266.695 142.548 266.822 141.912 266.821 141.268ZM266.821 196.788C266.821 208.434 257.37 217.942 245.721 217.942C234.013 217.942 224.564 208.434 224.564 196.788C224.56 194.008 225.105 191.255 226.167 188.686C227.228 186.117 228.787 183.783 230.752 181.818C232.717 179.852 235.051 178.294 237.62 177.231C240.189 176.169 242.942 175.625 245.721 175.628C257.37 175.628 266.821 185.08 266.821 196.788Z" fill="white"/>
<path d="M259.28 196.788C259.28 204.278 253.204 210.393 245.711 210.393C242.103 210.391 238.642 208.957 236.091 206.406C233.539 203.854 232.105 200.394 232.104 196.785C232.101 194.998 232.451 193.227 233.135 191.575C233.818 189.923 234.82 188.422 236.084 187.158C237.348 185.894 238.849 184.892 240.501 184.209C242.153 183.526 243.923 183.175 245.711 183.178C247.496 183.179 249.263 183.532 250.912 184.216C252.56 184.901 254.058 185.904 255.318 187.168C256.579 188.432 257.578 189.932 258.258 191.582C258.938 193.232 259.286 195 259.283 196.785L259.28 196.788Z" fill="#24242B"/>
<path d="M256.905 189.131C254.68 187.61 252.043 186.806 249.348 186.825C247.561 186.817 245.79 187.163 244.137 187.843C242.484 188.523 240.982 189.524 239.718 190.787C238.454 192.051 237.453 193.553 236.773 195.206C236.093 196.859 235.747 198.63 235.756 200.417C235.756 203.263 236.591 205.864 238.062 208.023C236.232 206.775 234.735 205.099 233.7 203.14C232.665 201.182 232.124 199 232.124 196.786C232.12 194.999 232.468 193.23 233.15 191.579C233.831 189.928 234.832 188.428 236.095 187.165C237.358 185.902 238.858 184.901 240.509 184.219C242.161 183.538 243.93 183.189 245.716 183.193C250.379 183.193 254.499 185.55 256.905 189.131Z" fill="#000033"/>
<path d="M261.244 87.1353V87.1635C261.241 88.0462 260.889 88.8919 260.265 89.5161C259.641 90.1402 258.796 90.492 257.913 90.4947H233.469C232.587 90.4914 231.742 90.1391 231.119 89.515C230.496 88.8909 230.145 88.0455 230.143 87.1635V87.1378C230.143 85.3052 231.639 83.8066 233.471 83.8066H257.915C258.798 83.81 259.643 84.1622 260.266 84.7862C260.89 85.4103 261.241 86.2531 261.244 87.1353ZM261.244 101.961V101.987C261.241 102.87 260.889 103.715 260.265 104.339C259.641 104.964 258.796 105.315 257.913 105.318H233.469C232.587 105.315 231.742 104.962 231.119 104.338C230.496 103.714 230.145 102.869 230.143 101.987V101.961C230.143 100.128 231.639 98.63 233.471 98.63H257.915C258.798 98.6334 259.643 98.9855 260.266 99.6095C260.89 100.234 261.241 101.079 261.244 101.961ZM261.244 116.784V116.81C261.241 117.693 260.889 118.539 260.265 119.163C259.641 119.787 258.796 120.139 257.913 120.141H233.469C232.587 120.137 231.743 119.785 231.12 119.162C230.497 118.538 230.146 117.694 230.143 116.813V116.784C230.145 115.902 230.497 115.057 231.12 114.433C231.744 113.809 232.589 113.457 233.471 113.453H257.915C258.798 113.457 259.643 113.809 260.266 114.433C260.89 115.057 261.241 115.902 261.244 116.784ZM251.43 131.608V131.634C251.428 132.516 251.076 133.361 250.453 133.985C249.829 134.609 248.984 134.961 248.102 134.965H233.471C232.589 134.962 231.744 134.61 231.121 133.987C230.497 133.363 230.145 132.518 230.143 131.636V131.608C230.143 129.775 231.639 128.277 233.471 128.277H248.102C248.984 128.28 249.829 128.632 250.453 129.256C251.076 129.88 251.428 130.726 251.43 131.608Z" fill="#E5E5F9"/>
<path d="M243.754 90.5086H233.45C231.635 90.5086 230.162 88.987 230.162 87.1723V87.1235C230.162 85.3088 231.635 83.7871 233.45 83.7871H243.754C242.87 83.7885 242.022 84.1404 241.397 84.7658C240.771 85.3912 240.419 86.239 240.418 87.1235V87.1749C240.42 88.0588 240.772 88.906 241.398 89.5308C242.023 90.1557 242.87 90.5073 243.754 90.5086ZM243.754 105.327H233.45C231.635 105.327 230.162 103.805 230.162 101.99V101.939C230.162 100.127 231.635 98.6541 233.45 98.6541H243.754C241.888 98.6541 240.418 100.127 240.418 101.942V101.99C240.419 102.875 240.771 103.723 241.397 104.348C242.022 104.974 242.87 105.325 243.754 105.327ZM243.754 120.145H233.45C231.635 120.145 230.162 118.623 230.162 116.809C230.162 114.945 231.635 113.472 233.45 113.472H243.754C241.888 113.472 240.418 114.945 240.418 116.809C240.419 117.693 240.771 118.541 241.397 119.166C242.022 119.792 242.87 120.144 243.754 120.145ZM243.754 134.963H233.45C233.014 134.962 232.583 134.874 232.182 134.706C231.781 134.537 231.417 134.29 231.111 133.98C230.805 133.67 230.564 133.302 230.401 132.898C230.238 132.494 230.157 132.062 230.162 131.627C230.162 129.761 231.635 128.291 233.45 128.291H243.754C241.888 128.291 240.418 129.761 240.418 131.627C240.418 133.49 241.888 134.963 243.754 134.963Z" fill="#D3D3ED"/>
<path d="M300.616 259.459V259.484C300.616 263.419 299.052 267.193 296.269 269.976C293.487 272.759 289.713 274.322 285.778 274.323H60.937C57.0009 274.323 53.2259 272.759 50.4426 269.976C47.6593 267.193 46.0957 263.418 46.0957 259.482V259.459C46.0957 255.522 47.6593 251.747 50.4426 248.964C53.2259 246.181 57.0009 244.617 60.937 244.617H285.778C289.714 244.617 293.489 246.181 296.272 248.964C299.055 251.747 300.616 255.522 300.616 259.459Z" fill="#4242C6"/>
<path d="M300.457 261.476C299.506 268.724 293.312 274.33 285.778 274.33H60.9375C52.738 274.33 46.1064 267.673 46.1064 259.473V259.448C46.1064 251.271 52.738 244.611 60.9375 244.611H68.7514C72.9395 249.88 78.2645 254.133 84.3282 257.054C90.3919 259.974 97.0373 261.486 103.768 261.476H300.457Z" fill="#2323AF"/>
<path d="M80.0527 274.322V284.082C80.0527 288.018 81.6164 291.793 84.3997 294.576C87.1829 297.36 90.9579 298.923 94.894 298.923H94.9198C98.8555 298.923 102.63 297.359 105.412 294.575C108.195 291.792 109.759 288.018 109.759 284.082V274.322H80.0527ZM236.956 274.322V284.082C236.956 288.018 238.519 291.793 241.303 294.576C244.086 297.36 247.861 298.923 251.797 298.923H251.82C255.756 298.923 259.531 297.36 262.315 294.576C265.098 291.793 266.662 288.018 266.662 284.082V274.322H236.956Z" fill="#2323AF"/>
<path d="M80.0635 274.33H109.756V281.116H96.6218C91.2215 281.116 86.8518 285.485 86.8518 290.886C86.8518 293.225 87.3916 295.461 88.3683 297.415C85.8765 296.189 83.7779 294.289 82.3105 291.931C80.8431 289.573 80.0655 286.852 80.066 284.074V274.333L80.0635 274.33ZM266.652 274.33V281.116H253.54C248.143 281.116 243.773 285.485 243.773 290.886C243.773 293.225 244.313 295.461 245.315 297.415C242.808 296.203 240.693 294.308 239.215 291.948C237.737 289.588 236.955 286.859 236.959 284.074V274.333L266.652 274.33Z" fill="#0808A5"/>
<path opacity="0.3" d="M142.341 252.601V252.624C142.341 254.3 140.994 255.647 139.318 255.647H94.3187C93.9213 255.648 93.5277 255.571 93.1603 255.42C92.793 255.268 92.4592 255.046 92.1782 254.765C91.8973 254.484 91.6747 254.15 91.5233 253.783C91.3718 253.415 91.2946 253.022 91.2959 252.624V252.601C91.2959 250.925 92.6428 249.578 94.3187 249.578H139.321C140.997 249.578 142.341 250.925 142.341 252.601ZM159.624 252.601V252.624C159.624 254.3 158.277 255.647 156.601 255.647H150.16C149.763 255.648 149.369 255.571 149.002 255.42C148.634 255.268 148.301 255.046 148.02 254.765C147.739 254.484 147.516 254.15 147.365 253.783C147.213 253.415 147.136 253.022 147.137 252.624V252.601C147.137 250.925 148.484 249.578 150.16 249.578H156.601C158.277 249.578 159.624 250.925 159.624 252.601ZM274.07 162.921H274.093C275.769 162.921 277.116 164.268 277.116 165.944V200.662C277.116 202.34 275.769 203.684 274.093 203.684H274.07C273.672 203.686 273.279 203.608 272.911 203.457C272.544 203.306 272.21 203.083 271.929 202.802C271.648 202.521 271.426 202.187 271.274 201.82C271.123 201.453 271.046 201.059 271.047 200.662V165.944C271.047 164.268 272.394 162.921 274.07 162.921ZM274.07 145.64H274.093C275.769 145.64 277.116 146.985 277.116 148.663V155.102C277.116 156.778 275.769 158.125 274.093 158.125H274.07C273.672 158.126 273.279 158.049 272.911 157.897C272.544 157.746 272.21 157.523 271.929 157.242C271.648 156.961 271.426 156.628 271.274 156.26C271.123 155.893 271.046 155.499 271.047 155.102V148.663C271.047 146.985 272.394 145.64 274.07 145.64ZM104.909 65.5013V65.5218C104.909 67.2003 103.562 68.5446 101.886 68.5446H82.1634C81.7661 68.5459 81.3724 68.4687 81.005 68.3173C80.6377 68.1658 80.3039 67.9432 80.023 67.6623C79.742 67.3813 79.5194 67.0475 79.368 66.6802C79.2165 66.3128 79.1393 65.9192 79.1406 65.5218V65.5013C79.1406 63.8228 80.4875 62.4785 82.1634 62.4785H101.886C103.562 62.4785 104.909 63.8228 104.909 65.5013ZM118.084 65.5013V65.5218C118.084 67.2003 116.737 68.5446 115.062 68.5446H110.764C110.367 68.5459 109.973 68.4687 109.606 68.3173C109.238 68.1658 108.904 67.9432 108.623 67.6623C108.343 67.3813 108.12 67.0475 107.968 66.6802C107.817 66.3128 107.74 65.9192 107.741 65.5218V65.5013C107.741 63.8228 109.085 62.4785 110.764 62.4785H115.062C116.737 62.4785 118.084 63.8228 118.084 65.5013ZM202.089 104.075H202.11C203.788 104.075 205.132 105.419 205.132 107.095V140.528C205.132 142.206 203.788 143.551 202.11 143.551H202.089C201.692 143.552 201.298 143.475 200.931 143.323C200.563 143.172 200.23 142.949 199.949 142.668C199.668 142.387 199.445 142.054 199.294 141.686C199.142 141.319 199.065 140.925 199.066 140.528V107.095C199.066 105.419 200.411 104.072 202.089 104.072V104.075Z" fill="white"/>
</svg>
