<svg width="268" height="22" viewBox="0 0 268 22" fill="none" xmlns="http://www.w3.org/2000/svg">
<path d="M2.68045 19.0445L4.07038 1.79907C4.09612 1.39582 4.31491 1.1942 4.72674 1.1942H5.44744C5.83353 1.1942 6.08664 1.3615 6.20675 1.69611L10.8398 12.082L11.7665 14.347H11.8179C12.1354 13.4719 12.4357 12.7169 12.7188 12.082L17.3519 1.69611C17.4978 1.3615 17.7552 1.1942 18.1241 1.1942H18.8319C19.2438 1.1942 19.4625 1.39582 19.4883 1.79907L20.8911 19.0445C20.8911 19.0702 20.8911 19.0959 20.8911 19.1217C20.8911 19.5249 20.6809 19.7266 20.2605 19.7266H19.7328C19.3124 19.7266 19.0893 19.5249 19.0636 19.1217L18.0984 6.75391L18.0083 4.17997H17.9568C17.6136 5.26102 17.3004 6.119 17.0173 6.75391L12.8475 15.7756C12.7274 16.1102 12.4829 16.2775 12.1139 16.2775H11.4833C11.0887 16.2775 10.8313 16.1102 10.7111 15.7756L6.57997 6.75391C6.45986 6.47935 6.31829 6.12329 6.15527 5.68572C5.99226 5.24815 5.85927 4.87922 5.75631 4.57893L5.60188 4.12849H5.5504C5.5504 5.20954 5.52466 6.08468 5.47318 6.75391L4.49508 19.1217C4.46934 19.5249 4.25056 19.7266 3.83873 19.7266H3.31107C2.89066 19.7266 2.68045 19.5249 2.68045 19.1217C2.68045 19.0959 2.68045 19.0702 2.68045 19.0445ZM24.1303 19.0702V1.85055C24.1303 1.41298 24.3405 1.1942 24.7609 1.1942H33.9113C34.3489 1.1942 34.5677 1.41298 34.5677 1.85055V2.17229C34.5677 2.60986 34.3489 2.82865 33.9113 2.82865H25.945V9.58524H32.3283C32.7659 9.58524 32.9847 9.79544 32.9847 10.2159V10.5505C32.9847 10.988 32.7659 11.2068 32.3283 11.2068H25.945V18.0921H34.3746C34.8208 18.0921 35.0438 18.3109 35.0438 18.7485V19.0702C35.0438 19.5078 34.8208 19.7266 34.3746 19.7266H24.7609C24.3405 19.7266 24.1303 19.5078 24.1303 19.0702ZM36.7773 19.0445L38.1673 1.79907C38.193 1.39582 38.4118 1.1942 38.8236 1.1942H39.5443C39.9304 1.1942 40.1835 1.3615 40.3036 1.69611L44.9367 12.082L45.8633 14.347H45.9148C46.2323 13.4719 46.5326 12.7169 46.8157 12.082L51.4488 1.69611C51.5946 1.3615 51.852 1.1942 52.221 1.1942H52.9288C53.3406 1.1942 53.5594 1.39582 53.5852 1.79907L54.988 19.0445C54.988 19.0702 54.988 19.0959 54.988 19.1217C54.988 19.5249 54.7778 19.7266 54.3573 19.7266H53.8297C53.4093 19.7266 53.1862 19.5249 53.1605 19.1217L52.1952 6.75391L52.1051 4.17997H52.0537C51.7105 5.26102 51.3973 6.119 51.1142 6.75391L46.9444 15.7756C46.8243 16.1102 46.5798 16.2775 46.2108 16.2775H45.5802C45.1855 16.2775 44.9281 16.1102 44.808 15.7756L40.6769 6.75391C40.5567 6.47935 40.4152 6.12329 40.2522 5.68572C40.0891 5.24815 39.9561 4.87922 39.8532 4.57893L39.6988 4.12849H39.6473C39.6473 5.20954 39.6215 6.08468 39.5701 6.75391L38.592 19.1217C38.5662 19.5249 38.3474 19.7266 37.9356 19.7266H37.4079C36.9875 19.7266 36.7773 19.5249 36.7773 19.1217C36.7773 19.0959 36.7773 19.0702 36.7773 19.0445ZM58.2272 19.0702V1.85055C58.2272 1.41298 58.4374 1.1942 58.8578 1.1942H64.5462C66.0305 1.1942 67.2403 1.6189 68.1755 2.4683C69.1107 3.30912 69.5783 4.44165 69.5783 5.8659C69.5783 6.80967 69.3681 7.62476 68.9477 8.31114C68.5273 8.99752 67.9481 9.52518 67.2103 9.89411V9.94559C68.154 10.2116 68.9091 10.765 69.4753 11.6058C70.0416 12.438 70.3247 13.4161 70.3247 14.5401C70.3247 16.1445 69.7971 17.41 68.7418 18.3366C67.695 19.2633 66.3694 19.7266 64.765 19.7266H58.8578C58.4374 19.7266 58.2272 19.5078 58.2272 19.0702ZM60.0418 18.0921H64.7908C65.9061 18.0921 66.7898 17.7661 67.4419 17.114C68.094 16.4619 68.42 15.5825 68.42 14.4757C68.42 13.3775 68.0811 12.4938 67.4033 11.8246C66.7341 11.1553 65.8547 10.8207 64.765 10.8207H60.0418V18.0921ZM60.0418 9.23776H64.5462C65.4814 9.23776 66.2365 8.93746 66.8113 8.33688C67.3947 7.73629 67.6864 6.95553 67.6864 5.99459C67.6864 5.03366 67.4033 4.26576 66.837 3.69092C66.2708 3.11607 65.4986 2.82865 64.5205 2.82865H60.0418V9.23776ZM73.0749 19.0702V1.85055C73.0749 1.41298 73.2851 1.1942 73.7055 1.1942H82.8559C83.2935 1.1942 83.5123 1.41298 83.5123 1.85055V2.17229C83.5123 2.60986 83.2935 2.82865 82.8559 2.82865H74.8896V9.58524H81.2729C81.7105 9.58524 81.9293 9.79544 81.9293 10.2159V10.5505C81.9293 10.988 81.7105 11.2068 81.2729 11.2068H74.8896V18.0921H83.3192C83.7654 18.0921 83.9884 18.3109 83.9884 18.7485V19.0702C83.9884 19.5078 83.7654 19.7266 83.3192 19.7266H73.7055C73.2851 19.7266 73.0749 19.5078 73.0749 19.0702ZM86.3783 19.0702V1.85055C86.3783 1.41298 86.5885 1.1942 87.0089 1.1942H92.0152C93.5167 1.1942 94.6406 1.37008 95.3871 1.72185C96.2365 2.1251 96.9057 2.72569 97.3947 3.52361C97.8838 4.32153 98.1283 5.2696 98.1283 6.36782C98.1283 7.62047 97.8066 8.71439 97.1631 9.64959C96.5196 10.5762 95.6745 11.1854 94.6278 11.4771V11.5286C94.7479 11.683 94.9066 11.9275 95.1039 12.2621L98.7075 18.9673C98.8276 19.1903 98.8447 19.3748 98.7589 19.5206C98.6731 19.6579 98.5058 19.7266 98.257 19.7266H97.5749C97.2231 19.7266 96.97 19.5764 96.8156 19.2761L92.8646 11.9275H88.1929V19.0702C88.1929 19.5078 87.9827 19.7266 87.5623 19.7266H87.0089C86.5885 19.7266 86.3783 19.5078 86.3783 19.0702ZM88.1929 10.2931H92.5943C93.7097 10.2931 94.5977 9.9413 95.2584 9.23776C95.9276 8.52563 96.2622 7.58615 96.2622 6.41929C96.2622 5.68143 96.0906 5.02508 95.7474 4.45023C95.4042 3.87538 94.9238 3.45068 94.306 3.17613C93.7826 2.94448 92.9761 2.82865 91.8865 2.82865H88.1929V10.2931Z" fill="#000099"/>
<path d="M105.706 17.1655L106.015 16.7794C106.152 16.6078 106.307 16.522 106.478 16.522C106.616 16.522 106.77 16.5778 106.942 16.6893C107.225 16.921 107.534 17.144 107.868 17.3585C108.203 17.5645 108.683 17.7747 109.31 17.9892C109.945 18.1951 110.58 18.298 111.214 18.298C112.33 18.298 113.235 18.0106 113.93 17.4358C114.633 16.8609 114.985 16.0973 114.985 15.1449C114.985 14.5186 114.814 13.9609 114.47 13.4719C114.136 12.9828 113.694 12.5796 113.145 12.2621C112.604 11.9361 112.008 11.6315 111.356 11.3484C110.704 11.0567 110.048 10.7521 109.387 10.4346C108.735 10.1172 108.134 9.76971 107.585 9.39219C107.045 9.0061 106.603 8.51276 106.26 7.91218C105.925 7.30301 105.758 6.61234 105.758 5.84016C105.758 4.35585 106.307 3.15897 107.405 2.24951C108.512 1.34005 109.893 0.885323 111.549 0.885323C112.527 0.885323 113.407 1.03547 114.187 1.33576C114.977 1.63606 115.603 1.96638 116.066 2.32673C116.255 2.46401 116.349 2.62273 116.349 2.80291C116.349 2.92303 116.307 3.05601 116.221 3.20187L115.976 3.62657C115.856 3.84106 115.697 3.94831 115.5 3.94831C115.371 3.94831 115.225 3.90112 115.062 3.80674C113.913 3.0174 112.724 2.62273 111.498 2.62273C110.399 2.62273 109.477 2.90587 108.731 3.47213C107.993 4.02982 107.624 4.78484 107.624 5.7372C107.624 6.33779 107.791 6.86973 108.126 7.33304C108.469 7.78777 108.911 8.16957 109.451 8.47845C110 8.77874 110.601 9.07045 111.253 9.35359C111.905 9.62814 112.557 9.92414 113.209 10.2416C113.87 10.5505 114.47 10.9022 115.011 11.2969C115.56 11.683 116.002 12.1892 116.337 12.8155C116.68 13.4333 116.851 14.1454 116.851 14.9519C116.851 16.419 116.341 17.6374 115.32 18.6069C114.299 19.5678 112.93 20.0483 111.214 20.0483C110.382 20.0483 109.563 19.9196 108.756 19.6622C107.958 19.4048 107.349 19.1517 106.929 18.9029C106.508 18.6455 106.127 18.3752 105.783 18.0921C105.629 17.9377 105.552 17.7747 105.552 17.6031C105.552 17.4658 105.603 17.3199 105.706 17.1655ZM119.5 19.0702V1.85055C119.5 1.41298 119.711 1.1942 120.131 1.1942H129.281C129.719 1.1942 129.938 1.41298 129.938 1.85055V2.17229C129.938 2.60986 129.719 2.82865 129.281 2.82865H121.315V9.58524H127.698C128.136 9.58524 128.355 9.79544 128.355 10.2159V10.5505C128.355 10.988 128.136 11.2068 127.698 11.2068H121.315V18.0921H129.745C130.191 18.0921 130.414 18.3109 130.414 18.7485V19.0702C130.414 19.5078 130.191 19.7266 129.745 19.7266H120.131C119.711 19.7266 119.5 19.5078 119.5 19.0702ZM132.883 19.0702V1.85055C132.883 1.41298 133.093 1.1942 133.514 1.1942H138.52C140.021 1.1942 141.145 1.37008 141.892 1.72185C142.741 2.1251 143.41 2.72569 143.899 3.52361C144.388 4.32153 144.633 5.2696 144.633 6.36782C144.633 7.62047 144.311 8.71439 143.668 9.64959C143.024 10.5762 142.179 11.1854 141.132 11.4771V11.5286C141.252 11.683 141.411 11.9275 141.609 12.2621L145.212 18.9673C145.332 19.1903 145.349 19.3748 145.264 19.5206C145.178 19.6579 145.01 19.7266 144.762 19.7266H144.08C143.728 19.7266 143.475 19.5764 143.32 19.2761L139.369 11.9275H134.698V19.0702C134.698 19.5078 134.487 19.7266 134.067 19.7266H133.514C133.093 19.7266 132.883 19.5078 132.883 19.0702ZM134.698 10.2931H139.099C140.214 10.2931 141.102 9.9413 141.763 9.23776C142.432 8.52563 142.767 7.58615 142.767 6.41929C142.767 5.68143 142.595 5.02508 142.252 4.45023C141.909 3.87538 141.428 3.45068 140.811 3.17613C140.287 2.94448 139.481 2.82865 138.391 2.82865H134.698V10.2931ZM145.648 1.96638C145.57 1.72614 145.575 1.53739 145.66 1.40011C145.755 1.26283 145.926 1.1942 146.175 1.1942H146.78C147.175 1.1942 147.419 1.37008 147.514 1.72185L152.443 15.2736C152.546 15.5568 152.657 15.9 152.777 16.3032C152.898 16.6979 152.992 17.0239 153.061 17.2813L153.163 17.6674H153.215C153.472 16.7065 153.708 15.9086 153.923 15.2736L158.903 1.72185C158.998 1.37008 159.234 1.1942 159.611 1.1942H160.242C160.473 1.1942 160.636 1.26283 160.731 1.40011C160.825 1.53739 160.838 1.72614 160.769 1.96638L154.373 19.1989C154.253 19.5507 154.004 19.7266 153.627 19.7266H152.765C152.387 19.7266 152.151 19.5507 152.057 19.1989L145.648 1.96638ZM162.659 19.0702V1.85055C162.659 1.41298 162.869 1.1942 163.29 1.1942H163.843C164.264 1.1942 164.474 1.41298 164.474 1.85055V19.0702C164.474 19.5078 164.264 19.7266 163.843 19.7266H163.29C162.869 19.7266 162.659 19.5078 162.659 19.0702ZM167.2 10.3446C167.2 9.01468 167.432 7.76632 167.895 6.59947C168.358 5.43262 168.993 4.43307 169.8 3.60083C170.606 2.76001 171.589 2.09936 172.747 1.6189C173.914 1.12985 175.167 0.885323 176.505 0.885323C177.277 0.885323 178.015 0.953962 178.719 1.09124C179.431 1.22852 180.044 1.41298 180.559 1.64464C181.082 1.86771 181.507 2.07363 181.833 2.26238C182.168 2.45114 182.468 2.64847 182.734 2.85439C182.897 2.98308 182.978 3.13752 182.978 3.3177C182.978 3.45497 182.931 3.60941 182.837 3.78101L182.592 4.12849C182.464 4.30008 182.314 4.38588 182.142 4.38588C182.005 4.38588 181.859 4.3344 181.704 4.23144C180.16 3.14181 178.444 2.59699 176.556 2.59699C175.089 2.59699 173.785 2.94019 172.644 3.62657C171.503 4.30437 170.628 5.2267 170.019 6.39355C169.41 7.56041 169.105 8.86883 169.105 10.3188C169.105 11.786 169.41 13.1244 170.019 14.3342C170.628 15.5439 171.512 16.5134 172.67 17.2427C173.837 17.9634 175.162 18.3238 176.647 18.3238C178.68 18.3238 180.516 17.6588 182.155 16.329C182.318 16.2003 182.468 16.1359 182.605 16.1359C182.768 16.1359 182.914 16.226 183.043 16.4062L183.287 16.6893C183.407 16.8437 183.468 16.9939 183.468 17.1398C183.468 17.3028 183.39 17.4615 183.236 17.6159C181.305 19.2375 179.092 20.0483 176.595 20.0483C175.214 20.0483 173.931 19.7952 172.747 19.289C171.572 18.7828 170.581 18.0964 169.774 17.2298C168.968 16.3547 168.337 15.3251 167.882 14.1411C167.428 12.9485 167.2 11.683 167.2 10.3446ZM185.975 19.0702V1.85055C185.975 1.41298 186.185 1.1942 186.606 1.1942H195.756C196.194 1.1942 196.412 1.41298 196.412 1.85055V2.17229C196.412 2.60986 196.194 2.82865 195.756 2.82865H187.79V9.58524H194.173C194.611 9.58524 194.829 9.79544 194.829 10.2159V10.5505C194.829 10.988 194.611 11.2068 194.173 11.2068H187.79V18.0921H196.219C196.665 18.0921 196.889 18.3109 196.889 18.7485V19.0702C196.889 19.5078 196.665 19.7266 196.219 19.7266H186.606C186.185 19.7266 185.975 19.5078 185.975 19.0702ZM198.251 17.1655L198.56 16.7794C198.697 16.6078 198.851 16.522 199.023 16.522C199.16 16.522 199.315 16.5778 199.486 16.6893C199.769 16.921 200.078 17.144 200.413 17.3585C200.747 17.5645 201.228 17.7747 201.854 17.9892C202.489 18.1951 203.124 18.298 203.759 18.298C204.874 18.298 205.779 18.0106 206.474 17.4358C207.178 16.8609 207.53 16.0973 207.53 15.1449C207.53 14.5186 207.358 13.9609 207.015 13.4719C206.68 12.9828 206.238 12.5796 205.689 12.2621C205.149 11.9361 204.553 11.6315 203.9 11.3484C203.248 11.0567 202.592 10.7521 201.931 10.4346C201.279 10.1172 200.679 9.76971 200.13 9.39219C199.589 9.0061 199.147 8.51276 198.804 7.91218C198.469 7.30301 198.302 6.61234 198.302 5.84016C198.302 4.35585 198.851 3.15897 199.949 2.24951C201.056 1.34005 202.438 0.885323 204.094 0.885323C205.072 0.885323 205.951 1.03547 206.732 1.33576C207.521 1.63606 208.147 1.96638 208.611 2.32673C208.8 2.46401 208.894 2.62273 208.894 2.80291C208.894 2.92303 208.851 3.05601 208.765 3.20187L208.521 3.62657C208.401 3.84106 208.242 3.94831 208.045 3.94831C207.916 3.94831 207.77 3.90112 207.607 3.80674C206.457 3.0174 205.269 2.62273 204.042 2.62273C202.944 2.62273 202.021 2.90587 201.275 3.47213C200.537 4.02982 200.168 4.78484 200.168 5.7372C200.168 6.33779 200.336 6.86973 200.67 7.33304C201.013 7.78777 201.455 8.16957 201.996 8.47845C202.545 8.77874 203.145 9.07045 203.798 9.35359C204.45 9.62814 205.102 9.92414 205.754 10.2416C206.414 10.5505 207.015 10.9022 207.555 11.2969C208.105 11.683 208.546 12.1892 208.881 12.8155C209.224 13.4333 209.396 14.1454 209.396 14.9519C209.396 16.419 208.885 17.6374 207.864 18.6069C206.843 19.5678 205.475 20.0483 203.759 20.0483C202.927 20.0483 202.107 19.9196 201.301 19.6622C200.503 19.4048 199.894 19.1517 199.473 18.9029C199.053 18.6455 198.671 18.3752 198.328 18.0921C198.173 17.9377 198.096 17.7747 198.096 17.6031C198.096 17.4658 198.148 17.3199 198.251 17.1655Z" fill="#000099"/>
<mask id="mask0_1996_2620" style="mask-type:alpha" maskUnits="userSpaceOnUse" x="215" y="0" width="53" height="22">
<path d="M215.512 19.2098V2.28034C215.512 1.26011 216.027 0.75 217.056 0.75H218.873C219.903 0.75 220.417 1.26011 220.417 2.28034V8.74332H227.686V2.28034C227.686 1.26011 228.201 0.75 229.23 0.75H231.048C232.077 0.75 232.592 1.26011 232.592 2.28034V19.2098C232.592 20.2391 232.077 20.7538 231.048 20.7538H229.23C228.201 20.7538 227.686 20.2391 227.686 19.2098V12.9244H220.417V19.2098C220.417 20.2391 219.903 20.7538 218.873 20.7538H217.056C216.027 20.7538 215.512 20.2391 215.512 19.2098Z" fill="#000099"/>
<path d="M234.071 13.389V2.28034C234.071 1.26011 234.586 0.75 235.615 0.75H237.432C238.452 0.75 238.963 1.26011 238.963 2.28034V13.389C238.963 14.4275 239.272 15.2245 239.892 15.7802C240.511 16.3358 241.358 16.6137 242.433 16.6137C243.508 16.6137 244.355 16.3358 244.975 15.7802C245.594 15.2245 245.904 14.4275 245.904 13.389V2.28034C245.904 1.26011 246.418 0.75 247.448 0.75H249.265C250.294 0.75 250.809 1.26011 250.809 2.28034V13.389C250.809 15.6572 250.044 17.5109 248.514 18.9502C246.983 20.3803 244.965 21.0954 242.46 21.0954C239.937 21.0954 237.906 20.3803 236.366 18.9502C234.836 17.52 234.071 15.6663 234.071 13.389Z" fill="#000099"/>
<path d="M252.275 19.2098V2.28034C252.275 1.26011 252.789 0.75 253.819 0.75H259.639C261.698 0.75 263.347 1.20546 264.586 2.11638C265.824 3.01819 266.444 4.30714 266.444 5.98323C266.444 6.8486 266.239 7.66843 265.829 8.44271C265.428 9.21699 264.859 9.81365 264.121 10.2327V10.2873C264.85 10.5059 265.456 10.8703 265.938 11.3804C266.43 11.8814 266.772 12.4189 266.963 12.9928C267.154 13.5666 267.25 14.1678 267.25 14.7964C267.25 15.6435 267.113 16.4087 266.84 17.0919C266.567 17.766 266.193 18.3307 265.72 18.7862C265.246 19.2326 264.681 19.606 264.025 19.9066C263.379 20.2072 262.691 20.4259 261.962 20.5625C261.233 20.69 260.459 20.7538 259.639 20.7538H253.819C252.789 20.7538 252.275 20.2391 252.275 19.2098ZM257.18 16.559H260.118C260.792 16.559 261.311 16.3586 261.675 15.9578C262.049 15.557 262.235 15.056 262.235 14.4548C262.235 13.8627 262.058 13.3753 261.703 12.9928C261.347 12.6102 260.828 12.4189 260.145 12.4189H257.18V16.559ZM257.18 8.49737H259.694C260.277 8.49737 260.714 8.31974 261.006 7.96448C261.306 7.60922 261.457 7.17198 261.457 6.65276C261.457 6.15175 261.302 5.74184 260.992 5.42302C260.691 5.10419 260.231 4.94478 259.612 4.94478H257.18V8.49737Z" fill="#000099"/>
</mask>
<g mask="url(#mask0_1996_2620)">
<path d="M215.512 19.2098V2.28034C215.512 1.26011 216.027 0.75 217.056 0.75H218.873C219.903 0.75 220.417 1.26011 220.417 2.28034V8.74332H227.686V2.28034C227.686 1.26011 228.201 0.75 229.23 0.75H231.048C232.077 0.75 232.592 1.26011 232.592 2.28034V19.2098C232.592 20.2391 232.077 20.7538 231.048 20.7538H229.23C228.201 20.7538 227.686 20.2391 227.686 19.2098V12.9244H220.417V19.2098C220.417 20.2391 219.903 20.7538 218.873 20.7538H217.056C216.027 20.7538 215.512 20.2391 215.512 19.2098Z" fill="#000099"/>
<path d="M234.071 13.389V2.28034C234.071 1.26011 234.586 0.75 235.615 0.75H237.432C238.452 0.75 238.963 1.26011 238.963 2.28034V13.389C238.963 14.4275 239.272 15.2245 239.892 15.7802C240.511 16.3358 241.358 16.6137 242.433 16.6137C243.508 16.6137 244.355 16.3358 244.975 15.7802C245.594 15.2245 245.904 14.4275 245.904 13.389V2.28034C245.904 1.26011 246.418 0.75 247.448 0.75H249.265C250.294 0.75 250.809 1.26011 250.809 2.28034V13.389C250.809 15.6572 250.044 17.5109 248.514 18.9502C246.983 20.3803 244.965 21.0954 242.46 21.0954C239.937 21.0954 237.906 20.3803 236.366 18.9502C234.836 17.52 234.071 15.6663 234.071 13.389Z" fill="#000099"/>
<path d="M252.275 19.2098V2.28034C252.275 1.26011 252.789 0.75 253.819 0.75H259.639C261.698 0.75 263.347 1.20546 264.586 2.11638C265.824 3.01819 266.444 4.30714 266.444 5.98323C266.444 6.8486 266.239 7.66843 265.829 8.44271C265.428 9.21699 264.859 9.81365 264.121 10.2327V10.2873C264.85 10.5059 265.456 10.8703 265.938 11.3804C266.43 11.8814 266.772 12.4189 266.963 12.9928C267.154 13.5666 267.25 14.1678 267.25 14.7964C267.25 15.6435 267.113 16.4087 266.84 17.0919C266.567 17.766 266.193 18.3307 265.72 18.7862C265.246 19.2326 264.681 19.606 264.025 19.9066C263.379 20.2072 262.691 20.4259 261.962 20.5625C261.233 20.69 260.459 20.7538 259.639 20.7538H253.819C252.789 20.7538 252.275 20.2391 252.275 19.2098ZM257.18 16.559H260.118C260.792 16.559 261.311 16.3586 261.675 15.9578C262.049 15.557 262.235 15.056 262.235 14.4548C262.235 13.8627 262.058 13.3753 261.703 12.9928C261.347 12.6102 260.828 12.4189 260.145 12.4189H257.18V16.559ZM257.18 8.49737H259.694C260.277 8.49737 260.714 8.31974 261.006 7.96448C261.306 7.60922 261.457 7.17198 261.457 6.65276C261.457 6.15175 261.302 5.74184 260.992 5.42302C260.691 5.10419 260.231 4.94478 259.612 4.94478H257.18V8.49737Z" fill="#000099"/>
<path d="M242.548 19.8317C242.313 19.8875 242.079 19.7926 241.95 19.6027L239.834 16.5369L236.17 17.207C235.986 17.2405 235.796 17.1847 235.668 17.0507C235.534 16.9166 235.478 16.7324 235.511 16.5481L236.182 12.8848L233.116 10.7683C232.965 10.6622 232.87 10.4891 232.87 10.2992C232.87 10.1149 232.959 9.93622 233.116 9.83012L236.182 7.71366L235.511 4.05034C235.478 3.86606 235.534 3.67619 235.668 3.54775C235.802 3.41373 235.986 3.35788 236.17 3.39139L239.834 4.06151L241.95 0.995711C242.056 0.844934 242.229 0.75 242.419 0.75C242.603 0.75 242.782 0.839349 242.888 0.995711L245.005 4.06151L248.668 3.39139C248.852 3.35788 249.042 3.41931 249.171 3.54775C249.305 3.68177 249.361 3.86606 249.327 4.05034L248.657 7.71366L251.723 9.83012C251.879 9.93622 251.968 10.1149 251.968 10.3048C251.968 10.45 251.901 10.5896 251.795 10.6957L251.723 10.7683L248.657 12.8848L249.327 16.5481C249.361 16.7324 249.305 16.9222 249.171 17.0507C249.037 17.1847 248.852 17.2405 248.668 17.207L245.005 16.5369L242.899 19.5859C242.805 19.7088 242.687 19.7982 242.548 19.8317ZM239.85 15.917C240.035 15.917 240.213 16.0064 240.319 16.1628L242.324 19.0666C242.369 19.128 242.464 19.128 242.509 19.0666L244.513 16.1628C244.642 15.9785 244.865 15.8891 245.083 15.9282L248.556 16.5648C248.635 16.576 248.696 16.5146 248.685 16.4364L248.048 12.9629C248.009 12.7451 248.098 12.5218 248.283 12.3933L251.187 10.3886C251.248 10.3439 251.248 10.2489 251.187 10.2043L248.283 8.1995C248.098 8.07106 248.009 7.84768 248.048 7.6299L248.685 4.15644C248.696 4.07826 248.635 4.01683 248.556 4.028L245.083 4.66462C244.865 4.70371 244.642 4.61436 244.513 4.43007L242.509 1.52622C242.464 1.46479 242.369 1.46479 242.324 1.52622L240.319 4.43007C240.191 4.61436 239.968 4.70371 239.75 4.66462L236.276 4.028C236.198 4.01683 236.137 4.07826 236.148 4.15644L236.785 7.6299C236.824 7.84768 236.734 8.07106 236.55 8.1995L233.646 10.2043C233.585 10.2489 233.585 10.3439 233.646 10.3886L236.55 12.3933C236.734 12.5218 236.824 12.7451 236.785 12.9629L236.148 16.4364C236.137 16.5146 236.198 16.576 236.276 16.5648L239.75 15.9282C239.783 15.9226 239.817 15.917 239.85 15.917Z" fill="#33CCFF"/>
<path d="M247.089 11.8575L249.082 10.4837C249.211 10.3944 249.211 10.2045 249.082 10.1152L247.089 8.74142C246.882 8.60181 246.781 8.35052 246.826 8.10481L247.262 5.7203C247.29 5.56394 247.156 5.42992 246.999 5.45784L244.615 5.89341C244.369 5.93809 244.118 5.83757 243.978 5.63095L242.604 3.63735C242.515 3.50891 242.325 3.50891 242.236 3.63735L240.862 5.63095C240.722 5.83757 240.471 5.93809 240.225 5.89341L237.841 5.45784C237.685 5.42992 237.551 5.56394 237.578 5.7203L238.014 8.09364C238.059 8.34494 237.953 8.60181 237.746 8.74701L235.758 10.1208C235.63 10.2101 235.63 10.4 235.758 10.4893L237.752 11.8631C237.958 12.0083 238.064 12.2596 238.02 12.5053L237.584 14.8898C237.556 15.0461 237.69 15.1802 237.846 15.1522L240.237 14.7167C240.482 14.672 240.728 14.7725 240.868 14.9791L242.247 16.9783C242.336 17.1067 242.526 17.1067 242.616 16.9783L243.989 14.9847C244.134 14.7781 244.38 14.672 244.631 14.7222L247.016 15.1578C247.172 15.1857 247.306 15.0517 247.278 14.8954L246.843 12.5108C246.776 12.254 246.876 12.0027 247.089 11.8575ZM244.777 13.3764C244.246 13.7841 243.604 14.0577 242.911 14.1471L242.47 15.6101C242.454 15.6604 242.381 15.6604 242.364 15.6101L241.923 14.1471C241.225 14.0577 240.588 13.7841 240.058 13.3764L238.712 14.0968C238.662 14.1247 238.612 14.0689 238.634 14.0186L239.354 12.6728C238.941 12.1423 238.662 11.5001 238.572 10.802L237.121 10.3609C237.07 10.3441 237.07 10.2715 237.121 10.2548L238.572 9.81361C238.662 9.10999 238.935 8.46221 239.349 7.92611L238.628 6.59704C238.6 6.54678 238.656 6.49652 238.706 6.51886L240.036 7.22807C240.572 6.80924 241.219 6.53003 241.929 6.44068L242.364 4.99992C242.381 4.94966 242.454 4.94966 242.47 4.99992L242.906 6.44068C243.615 6.53003 244.263 6.80924 244.799 7.22807L246.128 6.51886C246.178 6.49094 246.229 6.54678 246.206 6.59704L245.497 7.92611C245.91 8.46221 246.189 9.10999 246.273 9.81361L247.725 10.2548C247.775 10.2715 247.775 10.3441 247.725 10.3609L246.273 10.802C246.184 11.5001 245.905 12.1423 245.491 12.6728L246.212 14.0186C246.24 14.0689 246.184 14.1191 246.134 14.0968L244.777 13.3764Z" fill="#33CCFF"/>
<path d="M242.628 7.03833C240.656 6.90989 239.026 8.5461 239.154 10.5118C239.26 12.1424 240.572 13.4547 242.203 13.5608C244.174 13.6893 245.805 12.0531 245.677 10.0874C245.57 8.45675 244.258 7.14443 242.628 7.03833ZM244.325 11.059L243.789 11.8297C243.75 11.8799 243.683 11.8967 243.627 11.8576L243.002 11.422V12.1871C243.002 12.2485 242.951 12.3044 242.884 12.3044H241.946C241.885 12.3044 241.829 12.2541 241.829 12.1871V11.422L241.204 11.8576C241.153 11.8967 241.081 11.8799 241.042 11.8297L240.505 11.059C240.466 11.0088 240.483 10.9362 240.533 10.8971L241.388 10.2996L240.533 9.70206C240.483 9.66297 240.466 9.59595 240.505 9.54011L241.042 8.76947C241.081 8.71922 241.148 8.70246 241.204 8.74155L241.829 9.17713V8.41208C241.829 8.35065 241.879 8.29481 241.946 8.29481H242.884C242.946 8.29481 243.002 8.34506 243.002 8.41208V9.17713L243.627 8.74155C243.677 8.70246 243.75 8.71922 243.789 8.76947L244.325 9.54011C244.364 9.59037 244.348 9.66297 244.297 9.70206L243.443 10.2996L244.297 10.8971C244.348 10.9306 244.359 11.0032 244.325 11.059Z" fill="#33CCFF"/>
</g>
</svg>
