<svg width="429" height="33" viewBox="0 0 429 33" fill="none" xmlns="http://www.w3.org/2000/svg">
<path d="M3.10756 29.4743L5.34501 1.71338C5.38644 1.06424 5.73863 0.739675 6.40158 0.739675H7.56173C8.18325 0.739675 8.59068 1.009 8.78404 1.54764L16.2422 18.2663L17.7338 21.9125H17.8167C18.3277 20.5038 18.8111 19.2884 19.2669 18.2663L26.725 1.54764C26.9598 1.009 27.3742 0.739675 27.9681 0.739675H29.1075C29.7704 0.739675 30.1226 1.06424 30.1641 1.71338L32.4222 29.4743C32.4222 29.5157 32.4222 29.5571 32.4222 29.5986C32.4222 30.2477 32.0838 30.5723 31.4071 30.5723H30.5577C29.8809 30.5723 29.5218 30.2477 29.4804 29.5986L27.9266 9.68945L27.7816 5.54604H27.6987C27.1463 7.28627 26.6422 8.66741 26.1864 9.68945L19.4741 24.2121C19.2807 24.7508 18.8871 25.0201 18.2932 25.0201H17.278C16.6427 25.0201 16.2284 24.7508 16.035 24.2121L9.38484 9.68945C9.19148 9.24749 8.96359 8.67432 8.70117 7.96993C8.43876 7.26555 8.22468 6.67166 8.05894 6.18827L7.81034 5.46317H7.72747C7.72747 7.2034 7.68604 8.61216 7.60317 9.68945L6.02867 29.5986C5.98724 30.2477 5.63504 30.5723 4.9721 30.5723H4.1227C3.44594 30.5723 3.10756 30.2477 3.10756 29.5986C3.10756 29.5571 3.10756 29.5157 3.10756 29.4743ZM37.6366 29.5157V1.79625C37.6366 1.09187 37.975 0.739675 38.6518 0.739675H53.3816C54.086 0.739675 54.4382 1.09187 54.4382 1.79625V2.31417C54.4382 3.01855 54.086 3.37074 53.3816 3.37074H40.5577V14.2472H50.8334C51.5378 14.2472 51.89 14.5856 51.89 15.2623V15.801C51.89 16.5054 51.5378 16.8576 50.8334 16.8576H40.5577V27.9412H54.1274C54.8456 27.9412 55.2047 28.2934 55.2047 28.9978V29.5157C55.2047 30.2201 54.8456 30.5723 54.1274 30.5723H38.6518C37.975 30.5723 37.6366 30.2201 37.6366 29.5157ZM57.9952 29.4743L60.2327 1.71338C60.2741 1.06424 60.6263 0.739675 61.2892 0.739675H62.4494C63.0709 0.739675 63.4783 1.009 63.6717 1.54764L71.1298 18.2663L72.6215 21.9125H72.7043C73.2154 20.5038 73.6988 19.2884 74.1545 18.2663L81.6127 1.54764C81.8475 1.009 82.2618 0.739675 82.8557 0.739675H83.9952C84.6581 0.739675 85.0103 1.06424 85.0517 1.71338L87.3099 29.4743C87.3099 29.5157 87.3099 29.5571 87.3099 29.5986C87.3099 30.2477 86.9715 30.5723 86.2947 30.5723H85.4453C84.7686 30.5723 84.4095 30.2477 84.3681 29.5986L82.8143 9.68945L82.6693 5.54604H82.5864C82.0339 7.28627 81.5298 8.66741 81.074 9.68945L74.3617 24.2121C74.1684 24.7508 73.7747 25.0201 73.1808 25.0201H72.1657C71.5304 25.0201 71.116 24.7508 70.9227 24.2121L64.2725 9.68945C64.0791 9.24749 63.8512 8.67432 63.5888 7.96993C63.3264 7.26555 63.1123 6.67166 62.9466 6.18827L62.698 5.46317H62.6151C62.6151 7.2034 62.5737 8.61216 62.4908 9.68945L60.9163 29.5986C60.8749 30.2477 60.5227 30.5723 59.8598 30.5723H59.0104C58.3336 30.5723 57.9952 30.2477 57.9952 29.5986C57.9952 29.5571 57.9952 29.5157 57.9952 29.4743ZM92.5243 29.5157V1.79625C92.5243 1.09187 92.8627 0.739675 93.5394 0.739675H102.696C105.086 0.739675 107.033 1.42334 108.539 2.79067C110.044 4.14418 110.797 5.96728 110.797 8.25997C110.797 9.77923 110.458 11.0913 109.782 12.1962C109.105 13.3011 108.173 14.1505 106.985 14.7444V14.8273C108.504 15.2554 109.719 16.1463 110.631 17.4998C111.543 18.8395 111.998 20.414 111.998 22.2233C111.998 24.806 111.149 26.8432 109.45 28.3348C107.765 29.8265 105.631 30.5723 103.049 30.5723H93.5394C92.8627 30.5723 92.5243 30.2201 92.5243 29.5157ZM95.4454 27.9412H103.09C104.885 27.9412 106.308 27.4164 107.358 26.3667C108.407 25.317 108.932 23.9014 108.932 22.1197C108.932 20.3518 108.387 18.9293 107.296 17.852C106.218 16.7747 104.803 16.236 103.049 16.236H95.4454V27.9412ZM95.4454 13.6878H102.696C104.202 13.6878 105.417 13.2044 106.343 12.2377C107.282 11.2709 107.751 10.014 107.751 8.46714C107.751 6.92027 107.296 5.68415 106.384 4.75879C105.472 3.83342 104.229 3.37074 102.655 3.37074H95.4454V13.6878ZM116.426 29.5157V1.79625C116.426 1.09187 116.764 0.739675 117.441 0.739675H132.17C132.875 0.739675 133.227 1.09187 133.227 1.79625V2.31417C133.227 3.01855 132.875 3.37074 132.17 3.37074H119.347V14.2472H129.622C130.327 14.2472 130.679 14.5856 130.679 15.2623V15.801C130.679 16.5054 130.327 16.8576 129.622 16.8576H119.347V27.9412H132.916C133.634 27.9412 133.994 28.2934 133.994 28.9978V29.5157C133.994 30.2201 133.634 30.5723 132.916 30.5723H117.441C116.764 30.5723 116.426 30.2201 116.426 29.5157ZM137.841 29.5157V1.79625C137.841 1.09187 138.179 0.739675 138.856 0.739675H146.915C149.332 0.739675 151.141 1.02281 152.343 1.58907C153.71 2.23821 154.787 3.20501 155.574 4.48947C156.362 5.77392 156.755 7.30008 156.755 9.06794C156.755 11.0844 156.237 12.8454 155.202 14.3508C154.166 15.8424 152.805 16.823 151.12 17.2926V17.3755C151.314 17.6241 151.569 18.0177 151.887 18.5564L157.688 29.35C157.881 29.7091 157.909 30.006 157.77 30.2408C157.632 30.4618 157.363 30.5723 156.963 30.5723H155.865C155.298 30.5723 154.891 30.3306 154.642 29.8472L148.282 18.0177H140.762V29.5157C140.762 30.2201 140.423 30.5723 139.747 30.5723H138.856C138.179 30.5723 137.841 30.2201 137.841 29.5157ZM140.762 15.3866H147.847C149.642 15.3866 151.072 14.8204 152.135 13.6878C153.213 12.5415 153.751 11.0292 153.751 9.15081C153.751 7.96303 153.475 6.90646 152.923 5.9811C152.37 5.05573 151.597 4.37207 150.602 3.9301C149.76 3.5572 148.462 3.37074 146.708 3.37074H140.762V15.3866Z" fill="#000099"/>
<path d="M168.954 26.4496L169.451 25.8281C169.672 25.5518 169.921 25.4137 170.197 25.4137C170.418 25.4137 170.666 25.5035 170.943 25.683C171.398 26.0559 171.896 26.415 172.434 26.7603C172.973 27.0918 173.746 27.4302 174.755 27.7755C175.777 28.1069 176.799 28.2727 177.821 28.2727C179.616 28.2727 181.073 27.81 182.192 26.8846C183.325 25.9593 183.891 24.73 183.891 23.197C183.891 22.1888 183.615 21.291 183.062 20.5038C182.524 19.7165 181.812 19.0674 180.928 18.5564C180.058 18.0315 179.098 17.5412 178.049 17.0854C176.999 16.6159 175.942 16.1256 174.879 15.6145C173.829 15.1035 172.862 14.5442 171.979 13.9365C171.108 13.3149 170.397 12.5208 169.845 11.554C169.306 10.5734 169.037 9.46156 169.037 8.21854C169.037 5.82917 169.921 3.90248 171.689 2.43848C173.47 0.974468 175.694 0.242465 178.359 0.242465C179.934 0.242465 181.35 0.484164 182.606 0.967563C183.877 1.45096 184.885 1.9827 185.631 2.56278C185.935 2.78376 186.087 3.03927 186.087 3.32931C186.087 3.52267 186.018 3.73675 185.88 3.97154L185.486 4.6552C185.293 5.00049 185.037 5.17313 184.72 5.17313C184.512 5.17313 184.278 5.09717 184.015 4.94524C182.164 3.67459 180.252 3.03927 178.277 3.03927C176.509 3.03927 175.024 3.49505 173.822 4.4066C172.635 5.30434 172.041 6.51974 172.041 8.0528C172.041 9.0196 172.31 9.87591 172.849 10.6217C173.401 11.3537 174.112 11.9683 174.983 12.4655C175.866 12.9489 176.833 13.4185 177.883 13.8743C178.933 14.3163 179.982 14.7928 181.032 15.3038C182.095 15.801 183.062 16.3673 183.932 17.0026C184.816 17.6241 185.528 18.439 186.066 19.4472C186.619 20.4416 186.895 21.588 186.895 22.8862C186.895 25.248 186.073 27.2092 184.43 28.7699C182.786 30.3168 180.583 31.0902 177.821 31.0902C176.481 31.0902 175.162 30.883 173.864 30.4687C172.579 30.0543 171.599 29.6469 170.922 29.2464C170.245 28.832 169.631 28.397 169.078 27.9412C168.83 27.6926 168.705 27.4302 168.705 27.1539C168.705 26.933 168.788 26.6982 168.954 26.4496ZM191.159 29.5157V1.79625C191.159 1.09187 191.498 0.739675 192.174 0.739675H206.904C207.609 0.739675 207.961 1.09187 207.961 1.79625V2.31417C207.961 3.01855 207.609 3.37074 206.904 3.37074H194.08V14.2472H204.356C205.06 14.2472 205.413 14.5856 205.413 15.2623V15.801C205.413 16.5054 205.06 16.8576 204.356 16.8576H194.08V27.9412H207.65C208.368 27.9412 208.727 28.2934 208.727 28.9978V29.5157C208.727 30.2201 208.368 30.5723 207.65 30.5723H192.174C191.498 30.5723 191.159 30.2201 191.159 29.5157ZM212.702 29.5157V1.79625C212.702 1.09187 213.04 0.739675 213.717 0.739675H221.776C224.193 0.739675 226.002 1.02281 227.204 1.58907C228.571 2.23821 229.648 3.20501 230.436 4.48947C231.223 5.77392 231.616 7.30008 231.616 9.06794C231.616 11.0844 231.098 12.8454 230.063 14.3508C229.027 15.8424 227.666 16.823 225.981 17.2926V17.3755C226.175 17.6241 226.43 18.0177 226.748 18.5564L232.549 29.35C232.742 29.7091 232.77 30.006 232.632 30.2408C232.493 30.4618 232.224 30.5723 231.824 30.5723H230.726C230.159 30.5723 229.752 30.3306 229.503 29.8472L223.143 18.0177H215.623V29.5157C215.623 30.2201 215.284 30.5723 214.608 30.5723H213.717C213.04 30.5723 212.702 30.2201 212.702 29.5157ZM215.623 15.3866H222.708C224.504 15.3866 225.933 14.8204 226.996 13.6878C228.074 12.5415 228.612 11.0292 228.612 9.15081C228.612 7.96303 228.336 6.90646 227.784 5.9811C227.231 5.05573 226.458 4.37207 225.463 3.9301C224.621 3.5572 223.323 3.37074 221.569 3.37074H215.623V15.3866ZM233.25 1.9827C233.125 1.59598 233.132 1.29213 233.27 1.07115C233.422 0.850166 233.699 0.739675 234.099 0.739675H235.073C235.708 0.739675 236.102 1.02281 236.254 1.58907L244.188 23.4042C244.354 23.8599 244.534 24.4124 244.727 25.0615C244.92 25.6968 245.072 26.2217 245.183 26.636L245.349 27.2575H245.431C245.846 25.7107 246.226 24.4262 246.571 23.4042L254.588 1.58907C254.74 1.02281 255.12 0.739675 255.728 0.739675H256.743C257.116 0.739675 257.378 0.850166 257.53 1.07115C257.682 1.29213 257.703 1.59598 257.592 1.9827L247.296 29.7229C247.103 30.2891 246.702 30.5723 246.094 30.5723H244.706C244.099 30.5723 243.719 30.2891 243.567 29.7229L233.25 1.9827ZM260.634 29.5157V1.79625C260.634 1.09187 260.973 0.739675 261.65 0.739675H262.54C263.217 0.739675 263.556 1.09187 263.556 1.79625V29.5157C263.556 30.2201 263.217 30.5723 262.54 30.5723H261.65C260.973 30.5723 260.634 30.2201 260.634 29.5157ZM267.944 15.4695C267.944 13.3288 268.317 11.3192 269.063 9.44085C269.809 7.5625 270.831 5.95347 272.129 4.61377C273.427 3.26025 275.009 2.19678 276.873 1.42334C278.752 0.636089 280.768 0.242465 282.923 0.242465C284.166 0.242465 285.353 0.352956 286.486 0.573938C287.632 0.79492 288.62 1.09187 289.449 1.46477C290.291 1.82387 290.975 2.15534 291.5 2.45919C292.038 2.76304 292.522 3.0807 292.95 3.41218C293.212 3.61935 293.343 3.86795 293.343 4.15799C293.343 4.37897 293.267 4.62758 293.115 4.90381L292.722 5.46317C292.515 5.7394 292.273 5.87751 291.997 5.87751C291.776 5.87751 291.541 5.79464 291.292 5.6289C288.806 3.87486 286.044 2.99784 283.006 2.99784C280.644 2.99784 278.544 3.55029 276.708 4.6552C274.871 5.7463 273.462 7.23103 272.481 9.10937C271.501 10.9877 271.01 13.094 271.01 15.4281C271.01 17.7898 271.501 19.9444 272.481 21.8918C273.462 23.8392 274.884 25.3999 276.749 26.5739C278.627 27.734 280.761 28.3141 283.151 28.3141C286.424 28.3141 289.379 27.2437 292.017 25.103C292.28 24.8958 292.522 24.7922 292.743 24.7922C293.005 24.7922 293.24 24.9372 293.447 25.2273L293.841 25.683C294.034 25.9316 294.131 26.1733 294.131 26.4081C294.131 26.6705 294.006 26.9261 293.758 27.1747C290.65 29.785 287.087 31.0902 283.068 31.0902C280.844 31.0902 278.779 30.6828 276.873 29.8679C274.981 29.053 273.386 27.9481 272.088 26.5532C270.789 25.1444 269.774 23.487 269.042 21.5811C268.31 19.6613 267.944 17.6241 267.944 15.4695ZM298.167 29.5157V1.79625C298.167 1.09187 298.505 0.739675 299.182 0.739675H313.912C314.616 0.739675 314.969 1.09187 314.969 1.79625V2.31417C314.969 3.01855 314.616 3.37074 313.912 3.37074H301.088V14.2472H311.364C312.068 14.2472 312.42 14.5856 312.42 15.2623V15.801C312.42 16.5054 312.068 16.8576 311.364 16.8576H301.088V27.9412H314.658C315.376 27.9412 315.735 28.2934 315.735 28.9978V29.5157C315.735 30.2201 315.376 30.5723 314.658 30.5723H299.182C298.505 30.5723 298.167 30.2201 298.167 29.5157ZM317.928 26.4496L318.425 25.8281C318.646 25.5518 318.895 25.4137 319.171 25.4137C319.392 25.4137 319.641 25.5035 319.917 25.683C320.373 26.0559 320.87 26.415 321.408 26.7603C321.947 27.0918 322.72 27.4302 323.729 27.7755C324.751 28.1069 325.773 28.2727 326.795 28.2727C328.59 28.2727 330.047 27.81 331.166 26.8846C332.299 25.9593 332.865 24.73 332.865 23.197C332.865 22.1888 332.589 21.291 332.036 20.5038C331.498 19.7165 330.786 19.0674 329.902 18.5564C329.032 18.0315 328.072 17.5412 327.023 17.0854C325.973 16.6159 324.916 16.1256 323.853 15.6145C322.803 15.1035 321.837 14.5442 320.953 13.9365C320.082 13.3149 319.371 12.5208 318.819 11.554C318.28 10.5734 318.011 9.46156 318.011 8.21854C318.011 5.82917 318.895 3.90248 320.663 2.43848C322.444 0.974468 324.668 0.242465 327.333 0.242465C328.908 0.242465 330.324 0.484164 331.58 0.967563C332.851 1.45096 333.859 1.9827 334.605 2.56278C334.909 2.78376 335.061 3.03927 335.061 3.32931C335.061 3.52267 334.992 3.73675 334.854 3.97154L334.46 4.6552C334.267 5.00049 334.011 5.17313 333.694 5.17313C333.486 5.17313 333.252 5.09717 332.989 4.94524C331.138 3.67459 329.226 3.03927 327.251 3.03927C325.483 3.03927 323.998 3.49505 322.796 4.4066C321.609 5.30434 321.015 6.51974 321.015 8.0528C321.015 9.0196 321.284 9.87591 321.823 10.6217C322.375 11.3537 323.086 11.9683 323.957 12.4655C324.84 12.9489 325.807 13.4185 326.857 13.8743C327.907 14.3163 328.956 14.7928 330.006 15.3038C331.069 15.801 332.036 16.3673 332.906 17.0026C333.79 17.6241 334.502 18.439 335.04 19.4472C335.593 20.4416 335.869 21.588 335.869 22.8862C335.869 25.248 335.047 27.2092 333.404 28.7699C331.76 30.3168 329.557 31.0902 326.795 31.0902C325.455 31.0902 324.136 30.883 322.838 30.4687C321.553 30.0543 320.573 29.6469 319.896 29.2464C319.219 28.832 318.605 28.397 318.052 27.9412C317.804 27.6926 317.679 27.4302 317.679 27.1539C317.679 26.933 317.762 26.6982 317.928 26.4496Z" fill="#000099"/>
<mask id="mask0_2034_15689" style="mask-type:alpha" maskUnits="userSpaceOnUse" x="345" y="0" width="85" height="33">
<path d="M345.714 29.7157V2.46348C345.714 0.82116 346.543 0 348.2 0H351.125C352.782 0 353.611 0.82116 353.611 2.46348V12.8673H365.312V2.46348C365.312 0.82116 366.141 0 367.798 0H370.723C372.38 0 373.209 0.82116 373.209 2.46348V29.7157C373.209 31.3727 372.38 32.2012 370.723 32.2012H367.798C366.141 32.2012 365.312 31.3727 365.312 29.7157V19.5979H353.611V29.7157C353.611 31.3727 352.782 32.2012 351.125 32.2012H348.2C346.543 32.2012 345.714 31.3727 345.714 29.7157Z" fill="#000099"/>
<path d="M375.59 20.3457V2.46348C375.59 0.82116 376.418 0 378.075 0H381.001C382.643 0 383.464 0.82116 383.464 2.46348V20.3457C383.464 22.0174 383.963 23.3004 384.96 24.1949C385.957 25.0894 387.321 25.5366 389.051 25.5366C390.781 25.5366 392.145 25.0894 393.142 24.1949C394.139 23.3004 394.638 22.0174 394.638 20.3457V2.46348C394.638 0.82116 395.466 0 397.123 0H400.049C401.706 0 402.534 0.82116 402.534 2.46348V20.3457C402.534 23.9969 401.302 26.981 398.839 29.2978C396.375 31.6 393.127 32.7511 389.095 32.7511C385.033 32.7511 381.763 31.6 379.285 29.2978C376.821 26.9956 375.59 24.0116 375.59 20.3457Z" fill="#000099"/>
<path d="M404.893 29.7157V2.46348C404.893 0.82116 405.722 0 407.379 0H416.749C420.063 0 422.717 0.733179 424.711 2.19954C426.705 3.65123 427.702 5.72613 427.702 8.42423C427.702 9.81727 427.372 11.137 426.713 12.3834C426.067 13.6298 425.151 14.5903 423.963 15.2648V15.3528C425.136 15.7047 426.111 16.2912 426.889 17.1124C427.68 17.9189 428.23 18.784 428.538 19.7078C428.846 20.6317 429 21.5995 429 22.6112C429 23.9749 428.78 25.2067 428.34 26.3065C427.9 27.3916 427.299 28.3007 426.537 29.0339C425.774 29.7524 424.865 30.3536 423.809 30.8375C422.768 31.3214 421.661 31.6733 420.488 31.8933C419.315 32.0986 418.068 32.2012 416.749 32.2012H407.379C405.722 32.2012 404.893 31.3727 404.893 29.7157ZM412.789 25.4486H417.518C418.604 25.4486 419.439 25.126 420.026 24.4808C420.627 23.8356 420.928 23.0291 420.928 22.0614C420.928 21.1082 420.642 20.3237 420.07 19.7078C419.498 19.092 418.662 18.784 417.562 18.784H412.789V25.4486ZM412.789 12.4714H416.837C417.775 12.4714 418.479 12.1854 418.948 11.6136C419.432 11.0417 419.674 10.3378 419.674 9.502C419.674 8.6955 419.425 8.03564 418.926 7.52242C418.442 7.00919 417.702 6.75258 416.705 6.75258H412.789V12.4714Z" fill="#000099"/>
</mask>
<g mask="url(#mask0_2034_15689)">
<path d="M345.714 29.7157V2.46348C345.714 0.82116 346.543 0 348.2 0H351.125C352.782 0 353.611 0.82116 353.611 2.46348V12.8673H365.312V2.46348C365.312 0.82116 366.141 0 367.798 0H370.723C372.38 0 373.209 0.82116 373.209 2.46348V29.7157C373.209 31.3727 372.38 32.2012 370.723 32.2012H367.798C366.141 32.2012 365.312 31.3727 365.312 29.7157V19.5979H353.611V29.7157C353.611 31.3727 352.782 32.2012 351.125 32.2012H348.2C346.543 32.2012 345.714 31.3727 345.714 29.7157Z" fill="#000099"/>
<path d="M375.59 20.3457V2.46348C375.59 0.82116 376.418 0 378.075 0H381.001C382.643 0 383.464 0.82116 383.464 2.46348V20.3457C383.464 22.0174 383.963 23.3004 384.96 24.1949C385.957 25.0894 387.321 25.5366 389.051 25.5366C390.781 25.5366 392.145 25.0894 393.142 24.1949C394.139 23.3004 394.638 22.0174 394.638 20.3457V2.46348C394.638 0.82116 395.466 0 397.123 0H400.049C401.706 0 402.534 0.82116 402.534 2.46348V20.3457C402.534 23.9969 401.302 26.981 398.839 29.2978C396.375 31.6 393.127 32.7511 389.095 32.7511C385.033 32.7511 381.763 31.6 379.285 29.2978C376.821 26.9956 375.59 24.0116 375.59 20.3457Z" fill="#000099"/>
<path d="M404.893 29.7157V2.46348C404.893 0.82116 405.722 0 407.379 0H416.749C420.063 0 422.717 0.733179 424.711 2.19954C426.705 3.65123 427.702 5.72613 427.702 8.42423C427.702 9.81727 427.372 11.137 426.713 12.3834C426.067 13.6298 425.151 14.5903 423.963 15.2648V15.3528C425.136 15.7047 426.111 16.2912 426.889 17.1124C427.68 17.9189 428.23 18.784 428.538 19.7078C428.846 20.6317 429 21.5995 429 22.6112C429 23.9749 428.78 25.2067 428.34 26.3065C427.9 27.3916 427.299 28.3007 426.537 29.0339C425.774 29.7524 424.865 30.3536 423.809 30.8375C422.768 31.3214 421.661 31.6733 420.488 31.8933C419.315 32.0986 418.068 32.2012 416.749 32.2012H407.379C405.722 32.2012 404.893 31.3727 404.893 29.7157ZM412.789 25.4486H417.518C418.604 25.4486 419.439 25.126 420.026 24.4808C420.627 23.8356 420.928 23.0291 420.928 22.0614C420.928 21.1082 420.642 20.3237 420.07 19.7078C419.498 19.092 418.662 18.784 417.562 18.784H412.789V25.4486ZM412.789 12.4714H416.837C417.775 12.4714 418.479 12.1854 418.948 11.6136C419.432 11.0417 419.674 10.3378 419.674 9.502C419.674 8.6955 419.425 8.03564 418.926 7.52242C418.442 7.00919 417.702 6.75258 416.705 6.75258H412.789V12.4714Z" fill="#000099"/>
<path d="M389.235 30.7168C388.858 30.8067 388.48 30.6539 388.273 30.3482L384.866 25.4131L378.969 26.4918C378.673 26.5457 378.367 26.4558 378.16 26.2401C377.945 26.0243 377.855 25.7277 377.909 25.431L378.987 19.534L374.052 16.127C373.809 15.9562 373.657 15.6775 373.657 15.3719C373.657 15.0752 373.8 14.7876 374.052 14.6168L378.987 11.2098L377.909 5.31274C377.855 5.01609 377.945 4.71045 378.16 4.50369C378.376 4.28795 378.673 4.19805 378.969 4.25199L384.866 5.33072L388.273 0.395534C388.444 0.15282 388.723 0 389.029 0C389.325 0 389.613 0.143831 389.784 0.395534L393.191 5.33072L399.088 4.25199C399.384 4.19805 399.69 4.29694 399.897 4.50369C400.112 4.71944 400.202 5.01609 400.148 5.31274L399.07 11.2098L404.005 14.6168C404.257 14.7876 404.4 15.0752 404.4 15.3809C404.4 15.6146 404.293 15.8393 404.122 16.0101L404.005 16.127L399.07 19.534L400.148 25.431C400.202 25.7277 400.112 26.0333 399.897 26.2401C399.681 26.4558 399.384 26.5457 399.088 26.4918L393.191 25.4131L389.802 30.3213C389.649 30.519 389.46 30.6629 389.235 30.7168ZM384.893 24.4152C385.19 24.4152 385.478 24.5591 385.648 24.8108L388.876 29.4853C388.948 29.5841 389.1 29.5841 389.172 29.4853L392.4 24.8108C392.606 24.5141 392.966 24.3703 393.316 24.4332L398.908 25.458C399.034 25.476 399.133 25.3771 399.115 25.2513L398.09 19.6598C398.027 19.3093 398.171 18.9497 398.467 18.7429L403.142 15.5157C403.241 15.4438 403.241 15.291 403.142 15.2191L398.467 11.9919C398.171 11.7851 398.027 11.4255 398.09 11.075L399.115 5.48354C399.133 5.35769 399.034 5.2588 398.908 5.27678L393.316 6.30158C392.966 6.3645 392.606 6.22067 392.4 5.92402L389.172 1.24953C389.1 1.15064 388.948 1.15064 388.876 1.24953L385.648 5.92402C385.442 6.22067 385.082 6.3645 384.732 6.30158L379.14 5.27678C379.014 5.2588 378.915 5.35769 378.933 5.48354L379.958 11.075C380.021 11.4255 379.877 11.7851 379.581 11.9919L374.906 15.2191C374.807 15.291 374.807 15.4438 374.906 15.5157L379.581 18.7429C379.877 18.9497 380.021 19.3093 379.958 19.6598L378.933 25.2513C378.915 25.3771 379.014 25.476 379.14 25.458L384.732 24.4332C384.786 24.4242 384.839 24.4152 384.893 24.4152Z" fill="#33CCFF"/>
<path d="M396.545 17.8816L399.754 15.6702C399.961 15.5264 399.961 15.2208 399.754 15.0769L396.545 12.8655C396.212 12.6408 396.051 12.2363 396.122 11.8407L396.824 8.00226C396.869 7.75055 396.653 7.53481 396.401 7.57976L392.563 8.28093C392.167 8.35285 391.763 8.19103 391.538 7.85843L389.326 4.64921C389.183 4.44245 388.877 4.44245 388.733 4.64921L386.522 7.85843C386.297 8.19103 385.893 8.35285 385.497 8.28093L381.659 7.57976C381.407 7.53481 381.191 7.75055 381.236 8.00226L381.937 11.8228C382.009 12.2273 381.838 12.6408 381.506 12.8745L378.305 15.0859C378.099 15.2297 378.099 15.5354 378.305 15.6792L381.515 17.8906C381.847 18.1243 382.018 18.5289 381.946 18.9244L381.245 22.7629C381.2 23.0146 381.416 23.2303 381.667 23.1854L385.515 22.4842C385.91 22.4123 386.306 22.5741 386.531 22.9067L388.751 26.1249C388.895 26.3317 389.201 26.3317 389.344 26.1249L391.556 22.9157C391.79 22.5831 392.185 22.4123 392.59 22.4932L396.428 23.1944C396.68 23.2393 396.896 23.0236 396.851 22.7719L396.149 18.9334C396.042 18.5199 396.203 18.1153 396.545 17.8816ZM392.823 20.3267C391.969 20.983 390.936 21.4234 389.821 21.5673L389.111 23.9225C389.084 24.0034 388.967 24.0034 388.94 23.9225L388.23 21.5673C387.106 21.4234 386.081 20.983 385.227 20.3267L383.061 21.4864C382.98 21.5313 382.899 21.4414 382.935 21.3605L384.095 19.1941C383.429 18.3401 382.98 17.3063 382.836 16.1826L380.499 15.4725C380.418 15.4455 380.418 15.3286 380.499 15.3017L382.836 14.5915C382.98 13.4588 383.42 12.4161 384.086 11.5531L382.926 9.41359C382.881 9.33269 382.971 9.25179 383.052 9.28774L385.191 10.4294C386.054 9.75519 387.097 9.30572 388.239 9.16189L388.94 6.84262C388.967 6.76172 389.084 6.76172 389.111 6.84262L389.812 9.16189C390.954 9.30572 391.996 9.75519 392.859 10.4294L394.999 9.28774C395.08 9.2428 395.161 9.33269 395.125 9.41359L393.983 11.5531C394.648 12.4161 395.098 13.4588 395.233 14.5915L397.57 15.3017C397.651 15.3286 397.651 15.4455 397.57 15.4725L395.233 16.1826C395.089 17.3063 394.639 18.3401 393.974 19.1941L395.134 21.3605C395.179 21.4414 395.089 21.5223 395.008 21.4864L392.823 20.3267Z" fill="#33CCFF"/>
<path d="M389.364 10.1247C386.191 9.91793 383.566 12.5518 383.772 15.7161C383.943 18.341 386.056 20.4535 388.681 20.6243C391.854 20.8311 394.479 18.1972 394.272 15.0329C394.101 12.408 391.989 10.2955 389.364 10.1247ZM392.097 16.5971L391.234 17.8376C391.171 17.9185 391.063 17.9455 390.973 17.8825L389.966 17.1814V18.4129C389.966 18.5118 389.885 18.6017 389.777 18.6017H388.267C388.168 18.6017 388.078 18.5208 388.078 18.4129V17.1814L387.072 17.8825C386.991 17.9455 386.874 17.9185 386.811 17.8376L385.948 16.5971C385.885 16.5162 385.912 16.3993 385.993 16.3364L387.368 15.3745L385.993 14.4126C385.912 14.3497 385.885 14.2418 385.948 14.1519L386.811 12.9114C386.874 12.8305 386.982 12.8035 387.072 12.8665L388.078 13.5676V12.3361C388.078 12.2372 388.159 12.1473 388.267 12.1473H389.777C389.876 12.1473 389.966 12.2282 389.966 12.3361V13.5676L390.973 12.8665C391.054 12.8035 391.171 12.8305 391.234 12.9114L392.097 14.1519C392.16 14.2328 392.133 14.3497 392.052 14.4126L390.676 15.3745L392.052 16.3364C392.133 16.3903 392.151 16.5072 392.097 16.5971Z" fill="#33CCFF"/>
</g>
</svg>
