<svg width="340" height="340" viewBox="0 0 340 340" fill="none" xmlns="http://www.w3.org/2000/svg">
<path d="M170 299.595C241.573 299.595 299.595 241.574 299.595 170.001C299.595 98.4276 241.573 40.4062 170 40.4062C98.4271 40.4062 40.4058 98.4276 40.4058 170.001C40.4058 241.574 98.4271 299.595 170 299.595Z" fill="#B3EDFF"/>
<path d="M170 319.6C252.622 319.6 319.6 252.622 319.6 170C319.6 87.3786 252.622 20.4004 170 20.4004C87.3781 20.4004 20.3999 87.3786 20.3999 170C20.3999 252.622 87.3781 319.6 170 319.6Z" stroke="#000099" stroke-width="4.794" stroke-miterlimit="10" stroke-linecap="round"/>
<path d="M171.33 56.0213C158.983 55.2325 148.761 65.4529 149.552 77.7994C150.205 88.004 158.448 96.2479 168.653 96.9007C181 97.6895 191.222 87.469 190.431 75.1225C189.778 64.918 181.534 56.6741 171.33 56.0213Z" fill="white" stroke="#000099" stroke-width="6.698" stroke-linecap="round" stroke-linejoin="round"/>
<path d="M169.414 141.732C162.188 141.655 156.569 141.077 151.748 139.91C146.605 138.665 142.282 136.72 138.583 133.98C138.608 121.479 141.666 112.045 147.677 105.925C154.42 99.0597 163.296 98.0352 167.986 98.0352C168.811 98.0352 169.632 98.0669 170.427 98.1281C170.514 98.1349 170.6 98.1372 170.686 98.1372C170.69 98.1372 170.926 98.1372 170.926 98.1372C180.446 98.1372 187.84 100.78 192.904 105.993C198.684 111.943 201.54 121.355 201.408 133.984C192.371 140.787 180.532 141.734 170.049 141.734C170.049 141.734 169.623 141.734 169.412 141.734L169.414 141.732Z" fill="#996699"/>
<path d="M167.986 101.383C168.725 101.383 169.46 101.41 170.169 101.465C170.342 101.478 170.514 101.485 170.686 101.485C170.695 101.485 170.706 101.485 170.716 101.485H170.926C179.508 101.485 186.093 103.786 190.504 108.326C195.395 113.363 197.931 121.402 198.061 132.255C194.944 134.327 191.308 135.827 187.031 136.82C182.432 137.888 177.035 138.384 170.049 138.384C169.85 138.384 169.648 138.384 169.448 138.384C162.472 138.31 157.097 137.761 152.535 136.657C148.47 135.673 144.982 134.223 141.956 132.251C142.237 121.527 144.959 113.471 150.064 108.276C155.953 102.283 163.818 101.388 167.984 101.388M167.984 94.6898C155.246 94.6898 134.635 101.392 135.247 135.628C144.565 143.267 156.442 144.949 169.399 145.085C169.614 145.085 169.832 145.085 170.047 145.085C182.693 145.085 195.164 143.604 204.725 135.63C205.799 98.7358 183.055 94.7895 170.926 94.7895C170.845 94.7895 170.765 94.7895 170.686 94.7895C169.838 94.7238 168.934 94.6875 167.986 94.6875L167.984 94.6898Z" fill="#000099"/>
<path d="M171.33 197.67C158.983 196.881 148.761 207.101 149.552 219.448C150.205 229.652 158.448 237.896 168.653 238.549C181 239.338 191.222 229.117 190.431 216.771C189.778 206.566 181.534 198.323 171.33 197.67Z" fill="white" stroke="#000099" stroke-width="6.698" stroke-linecap="round" stroke-linejoin="round"/>
<path d="M169.414 283.378C162.188 283.301 156.569 282.723 151.748 281.556C146.605 280.312 142.282 278.367 138.583 275.626C138.608 263.126 141.666 253.692 147.677 247.572C154.42 240.706 163.296 239.682 167.986 239.682C168.811 239.682 169.632 239.713 170.427 239.775C170.514 239.781 170.6 239.784 170.686 239.784C170.69 239.784 170.926 239.784 170.926 239.784C180.446 239.784 187.84 242.427 192.904 247.64C198.684 253.59 201.54 263.001 201.408 275.631C192.371 282.433 180.53 283.381 170.047 283.381C170.047 283.381 169.623 283.381 169.412 283.381L169.414 283.378Z" fill="#33CCFF"/>
<path d="M167.986 243.03C168.725 243.03 169.46 243.057 170.169 243.111C170.342 243.125 170.514 243.132 170.686 243.132C170.695 243.132 170.706 243.132 170.716 243.132H170.926C179.508 243.132 186.093 245.432 190.504 249.972C195.395 255.009 197.931 263.049 198.061 273.902C194.944 275.973 191.308 277.474 187.031 278.467C182.432 279.534 177.035 280.031 170.049 280.031C169.85 280.031 169.648 280.031 169.448 280.031C162.472 279.956 157.097 279.407 152.535 278.304C148.47 277.32 144.982 275.869 141.956 273.897C142.237 263.174 144.959 255.118 150.064 249.923C155.953 243.93 163.818 243.034 167.984 243.034M167.984 236.336C155.246 236.336 134.635 243.039 135.247 277.275C144.565 284.913 156.442 286.595 169.399 286.731C169.614 286.731 169.832 286.731 170.047 286.731C182.693 286.731 195.164 285.251 204.725 277.277C205.799 240.382 183.055 236.436 170.926 236.436C170.845 236.436 170.765 236.436 170.686 236.436C169.838 236.37 168.934 236.334 167.986 236.334L167.984 236.336Z" fill="#000099"/>
<path d="M253.366 125.488C241.019 124.699 230.796 134.92 231.587 147.266C232.24 157.471 240.484 165.715 250.689 166.367C263.035 167.156 273.258 156.936 272.467 144.589C271.814 134.385 263.57 126.141 253.366 125.488Z" fill="white" stroke="#000099" stroke-width="6.698" stroke-linecap="round" stroke-linejoin="round"/>
<path d="M251.452 211.197C244.226 211.12 238.607 210.542 233.786 209.374C228.643 208.13 224.32 206.185 220.624 203.445C220.648 190.944 223.706 181.51 229.717 175.39C236.461 168.525 245.337 167.5 250.027 167.5C250.852 167.5 251.672 167.532 252.468 167.593C252.554 167.6 252.64 167.602 252.726 167.602C252.731 167.602 252.967 167.602 252.967 167.602C262.487 167.602 269.88 170.245 274.944 175.458C280.724 181.408 283.58 190.819 283.449 203.449C274.412 210.252 262.573 211.199 252.092 211.199C252.092 211.199 251.666 211.199 251.455 211.199L251.452 211.197Z" fill="#CC3366"/>
<path d="M250.025 170.848C250.763 170.848 251.498 170.875 252.207 170.93C252.38 170.943 252.552 170.95 252.724 170.95C252.733 170.95 252.745 170.95 252.754 170.95H252.964C261.546 170.95 268.131 173.251 272.542 177.791C277.433 182.827 279.969 190.867 280.099 201.72C276.982 203.792 273.346 205.292 269.069 206.285C264.47 207.353 259.073 207.849 252.087 207.849C251.888 207.849 251.688 207.849 251.487 207.849C244.51 207.774 239.135 207.226 234.573 206.122C230.509 205.138 227.02 203.688 223.994 201.716C224.275 190.992 226.997 182.936 232.102 177.741C237.991 171.748 245.856 170.853 250.022 170.853M250.022 164.155C237.284 164.155 216.673 170.857 217.285 205.093C226.603 212.732 238.48 214.413 251.437 214.549C251.652 214.549 251.87 214.549 252.083 214.549C264.728 214.549 277.2 213.069 286.76 205.095C287.835 168.201 265.091 164.254 252.962 164.254C252.881 164.254 252.801 164.254 252.722 164.254C251.874 164.189 250.97 164.152 250.022 164.152V164.155Z" fill="#000099"/>
<path d="M89.2938 125.488C76.9473 124.699 66.7246 134.92 67.5157 147.266C68.1685 157.471 76.4124 165.715 86.6169 166.367C98.9634 167.156 109.186 156.936 108.395 144.589C107.742 134.385 99.4984 126.141 89.2938 125.488Z" fill="white" stroke="#000099" stroke-width="6.698" stroke-linecap="round" stroke-linejoin="round"/>
<path d="M87.3781 211.197C80.1519 211.12 74.5329 210.542 69.7117 209.374C64.5686 208.13 60.2461 206.185 56.5469 203.445C56.5718 190.944 59.6295 181.51 65.6407 175.39C72.3841 168.525 81.2603 167.5 85.9501 167.5C86.7751 167.5 87.5957 167.532 88.3913 167.593C88.4774 167.6 88.5635 167.602 88.6497 167.602C88.6542 167.602 88.8899 167.602 88.8899 167.602C98.4099 167.602 105.804 170.245 110.868 175.458C116.648 181.408 119.504 190.819 119.372 203.449C110.335 210.252 98.4961 211.199 88.0127 211.199C88.0127 211.199 87.5866 211.199 87.3758 211.199L87.3781 211.197Z" fill="#FFFF00"/>
<path d="M85.9503 170.848C86.6893 170.848 87.4237 170.876 88.1331 170.93C88.3054 170.944 88.4777 170.95 88.6499 170.95C88.659 170.95 88.6703 170.95 88.6794 170.95H88.8902C97.4718 170.95 104.056 173.251 108.467 177.791C113.359 182.828 115.895 190.868 116.024 201.72C112.908 203.792 109.272 205.293 104.995 206.285C100.396 207.353 94.9989 207.849 88.013 207.849C87.8135 207.849 87.6141 207.849 87.4123 207.849C80.4355 207.775 75.0613 207.226 70.4985 206.122C66.4343 205.139 62.9459 203.688 59.9199 201.716C60.201 190.992 62.9233 182.937 68.0278 177.739C73.9166 171.746 81.7819 170.851 85.9481 170.851M85.9481 164.153C73.2094 164.153 52.5986 170.855 53.2106 205.091C62.5289 212.73 74.4062 214.411 87.3625 214.547C87.5778 214.547 87.7954 214.547 88.0085 214.547C100.654 214.547 113.125 213.067 122.686 205.093C123.761 168.199 101.017 164.252 88.8857 164.252C88.8041 164.252 88.7247 164.252 88.6454 164.252C87.7977 164.187 86.8933 164.15 85.9458 164.15L85.9481 164.153Z" fill="#000099"/>
<path d="M248.284 108.547C237.504 94.8563 223.212 84.0625 206.763 77.5254" stroke="#000099" stroke-width="6.698" stroke-linecap="round" stroke-linejoin="round"/>
<path d="M133.147 77.5664C116.668 84.1352 102.358 94.9789 91.585 108.729" stroke="#000099" stroke-width="6.698" stroke-linecap="round" stroke-linejoin="round"/>
<path d="M214.651 259.123C229.169 251.827 241.659 241.088 251.043 227.973" stroke="#000099" stroke-width="6.698" stroke-linecap="round" stroke-linejoin="round"/>
<path d="M125.358 259.123C110.752 251.784 98.2034 240.954 88.8013 227.732" stroke="#000099" stroke-width="6.698" stroke-linecap="round" stroke-linejoin="round"/>
</svg>
