<svg width="16" height="13" viewBox="0 0 16 13" fill="none" xmlns="http://www.w3.org/2000/svg">
<path d="M2.4 0C1.075 0 0 1.075 0 2.4V10.4C0 11.725 1.075 12.8 2.4 12.8H13.6C14.925 12.8 16 11.725 16 10.4V2.4C16 1.075 14.925 0 13.6 0H2.4ZM1.6 2.4C1.6 1.9575 1.9575 1.6 2.4 1.6H13.6C14.0425 1.6 14.4 1.9575 14.4 2.4V10.4C14.4 10.8425 14.0425 11.2 13.6 11.2H2.4C1.9575 11.2 1.6 10.8425 1.6 10.4V2.4ZM5.595 4.4C5.595 4.24241 5.56396 4.08637 5.50366 3.94078C5.44335 3.79519 5.35496 3.6629 5.24353 3.55147C5.1321 3.44004 4.99981 3.35165 4.85422 3.29134C4.70863 3.23104 4.55259 3.2 4.395 3.2C4.23741 3.2 4.08137 3.23104 3.93578 3.29134C3.79019 3.35165 3.6579 3.44004 3.54647 3.55147C3.43504 3.6629 3.34665 3.79519 3.28634 3.94078C3.22604 4.08637 3.195 4.24241 3.195 4.4C3.195 4.55759 3.22604 4.71363 3.28634 4.85922C3.34665 5.00481 3.43504 5.1371 3.54647 5.24853C3.6579 5.35996 3.79019 5.44835 3.93578 5.50866C4.08137 5.56896 4.23741 5.6 4.395 5.6C4.55259 5.6 4.70863 5.56896 4.85422 5.50866C4.99981 5.44835 5.1321 5.35996 5.24353 5.24853C5.35496 5.1371 5.44335 5.00481 5.50366 4.85922C5.56396 4.71363 5.595 4.55759 5.595 4.4ZM2.4 7.7325C2.4 8.1 2.6975 8.4 3.0675 8.4H4.47C4.67 7.5475 5.29 6.8575 6.1 6.56C5.9125 6.4575 5.695 6.4 5.4675 6.4H3.7325C2.9975 6.4 2.4 6.9975 2.4 7.7325ZM11.53 8.4H12.9325C13.3 8.4 13.6 8.1025 13.6 7.7325C13.6 6.995 13.0025 6.4 12.2675 6.4H10.5325C10.3025 6.4 10.0875 6.4575 9.9 6.56C10.71 6.8575 11.33 7.5475 11.53 8.4ZM9.3 7.225C9.2025 7.2075 9.1025 7.2 9 7.2H7C6.8975 7.2 6.7975 7.2075 6.7 7.225C6.05 7.335 5.5175 7.7925 5.3025 8.4C5.235 8.5875 5.2 8.79 5.2 9C5.2 9.3325 5.4675 9.6 5.8 9.6H10.2C10.5325 9.6 10.8 9.3325 10.8 9C10.8 8.79 10.765 8.5875 10.6975 8.4C10.4825 7.7925 9.95 7.335 9.3 7.225ZM12.8 4.4C12.8 4.08174 12.6736 3.77652 12.4485 3.55147C12.2235 3.32643 11.9183 3.2 11.6 3.2C11.2817 3.2 10.9765 3.32643 10.7515 3.55147C10.5264 3.77652 10.4 4.08174 10.4 4.4C10.4 4.71826 10.5264 5.02348 10.7515 5.24853C10.9765 5.47357 11.2817 5.6 11.6 5.6C11.9183 5.6 12.2235 5.47357 12.4485 5.24853C12.6736 5.02348 12.8 4.71826 12.8 4.4ZM8 6.4C8.42435 6.4 8.83131 6.23143 9.13137 5.93137C9.43143 5.63131 9.6 5.22435 9.6 4.8C9.6 4.37565 9.43143 3.96869 9.13137 3.66863C8.83131 3.36857 8.42435 3.2 8 3.2C7.57565 3.2 7.16869 3.36857 6.86863 3.66863C6.56857 3.96869 6.4 4.37565 6.4 4.8C6.4 5.22435 6.56857 5.63131 6.86863 5.93137C7.16869 6.23143 7.57565 6.4 8 6.4Z" fill="#32363C"/>
</svg>
