<svg width="338" height="337" viewBox="0 0 338 337" fill="none" xmlns="http://www.w3.org/2000/svg">
<path d="M169 327.776C257.103 327.776 328.525 256.354 328.525 168.251C328.525 80.1468 257.103 8.72461 169 8.72461C80.8958 8.72461 9.47363 80.1468 9.47363 168.251C9.47363 256.354 80.8958 327.776 169 327.776Z" fill="#4F4FE8"/>
<path d="M34.6543 254.186C62.9901 298.439 112.535 327.777 168.993 327.777C225.457 327.777 275.01 298.439 303.343 254.186H34.6543Z" fill="#7C7CFF"/>
<path d="M83.6192 261.419V303.018C78.9489 300.061 74.4392 296.858 70.1094 293.421V261.419C70.1094 257.68 73.1254 254.664 76.8643 254.664C77.7525 254.66 78.6326 254.832 79.454 255.17C80.2753 255.508 81.0215 256.006 81.6496 256.634C82.2776 257.262 82.775 258.008 83.1131 258.829C83.4512 259.651 83.6232 260.531 83.6192 261.419ZM261.875 278.468V297.933C257.53 301.072 253.02 303.976 248.365 306.632V278.466C248.365 274.727 251.381 271.711 255.12 271.711C256.008 271.707 256.888 271.879 257.709 272.217C258.531 272.555 259.277 273.053 259.905 273.681C260.533 274.309 261.03 275.055 261.368 275.876C261.706 276.698 261.878 277.58 261.875 278.468ZM221.771 290.184V318.794C217.359 320.364 212.848 321.735 208.261 322.856V290.181C208.261 286.442 211.277 283.426 215.016 283.426C215.905 283.422 216.785 283.594 217.606 283.932C218.428 284.27 219.174 284.767 219.802 285.395C220.43 286.023 220.928 286.77 221.266 287.591C221.604 288.412 221.775 289.295 221.771 290.184ZM98.1934 254.186V277.043C98.196 278.833 98.9086 280.55 100.175 281.816C101.441 283.082 103.158 283.795 104.948 283.798C108.687 283.798 111.703 280.782 111.703 277.043V254.186H98.1934ZM284.879 254.186V277.843C289.739 272.708 294.276 267.249 298.386 261.494V254.186H284.879ZM142.714 264.634V325.598C138.127 324.851 133.616 323.903 129.204 322.757L129.179 264.634C129.179 260.896 132.195 257.88 135.934 257.88C139.76 257.88 142.714 261.05 142.714 264.634ZM224.438 254.186V263.136C224.438 264.928 225.15 266.646 226.417 267.913C227.684 269.18 229.402 269.891 231.193 269.891C234.907 269.891 237.948 266.85 237.948 263.136V254.186H224.438ZM172.398 254.186V327.717C176.959 327.642 181.471 327.343 185.908 326.87V254.186H172.398Z" fill="#6D6DF7"/>
<path d="M140.402 234.381H197.595V266.78H140.402V234.381Z" fill="#24242B"/>
<path d="M197.597 259.863V266.78H140.402V234.379H147.319V248.966C147.319 254.975 152.205 259.858 158.212 259.858H197.595L197.597 259.863Z" fill="#000033"/>
<path d="M235.495 277.975C235.495 280.944 234.316 283.791 232.217 285.891C230.117 287.991 227.27 289.171 224.301 289.172H113.7C112.215 289.194 110.742 288.92 109.364 288.368C107.986 287.815 106.732 286.994 105.675 285.952C104.617 284.91 103.777 283.669 103.204 282.299C102.631 280.93 102.336 279.46 102.336 277.976C102.336 276.492 102.631 275.022 103.204 273.653C103.777 272.283 104.617 271.042 105.675 270C106.732 268.958 107.986 268.137 109.364 267.584C110.742 267.032 112.215 266.758 113.7 266.781H224.301C227.27 266.781 230.117 267.961 232.217 270.061C234.316 272.161 235.495 275.008 235.495 277.977V277.975Z" fill="#24242B"/>
<path d="M234.871 281.634C234.115 283.834 232.69 285.744 230.795 287.094C228.9 288.445 226.63 289.169 224.303 289.166H113.697C111.484 289.166 109.321 288.51 107.481 287.28C105.641 286.051 104.207 284.304 103.36 282.26C102.512 280.215 102.29 277.966 102.721 275.796C103.152 273.625 104.216 271.631 105.78 270.066C106.981 268.855 108.449 267.942 110.065 267.398C109.641 268.568 109.426 269.803 109.429 271.048C109.429 272.519 109.718 273.976 110.281 275.335C110.843 276.694 111.668 277.93 112.709 278.97C113.749 280.01 114.984 280.835 116.343 281.398C117.703 281.961 119.16 282.25 120.631 282.249H231.225C232.513 282.249 233.727 282.032 234.871 281.634Z" fill="#000033"/>
<path opacity="0.3" d="M161.585 277.881H133.184C132.448 277.881 131.742 277.589 131.222 277.068C130.701 276.548 130.409 275.842 130.409 275.106C130.409 274.369 130.701 273.664 131.222 273.143C131.742 272.623 132.448 272.33 133.184 272.33H161.585C162.321 272.33 163.027 272.623 163.548 273.143C164.068 273.664 164.361 274.369 164.361 275.106C164.361 275.842 164.068 276.548 163.548 277.068C163.027 277.589 162.321 277.881 161.585 277.881ZM123.79 277.881H121.544C120.808 277.881 120.102 277.589 119.581 277.068C119.061 276.548 118.769 275.842 118.769 275.106C118.769 274.369 119.061 273.664 119.581 273.143C120.102 272.623 120.808 272.33 121.544 272.33H123.79C124.526 272.33 125.232 272.623 125.752 273.143C126.273 273.664 126.565 274.369 126.565 275.106C126.565 275.842 126.273 276.548 125.752 277.068C125.232 277.589 124.526 277.881 123.79 277.881Z" fill="white"/>
<path d="M283.609 86.5037V213.21C283.61 215.988 283.063 218.738 282.001 221.305C280.938 223.872 279.38 226.204 277.416 228.168C275.451 230.132 273.119 231.69 270.553 232.753C267.986 233.816 265.235 234.362 262.457 234.362H75.5428C72.7648 234.363 70.0138 233.816 67.447 232.754C64.8803 231.691 62.5481 230.133 60.5838 228.169C58.6194 226.204 57.0614 223.872 55.9987 221.305C54.9361 218.739 54.3896 215.988 54.3906 213.21V86.5037C54.39 83.7258 54.9366 80.9749 55.9994 78.4084C57.0622 75.8418 58.6202 73.5097 60.5845 71.5454C62.5488 69.5811 64.8808 68.0231 67.4474 66.9603C70.014 65.8976 72.7648 65.3509 75.5428 65.3516H262.457C265.235 65.3509 267.986 65.8976 270.553 66.9603C273.119 68.0231 275.451 69.5811 277.416 71.5454C279.38 73.5097 280.938 75.8418 282.001 78.4084C283.063 80.9749 283.61 83.7258 283.609 86.5037Z" fill="#24242B"/>
<path d="M283.609 213.132V213.21C283.61 215.988 283.063 218.738 282.001 221.305C280.938 223.872 279.38 226.204 277.416 228.168C275.451 230.132 273.119 231.69 270.553 232.753C267.986 233.816 265.235 234.362 262.457 234.362H75.5428C72.7648 234.363 70.0138 233.816 67.447 232.754C64.8803 231.691 62.5481 230.133 60.5838 228.169C58.6194 226.204 57.0614 223.872 55.9987 221.305C54.9361 218.739 54.3896 215.988 54.3906 213.21V86.5037C54.39 83.7258 54.9366 80.9749 55.9994 78.4084C57.0622 75.8418 58.6202 73.5097 60.5845 71.5454C62.5488 69.5811 64.8808 68.0231 67.4474 66.9603C70.014 65.8976 72.7648 65.3509 75.5428 65.3516H75.6499C75.6499 105.727 91.6723 142.667 117.795 169.529C143.92 196.367 180.144 213.132 220.522 213.132H283.609Z" fill="#000033"/>
<path d="M261.829 92.5855V207.145C261.828 208.59 261.254 209.975 260.233 210.996C259.212 212.018 257.827 212.593 256.382 212.594H81.6143C80.1702 212.593 78.7857 212.018 77.7646 210.997C76.7435 209.976 76.1693 208.592 76.168 207.148V92.5855C76.168 89.5695 78.6007 87.1367 81.6143 87.1367H256.382C259.398 87.1367 261.829 89.572 261.829 92.5855Z" fill="white"/>
<path d="M261.825 92.5845V94.3442H88.8188C85.8301 94.3442 83.3774 96.767 83.3774 99.788V212.59H81.6152C80.1722 212.59 78.7886 212.016 77.7683 210.996C76.748 209.976 76.1745 208.592 76.1738 207.149V92.5845C76.1738 89.5634 78.5966 87.1406 81.6152 87.1406H256.383C259.404 87.1406 261.825 89.5634 261.825 92.5845Z" fill="#E5E5F9"/>
<path d="M182.715 223.094C182.715 225.317 180.912 227.119 178.689 227.119H159.312C158.244 227.119 157.22 226.695 156.465 225.94C155.71 225.185 155.286 224.162 155.286 223.094C155.286 222.026 155.71 221.002 156.465 220.247C157.22 219.492 158.244 219.068 159.312 219.068H178.689C180.912 219.068 182.715 220.87 182.715 223.094Z" fill="black"/>
<path opacity="0.3" d="M275.07 128.279V156.685C275.07 157.421 274.777 158.127 274.257 158.648C273.736 159.168 273.03 159.46 272.294 159.46C271.558 159.46 270.852 159.168 270.331 158.648C269.811 158.127 269.519 157.421 269.519 156.685V128.279C269.519 127.543 269.811 126.837 270.331 126.317C270.852 125.796 271.558 125.504 272.294 125.504C273.03 125.504 273.736 125.796 274.257 126.317C274.777 126.837 275.07 127.543 275.07 128.279Z" fill="white"/>
<path d="M86.1709 130.848C86.1709 115.072 98.9978 102.24 114.763 102.24V116.682C111.01 116.689 107.412 118.184 104.76 120.839C102.107 123.495 100.616 127.094 100.613 130.848H86.1709Z" fill="#4343FF"/>
<path d="M114.772 159.45C98.9984 159.45 86.1641 146.621 86.1641 130.855H100.606C100.606 138.657 106.962 145.006 114.772 145.006V159.45Z" fill="#5454FC"/>
<path d="M114.771 102.246C130.547 102.246 143.379 115.083 143.379 130.856H128.937C128.933 127.1 127.439 123.499 124.784 120.843C122.128 118.187 118.527 116.693 114.771 116.688V102.246Z" fill="#4F4FE8"/>
<path d="M143.371 130.85C143.371 146.623 130.539 159.457 114.764 159.457V145.015C118.52 145.011 122.121 143.517 124.777 140.862C127.433 138.206 128.927 134.606 128.932 130.85H143.371Z" fill="#5050FF"/>
<path d="M143.371 130.85C143.371 146.623 130.539 159.457 114.764 159.457V145.015C118.52 145.011 122.121 143.517 124.777 140.862C127.433 138.206 128.927 134.606 128.932 130.85H143.371Z" fill="#5050FF"/>
<path d="M250.699 122.596V156.892C250.699 158.308 249.553 159.457 248.134 159.457H237.212C236.875 159.457 236.541 159.39 236.229 159.261C235.918 159.132 235.635 158.943 235.397 158.705C235.158 158.466 234.969 158.183 234.84 157.872C234.711 157.56 234.645 157.226 234.645 156.889V122.599C234.645 121.18 235.794 120.031 237.212 120.031H248.134C249.553 120.031 250.702 121.18 250.702 122.599L250.699 122.596Z" fill="#4F4FE8"/>
<path d="M250.692 154.412V156.902C250.692 158.312 249.565 159.467 248.127 159.467H237.222C235.786 159.467 234.657 158.312 234.657 156.899V122.599C234.657 121.188 235.786 120.031 237.225 120.031H239.685V151.849C239.685 153.26 240.841 154.417 242.252 154.417H250.692V154.412Z" fill="#3535D1"/>
<path d="M223.251 133.778V156.892C223.251 158.308 222.104 159.457 220.686 159.457H209.764C209.427 159.457 209.093 159.391 208.781 159.262C208.47 159.133 208.187 158.943 207.948 158.705C207.71 158.467 207.521 158.184 207.392 157.872C207.263 157.561 207.196 157.227 207.196 156.89V133.778C207.196 132.36 208.345 131.211 209.764 131.211H220.686C222.102 131.211 223.251 132.36 223.251 133.778Z" fill="#5454FC"/>
<path d="M223.239 154.411V156.901C223.239 158.312 222.112 159.466 220.674 159.466H209.769C208.358 159.466 207.204 158.312 207.204 156.899V133.782C207.204 132.371 208.358 131.215 209.771 131.215H212.259V151.846C212.259 153.257 213.388 154.413 214.826 154.413L223.239 154.411Z" fill="#4444F1"/>
<path d="M195.803 112.116V156.891C195.803 158.306 194.656 159.456 193.235 159.456H182.315C181.978 159.456 181.644 159.389 181.333 159.26C181.021 159.131 180.738 158.942 180.5 158.704C180.262 158.465 180.073 158.182 179.943 157.871C179.814 157.559 179.748 157.225 179.748 156.888V112.116C179.748 110.7 180.897 109.549 182.315 109.549H193.238C194.654 109.549 195.803 110.7 195.803 112.116Z" fill="#5050FF"/>
<path d="M195.812 154.411V156.901C195.812 158.312 194.658 159.466 193.245 159.466H182.315C180.904 159.466 179.75 158.312 179.75 156.899V112.132C179.75 110.694 180.904 109.564 182.317 109.564H184.805V151.849C184.805 153.26 185.959 154.416 187.372 154.416H195.812V154.411Z" fill="#2C2CFF"/>
<path d="M168.354 133.778V156.892C168.354 158.308 167.207 159.457 165.787 159.457H154.867C154.186 159.456 153.534 159.186 153.053 158.704C152.572 158.223 152.302 157.57 152.302 156.89V133.778C152.302 132.36 153.448 131.211 154.869 131.211H165.792C167.207 131.211 168.359 132.36 168.359 133.778H168.354Z" fill="#4343FF"/>
<path d="M168.36 154.411V156.901C168.36 158.312 167.203 159.466 165.792 159.466H154.862C153.451 159.466 152.295 158.312 152.295 156.899V133.782C152.295 132.371 153.451 131.215 154.862 131.215H157.352V151.846C157.352 153.257 158.506 154.413 159.92 154.413L168.36 154.411Z" fill="#000099"/>
<path d="M250.7 179.057V179.077C250.7 181.121 249.035 182.791 246.989 182.791H135.719C133.675 182.791 132.008 181.121 132.008 179.077V179.057C132.008 177.013 133.675 175.346 135.719 175.346H246.989C249.033 175.346 250.703 177.016 250.703 179.06L250.7 179.057ZM250.7 196.174V196.194C250.7 198.238 249.035 199.905 246.989 199.905H135.719C133.675 199.905 132.008 198.235 132.008 196.191V196.174C132.008 194.13 133.675 192.46 135.719 192.46H246.989C249.033 192.46 250.7 194.13 250.7 196.174Z" fill="#E5E5F9"/>
<path d="M186.972 199.905H135.716C133.672 199.905 132.005 198.24 132.005 196.196V196.176C132.005 194.132 133.672 192.462 135.716 192.462H186.967C184.923 192.462 183.255 194.132 183.255 196.176V196.196C183.255 198.24 184.925 199.908 186.969 199.908L186.972 199.905ZM199.798 182.789H135.719C133.675 182.789 132.007 181.121 132.007 179.077V179.057C132.007 177.013 133.675 175.346 135.719 175.346H199.798C197.755 175.346 196.084 177.016 196.084 179.06V179.077C196.084 181.121 197.755 182.789 199.798 182.789Z" fill="#D3D3ED"/>
<path d="M120.138 176.923V198.334C120.138 199.768 119.568 201.143 118.555 202.158C117.541 203.172 116.166 203.742 114.731 203.743H93.3201C91.8855 203.743 90.5097 203.173 89.4954 202.159C88.481 201.144 87.9111 199.769 87.9111 198.334V176.923C87.9111 175.488 88.481 174.112 89.4954 173.098C90.5097 172.084 91.8855 171.514 93.3201 171.514H114.731C116.166 171.514 117.542 172.084 118.556 173.098C119.57 174.112 120.138 175.488 120.138 176.923Z" fill="#5454FC"/>
<path d="M120.103 198.846C119.979 200.184 119.36 201.427 118.366 202.331C117.373 203.235 116.077 203.735 114.733 203.731H93.3321C92.6213 203.734 91.9169 203.597 91.2593 203.327C90.6017 203.057 90.0038 202.66 89.4999 202.159C88.9961 201.658 88.5961 201.062 88.3229 200.406C88.0498 199.749 87.9089 199.046 87.9082 198.335V176.909C87.9082 174.117 90.0568 171.806 92.7937 171.537C92.7688 171.699 92.7688 171.861 92.7688 172.048V193.474C92.7688 196.456 95.2115 198.873 98.1926 198.873H119.594C119.781 198.873 119.943 198.873 120.103 198.846Z" fill="#4444F1"/>
<path d="M111.695 181.985C112.116 182.412 112.352 182.987 112.352 183.587C112.352 184.186 112.116 184.761 111.695 185.188L103.604 193.279C102.7 194.186 101.212 194.122 100.404 193.279L96.3486 189.241C95.9285 188.811 95.6934 188.233 95.6934 187.632C95.6934 187.031 95.9285 186.453 96.3486 186.023C96.5594 185.811 96.8103 185.642 97.0866 185.527C97.363 185.412 97.6594 185.352 97.9588 185.352C98.2582 185.352 98.5546 185.412 98.8309 185.527C99.1073 185.642 99.3581 185.811 99.569 186.023L102.014 188.448L108.475 181.988C108.685 181.773 108.935 181.603 109.212 181.487C109.488 181.37 109.785 181.311 110.085 181.311C110.385 181.311 110.682 181.37 110.959 181.487C111.235 181.603 111.486 181.771 111.695 181.985Z" fill="white"/>
<path d="M137.356 148.392C134.685 151.834 131.261 154.619 127.348 156.536C123.435 158.452 119.136 159.449 114.778 159.449V159.424C99.0252 159.424 86.1709 146.595 86.1709 130.842H86.1958C86.1958 121.681 90.5329 113.498 97.2555 108.264C93.3421 113.275 91.2186 119.453 91.2234 125.812H91.1985C91.1985 141.565 104.053 154.394 119.808 154.394V154.419C126.401 154.419 132.508 152.163 137.356 148.392Z" fill="#4444F1"/>
<path d="M91.2063 125.802C91.2063 127.522 91.3608 129.217 91.6674 130.859H86.1787V130.834H86.2036C86.2036 121.674 90.5408 113.488 97.2608 108.254C93.3483 113.266 91.2257 119.443 91.2312 125.802H91.2063Z" fill="#000099"/>
<path d="M137.364 148.383C134.692 151.825 131.269 154.611 127.355 156.527C123.442 158.444 119.143 159.44 114.786 159.44V159.416H114.761V153.924C116.427 154.234 118.118 154.388 119.813 154.386V154.41C126.409 154.41 132.515 152.155 137.364 148.383Z" fill="#2C2CFF"/>
<path opacity="0.3" d="M202.286 78.6208H173.885C173.15 78.6208 172.444 78.3285 171.924 77.8082C171.403 77.2879 171.111 76.5823 171.111 75.8465C171.111 75.1107 171.403 74.4051 171.924 73.8848C172.444 73.3646 173.15 73.0723 173.885 73.0723H202.286C203.022 73.0723 203.727 73.3646 204.248 73.8848C204.768 74.4051 205.06 75.1107 205.06 75.8465C205.06 76.5823 204.768 77.2879 204.248 77.8082C203.727 78.3285 203.022 78.6208 202.286 78.6208ZM164.491 78.6208H162.245C161.509 78.6208 160.804 78.3285 160.283 77.8082C159.763 77.2879 159.471 76.5823 159.471 75.8465C159.471 75.1107 159.763 74.4051 160.283 73.8848C160.804 73.3646 161.509 73.0723 162.245 73.0723H164.491C165.227 73.0723 165.932 73.3646 166.452 73.8848C166.973 74.4051 167.265 75.1107 167.265 75.8465C167.265 76.5823 166.973 77.2879 166.452 77.8082C165.932 78.3285 165.227 78.6208 164.491 78.6208Z" fill="white"/>
</svg>
