<svg width="32" height="33" viewBox="0 0 32 33" fill="none" xmlns="http://www.w3.org/2000/svg">
<g id="Frame 1000006525">
<path id="Vector" d="M27.2 0.5H4.8C2.14903 0.5 0 2.64903 0 5.3V27.7C0 30.351 2.14903 32.5 4.8 32.5H27.2C29.851 32.5 32 30.351 32 27.7V5.3C32 2.64903 29.851 0.5 27.2 0.5Z" fill="url(#paint0_linear_11523_5476)"/>
<path id="Vector_2" d="M16.3229 24.7334C16.2136 24.7334 16.0799 24.6969 15.9219 24.624C15.7639 24.5511 15.6181 24.469 15.4844 24.3779C13.783 23.2842 12.3034 22.1357 11.0456 20.9326C9.79385 19.7295 8.82465 18.4899 8.13805 17.2138C7.45752 15.9378 7.11719 14.6526 7.11719 13.3584C7.11719 12.5198 7.25092 11.7542 7.51825 11.0615C7.78559 10.3627 8.15932 9.76116 8.63932 9.25683C9.11939 8.7525 9.67232 8.36356 10.2982 8.09016C10.9301 7.81063 11.6107 7.6709 12.3399 7.6709C13.2453 7.6709 14.0352 7.90176 14.7097 8.36356C15.3841 8.82536 15.9219 9.42696 16.3229 10.1683C16.7361 9.4209 17.2769 8.8193 17.9453 8.36356C18.6198 7.90176 19.4097 7.6709 20.3151 7.6709C21.0443 7.6709 21.7249 7.81063 22.3568 8.09016C22.9887 8.36356 23.5417 8.7525 24.0157 9.25683C24.4896 9.76116 24.8603 10.3627 25.1277 11.0615C25.4011 11.7542 25.5378 12.5198 25.5378 13.3584C25.5378 14.6526 25.1945 15.9378 24.5079 17.2138C23.8212 18.4899 22.852 19.7295 21.6003 20.9326C20.3547 22.1357 18.8811 23.2842 17.1797 24.3779C17.0399 24.469 16.8911 24.5511 16.7331 24.624C16.5812 24.6969 16.4445 24.7334 16.3229 24.7334Z" fill="white"/>
</g>
<defs>
<linearGradient id="paint0_linear_11523_5476" x1="12.4644" y1="32.5" x2="12.4644" y2="0.5" gradientUnits="userSpaceOnUse">
<stop stop-color="#002442"/>
<stop offset="1" stop-color="#0073CF"/>
</linearGradient>
</defs>
</svg>
