<svg width="32" height="32" viewBox="0 0 32 32" fill="none" xmlns="http://www.w3.org/2000/svg">
<g id="Frame 1000006525">
<path id="Vector" d="M27.2 0H4.8C2.14903 0 0 2.14903 0 4.8V27.2C0 29.851 2.14903 32 4.8 32H27.2C29.851 32 32 29.851 32 27.2V4.8C32 2.14903 29.851 0 27.2 0Z" fill="url(#paint0_linear_11449_37339)"/>
<path id="Vector_2" d="M16.3229 24.2334C16.2136 24.2334 16.0799 24.1969 15.9219 24.124C15.7639 24.0511 15.6181 23.969 15.4844 23.8779C13.783 22.7842 12.3034 21.6357 11.0456 20.4326C9.79385 19.2295 8.82465 17.9899 8.13805 16.7138C7.45752 15.4378 7.11719 14.1526 7.11719 12.8584C7.11719 12.0198 7.25092 11.2542 7.51825 10.5615C7.78559 9.8627 8.15932 9.26116 8.63932 8.75683C9.11939 8.2525 9.67232 7.86356 10.2982 7.59016C10.9301 7.31063 11.6107 7.1709 12.3399 7.1709C13.2453 7.1709 14.0352 7.40176 14.7097 7.86356C15.3841 8.32536 15.9219 8.92696 16.3229 9.6683C16.7361 8.9209 17.2769 8.3193 17.9453 7.86356C18.6198 7.40176 19.4097 7.1709 20.3151 7.1709C21.0443 7.1709 21.7249 7.31063 22.3568 7.59016C22.9887 7.86356 23.5417 8.2525 24.0157 8.75683C24.4896 9.26116 24.8603 9.8627 25.1277 10.5615C25.4011 11.2542 25.5378 12.0198 25.5378 12.8584C25.5378 14.1526 25.1945 15.4378 24.5079 16.7138C23.8212 17.9899 22.852 19.2295 21.6003 20.4326C20.3547 21.6357 18.8811 22.7842 17.1797 23.8779C17.0399 23.969 16.8911 24.0511 16.7331 24.124C16.5812 24.1969 16.4445 24.2334 16.3229 24.2334Z" fill="white"/>
</g>
<defs>
<linearGradient id="paint0_linear_11449_37339" x1="12.4644" y1="32" x2="12.4644" y2="0" gradientUnits="userSpaceOnUse">
<stop stop-color="#001B80"/>
<stop offset="1" stop-color="#325CFF"/>
</linearGradient>
</defs>
</svg>
