<svg width="32" height="32" viewBox="0 0 32 32" fill="none" xmlns="http://www.w3.org/2000/svg">
<g id="Frame 1000006528">
<path id="Vector" d="M27.2 0H4.8C2.14903 0 0 2.14903 0 4.8V27.2C0 29.851 2.14903 32 4.8 32H27.2C29.851 32 32 29.851 32 27.2V4.8C32 2.14903 29.851 0 27.2 0Z" fill="url(#paint0_linear_11449_43039)"/>
<path id="Vector_2" d="M10.3867 26.0482C9.60285 26.0482 8.96792 25.8173 8.48179 25.3555C8.00179 24.8997 7.76172 24.2921 7.76172 23.5325V8.62107C7.76172 7.8676 8.00179 7.26 8.48179 6.7982C8.96792 6.3364 9.60285 6.10547 10.3867 6.10547H17.5599C18.3255 6.10547 18.9453 6.33334 19.4193 6.78907C19.8993 7.23874 20.1393 7.83114 20.1393 8.5664V9.09507H18.3529V8.98567C18.3529 8.65754 18.2496 8.40234 18.043 8.22007C17.8425 8.03774 17.566 7.9466 17.2136 7.9466H10.6967C10.3321 7.9466 10.0495 8.0408 9.84899 8.2292C9.65452 8.41754 9.55732 8.68487 9.55732 9.03127V23.1224C9.55732 23.4687 9.65452 23.7361 9.84899 23.9245C10.0495 24.1129 10.3321 24.207 10.6967 24.207H13.4675L13.4766 24.4987C13.5009 24.7965 13.5708 25.0759 13.6862 25.3373C13.8077 25.6046 13.9566 25.8416 14.1329 26.0482H10.3867ZM12.8477 9.888C12.6593 9.888 12.5013 9.8242 12.3737 9.6966C12.2461 9.56294 12.1823 9.40494 12.1823 9.22267C12.1823 9.04034 12.2461 8.8854 12.3737 8.7578C12.5013 8.6302 12.6593 8.5664 12.8477 8.5664H15.0625C15.2448 8.5664 15.3998 8.6302 15.5274 8.7578C15.655 8.8854 15.7188 9.04034 15.7188 9.22267C15.7188 9.40494 15.655 9.56294 15.5274 9.6966C15.3998 9.8242 15.2448 9.888 15.0625 9.888H12.8477ZM16.7031 26.0664C16.0408 26.0664 15.5061 25.8719 15.099 25.4831C14.6979 25.0942 14.4974 24.5838 14.4974 23.9518V12.3125C14.4974 11.6805 14.6979 11.1701 15.099 10.7813C15.5061 10.3923 16.0408 10.1979 16.7031 10.1979H22.0625C22.7127 10.1979 23.2383 10.3923 23.6393 10.7813C24.0404 11.1701 24.2409 11.6805 24.2409 12.3125V23.9518C24.2409 24.5838 24.0404 25.0942 23.6393 25.4831C23.2383 25.8719 22.7127 26.0664 22.0625 26.0664H16.7031ZM17.0769 24.4531H21.6615C21.9592 24.4531 22.1932 24.3711 22.3633 24.207C22.5395 24.0491 22.6277 23.8242 22.6277 23.5325V12.7409C22.6277 12.4492 22.5395 12.2244 22.3633 12.0664C22.1932 11.9023 21.9592 11.8203 21.6615 11.8203H17.0769C16.4327 11.8203 16.1107 12.1241 16.1107 12.7318V23.5417C16.1107 24.1493 16.4327 24.4531 17.0769 24.4531ZM18.3438 13.7435C18.1675 13.7435 18.0187 13.6827 17.8972 13.5612C17.7757 13.4397 17.7149 13.2908 17.7149 13.1146C17.7149 12.9384 17.7757 12.7895 17.8972 12.668C18.0187 12.5403 18.1675 12.4765 18.3438 12.4765H20.431C20.6011 12.4765 20.747 12.5403 20.8685 12.668C20.9961 12.7895 21.0599 12.9384 21.0599 13.1146C21.0599 13.2908 20.9961 13.4397 20.8685 13.5612C20.747 13.6827 20.6011 13.7435 20.431 13.7435H18.3438Z" fill="white"/>
</g>
<defs>
<linearGradient id="paint0_linear_11449_43039" x1="12.4644" y1="32" x2="12.4644" y2="0" gradientUnits="userSpaceOnUse">
<stop stop-color="#001B80"/>
<stop offset="1" stop-color="#325CFF"/>
</linearGradient>
</defs>
</svg>
