<svg width="32" height="33" viewBox="0 0 32 33" fill="none" xmlns="http://www.w3.org/2000/svg">
<g id="Frame 1000006528">
<path id="Vector" d="M27.2 0.5H4.8C2.14903 0.5 0 2.64903 0 5.3V27.7C0 30.351 2.14903 32.5 4.8 32.5H27.2C29.851 32.5 32 30.351 32 27.7V5.3C32 2.64903 29.851 0.5 27.2 0.5Z" fill="url(#paint0_linear_11523_43330)"/>
<path id="Vector_2" d="M10.3867 26.5482C9.60285 26.5482 8.96792 26.3173 8.48179 25.8555C8.00179 25.3997 7.76172 24.7921 7.76172 24.0325V9.12107C7.76172 8.3676 8.00179 7.76 8.48179 7.2982C8.96792 6.8364 9.60285 6.60547 10.3867 6.60547H17.5599C18.3255 6.60547 18.9453 6.83334 19.4193 7.28907C19.8993 7.73874 20.1393 8.33114 20.1393 9.0664V9.59507H18.3529V9.48567C18.3529 9.15754 18.2496 8.90234 18.043 8.72007C17.8425 8.53774 17.566 8.4466 17.2136 8.4466H10.6967C10.3321 8.4466 10.0495 8.5408 9.84899 8.7292C9.65452 8.91754 9.55732 9.18487 9.55732 9.53127V23.6224C9.55732 23.9687 9.65452 24.2361 9.84899 24.4245C10.0495 24.6129 10.3321 24.707 10.6967 24.707H13.4675L13.4766 24.9987C13.5009 25.2965 13.5708 25.5759 13.6862 25.8373C13.8077 26.1046 13.9566 26.3416 14.1329 26.5482H10.3867ZM12.8477 10.388C12.6593 10.388 12.5013 10.3242 12.3737 10.1966C12.2461 10.0629 12.1823 9.90494 12.1823 9.72267C12.1823 9.54034 12.2461 9.3854 12.3737 9.2578C12.5013 9.1302 12.6593 9.0664 12.8477 9.0664H15.0625C15.2448 9.0664 15.3998 9.1302 15.5274 9.2578C15.655 9.3854 15.7188 9.54034 15.7188 9.72267C15.7188 9.90494 15.655 10.0629 15.5274 10.1966C15.3998 10.3242 15.2448 10.388 15.0625 10.388H12.8477ZM16.7031 26.5664C16.0408 26.5664 15.5061 26.3719 15.099 25.9831C14.6979 25.5942 14.4974 25.0838 14.4974 24.4518V12.8125C14.4974 12.1805 14.6979 11.6701 15.099 11.2813C15.5061 10.8923 16.0408 10.6979 16.7031 10.6979H22.0625C22.7127 10.6979 23.2383 10.8923 23.6393 11.2813C24.0404 11.6701 24.2409 12.1805 24.2409 12.8125V24.4518C24.2409 25.0838 24.0404 25.5942 23.6393 25.9831C23.2383 26.3719 22.7127 26.5664 22.0625 26.5664H16.7031ZM17.0769 24.9531H21.6615C21.9592 24.9531 22.1932 24.8711 22.3633 24.707C22.5395 24.5491 22.6277 24.3242 22.6277 24.0325V13.2409C22.6277 12.9492 22.5395 12.7244 22.3633 12.5664C22.1932 12.4023 21.9592 12.3203 21.6615 12.3203H17.0769C16.4327 12.3203 16.1107 12.6241 16.1107 13.2318V24.0417C16.1107 24.6493 16.4327 24.9531 17.0769 24.9531ZM18.3438 14.2435C18.1675 14.2435 18.0187 14.1827 17.8972 14.0612C17.7757 13.9397 17.7149 13.7908 17.7149 13.6146C17.7149 13.4384 17.7757 13.2895 17.8972 13.168C18.0187 13.0403 18.1675 12.9765 18.3438 12.9765H20.431C20.6011 12.9765 20.747 13.0403 20.8685 13.168C20.9961 13.2895 21.0599 13.4384 21.0599 13.6146C21.0599 13.7908 20.9961 13.9397 20.8685 14.0612C20.747 14.1827 20.6011 14.2435 20.431 14.2435H18.3438Z" fill="white"/>
</g>
<defs>
<linearGradient id="paint0_linear_11523_43330" x1="12.4644" y1="32.5" x2="12.4644" y2="0.5" gradientUnits="userSpaceOnUse">
<stop stop-color="#002442"/>
<stop offset="1" stop-color="#0073CF"/>
</linearGradient>
</defs>
</svg>
