<svg width="32" height="32" viewBox="0 0 32 32" fill="none" xmlns="http://www.w3.org/2000/svg">
<g id="Frame 1000006527">
<path id="Vector" d="M27.2 0H4.8C2.14903 0 0 2.14903 0 4.8V27.2C0 29.851 2.14903 32 4.8 32H27.2C29.851 32 32 29.851 32 27.2V4.8C32 2.14903 29.851 0 27.2 0Z" fill="url(#paint0_linear_11449_28773)"/>
<path id="Vector_2" d="M8.35546 22.2282V16.6136H15.1276V24.6162H10.8346C10.0569 24.6162 9.44919 24.4126 9.01172 24.0055C8.57419 23.5984 8.35546 23.006 8.35546 22.2282ZM16.8503 24.6162V16.6136H23.6315V22.2282C23.6315 23.006 23.4127 23.5984 22.9753 24.0055C22.5438 24.4126 21.9392 24.6162 21.1615 24.6162H16.8503ZM7.09766 14.0342V12.0016C7.09766 11.4426 7.25259 11.0324 7.56246 10.7711C7.87846 10.5098 8.30686 10.3792 8.84766 10.3792H10.6615C10.3941 10.124 10.1845 9.82624 10.0325 9.48597C9.88672 9.1457 9.81379 8.77504 9.81379 8.37397C9.81379 7.76637 9.95959 7.22857 10.2513 6.7607C10.5429 6.29283 10.9319 5.92524 11.4179 5.65784C11.9101 5.3905 12.4601 5.25684 13.0677 5.25684C13.7422 5.25684 14.3407 5.4391 14.8633 5.8037C15.3919 6.1683 15.7687 6.6817 15.9935 7.34403C16.2183 6.6817 16.5951 6.1683 17.1237 5.8037C17.6523 5.4391 18.2509 5.25684 18.9193 5.25684C19.5269 5.25684 20.0738 5.3905 20.5599 5.65784C21.0521 5.92524 21.444 6.29283 21.7357 6.7607C22.0273 7.22857 22.1732 7.76637 22.1732 8.37397C22.1732 8.77504 22.1003 9.1457 21.9544 9.48597C21.8086 9.82624 21.602 10.124 21.3346 10.3792H23.1485C23.7075 10.3792 24.1389 10.5098 24.4427 10.7711C24.7465 11.0324 24.8985 11.4426 24.8985 12.0016V14.0342C24.8985 14.5446 24.7587 14.9183 24.4791 15.1552C24.1997 15.3862 23.8077 15.5016 23.3034 15.5016H16.8503V10.3792H18.2265C18.9253 10.3792 19.4661 10.1969 19.8489 9.8323C20.2379 9.46777 20.4323 9.0363 20.4323 8.53803C20.4323 8.05197 20.2773 7.67217 19.9675 7.39877C19.6575 7.11923 19.2565 6.9795 18.7643 6.9795C18.2417 6.9795 17.7921 7.1739 17.4153 7.56284C17.0386 7.94564 16.8503 8.4591 16.8503 9.10317V10.3792H15.1276V9.10317C15.1276 8.4591 14.9423 7.94564 14.5716 7.56284C14.2009 7.1739 13.7513 6.9795 13.2227 6.9795C12.7305 6.9795 12.3294 7.11923 12.0195 7.39877C11.7096 7.67217 11.5547 8.05197 11.5547 8.53803C11.5547 9.0363 11.7461 9.46777 12.1289 9.8323C12.5178 10.1969 13.0616 10.3792 13.7604 10.3792H15.1276V15.5016H8.69272C8.18832 15.5016 7.79646 15.3862 7.51692 15.1552C7.23739 14.9183 7.09766 14.5446 7.09766 14.0342Z" fill="white"/>
</g>
<defs>
<linearGradient id="paint0_linear_11449_28773" x1="12.4644" y1="32" x2="12.4644" y2="0" gradientUnits="userSpaceOnUse">
<stop stop-color="#001B80"/>
<stop offset="1" stop-color="#325CFF"/>
</linearGradient>
</defs>
</svg>
