<svg width="32" height="33" viewBox="0 0 32 33" fill="none" xmlns="http://www.w3.org/2000/svg">
<g id="Frame 1000006527">
<path id="Vector" d="M27.2 0.5H4.8C2.14903 0.5 0 2.64903 0 5.3V27.7C0 30.351 2.14903 32.5 4.8 32.5H27.2C29.851 32.5 32 30.351 32 27.7V5.3C32 2.64903 29.851 0.5 27.2 0.5Z" fill="url(#paint0_linear_11523_43278)"/>
<path id="Vector_2" d="M8.35546 22.7282V17.1136H15.1276V25.1162H10.8346C10.0569 25.1162 9.44919 24.9126 9.01172 24.5055C8.57419 24.0984 8.35546 23.506 8.35546 22.7282ZM16.8503 25.1162V17.1136H23.6315V22.7282C23.6315 23.506 23.4127 24.0984 22.9753 24.5055C22.5438 24.9126 21.9392 25.1162 21.1615 25.1162H16.8503ZM7.09766 14.5342V12.5016C7.09766 11.9426 7.25259 11.5324 7.56246 11.2711C7.87846 11.0098 8.30686 10.8792 8.84766 10.8792H10.6615C10.3941 10.624 10.1845 10.3262 10.0325 9.98597C9.88672 9.6457 9.81379 9.27504 9.81379 8.87397C9.81379 8.26637 9.95959 7.72857 10.2513 7.2607C10.5429 6.79283 10.9319 6.42524 11.4179 6.15784C11.9101 5.8905 12.4601 5.75684 13.0677 5.75684C13.7422 5.75684 14.3407 5.9391 14.8633 6.3037C15.3919 6.6683 15.7687 7.1817 15.9935 7.84403C16.2183 7.1817 16.5951 6.6683 17.1237 6.3037C17.6523 5.9391 18.2509 5.75684 18.9193 5.75684C19.5269 5.75684 20.0738 5.8905 20.5599 6.15784C21.0521 6.42524 21.444 6.79283 21.7357 7.2607C22.0273 7.72857 22.1732 8.26637 22.1732 8.87397C22.1732 9.27504 22.1003 9.6457 21.9544 9.98597C21.8086 10.3262 21.602 10.624 21.3346 10.8792H23.1485C23.7075 10.8792 24.1389 11.0098 24.4427 11.2711C24.7465 11.5324 24.8985 11.9426 24.8985 12.5016V14.5342C24.8985 15.0446 24.7587 15.4183 24.4791 15.6552C24.1997 15.8862 23.8077 16.0016 23.3034 16.0016H16.8503V10.8792H18.2265C18.9253 10.8792 19.4661 10.6969 19.8489 10.3323C20.2379 9.96777 20.4323 9.5363 20.4323 9.03803C20.4323 8.55197 20.2773 8.17217 19.9675 7.89877C19.6575 7.61923 19.2565 7.4795 18.7643 7.4795C18.2417 7.4795 17.7921 7.6739 17.4153 8.06284C17.0386 8.44564 16.8503 8.9591 16.8503 9.60317V10.8792H15.1276V9.60317C15.1276 8.9591 14.9423 8.44564 14.5716 8.06284C14.2009 7.6739 13.7513 7.4795 13.2227 7.4795C12.7305 7.4795 12.3294 7.61923 12.0195 7.89877C11.7096 8.17217 11.5547 8.55197 11.5547 9.03803C11.5547 9.5363 11.7461 9.96777 12.1289 10.3323C12.5178 10.6969 13.0616 10.8792 13.7604 10.8792H15.1276V16.0016H8.69272C8.18832 16.0016 7.79646 15.8862 7.51692 15.6552C7.23739 15.4183 7.09766 15.0446 7.09766 14.5342Z" fill="white"/>
</g>
<defs>
<linearGradient id="paint0_linear_11523_43278" x1="12.4644" y1="32.5" x2="12.4644" y2="0.5" gradientUnits="userSpaceOnUse">
<stop stop-color="#002442"/>
<stop offset="1" stop-color="#0073CF"/>
</linearGradient>
</defs>
</svg>
