<svg width="32" height="33" viewBox="0 0 32 33" fill="none" xmlns="http://www.w3.org/2000/svg">
<g id="Frame 1000006529">
<path id="Vector" d="M27.2 0.5H4.8C2.14903 0.5 0 2.64903 0 5.3V27.7C0 30.351 2.14903 32.5 4.8 32.5H27.2C29.851 32.5 32 30.351 32 27.7V5.3C32 2.64903 29.851 0.5 27.2 0.5Z" fill="url(#paint0_linear_11523_43460)"/>
<path id="Vector_2" d="M10.0096 25.5179C9.7969 25.3599 9.66624 25.1473 9.61764 24.8799C9.5751 24.6186 9.61464 24.3087 9.73617 23.9502L11.6138 18.3812L6.82857 14.945C6.5187 14.7262 6.30297 14.4983 6.18144 14.2614C6.0599 14.0183 6.0417 13.7692 6.12677 13.514C6.21184 13.2649 6.37284 13.0795 6.60984 12.958C6.84684 12.8365 7.1567 12.7757 7.5395 12.7757H13.4002L15.1866 7.21579C15.3021 6.85119 15.454 6.57473 15.6424 6.38639C15.8368 6.19193 16.0647 6.09473 16.326 6.09473C16.5934 6.09473 16.8212 6.19193 17.0096 6.38639C17.204 6.57473 17.359 6.85119 17.4744 7.21579L19.2609 12.7757H25.1216C25.5044 12.7757 25.8142 12.8365 26.0512 12.958C26.2882 13.0795 26.4492 13.2649 26.5343 13.514C26.6194 13.7692 26.6012 14.0183 26.4796 14.2614C26.3581 14.4983 26.1424 14.7262 25.8325 14.945L21.0474 18.3812L22.925 23.9502C23.0464 24.3087 23.0829 24.6186 23.0343 24.8799C22.9918 25.1473 22.8642 25.3599 22.6515 25.5179C22.4388 25.6881 22.1988 25.7488 21.9314 25.7002C21.6641 25.6516 21.3785 25.5179 21.0747 25.2991L16.326 21.8083L11.5864 25.2991C11.2826 25.5179 10.997 25.6516 10.7296 25.7002C10.4622 25.7488 10.2222 25.6881 10.0096 25.5179Z" fill="white"/>
</g>
<defs>
<linearGradient id="paint0_linear_11523_43460" x1="12.4644" y1="32.5" x2="12.4644" y2="0.5" gradientUnits="userSpaceOnUse">
<stop stop-color="#002442"/>
<stop offset="1" stop-color="#0073CF"/>
</linearGradient>
</defs>
</svg>
