<svg width="17" height="16" viewBox="0 0 17 16" fill="none" xmlns="http://www.w3.org/2000/svg">
<mask id="mask0_1505_2918" style="mask-type:luminance" maskUnits="userSpaceOnUse" x="1" y="2" width="15" height="12">
<path d="M15.1654 2H1.83203V13.7208H15.1654V2Z" fill="white"/>
</mask>
<g mask="url(#mask0_1505_2918)">
<path d="M15.0291 2C14.2741 2.04229 13.6514 2.12687 13.1611 2.24723C12.6707 2.37085 12.266 2.53676 11.9546 2.75146C11.5966 2.99869 11.1957 3.35653 10.752 3.82823C10.3084 4.29992 9.66233 5.06765 8.81392 6.12815C8.2068 6.88612 7.48292 7.823 6.6384 8.93881C5.75885 10.1067 5.25292 10.6922 5.12449 10.6922C4.9766 10.6922 4.79368 10.4352 4.57963 9.92449C4.48234 9.69678 4.4045 9.5146 4.34223 9.38123C4.23326 9.16327 4.13986 9.02014 4.05424 8.95182C3.97251 8.88676 3.86354 8.85098 3.72733 8.85098C3.3109 8.85098 2.89059 8.97785 2.46638 9.23159C2.04217 9.48533 1.82812 9.76509 1.82812 10.0676C1.82812 10.2173 1.92542 10.5881 2.1239 11.1802C2.13558 11.229 2.15115 11.268 2.16282 11.3005C2.33406 11.834 2.48584 12.2374 2.61427 12.5139C2.7427 12.7905 2.87891 13.0117 3.0268 13.1841C3.20582 13.3825 3.40042 13.5191 3.61057 13.6005C3.82073 13.6818 4.08927 13.7208 4.41618 13.7208C5.18286 13.7208 5.77442 13.3728 6.18695 12.6798C6.31927 12.4521 6.43213 12.2732 6.52165 12.1431C7.73589 10.4092 9.063 8.7176 10.5107 7.06829C11.9585 5.41898 13.5074 3.82498 15.1615 2.27976L15.0252 2L15.0291 2Z" fill="#001B80"/>
</g>
</svg>
