<svg width="20" height="20" viewBox="0 0 20 20" fill="none" xmlns="http://www.w3.org/2000/svg">
<g clip-path="url(#clip0_2025_683)">
<path d="M10 19.25C4.8995 19.25 0.75 15.1005 0.75 10C0.75 4.8995 4.8995 0.75 10 0.75C15.1005 0.75 19.25 4.8995 19.25 10C19.25 15.1005 15.1005 19.25 10 19.25Z" fill="#36966F"/>
<path d="M10 1C14.9625 1 19 5.0375 19 10C19 14.9625 14.9625 19 10 19C5.0375 19 1 14.9625 1 10C1 5.0375 5.0375 1 10 1ZM10 0.5C4.7535 0.5 0.5 4.7535 0.5 10C0.5 15.2465 4.7535 19.5 10 19.5C15.2465 19.5 19.5 15.2465 19.5 10C19.5 4.7535 15.2465 0.5 10 0.5Z" fill="#36966F"/>
<path d="M8.01258 14.01L4.55908 10.5565L5.62008 9.49604L8.01258 11.8885L14.0591 5.84204L15.1201 6.90254L8.01258 14.01Z" fill="#303135"/>
</g>
<defs>
<clipPath id="clip0_2025_683">
<rect width="20" height="20" fill="white"/>
</clipPath>
</defs>
</svg>
