<?xml version="1.0" standalone="no"?>
<!DOCTYPE svg PUBLIC "-//W3C//DTD SVG 20010904//EN"
 "http://www.w3.org/TR/2001/REC-SVG-20010904/DTD/svg10.dtd">
<svg version="1.0" xmlns="http://www.w3.org/2000/svg"
 width="524.000000pt" height="178.000000pt" viewBox="0 0 524.000000 178.000000"
 preserveAspectRatio="xMidYMid meet">

<g transform="translate(0.000000,178.000000) scale(0.100000,-0.100000)"
fill="#000000" stroke="none">
<path d="M686 1173 c-4 -43 -9 -107 -13 -142 -4 -51 -3 -63 8 -59 10 3 17 37
24 116 l10 111 39 -90 c22 -49 45 -89 51 -89 7 0 30 38 51 85 l39 84 7 -42 c3
-23 7 -65 7 -94 1 -58 8 -83 23 -83 7 0 8 33 4 98 -9 140 -17 182 -31 182 -6
0 -29 -39 -50 -87 -21 -49 -41 -92 -45 -96 -4 -4 -26 35 -50 88 -24 52 -48 95
-55 95 -8 0 -15 -26 -19 -77z"/>
<path d="M990 1110 l0 -140 79 0 c44 0 83 5 86 10 4 6 -20 10 -64 10 l-71 0 0
55 0 55 50 0 c28 0 50 5 50 10 0 6 -22 10 -50 10 l-50 0 0 50 0 49 62 3 c38 2
63 8 66 16 3 9 -17 12 -77 12 l-81 0 0 -140z"/>
<path d="M1207 1243 c-3 -4 -8 -51 -11 -103 -4 -52 -9 -112 -12 -132 -5 -30
-2 -38 9 -38 12 0 17 21 22 98 3 53 7 104 9 112 1 8 21 -25 44 -73 25 -53 46
-87 54 -85 7 3 29 42 49 88 l37 84 6 -45 c3 -24 8 -73 11 -108 5 -65 10 -80
21 -68 9 8 -7 252 -17 268 -13 21 -30 -3 -70 -94 -18 -43 -36 -80 -40 -82 -3
-3 -24 37 -46 87 -37 86 -55 110 -66 91z"/>
<path d="M1504 1237 c-2 -7 -3 -69 -2 -138 l3 -124 61 -3 c53 -2 66 0 90 21
33 28 37 76 9 107 -14 16 -16 23 -7 32 19 19 14 76 -8 98 -16 16 -33 20 -80
20 -41 0 -62 -4 -66 -13z m136 -36 c14 -27 13 -37 -6 -55 -9 -10 -33 -16 -60
-16 l-44 0 0 45 0 45 50 0 c38 0 52 -4 60 -19z m12 -126 c17 -38 -3 -72 -46
-80 -62 -12 -71 -6 -74 53 l-3 52 56 0 c49 0 57 -3 67 -25z"/>
<path d="M1730 1110 l0 -140 80 0 c97 0 107 18 13 22 l-68 3 -3 53 -3 52 55 0
c31 0 56 5 56 10 0 6 -25 10 -55 10 l-55 0 0 50 0 50 65 0 c51 0 65 3 65 15 0
12 -15 15 -75 15 l-75 0 0 -140z"/>
<path d="M1930 1110 c0 -82 4 -140 10 -140 5 0 10 26 12 58 l3 57 36 3 c33 3
36 1 59 -48 24 -51 46 -77 56 -67 3 3 -8 31 -24 63 l-30 59 24 18 c18 13 24
28 24 57 0 56 -34 80 -111 80 l-59 0 0 -140z m135 86 c11 -17 13 -30 6 -48
-11 -30 -29 -38 -82 -38 l-39 0 0 55 0 55 50 0 c41 0 52 -4 65 -24z"/>
<path d="M2242 1227 c-43 -46 -19 -98 60 -130 44 -19 63 -48 48 -77 -15 -28
-53 -35 -91 -16 -39 19 -39 19 -39 1 0 -34 97 -48 138 -19 34 23 31 86 -5 112
-16 11 -38 23 -50 26 -56 18 -73 77 -27 98 19 9 33 9 56 0 37 -14 59 -4 33 15
-31 22 -98 17 -123 -10z"/>
<path d="M2430 1110 l0 -140 80 0 c97 0 107 18 13 22 l-68 3 -3 53 -3 52 55 0
c31 0 56 5 56 10 0 6 -25 10 -55 10 l-55 0 0 50 0 49 62 3 c38 2 63 8 66 16 3
9 -16 12 -72 12 l-76 0 0 -140z"/>
<path d="M2630 1110 c0 -87 4 -140 10 -140 6 0 10 27 10 61 l0 60 38 -3 c33
-3 40 -8 63 -51 29 -54 46 -74 55 -64 3 3 -7 31 -24 62 l-30 56 24 24 c32 32
32 78 -1 110 -20 21 -34 25 -85 25 l-60 0 0 -140z m128 98 c7 -7 12 -27 12
-45 0 -39 -21 -53 -79 -53 l-41 0 0 55 0 55 48 0 c26 0 53 -5 60 -12z"/>
<path d="M2820 1238 c2 -33 97 -263 110 -266 11 -2 29 33 63 125 49 132 55
157 36 151 -6 -2 -30 -54 -52 -116 -23 -62 -43 -112 -47 -112 -3 0 -23 50 -45
112 -23 61 -46 113 -53 116 -7 2 -12 -2 -12 -10z"/>
<path d="M3074 1237 c-2 -7 -3 -69 -2 -137 2 -88 7 -125 16 -128 9 -3 12 29
12 137 0 90 -4 141 -10 141 -6 0 -13 -6 -16 -13z"/>
<path d="M3204 1231 c-34 -21 -64 -75 -64 -115 0 -45 30 -105 65 -126 54 -33
160 -22 173 19 4 11 0 12 -14 6 -57 -24 -92 -28 -124 -15 -91 38 -91 182 0
220 31 13 54 11 117 -11 22 -8 15 16 -8 28 -36 19 -109 16 -145 -6z"/>
<path d="M3424 1237 c-2 -7 -3 -69 -2 -138 l3 -124 83 -3 c52 -2 82 1 82 8 0
6 -28 10 -70 10 l-70 0 0 55 0 55 55 0 c30 0 55 5 55 10 0 6 -25 10 -55 10
l-55 0 0 50 0 49 62 3 c38 2 63 8 66 16 6 18 -147 17 -154 -1z"/>
<path d="M3632 1227 c-43 -46 -20 -98 60 -131 22 -8 43 -26 50 -42 11 -23 10
-28 -11 -45 -28 -23 -47 -24 -85 -4 -35 18 -36 18 -36 0 0 -34 97 -48 138 -19
34 23 31 86 -5 112 -16 11 -38 23 -50 26 -56 18 -73 77 -27 98 19 9 33 9 56 0
37 -14 59 -4 33 15 -31 22 -98 17 -123 -10z"/>
<path d="M3870 1105 l0 -145 35 0 35 0 0 55 0 55 55 0 55 0 0 -55 0 -55 35 0
35 0 0 145 0 145 -35 0 -35 0 0 -61 0 -60 -52 3 -53 3 -3 58 -3 57 -34 0 -35
0 0 -145z"/>
<path d="M4150 1177 c0 -45 5 -78 13 -86 10 -11 10 -13 0 -7 -21 12 -16 -58 7
-86 63 -81 208 -49 226 49 7 38 1 50 -19 37 -7 -5 -5 -2 4 7 13 12 16 31 15
85 l-1 69 -35 0 c-38 0 -56 -29 -23 -38 17 -4 17 -5 1 -6 -19 -1 -26 -21 -8
-21 6 0 10 -11 10 -25 0 -13 7 -28 16 -33 14 -8 14 -10 0 -21 -9 -8 -16 -22
-16 -33 0 -10 -14 -33 -32 -51 -17 -18 -26 -25 -20 -16 10 14 7 16 -20 17 -18
0 -34 6 -36 11 -2 6 -11 11 -19 11 -11 0 -14 7 -9 25 5 18 1 27 -15 35 l-21
12 21 15 c15 10 20 21 16 34 -4 11 -2 19 4 19 18 0 12 18 -6 23 -17 4 -17 5 0
6 10 1 17 9 17 21 0 16 -7 20 -35 20 l-35 0 0 -73z m27 1 c-3 -7 -5 -2 -5 12
0 14 2 19 5 13 2 -7 2 -19 0 -25z m190 -5 c-3 -10 -5 -4 -5 12 0 17 2 24 5 18
2 -7 2 -21 0 -30z m0 -135 c-3 -8 -6 -5 -6 6 -1 11 2 17 5 13 3 -3 4 -12 1
-19z m-173 -20 c7 -5 4 -8 -6 -8 -12 0 -18 7 -17 23 0 15 2 17 6 7 3 -8 11
-18 17 -22z m173 -4 c-3 -3 -12 -4 -19 -1 -8 3 -5 6 6 6 11 1 17 -2 13 -5z
m-102 -24 c10 -11 14 -20 9 -20 -5 0 -15 9 -22 20 -7 11 -11 20 -9 20 2 0 12
-9 22 -20z"/>
<path d="M4420 1105 l0 -145 84 0 c69 0 88 4 110 21 33 26 36 82 6 114 -18 20
-19 23 -5 35 23 19 19 73 -8 98 -20 19 -35 22 -105 22 l-82 0 0 -145z m134 76
c12 -19 -7 -41 -35 -41 -24 0 -29 4 -29 25 0 21 5 25 29 25 17 0 32 -4 35 -9z
m11 -131 c0 -22 -5 -25 -37 -28 -36 -3 -38 -2 -38 28 0 30 2 31 38 28 32 -3
37 -6 37 -28z"/>
<path d="M4205 1121 c-3 -5 -1 -12 5 -16 5 -3 10 1 10 9 0 18 -6 21 -15 7z"/>
<path d="M4320 1110 c0 -5 4 -10 9 -10 6 0 13 5 16 10 3 6 -1 10 -9 10 -9 0
-16 -4 -16 -10z"/>
</g>
</svg>
